<?xml version="1.0" standalone="no"?>
<!DOCTYPE svg PUBLIC "-//W3C//DTD SVG 1.1//EN" "http://www.w3.org/Graphics/SVG/1.1/DTD/svg11.dtd" >
<svg>
<metadata>
Created by FontForge 20090914 at Fri Feb 24 00:51:51 2012
 By root
2003 Iconian Fonts - www.iconian.com
</metadata>
<defs>
<font id="#44FontShadow" horiz-adv-x="700" >
  <font-face 
    font-family="#44 Font Shadow"
    font-weight="400"
    font-stretch="normal"
    units-per-em="1000"
    panose-1="0 0 0 0 0 0 0 0 0 0"
    ascent="800"
    descent="-200"
    x-height="713"
    cap-height="717"
    bbox="-120 -306 930 978"
    underline-thickness="50"
    underline-position="-75"
    unicode-range="U+0020-U+2122"
  />
<missing-glyph horiz-adv-x="500" 
 />
    <glyph glyph-name=".notdef" horiz-adv-x="500" 
 />
    <glyph glyph-name=".null" horiz-adv-x="0" 
 />
    <glyph glyph-name="nonmarkingreturn" horiz-adv-x="500" 
 />
    <glyph glyph-name="FL0020h" unicode=" " horiz-adv-x="296" 
 />
    <glyph glyph-name="exclam" unicode="!" horiz-adv-x="330" 
d="M-2 34l26 -29l5 -7l6 -2l25 -25q24 -9 38 -9q15 0 35 5q6 2 7 2l33.5 8.5t16.5 3.5q22 8 34 20.5t18 28t7 32t1 33.5v40q0 17 -3 30.5t-14 24.5l-17 17q-6 13 -18 21t-35 13q-7 0 -22.5 -2.5l-32.5 -5.5t-32 -6t-21 -5v-1q-8 -2 -17.5 -7.5t-18.5 -11.5t-15 -11.5
t-6 -7.5v-149zM18 289l3 -6q2 -2 5 -4t7 -4l21 -21q3 -3 12.5 -8t13.5 -5q27 0 55 1.5t53 10t44 25t27 46.5q18 69 30.5 145.5t23.5 151.5q2 11 3 22t3 22v5q0 4 0.5 9.5t0.5 7.5q0 16 -10 26l-20 19q-4 10 -13 16.5t-20.5 10t-24 5t-22.5 1.5q-14 0 -41.5 -4.5t-57 -13
t-55.5 -20.5t-38 -28l-5 -49.5t-3 -38.5t-1.5 -36t-0.5 -42q0 -49 2 -91t5 -90q1 -30 3 -63zM28 19l-18 20v144q0 1 5.5 5t13.5 8.5t16.5 8.5t14.5 5q6 2 20 5t30 6l30 5.5t20 2.5q32 -6 41.5 -23t9.5 -41v-31q0 -16 -0.5 -33t-5 -32.5t-15 -28.5t-30.5 -20q-3 0 -18 -3.5
t-34 -8.5q-19 -4 -35.5 -6t-36.5 6zM30 290q-2 36 -3.5 66.5l-3 59t-2.5 57t-1 60.5q0 22 0.5 39.5t1.5 35.5t3 38.5l5 49.5q10 14 34.5 24.5t52.5 18t54 11t39 3.5q10 0 22.5 -1.5t23.5 -5t18 -10.5t7 -19q0 -4 -0.5 -12t-0.5 -9l-25.5 -169.5t-34.5 -170.5
q-7 -27 -25 -42.5t-41.5 -23t-51 -9t-52.5 -1.5q-3 0 -10.5 4t-9.5 6z" />
    <glyph glyph-name="FL0022h" unicode="&#x22;" horiz-adv-x="518" 
d="M246 503l16 -28l9 -18q4 -3 8 -4l24 -24q19 -10 36 -10q11 0 19.5 2.5l18.5 5.5l6 2l6 2q30 11 37 11q19 12 30 30t15.5 38.5t5.5 43t1 45.5v40q0 25 -4.5 44t-17.5 32l-15 15q-12 26 -44 35q-7 0 -21 -3.5t-29.5 -8l-29 -8.5t-19.5 -6v-1q-8 -5 -17.5 -12.5t-17 -14
t-12.5 -12t-5 -6.5v-190zM-2 503l16 -28l9 -18q4 -3 8 -4l24 -24q19 -10 36 -10q11 0 19.5 2.5l18.5 5.5h1q2 1 5 2l6 2q30 11 37 11q19 12 30 30t15.5 38.5t5.5 43t1 45.5v40q0 25 -4.5 44t-17.5 32l-15 15q-12 26 -44 35q-7 0 -21 -3.5t-29.5 -8l-29 -8.5t-19.5 -6v-1
q-8 -5 -17.5 -12.5t-17 -14t-12.5 -12t-5 -6.5v-190zM25 480l-15 26v187q0 1 5 6l11.5 11t14 11.5t13.5 6.5l18.5 6l26.5 8.5t27 7.5t19 3q28 -8 37 -30t9 -54v-40q0 -21 -0.5 -43t-5 -42t-14 -36.5t-26.5 -26.5q-3 0 -16.5 -4.5l-31.5 -10.5q-17 -5 -31.5 -7.5t-33.5 7.5z
M273 480l-15 26v187q0 1 5 6l11.5 11t14 11.5t13.5 6.5l18.5 6l26.5 8.5t27 7.5t19 3q28 -8 37 -30t9 -54v-40q0 -21 -0.5 -43t-5 -42t-14 -36.5t-26.5 -26.5q-3 0 -16.5 -4.5l-31.5 -10.5q-17 -5 -31.5 -7.5t-33.5 7.5z" />
    <glyph glyph-name="FL0023h" unicode="#" horiz-adv-x="832" 
d="M347 321q0 4 2 14v1q1 6 16 6h15q16 0 42 3q1 -4 1 -11v-8q0 -12 -1 -13q-7 -7 -14 -7h-3q-9 0 -18 -2.5t-18 -6.5q-2 -2 -5 -3l1 1q-13 -5 -15 -5h-1q-1 10 -1.5 17.5t-0.5 13.5zM66 311l-12 11l6 -6t6 -5q12 -12 23 -21t22 -14q2 -8 3 -16t2 -19l-15.5 -4t-12.5 -4
q-6 -2 -5 -2q-8 -2 -11 -3q-6 -2 -10 -3q-11 -3 -13 -3q1 0 -1.5 1t-11.5 6l-25 -92q17 -25 34.5 -43t34.5 -31l3 -2q16 -16 30.5 -26.5t29.5 -14.5q13 -45 31 -49l21 -21q6 -6 12 -6q2 0 4 0.5t4 0.5h6q3 1 10.5 5.5t16.5 10.5l14.5 9t9.5 6l22 9l31 12t29 11.5t17 7.5
q17 6 17 22v21q0 5 -0.5 8.5t-1.5 6.5l-2 10q0 3 1.5 6t6.5 7h49q3 -14 4.5 -23.5t3.5 -15.5q3 -29 10 -48t21 -24l22 -22q8 -7 17 -7q17 0 47.5 11.5t60.5 29.5q15 9 28 19l25 20q20 20 20 64v17q30 5 58.5 8t57.5 3q-13 144 -31 168q-2 4 -5 7t-5 6l-16 16q-2 2 -2 3h1
q-14 24 -32 24q-1 0 -1 -1h-1h-3q-3 -2 -6 -2.5t-5 -1.5q-5 -2 -10 -3.5t-14 -4.5q0 11 1 22t3 20q27 5 54 8t56 3q-13 144 -31 168q-2 4 -5 7t-5 6l-16 16q-2 2 -2 3h1q-14 24 -32 24q-1 0 -1 -1h-1h-3q-8 -3 -15.5 -5.5t-14.5 -3.5q0 17 -2.5 37.5t-9.5 52.5l-25 25
q-2 6 -2 8h-17q-1 0 -1.5 0.5t-1.5 0.5q-9 0 -28.5 -6.5t-43 -17t-48.5 -23.5t-45.5 -26t-33.5 -25t-13 -19q0 -14 1.5 -26t3.5 -23l1 -3q0 -2 -7 -3q-14 -2 -23.5 -4.5l-17.5 -4.5l-5 125l-27 27v6q-34 0 -62.5 -14t-55.5 -31q-23 -15 -44 -26.5t-32 -11.5q-2 0 -4 0.5
t-8 3.5l-63 -89q16 -11 30 -42l-19.5 -3.5t-13.5 -3.5q-9 -4 -18.5 -6.5t-14.5 -2.5l-14 7l-20 -98q16 -23 31.5 -39.5t30.5 -28.5zM316 281l33 -3q4 0 11 3t15.5 6t17 5.5t15.5 1.5q11 0 22 9q10 9 -2 90q-56 -14 -84 -12q-28 3 -34 -13q-6 -17 6 -87zM652 420
q-4 -18 -5 -44t1 -60l35 10.5t18.5 6t10.5 3.5t10 4q11 5 26 -18q16 -22 28 -154q-52 0 -116 -12q6 -61 -16 -82q-11 -10 -24 -19.5t-28 -18.5q-29 -17 -58.5 -28.5t-44.5 -11.5q-13 0 -19 18t-9 45q-2 13 -6 32t-11 45h-84q-9 -6 -12 -11.5t-2.5 -11.5t2 -12t1.5 -12v-21
q0 -9 -11 -14q-4 -2 -18.5 -7.5l-31 -12l-31.5 -12.5t-19 -8q-2 -1 -9.5 -5.5l-15.5 -9.5l-15.5 -9.5t-9.5 -5.5q-1 0 -5 -0.5t-6 -0.5q-17 0 -29 73q-59 -8 -124 82l20 73l1.5 -0.5t3.5 -0.5q5 0 16 3q5 2 21 6.5t42 12.5q0 13 -0.5 21t-1.5 15t-3.5 16l-6.5 24
q-52 0 -112 84l16 79l1.5 -0.5t3.5 -0.5q6 0 16.5 3t20.5 7q15 5 46 8q-15 47 -30 56l50 70q15 -4 39 8t50.5 28.5t53 31t47.5 14.5l6 -144l4 -21l1.5 -0.5t3.5 -0.5q12 0 25.5 6.5t45.5 10.5q23 2 17 23l-3.5 23.5t-1.5 20.5t26.5 27.5t61 35t67 30t45.5 12.5q2 0 5.5 -0.5
t4.5 -0.5q7 -29 8.5 -49.5t1.5 -40.5l4 -40l29 6q6 0 16.5 3t20.5 7q11 5 26 -18q16 -22 28 -154q-53 0 -108 -12z" />
    <glyph glyph-name="FL0024h" unicode="$" horiz-adv-x="518" 
d="M7 212q0 -11 6 -20t14 -18q3 -5 5 -7.5t7 -7.5l10 -18t6 -12q6 -14 11.5 -24t19.5 -16l18 -17q10 -10 29.5 -14.5t61.5 -4.5h7q1 1 3 1q3 0 4 1q2 -15 6.5 -29.5t12.5 -28.5q5 0 6 -1l26 -26q12 -2 22.5 -3t19.5 -1q61 0 122 35q-2 28 -7.5 52t-15.5 46q5 2 11 5t14 8
l14.5 8.5t18.5 10.5q29 16 45 37t16 53q0 42 -8 68.5t-25 43.5l-14 13q-19 32 -57 45t-98 20q12 2 26 2.5t29 2.5l36.5 2t31 4t21.5 9t8 17q0 9 -2.5 24t-8.5 32t-14.5 34t-20.5 29l-14 13q-10 17 -23.5 27.5t-30.5 10.5h-24h-11q-5 0 -10 -1v4q0 12 -1.5 29t-3.5 36l-26 26
q0 2 -0.5 3.5t-0.5 3.5q-6 1 -11 1.5t-9 0.5h-15q-29 0 -64 -8t-80 -25q0 -2 -0.5 -6t-0.5 -7v-11q0 -48 21 -102q-123 -58 -123 -155q0 -22 7 -37.5t16 -29.5q1 -2 2 -3t2 -3l-1 1q7 -12 15.5 -21t17.5 -16l19 -18q11 -12 26 -18.5t32 -10.5h-34h-12h-29h-16q-7 0 -15 -1
q-15 -11 -17.5 -18.5t-2.5 -19.5zM19 212q0 9 1.5 14.5t9.5 11.5q31 1 56 0.5t47 0.5t42.5 5.5t44.5 15.5q8 3 9.5 5.5t1.5 8.5q0 2 -0.5 4.5l-0.5 2.5q-29 3 -57 3.5t-53.5 4t-46 13t-33.5 30.5q-11 18 -21 36.5t-10 38.5q0 95 127 149q-28 64 -24 124q91 36 156 28
q7 -60 0 -108q28 6 88 6q19 0 33 -16t23.5 -37t14 -42.5t4.5 -32.5q0 -10 -14 -14.5t-35.5 -6.5t-46.5 -3t-46.5 -3.5t-35.5 -9t-14 -18.5q0 -5 0.5 -11.5t10.5 -6.5q62 -5 106 -11t71.5 -21t40.5 -43.5t13 -78.5q0 -29 -15 -48.5t-41 -33.5l-39 -21.5t-26 -15.5
q19 -41 24 -96q-70 -40 -148 -28q-19 40 -15 95l-31.5 -6.5t-19.5 -4.5h-5q-39 0 -57.5 4t-27.5 13t-13.5 23t-16.5 33q-6 11 -18.5 23t-12.5 24z" />
    <glyph glyph-name="FL0025h" unicode="%" horiz-adv-x="568" 
d="M494 229l-1 1l-7 8q-18 6 -33 6t-27.5 -2.5l-22.5 -4.5q-6 -2 -11 -3t-6 -1h-6q-22 -7 -34 -22q74 160 181 291q9 29 10.5 52.5t1.5 44.5v6q0 20 -2 42.5t-10 57.5l-25 25q-2 6 -2 8h-17q-1 0 -1.5 0.5t-1.5 0.5q-14 0 -48 -12.5t-70 -31.5q-35 -19 -54.5 -33t-29.5 -34
q-8 -10 -24.5 -35.5t-40.5 -68.5v23q0 11 -2 19.5t-9 15.5l-19 19q-4 11 -14.5 18t-31.5 10q-5 0 -17 -1.5l-25 -3t-24.5 -3.5t-15.5 -3v-1q-6 -2 -14 -6.5t-15 -9t-11.5 -8.5t-4.5 -5v-96l16 -15l1 -1l7 -8l6 -2l25 -25q18 -6 32 -6t26.5 2.5l22.5 4.5q11 4 18 4h5h1
l-3.5 -7l-3.5 -7l-147 -362q-1 -3 -1 -9v-9q0 -53 45 -81l14 -14q10 -11 24 -18q4 1 7.5 2l3.5 1h4q3 1 10.5 5.5t16.5 10.5l14.5 9t9.5 6q13 8 28 13t33 12q29 11 38 16q15 5 17 19l7 22l22.5 65.5t25.5 64.5q-1 -3 -1 -8v-8v-40q0 -16 4.5 -28t20.5 -19l19 -18
q11 -11 35 -14q5 0 16.5 1.5t24.5 3t24 3.5t15 3q6 1 13.5 4.5t14 8t11.5 8.5t5 6v95l-27 27v4zM485 221l13 -12v-91q0 -2 -14 -9t-24 -9q-4 -1 -14.5 -3t-22.5 -3.5l-23.5 -3t-15.5 -1.5q-24 3 -31 14t-7 26v20v20q0 17 8 30.5t30 21.5q4 -1 14.5 2t24 6t28.5 3.5t28 -4.5z
M35 485l-13 12v91q0 2 14 9t23 9q4 1 15 3t23.5 3.5t23.5 3t15 1.5q24 -3 31 -14t7 -26v-20v-21q0 -15 -8 -29t-30 -22q-4 1 -14.5 -2t-24 -6t-28.5 -3.5t-28 4.5zM28 68l144 356q94 176 116 198q8 17 26.5 30.5t52.5 31.5q35 18 67.5 30.5t45.5 12.5q2 0 5.5 -0.5t4.5 -0.5
q7 -29 8.5 -50t1.5 -41q0 -21 -1 -44.5t-11 -54.5q-161 -197 -240 -448l-7 -22q0 -9 -11 -14q-4 -2 -18.5 -7.5t-31 -12.5l-31.5 -13t-19 -8q-2 -1 -9.5 -5.5l-15.5 -9.5l-15.5 -9.5t-9.5 -5.5q-1 0 -3.5 -0.5l-7.5 -1.5q-48 29 -41 89z" />
    <glyph glyph-name="FL0026h" unicode="&#x26;" horiz-adv-x="650" 
d="M278 203q0 9 1 12q0 11 6 14.5t15 6.5h-1l1 1h2q8 2 11 2h11q4 0 8.5 -0.5t9.5 -1.5v-1q0 -12 -3.5 -24t-8.5 -21.5t-12.5 -16.5t-14.5 -8q-3 -1 -8 -1q-6 0 -10 2q-7 14 -7 36zM312 732q-4 0 -7 -0.5t-6 -0.5h-12q-7 -1 -14 -1h-11h-18h-108q-23 -13 -47.5 -31
t-45 -39.5t-34 -46t-13.5 -50.5q0 -22 6.5 -51t18.5 -58t28.5 -55.5t36.5 -42.5q1 -2 8 -7l2 -2q-20 -11 -30.5 -18.5t-20.5 -15.5q-10 -9 -18 -22t-14 -27t-10 -28t-6 -25v-6q0 -2 -0.5 -5t-0.5 -6q0 -13 4.5 -34.5t21.5 -52.5q17 -32 31.5 -50.5t32.5 -29.5l11 -10
q5 -6 11.5 -10.5t13.5 -8.5q18 -10 42 -20.5t63 -17.5q84 0 188 9q11 -1 23.5 -5t24.5 -12q1 -2 7 -8l2 2l2 -2l26 -26l147 107l-29 28l3 2l-36 35q25 50 25 95q0 23 -10 49q-25 41 -44 60l-4 4l-14 17t-11 12h1q-2 2 -4 3t-4 3l36 49l-28 28l3 4l-181 65l-34 -53
q-8 5 -15.5 8.5t-13.5 7.5q-9 14 -14.5 26.5t-5.5 19.5q0 11 7 15t18 4q15 6 33 6q15 0 31 -4q2 -1 8 -1q22 0 44 34q16 25 16 61q0 17 -3 34q-4 24 -20 41l-16 15q-20 38 -73 39zM312 720q59 -1 70 -55q11 -53 -12 -88t-42 -29q-42 8 -66 -2q-14 0 -24 -6t-10 -22
q0 -12 12.5 -35t30.5 -46l19 -11l30 -18l36 56l156 -56l-44 -60l27.5 -14t18.5 -11q8 -5 20.5 -22t29.5 -45q21 -57 -20 -140l60 -60l-132 -96q-41 47 -88 48q-104 -9 -185 -9q-38 7 -61.5 17t-41.5 20q-17 10 -31.5 27t-31.5 49q-22 40 -23.5 63.5t-0.5 32.5q2 10 6 23.5
t9.5 27t12.5 25.5t16 20q12 10 26 19t46 25l-24 12.5t-12 8.5q-18 15 -32.5 39t-25.5 51.5t-17 55t-6 48.5q0 24 12.5 46.5t32 43t42.5 37t44 28.5h10h30h10h55q11 0 28 0.5t40 1.5zM270 276q-12 -4 -21 -8.5t-9 -20.5q-3 -21 2.5 -40.5t17.5 -35.5q13 -15 24.5 -17t23.5 0
q10 1 19 10.5t15.5 23t9.5 29.5t1 30q0 16 -6.5 18.5t-20.5 8.5q-29 8 -56 2z" />
    <glyph glyph-name="FL0027h" unicode="'" horiz-adv-x="282" 
d="M-2 503l16 -28l9 -18q4 -3 8 -4l24 -24q19 -10 36 -10q12 0 20.5 2.5l18.5 5.5q2 1 5 2l6 2q30 11 37 11q19 12 30 30t15.5 38.5t5.5 43t1 45.5v40q0 25 -4.5 44t-17.5 32l-15 15q-12 26 -44 35q-7 0 -21 -3.5t-29.5 -8l-29 -8.5t-19.5 -6v-1q-8 -5 -17.5 -12.5t-17 -14
t-12.5 -12t-5 -6.5v-190zM25 480l-15 26v187q0 1 5 6l11.5 11t14 11.5t13.5 6.5l18.5 6l26.5 8.5t27 7.5t19 3q28 -8 37 -30t9 -54v-40q0 -21 -0.5 -43t-5 -42t-14 -36.5t-26.5 -26.5q-3 0 -16.5 -4.5l-31.5 -10.5q-17 -5 -31.5 -7.5t-33.5 7.5z" />
    <glyph glyph-name="FL0028h" unicode="(" horiz-adv-x="422" 
d="M210 249l-6 79q0 158 14 178q7 9 14 17t14 15q13 13 50 30q12 40 19 86t9 98q-43 4 -73.5 6t-47.5 2q-14 0 -29.5 -10l-31.5 -21t-32 -18.5t-30 -2.5l-23.5 -52t-18.5 -45t-14.5 -44t-10.5 -48q-2 -17 -3.5 -50t-1.5 -84v-113q1 -3 1 -14v-14q0 -15 0.5 -28t0.5 -18
q11 -63 50 -117.5t94 -93.5q54 -39 98 -53t44 108q0 123 -16 136q-8 6 -20 17t-23 22.5l-19 20.5t-8 11zM179 -50l-25 19.5t-23 20.5q-51 39 -86.5 91.5t-46.5 113.5v29q0 5 -0.5 10t-0.5 10v14q0 8 -1 11v116q0 52 1.5 85t3.5 50q8 48 22 86.5t36 85.5l2.5 7.5t3.5 7.5v-1
q0 2 3 8.5t5 8.5l19 -5q11 0 22.5 7t24.5 16l1 1q1 0 2 1q15 11 31 20t30 9q34 0 133 -9v-6l27 -27q-2 -58 -9 -107t-20 -91q-40 -18 -52 -30q-6 -6 -13 -14t-14 -17q-12 -17 -12 -172l6 -79l20 -18.5t18 -14.5q6 -8 8 -13l21 -20q19 -19 19 -142q0 -118 -45 -118
q-9 0 -11 1q-20 7 -45.5 20.5t-54.5 34.5zM272 194l-21 20l8.5 -8.5t12.5 -11.5z" />
    <glyph glyph-name="FL0029h" unicode=")" horiz-adv-x="422" 
d="M116 329l-6 -80q0 -2 -7.5 -9.5t-18 -17l-22 -19.5l-18.5 -16q-20 -17 -20 -145q0 -107 36 -119l20 -20q9 -9 21 -9q9 0 11 1q21 7 46.5 20t54.5 35q57 40 96.5 95t51.5 121v14q0 7 0.5 15.5t0.5 18.5v26q1 3 1 36v79q0 52 -1.5 85t-3.5 50q-8 47 -22 85t-36 86
q-2 5 -6.5 14.5t-6.5 14.5l-25 25q-3 4 -3 9q-8 -3 -10 -3.5t-8 -2.5q-9 0 -22 7t-27 17q-2 0 -2 1q-1 0 -3 2l-2 2h-1v1q-14 9 -27.5 16.5t-27.5 7.5q-36 0 -133 -9q2 -61 9 -112t20 -91l4 -2t5 -2l24 -24q11 -5 19.5 -9.5l15.5 -8.5l12 -15q11 -17 11 -170zM122 249l6 79
q0 158 -14 178q-7 9 -14 17t-14 15q-13 13 -50 30q-12 40 -19 86t-9 98q43 4 73.5 6t47.5 2q13 0 29 -10l32 -21t32 -18.5t30 -2.5l23.5 -52t18.5 -45t14.5 -44t10.5 -48q2 -17 3.5 -50t1.5 -84v-79q0 -31 -1 -34v-28q0 -15 -0.5 -28t-0.5 -18q-11 -63 -50 -117.5t-94 -93.5
q-28 -20 -52.5 -33t-46.5 -20q-43 -13 -43 108q0 123 16 136q8 6 20 17t23 22.5l19 20.5t8 11z" />
    <glyph glyph-name="FL002Ah" unicode="*" horiz-adv-x="342" 
d="M17 643l45 -25l-52 -82q0 -2 6.5 -6.5t16 -9.5t20 -10t18.5 -7q7 -1 36 31t38 1q10 -30 26.5 -42.5t24.5 -12.5q39 8 50.5 28t11.5 49l-68 42q-4 25 86 25l-29 66q-86 -44 -51 39q-6 0 -25 15q-19 16 -64 4l-6 -68l-80 67zM320 585q-27 0 -46 -1.5t-30 -3.5l26 -15v-5
l27 -27q0 -35 -13 -58.5t-56 -33.5q-6 0 -16 4.5t-21 15.5l-14 14q-17 9 -30 27q-1 -1 -1.5 -2t-1.5 -2q-31 -34 -42 -34h-3q-7 1 -16.5 5.5t-18.5 10.5t-17 12t-12 11l-16 15q-9 8 -15 14.5t-6 8.5l41 66l-1 1l-22 21l-11 7l5 136l81 -68l5 55q22 6 45 6t43 -17
q13 -7 31 -7l-3 -6l28 -27q-2 -4 -3 -6.5t-2 -4.5q7 3 18 9l5 -11l23 -23z" />
    <glyph glyph-name="FL002Bh" unicode="+" horiz-adv-x="450" 
d="M51 312q25 -25 73 -20l16 -116q108 -20 144 40l-4 92q27 1 43 5t24.5 8.5t11 9t2.5 7.5q0 8 2 14t2 9q0 60 -32 87q-31 28 -65 32l-4 108q-82 24 -156 -8l8 -116q-8 -2 -23 -7l-38 -13q-43 -40 -4 -132zM43 304l-4 5q-19 45 -19 79q0 41 28 66q16 5 30.5 10l25.5 9
l-8 115q50 22 99 22q18 0 38.5 -3t42.5 -10v-5l27 -27l3 -85l18 -10t17 -13q12 -11 20 -25l8 -7h-1l5 -4q31 -31 31 -90q0 -8 -2 -13t-2 -10q0 -3 -2.5 -9t-11 -11.5t-24.5 -10.5t-43 -7l4 -87q-32 -51 -104 -51q-24 0 -57 6l-26 25q-1 1 -4 1q-2 0 -3 1l-13 88
q-26 6 -41 23l-14 14q-12 5 -18 14z" />
    <glyph glyph-name="FL002Ch" unicode="," horiz-adv-x="268" 
d="M18 13l10 -15q3 0 4 -1q1 0 1.5 -0.5t1.5 -0.5l24 -24q-1 -2 -2 -5t-2 -7l-2 -4q-10 -24 -10 -50q0 -11 1.5 -18.5t3.5 -15.5q8 -20 24 -26l19 -19q10 -10 24 -10q21 0 48.5 25t53.5 74q13 35 19 56.5t7 28.5q1 8 1.5 17.5t1.5 19.5q2 16 3 32t1 31v46q0 17 -3.5 32
t-14.5 26l-2 1h1l-16 15q-6 14 -18 23t-34 13q-7 0 -22.5 -2.5t-32 -5.5t-31.5 -6.5t-21 -5.5q-7 -2 -17 -7.5t-19 -12t-15.5 -12.5t-6.5 -9v-160zM28 20l-18 21v155q0 2 5.5 6t13.5 8.5t16.5 8.5t14.5 6t20 5.5t30 6.5l30 5.5t20 2.5q32 -6 41.5 -24.5t9.5 -43.5v-34
q2 -24 -1.5 -54.5t-5.5 -56.5q0 -16 -24 -80q-18 -35 -37 -57t-35.5 -31.5t-29 -6t-18.5 18.5q-12 33 4 76q16 45 4 46q-6 1 -14 3.5t-18 6.5z" />
    <glyph glyph-name="FL002Dh" unicode="-" horiz-adv-x="450" 
d="M40 308v-2q11 -20 26 -27l18 -17q15 -15 37 -15h8q3 0 9 2h1q32 10 78.5 14t91.5 7q26 2 49 4t41 4v15q0 3 0.5 7t0.5 8q0 5 2 10t2 13q0 61 -29 90l-13 13q-16 28 -48 41t-89 13q-45 0 -78 -9q-1 0 -7 -2q-1 -1 -5 -1q-3 0 -4 -1q-17 -5 -37 -8.5t-45 -11.5
q-29 -26 -29 -67q0 -32 20 -80zM51 312q-39 92 4 132l55.5 13.5l39.5 9.5q33 9 75 9q77 0 108.5 -27.5t31.5 -87.5q0 -3 -2 -9t-2 -14q0 -7 -0.5 -13t-0.5 -9q-21 -3 -54.5 -5t-70 -5t-71 -7t-58.5 -11q-34 -10 -55 24z" />
    <glyph glyph-name="period" unicode="." horiz-adv-x="268" 
d="M-2 36l26 -30l6 -8q1 -1 3 -1t3 -1l25 -25q11 -5 19.5 -6.5t16.5 -1.5q11 0 21.5 2t21.5 5q15 5 27.5 7.5t19.5 4.5l1 1h1h1q22 8 34 21.5t18 30t7 34.5t1 35v43q0 17 -3.5 32t-14.5 26l-2 1h1l-16 15q-6 14 -18 23t-34 13q-7 0 -22.5 -2.5t-32 -5.5t-31.5 -6.5t-21 -5.5
q-7 -2 -17 -7.5t-19 -12t-15.5 -12.5t-6.5 -9v-160zM28 20l-18 21v155q0 2 5.5 6t13.5 8.5t16.5 8.5t14.5 6t20 5.5t30 6.5l30 5.5t20 2.5q32 -6 41.5 -24.5t9.5 -43.5v-34q0 -17 -0.5 -35t-5 -35t-15 -30.5t-30.5 -20.5q-3 -1 -18 -4.5t-34 -8.5t-35.5 -7t-36.5 6z" />
    <glyph glyph-name="FL002Fh" unicode="/" horiz-adv-x="568" 
d="M163 432l-147 -362q-1 -3 -1 -9v-9q0 -53 45 -81l14 -14q10 -11 24 -18q4 1 7.5 2l3.5 1h4q3 1 10.5 5.5t16.5 10.5l14.5 9t9.5 6l1 1q13 8 27.5 12.5t32.5 11.5q29 11 38 16q15 5 17 19l7 22q78 249 240 447q9 29 10.5 52.5t1.5 44.5v6q0 20 -2 42.5t-10 57.5l-25 25
q-2 6 -2 8h-17q-1 0 -1.5 0.5t-1.5 0.5q-14 0 -48 -12.5t-70 -31.5q-35 -19 -54.5 -33t-29.5 -34q-12 -14 -41 -62.5t-74 -133.5zM28 68l144 356q94 176 116 198q8 17 26.5 30.5t52.5 31.5q35 18 67.5 30.5t45.5 12.5q2 0 5.5 -0.5t4.5 -0.5q7 -29 8.5 -50t1.5 -41
q0 -21 -1 -44.5t-11 -54.5q-161 -197 -240 -448l-7 -22q0 -9 -11 -14q-4 -2 -18.5 -7.5t-31 -12.5l-31.5 -13t-19 -8q-2 -1 -9.5 -5.5l-15.5 -9.5l-15.5 -9.5t-9.5 -5.5q-1 0 -3.5 -0.5l-7.5 -1.5q-48 29 -41 89z" />
    <glyph glyph-name="FL0030h" unicode="0" 
d="M268 321q0 45 27 71.5t67 44.5q6 0 8 1q2 0 2.5 0.5t2.5 0.5q34 0 54 -10q11 -20 11 -52q0 -63 -34 -98.5t-91 -35.5q-21 0 -34 9q-8 15 -10.5 32.5t-2.5 36.5zM-2 357q0 -3 0.5 -5.5t0.5 -4.5v-9q1 -16 1.5 -26.5t2.5 -21.5t6 -27t12 -43q13 -33 23 -56l18 -40
t15.5 -28.5t15.5 -21.5q5 -5 10.5 -9l10.5 -8l11 -11q19 -18 48 -33.5t61 -27t65 -18t61 -6.5h10q8 0 11 1q14 1 33 4t39 8.5t39 13t33 17.5l4 4l15.5 15l22.5 21q15 15 33.5 43t33.5 60l20 46t18 47.5t13 51t5 56.5q0 70 -27 139.5t-78 120.5l-3 2q-36 48 -86 76.5
t-111 28.5q-43 0 -88 -13t-88 -37t-81.5 -57t-67 -73t-45.5 -85.5t-17 -93.5zM229 351q0 -22 4.5 -43.5t14.5 -38.5t26.5 -27.5t40.5 -10.5q61 0 99 39.5t38 106.5q0 57 -27.5 79t-79.5 22q-2 0 -7.5 -1t-7.5 -1q-42 -20 -71.5 -47.5t-29.5 -77.5zM10 357q0 46 16.5 90
t44 82.5t65 70.5t79 55t85.5 36t85 13q60 0 109 -29.5t84 -76t54 -104.5t19 -115q0 -59 -17 -105t-38 -92q-14 -31 -32 -58.5t-33 -41.5l-26 -25l-15 -15q-14 -10 -32 -17t-37.5 -12t-38 -8t-32.5 -4q-27 -3 -61.5 2.5t-69.5 17t-66.5 28t-52.5 35.5q-7 10 -13.5 20.5
t-14 25.5t-17 36.5t-21.5 51.5l-13.5 49t-6.5 29.5t-2.5 25t-1.5 35.5z" />
    <glyph glyph-name="one" unicode="1" horiz-adv-x="294" 
d="M32 390v-350l10 -54l1.5 -1t2.5 -1t3 1t3 1q3 1 8.5 4l12 6.5l12 6.5t7.5 4q5 3 27 14.5l46.5 25l44.5 24.5t22 13v16q0 13 0.5 27.5t0.5 26.5v18q0 141 -7 275.5t-7 275.5q-21 0 -53.5 -8.5t-63 -25t-54 -39.5t-26.5 -52v-17q0 -12 -0.5 -24.5t-0.5 -25.5v-15v-62
q0 -31 11 -64zM20 37v351q-11 30 -11 66v77q0 4 0.5 7.5t0.5 6.5v54q3 31 29 56.5t61 43t71.5 27t59.5 9.5v-6l27 -27q0 -72 2 -144t5 -141q2 -69 4.5 -136t2.5 -139v-44q0 -8 -0.5 -14.5t-0.5 -13.5v-18q-6 -8 -29.5 -20.5l-50.5 -26.5l-39 -21.5t-25 -14.5l-8 -4t-12.5 -7
t-13 -7t-9.5 -4h-1l-3 -1.5t-4 -0.5t-4.5 0.5t-8.5 5.5l-22 22q-1 1 -3.5 2.5l-7.5 4.5z" />
    <glyph glyph-name="FL0032h" unicode="2" horiz-adv-x="518" 
d="M19 545q0 -11 1.5 -18.5t9.5 -16.5q32 -2 56.5 -1.5t46.5 -1.5t42.5 -7.5t44.5 -19.5q8 -5 9.5 -8.5t1.5 -11.5q0 -2 -0.5 -5.5t-0.5 -4.5q-29 -4 -57 -4.5t-53.5 -5.5t-46 -18t-33.5 -42l-21 -51t-10 -53l15 -264q120 -12 332 -12q19 0 33 22.5t23.5 52t14 59t4.5 43.5
t-14 20.5t-35.5 9.5t-46.5 4t-46.5 5t-35.5 12.5t-14 25.5q0 7 0.5 15.5t10.5 10.5q62 5 106 13t71.5 29.5t40.5 61t13 107.5q0 40 -15 67t-40.5 46.5t-58 34.5l-67.5 31q-8 4 -24.5 9.5l-35.5 11.5t-38 11t-32 8h-5q-39 0 -57.5 -5.5t-27.5 -17.5t-13.5 -31t-16.5 -46
q-6 -14 -18.5 -31t-12.5 -34zM7 545q0 14 5 24.5t11 20.5v-1q1 2 1.5 2.5t1.5 2.5q5 6 8 11t5 10q4 8 7.5 19t7.5 22q6 17 11 29.5t16 20.5t30 12t54 4h8q13 -3 32 -8t38.5 -11t36.5 -12t25 -10l12 -6q3 -2 6.5 -2.5t6.5 -2.5q45 -20 82 -41t59 -55l7 -7q20 -20 31 -45
t11 -61q0 -71 -13.5 -112t-42 -63.5t-73.5 -31t-108 -13.5q-5 -2 -5 -10q13 -3 30 -4.5t35 -3.5q35 -2 63 -8t35 -27l19 -18q-1 0 -1.5 0.5l-0.5 0.5l3 -2q9 -9 9 -22q0 -15 -5 -45.5t-15.5 -62t-26.5 -55t-37 -23.5q-106 0 -190.5 3t-150.5 10l-27 26q-2 0 -3 0.5t-3 0.5
l-15 274q0 27 8 50t19 47q1 1 1 3t1.5 5l2.5 5q11 25 27 39t35.5 21t41.5 9t45 3h15h9t8 1q-23 8 -45 9.5t-48 1.5q-13 0 -28.5 0.5t-32.5 1.5l-27 26q-1 0 -2 0.5t-2 0.5q-14 14 -16 23.5t-2 23.5zM475 569l-2 2z" />
    <glyph glyph-name="FL0033h" unicode="3" horiz-adv-x="574" 
d="M243 450q-27 0 -63 3t-54 -29t52 -110q12 -4 21 -6.5t14 -3.5q12 -1 29 -24q18 -23 30.5 -46t12.5 -35q0 -16 -9.5 -18.5t-23.5 -2.5q-30 0 -47 17q-17 20 -53 33q-144 8 -128 -80q17 -89 56 -102l40.5 -13.5t40.5 -11.5l34.5 -8t18.5 -5q31 -9 55 -9h55h10h30h10
q21 12 44 28.5t42.5 37t32 43t12.5 46.5q0 21 -6 48.5t-17 55t-25.5 51.5t-32.5 39q-5 5 -12 8.5l-24 12.5q32 16 46 25t26 19q9 8 16 20t12.5 25.5t9.5 26.5t6 24q1 9 -0.5 32.5t-23.5 63.5q-17 32 -31.5 49t-32.5 27q-17 10 -40.5 20t-61.5 17q-81 0 -132 -1t-81 -9
q-29 -8 -23 -64t98 -62q25 -1 44.5 -11t32 -25.5t18 -35t2.5 -40.5q0 -16 -8.5 -18t-21.5 -2zM243 462h4q6 0 10 1.5t4 9.5q1 3 1 12q0 27 -15 48q-8 4 -18.5 6.5t-23.5 3.5q-62 4 -87 30l-17 16q-32 20 -35 54q-1 3 -1 9v9q0 51 33 59q28 8 73.5 9t117.5 1h28q39 -7 63 -17
t42 -21h-1q13 -8 24 -18t22 -26l11 -10q21 -21 40 -59q17 -31 21.5 -52t4.5 -34q0 -5 -0.5 -9.5t-0.5 -6.5q-5 -23 -16.5 -52.5t-30.5 -48.5q-10 -8 -20.5 -15.5t-30.5 -18.5q6 -6 12 -15l10 -9q17 -17 31 -41.5t24.5 -51.5t16 -53.5t5.5 -47.5q0 -26 -13.5 -50t-33.5 -45
t-44.5 -38.5t-46.5 -30.5h-107q-26 0 -57 9q-1 -1 -8.5 1.5t-14.5 4.5q-6 2 -13.5 3.5t-16.5 3.5q-20 5 -41 11.5t-41 13.5q-12 4 -23 15l-15 14q-40 19 -57 109q-1 5 -1.5 9.5t-0.5 10.5q0 76 120 76h10q3 0 6.5 -0.5t6.5 -0.5q44 -17 64 -41q12 -9 35 -9q9 0 15 1t6 8
q0 10 -10 28.5t-25 38.5q-12 1 -23 6q-2 1 -6.5 2.5t-6.5 2.5l-23 23q-2 0 -2 1q-2 1 -3.5 1.5t-3.5 2.5q-60 66 -60 104q0 13 5 21q21 35 59 35h7q36 -3 62 -3z" />
    <glyph glyph-name="FL0034h" unicode="4" horiz-adv-x="616" 
d="M269 549q-2 39 -6.5 75t-18.5 50l-19 18q-10 22 -28 22q-16 0 -47.5 -13t-63 -32t-55 -41t-23.5 -41q0 -105 18 -211l19 -116q2 0 3 -0.5t3 -0.5l27 -26q39 -2 77.5 -3.5t67.5 -1.5q32 0 58 1.5t47 3.5v-236h6l27 -27q31 0 58.5 14t54.5 31l43.5 25.5t34.5 11.5
q2 0 3.5 -0.5t6.5 -2.5l48 62q-5 19 -10.5 50t-11 71t-9.5 87.5t-6 98.5q-3 45 -6.5 87.5t-9 78.5t-13 62t-18.5 37l-18 18q-13 22 -27 22h-3q-1 0 -2 -0.5t-3 -0.5h-6l-3 -1.5t-5 -3.5l1 1q-5 -2 -10.5 -5.5l-10.5 -6.5q-2 -1 -2.5 -1.5t-2.5 -1.5q-4 -2 -7 -5l-5 -5v1
q-6 -2 -26 -11t-39 -15l-26 -9.5t-16 -6.5q-18 -8 -18 -25v-21q0 -26 10 -47h-1q1 -2 2 -5.5t2 -5.5q3 -10 6 -19t3 -16q0 -17 -13.5 -26t-31.5 -11q-2 14 -2.5 33.5t-2.5 39.5zM570 142l-40 -52q-15 4 -39 -8t-50.5 -28.5t-53 -30.5t-47.5 -14v248q0 2 -4 10t-6 10h-2
q-2 0 -3 1q-73 -18 -269 -6l-18 106q-18 106 -18 209q0 17 22 37t51.5 37.5t59 29t44.5 11.5q13 0 19 -17.5t9 -44.5t4.5 -57.5t4 -57.5t8 -44.5t17.5 -17.5q27 0 49.5 11t22.5 39q0 13 -3.5 24l-7.5 22.5l-7.5 22.5t-3.5 24v21q0 9 11 14q4 2 18.5 7.5l31 12l31 12
l19.5 7.5q2 1 9.5 5.5l15.5 9.5l15.5 9.5t9.5 5.5q1 0 5 0.5t6 0.5q12 0 21 -22.5t15 -59t10 -84t7 -97.5q2 -52 6 -99.5t9 -87.5t10.5 -70.5t10.5 -48.5z" />
    <glyph glyph-name="FL0035h" unicode="5" horiz-adv-x="630" 
d="M80 212l-12 -11q1 -26 8 -45t18 -39l4 -8q0 -2 4 -7q15 -32 29.5 -59t25.5 -39h-1l11 -9t10 -7l17 -17q20 -18 35 -20.5t37 -2.5h7q27 0 63 7.5t75 21.5t76 34t67 45t48 54.5t18 62.5q0 58 -11.5 93.5t-33.5 57.5l-10 9q-24 39 -66.5 55.5t-99.5 30.5q-17 4 -35 9l-38 11
l-2 22l139 -1q38 4 52.5 11t14.5 30q0 37 -13.5 79.5t-27.5 80.5q-3 8 -6.5 18.5t-5.5 17.5l-25 25l-2 4t-1 4h-27q-4 0 -7.5 0.5t-5.5 0.5h-4q-14 0 -111 -10.5t-286 -33.5q-1 -20 -1.5 -40t-0.5 -37q0 -11 -0.5 -20t-0.5 -17q-2 -42 -3 -66.5t-4 -47.5q0 -2 5 -15.5
t13 -33l18 -42t20 -42.5t19.5 -34t16.5 -17l21 -21q2 -2 3.5 -3t2.5 -2v1q12 -5 28 -7.5l35 -5.5l52 -8.5t47 -12.5q-1 -6 -12.5 -9t-26.5 -5t-29.5 -2.5t-21.5 -0.5q-2 0 -3 -0.5t-3 -0.5h-5q-5 0 -13 1.5l-19 3.5q-2 0 -3.5 0.5t-3.5 0.5q-10 2 -24 4t-35 4zM80 200
q40 -4 64 -9.5t45 -3.5q8 0 25 1t34 4t30 9t13 16q0 13 -12 22.5t-31 16t-42 11t-45.5 8l-41.5 6.5t-29 7q-6 2 -14 15t-17 31t-17.5 39l-15.5 39t-11.5 31t-4.5 15q2 17 3.5 34.5t2 41.5t1.5 58t3 84l278.5 32.5t106.5 10.5q4 0 17.5 -0.5t17.5 -0.5q7 -20 16 -43.5
t16.5 -48t13 -49t5.5 -46.5q0 -17 -12.5 -23t-46.5 -9l-148 1l8 -64q10 -2 16.5 -4t11.5 -4q59 -18 107.5 -28.5t82.5 -30.5t52.5 -57.5t18.5 -108.5q0 -32 -17.5 -60.5t-46.5 -52.5t-65.5 -43t-74 -32.5t-73 -20.5t-61.5 -7q-24 0 -38.5 2t-34.5 19q-8 6 -24 35.5t-33 64.5
l-22 44.5t-11 47.5z" />
    <glyph glyph-name="FL0036h" unicode="6" horiz-adv-x="542" 
d="M203 223q10 34 43 34q17 0 30.5 -2t24.5 -5q-6 -29 -9 -32q-19 -14 -43 -20q-6 -2 -9 -2h-8q-13 0 -25 4q-1 4 -2 9.5t-2 13.5zM41 80v-3q14 -23 24.5 -37l15.5 -21q1 -1 1 -2l1 -1q8 -12 20 -17l18 -18q11 -11 30.5 -15.5t55.5 -4.5h7q13 3 32 8t38.5 11t36.5 12t25 10
q6 3 12.5 5.5t12.5 5.5q32 14 61.5 29t51.5 34.5t35 46.5t13 66q0 64 -11 103.5t-34 62.5l-10 10q-23 38 -68 52t-114 21q10 12 36 15.5t54 6.5q19 1 36.5 3t31 6.5t21.5 12.5t8 21q0 12 -3.5 35t-10 49t-17 50t-24.5 38l-15 15q-9 14 -20 23t-24 9q-62 0 -126 -19
t-116 -55.5t-84.5 -90.5t-32.5 -123q0 -20 -3 -45q0 -2 -0.5 -5t-0.5 -5q0 -9 -1 -12q-2 -14 -3 -31.5t-3 -37.5v-24q0 -20 1 -36.5t3 -30.5q6 -41 39 -127zM52 84q-16 42 -25.5 73t-12.5 51q-6 32 -4 90q1 25 3 44t3.5 35t3 29.5t1.5 27.5q0 66 31.5 117.5t81.5 87
t112 53.5t122 18q19 0 33 -22.5t23.5 -52t14 -59t4.5 -43.5t-14 -20.5t-35.5 -9.5t-46.5 -4t-46.5 -5t-35.5 -12.5t-14 -25.5q0 -7 0.5 -15.5t10.5 -10.5q62 -5 106 -13t71.5 -29.5t40.5 -61t13 -107.5q0 -40 -15 -67t-40.5 -46.5t-58 -34.5l-67.5 -31q-8 -4 -24.5 -9.5
l-35.5 -11.5t-38 -11t-32 -8h-5q-39 0 -57.5 5.5t-27.5 17.5q-4 5 -14 20zM164 256q5 -56 34 -66q28 -10 54 -4q23 6 40 18q15 11 26 68q-11 3 -20.5 7t-21 8t-26 6.5t-34.5 2.5q-40 0 -52 -40z" />
    <glyph glyph-name="FL0037h" unicode="7" horiz-adv-x="500" 
d="M70 105l1 -9q12 -26 29 -50.5t43 -40.5l9 -9q17 -17 38 -27t49 -10l85 239q11 14 48 89.5t100 219.5l8 6v6q0 5 1 8q0 4 0.5 8.5t0.5 6.5q0 35 -7 71.5t-30 59.5l-2 1h1l-13 12q-12 20 -31.5 32.5t-50.5 12.5q-30 0 -61.5 -8l-61.5 -16q-1 -1 -4 -1t-4 -1
q-16 -5 -32.5 -9l-29.5 -7q-4 -9 -18.5 -15t-33.5 -13q-1 -1 -4 -1q-2 0 -3 -1q-18 -6 -35.5 -12.5t-32 -15t-23.5 -19t-9 -24.5q0 -22 7.5 -41t18.5 -38l21 -36q3 -7 14 -10l21 -21q8 -8 30 -8q24 0 69 9q-84 -199 -108 -338zM82 102q29 162 135 400l-57 -16
q-95 -23 -105 -6l-21 36q-10 18 -17.5 36t-7.5 36q0 12 10.5 21.5t27 17t36 13.5t36.5 12t29.5 12t15.5 14q19 4 42.5 11l47.5 13.5t48.5 11.5t46.5 5q30 0 48 -13.5t28.5 -35t14 -47.5t3.5 -51q0 -3 -1 -12.5t-1 -12.5l-6 -4q-64 -145 -101 -221t-47 -89l-84 -235
q-23 0 -41.5 9t-33 24t-26 33.5t-20.5 37.5z" />
    <glyph glyph-name="FL0038h" unicode="8" horiz-adv-x="634" 
d="M278 203q0 9 1 12q0 11 6 14.5t15 6.5h-1l1 1h2q8 2 11 2h11q4 0 8.5 -0.5t9.5 -1.5v-1q0 -12 -3.5 -24t-8.5 -21.5t-12.5 -16.5t-14.5 -8q-3 -1 -8 -1q-6 0 -10 2q-7 14 -7 36zM267 488q0 11 7 15t18 4q15 6 33 6q11 0 26 -4q-3 -11 -13 -28t-23 -34l-14 -8q-5 1 -9 2
t-7 2q-18 28 -18 45zM312 732q-4 0 -7 -0.5t-6 -0.5h-12q-7 -1 -14 -1h-11h-18h-108q-23 -13 -47.5 -31t-45 -39.5t-34 -46t-13.5 -50.5q0 -22 6.5 -51t18.5 -58t28.5 -55.5t36.5 -42.5q1 -2 8 -7l2 -2q-20 -11 -30.5 -18.5t-20.5 -15.5q-10 -9 -18 -22t-14 -27t-10 -28
t-6 -25v-6q0 -2 -0.5 -5t-0.5 -6q0 -13 4.5 -34.5t21.5 -52.5q17 -32 31.5 -50.5t32.5 -29.5l11 -10q5 -6 11.5 -10.5t13.5 -8.5q18 -10 42 -20.5t63 -17.5h199q38 7 62 17t42 21q19 11 34.5 28.5t33.5 51.5q17 31 21.5 52t4.5 34q0 5 -0.5 9.5t-0.5 6.5q-2 10 -6 23.5
t-9.5 27t-12.5 26t-16 21.5l-13 12q-4 7 -8.5 12.5t-9.5 10.5q-5 3 -8.5 6t-7.5 6l7 7h1q18 15 33.5 40.5t27 54t17.5 57t6 49.5q0 27 -14.5 52t-36.5 47l-2 2q-22 29 -53.5 54t-60.5 42h-53h-28h-17t-19 1h-13q-4 0 -7.5 0.5t-7.5 0.5zM312 720q30 -1 53 -1.5t39 -0.5h10
h30h10q21 -12 44 -28.5t42.5 -37t32 -43t12.5 -46.5q0 -21 -6 -48.5t-17 -55t-25.5 -51.5t-32.5 -39q-5 -5 -12 -8.5l-24 -12.5q32 -16 46 -25t26 -19q9 -8 16 -20t12.5 -25.5t9.5 -27t6 -23.5q1 -9 -0.5 -32.5t-23.5 -63.5q-17 -32 -31.5 -49t-32.5 -27q-17 -10 -40.5 -20
t-61.5 -17h-195q-38 7 -61.5 17t-41.5 20q-17 10 -31.5 27t-31.5 49q-22 40 -23.5 63.5t-0.5 32.5q2 10 6 23.5t9.5 27t12.5 25.5t16 20q12 10 26 19t46 25l-24 12.5t-12 8.5q-18 15 -32.5 39t-25.5 51.5t-17 55t-6 48.5q0 24 12.5 46.5t32 43t42.5 37t44 28.5h10h30h10h55
q11 0 28 0.5t40 1.5zM304 426l18 11q18 23 30.5 46t12.5 35q0 16 -8.5 20t-28.5 10q-42 8 -66 -2q-14 0 -24 -6t-10 -22q0 -12 12.5 -35t30.5 -46q7 -4 15 -6.5t18 -4.5zM270 276q-12 -4 -21 -8.5t-9 -20.5q-3 -21 2.5 -40.5t17.5 -35.5q13 -15 24.5 -17t23.5 0
q10 1 19 10.5t15.5 23t9.5 29.5t1 30q0 16 -6.5 18.5t-20.5 8.5q-29 8 -56 2z" />
    <glyph glyph-name="FL0039h" unicode="9" horiz-adv-x="638" 
d="M262 533q30 0 46.5 -17t24 -41t9 -50.5t1.5 -45.5q-15 0 -34.5 16.5t-37 38.5t-30 44t-12.5 34q0 16 9.5 18.5t23.5 2.5zM530 -2q-3 55 -1 110t5 110t5.5 110t0.5 110q4 20 14 32t20.5 23t18.5 24.5t8 37.5q0 9 -19 24.5t-49 33.5t-66 37.5t-69.5 35.5t-60 27.5
t-37.5 14.5q-32 9 -55 10t-55 1h-10q-7 0 -15 -0.5t-15 -0.5h-10q-21 -13 -44 -32t-42.5 -41.5t-32 -48t-12.5 -52.5q0 -23 6 -53t17 -60.5t25.5 -57.5t32.5 -45q5 -5 12 -9t14 -10q6 -4 11 -12q4 -8 60 -42q28 -17 63 -34t80 -33l-1 -48v-27v-27q0 -17 1 -18
q10 -45 32 -68.5t48 -25.5q5 -1 13 -1h14h29q14 0 25.5 -1t18.5 -4l2 -0.5t3 -0.5t3 0.5l2 0.5q2 1 5.5 4.5t4.5 5.5zM114 312l-13 13v-1l-6 6q-2 2 -4.5 3t-8.5 7q-19 19 -34.5 47.5t-27 60t-17.5 62.5t-6 54q0 29 13.5 56.5t33.5 51.5t44.5 44t46.5 34h37q2 0 4 0.5t4 0.5
h19q29 0 51.5 -1.5t52.5 -9.5q11 -3 36.5 -14.5l58 -27.5t68 -35.5t66 -38.5t52.5 -36t27 -28l17 -16q12 -12 12 -19q0 -29 -10.5 -44t-22.5 -28q-9 -9 -16.5 -19.5t-11.5 -27.5q0 -11 0.5 -22t0.5 -22q0 -42 -2 -81.5l-4 -81.5l-4 -85.5t-2 -85.5v-30v-15t1 -15v-3
q-1 -3 -6.5 -8.5t-10.5 -7.5q-3 -1 -7 -1q-3 0 -6 1q-7 3 -18 4t-25 1h-29h-15q-8 0 -13 1q-27 1 -50 24l-15 15q-19 11 -33.5 34t-22.5 58q-1 3 -1 20v78q-66 25 -105 53q-51 33 -61 43l-7 6q-24 18 -28 23l-1 1q0 1 -1 2zM268 482q0 -8 6.5 -22.5t17.5 -30.5
q18 -21 39 -32q-1 23 -5 48.5t-15 45.5q-9 3 -19 3q-11 0 -17.5 -1.5t-6.5 -10.5z" />
    <glyph glyph-name="colon" unicode=":" horiz-adv-x="268" 
d="M6 447l26 -29l6 -8l6 -3l25 -24q11 -5 19.5 -6.5t16.5 -1.5q11 0 21.5 2t21.5 5q14 4 28 7t21 5h1q22 8 34 21t18 29.5t7 34t1 34.5v43q0 17 -3 31t-14 25l-4 3v-1h1l-14 15q-6 13 -19 22t-36 13q-6 0 -21.5 -2.5l-32.5 -5.5t-32 -6t-20 -5v-1q-8 -2 -17.5 -8
t-18.5 -12.5t-15 -12t-6 -6.5v-158zM-2 35l26 -29l6 -8q1 -1 3 -1t3 -1l25 -25q11 -5 19.5 -6.5t16.5 -1.5q11 0 21.5 2t21.5 5q14 4 28 7t21 5h1q22 8 34 21t18 29.5t7 34t1 34.5v43q0 17 -3 31t-14 25l-17 17q-6 13 -19 22t-36 13q-6 0 -21.5 -2.5l-32.5 -5.5t-32 -6
t-20 -5v-1q-8 -2 -17.5 -8t-18.5 -12.5t-15 -12t-6 -6.5v-158zM28 20l-18 20v153q0 1 5.5 5t13.5 8.5l16.5 9t14.5 5.5q6 2 20 5t30 6l30 5.5t20 2.5q32 -5 41.5 -23t9.5 -43v-34q0 -16 -0.5 -34t-5 -34.5t-15 -30t-30.5 -20.5q-3 -1 -18 -4t-34 -8t-35.5 -7t-36.5 6z
M36 432l-18 20v153q0 1 5.5 5t13.5 8.5l16.5 9t14.5 5.5q6 2 20 5t30 6l30 5.5t20 2.5q32 -5 41.5 -23t9.5 -43v-34q0 -16 -0.5 -34t-5 -34.5t-15 -30t-30.5 -20.5q-3 -1 -18 -4t-34 -8t-35.5 -7t-36.5 6z" />
    <glyph glyph-name="FL003Bh" unicode=";" horiz-adv-x="268" 
d="M6 447l26 -29l6 -8l6 -3l25 -24q11 -5 19.5 -6.5t16.5 -1.5q11 0 21.5 2t21.5 5q14 4 28 7t21 5h1q22 8 34 21t18 29.5t7 34t1 34.5v43q0 17 -3 31t-14 25l-4 3v-1h1l-14 15q-6 13 -19 22t-36 13q-6 0 -21.5 -2.5l-32.5 -5.5t-32 -6t-20 -5v-1q-8 -2 -17.5 -8
t-18.5 -12.5t-15 -12t-6 -6.5v-158zM18 10l10 -15q3 0 4 -1q1 0 1.5 -0.5t1.5 -0.5l23 -23q-2 -4 -2.5 -7.5t-2.5 -8.5q-10 -24 -10 -48q0 -17 5 -34q8 -18 23 -24l20 -20q10 -10 24 -10q21 0 48.5 24t53.5 72q13 34 19 54.5t7 28.5q1 9 1.5 18t1.5 19q2 17 3 33.5t1 31.5
v42q0 17 -3.5 32t-14.5 26l-17 17q-6 12 -18.5 21t-33.5 13q-7 0 -22.5 -2.5t-32 -5.5t-31.5 -6.5t-21 -5.5q-7 -2 -17 -7.5t-19 -12t-15.5 -12.5t-6.5 -9v-156zM36 432l-18 20v153q0 1 5.5 5t13.5 8.5l16.5 9t14.5 5.5q6 2 20 5t30 6l30 5.5t20 2.5q32 -5 41.5 -23t9.5 -43
v-34q0 -16 -0.5 -34t-5 -34.5t-15 -30t-30.5 -20.5q-3 -1 -18 -4t-34 -8t-35.5 -7t-36.5 6zM28 17l-18 21v151q0 2 5.5 6t13.5 8.5t16.5 8.5t14.5 6t20 5.5t30 6.5l30 5.5t20 2.5q32 -6 41.5 -24.5t9.5 -42.5v-33q2 -23 -1.5 -53.5t-5.5 -56.5q0 -15 -24 -78
q-18 -33 -37 -54.5t-35.5 -31t-29 -6.5t-18.5 18q-12 32 4 74q16 43 4 45q-6 1 -14 3.5t-18 6.5z" />
    <glyph glyph-name="FL003Ch" unicode="&#x3c;" horiz-adv-x="430" 
d="M22 444l-12 -52q136 -256 142 -272q2 -4 3 -8t3 -8q6 -12 8.5 -16.5t5.5 -12.5q3 -5 5 -9l5 -10t7 -15.5t11 -24.5l94 6l78 6q-4 51 -5.5 77t-1.5 31q0 23 -6 53t-17 60.5t-25.5 57.5t-32.5 45q-5 5 -12 9t-13.5 9t-11 12.5t-4.5 19.5q0 24 20.5 44t44.5 38.5t42.5 37
t13.5 40.5q-1 4 -14 15.5t-32.5 26l-42 30l-43 29t-35 22t-17.5 8.5q-14 0 -25.5 -7.5t-20.5 -19.5t-17 -27.5t-15 -31.5l-8 -21t-9 -20q-8 -19 -18 -32q-11 -11 -45 -90zM10 447l1 2l25.5 56t17.5 32q7 9 12 17.5t9 19.5q7 13 13 32q8 18 17 36t20 32t24.5 22.5t30.5 8.5
q3 0 17.5 -8.5t35 -22l44 -30l44 -31.5t35.5 -27.5t19 -18.5h1q0 -2 0.5 -2.5t0.5 -2.5l20 -20q2 -2 3.5 -4t2.5 -3q1 -2 1 -11q0 -23 -19 -41.5t-42 -36.5q-22 -17 -41.5 -35t-19.5 -39v-4q2 -2 4.5 -4t5.5 -4q5 -5 9.5 -11t9.5 -12l9 -9q18 -18 33.5 -46.5t27 -59.5
t17.5 -62t6 -54q0 -5 2 -35t6 -81l-87 -7l-100 -6l-28 27h-4l-6 12t-5 11q-4 7 -5.5 11.5t-3.5 7.5q-4 7 -4 10q-3 6 -4.5 10t-3.5 6q-2 3 -2.5 5t-3.5 7l-1 2h-1v1v1q-3 3 -3 4l-7 14v1q-2 2 -2 5q-1 1 -1 6q-6 14 -41.5 80.5l-101.5 192.5z" />
    <glyph glyph-name="FL003Dh" unicode="=" horiz-adv-x="450" 
d="M48 165l2 -2q11 -18 27 -25l15 -15q17 -17 38 -17q7 0 19 3q16 5 35 8t42 5q46 4 95 6q27 1 48 3t38 5v15q0 3 0.5 6.5t0.5 7.5t2 10t2 11q0 56 -27 83l-14 13q-14 28 -47.5 41t-90.5 13q-38 0 -78 -8q-5 -2 -11.5 -3t-13.5 -3q-11 -2 -24.5 -5.5l-29.5 -7.5
q-5 -1 -10 -1.5t-8 -2.5q-14 -13 -22 -28t-8 -35q0 -29 20 -77zM40 441l2 -2q11 -18 27 -25l15 -15q17 -17 38 -17q7 0 19 3q16 5 35 8t42 5q26 3 53 4.5t52 3.5h1q20 1 40 2.5t35 3.5v15q0 3 0.5 6.5t0.5 7.5t2 10t2 11q0 57 -27 84l-15 14q-15 27 -47.5 40t-89.5 13
q-38 0 -78 -8q-1 0 -7 -2q-1 -1 -5 -1q-3 0 -4 -1q-5 -2 -10.5 -2.5t-11.5 -2.5l-27.5 -6.5t-31.5 -8.5q-14 -13 -22 -28t-8 -35q0 -29 20 -77zM51 446q-39 87 4 124l55.5 13.5l39.5 9.5q40 8 75 8q77 0 108.5 -26t31.5 -83q0 -2 -2 -8t-2 -13t-0.5 -12.5t-0.5 -8.5
q-14 -2 -33.5 -3t-43 -2.5l-48 -3t-48.5 -4.5q-23 -2 -43.5 -5.5t-37.5 -8.5q-34 -9 -55 23zM59 170q-39 87 4 124q32 8 55.5 13t39.5 9q40 8 75 8q77 0 108.5 -25.5t31.5 -82.5q0 -2 -2 -8t-2 -13t-0.5 -12.5t-0.5 -8.5q-14 -2 -33 -4t-44 -3q-50 -2 -96 -6
q-23 -2 -43.5 -5.5t-37.5 -8.5q-34 -9 -55 23z" />
    <glyph glyph-name="FL003Eh" unicode="&#x3e;" horiz-adv-x="430" 
d="M59 479l3 -2q8 -8 17.5 -15.5l19.5 -15.5l6 -6t7 -5q15 -18 15 -33q0 -12 -6 -17t-13 -10q-1 -1 -3 -2.5t-3 -2.5q-3 -2 -6 -4.5t-6 -5.5q-19 -19 -34.5 -47.5t-27 -60t-17.5 -62.5t-6 -54q0 -5 -2 -36.5t-6 -82.5l6 -1l27 -26l87 -7l100 -6q7 16 12 26t7 15q5 9 7 14.5
t6 10.5l2 6q0 2 2 6h1q4 5 7.5 14.5l3.5 9.5l2 4q0 2 1 3q4 11 144 275l-13 54q-34 81 -48 95q-5 6 -8.5 14l-8.5 19q-7 13 -13 32l-21.5 43t-24.5 35l-11 10q-12 18 -27 30t-35 12q-3 0 -18 -8.5t-35.5 -22l-44 -30l-44 -31.5t-35.5 -27.5t-18 -18.5h-1q-1 -2 -1 -13
q0 -23 16 -40.5t38 -34.5zM360 444l12 -52q-136 -256 -142 -272q-2 -4 -3.5 -8t-3.5 -8q-5 -12 -7.5 -16.5t-5.5 -12.5q-3 -5 -5 -9l-5 -10t-7 -15.5t-11 -24.5l-94 6l-78 6q4 51 5.5 77t1.5 31q0 23 6 53t17 60.5t25.5 57.5t32.5 45q5 5 12 9t13.5 9t11 12.5t4.5 19.5
q0 24 -20.5 44t-44.5 38.5t-42.5 37t-13.5 40.5q1 4 14 15.5t32.5 26l42 30l43 29t35 22t17.5 8.5q14 0 25.5 -7.5t20.5 -19.5t17 -27.5t15 -31.5l8 -21t9 -20q8 -19 18 -32q10 -11 45 -90z" />
    <glyph glyph-name="question" unicode="?" horiz-adv-x="518" 
d="M-2 27l21 -20l7 -10l6 -2l25 -25q18 -7 34 -7q10 0 18 1.5t17 3.5l-1 1h5q9 2 17.5 3t15.5 3q6 2 9 2.5t7 2.5l1 -1q20 5 31 16t16 24.5t6 28.5t1 29v31q0 12 -3 23.5t-11 19.5l-18 18q-5 12 -17.5 20.5t-35.5 10.5q-7 0 -21 -1.5t-29.5 -3.5t-29 -4.5t-19.5 -4.5v-1
q-7 -2 -16 -6.5t-17 -10t-13.5 -10t-5.5 -6.5v-125zM69 513l19 -18q11 -11 35.5 -14.5t53.5 -5.5q16 -1 32 -3t30 -4v-2q0 -4 -4 -5v-1q-63 -5 -106.5 -12.5t-73.5 -29.5q-23 -17 -37 -42t-14 -67q0 -32 10 -73h6l27 -27l143 4q55 5 81 22q17 12 21 16q13 2 26 3l27 2
q22 1 43.5 3t40 8t33.5 18.5t26 35.5q2 3 3 6.5t3 6.5q10 22 18 43t8 45q0 48 -18 87.5t-50 71.5l-4 3q-25 33 -61 59t-77.5 43.5t-86.5 26.5t-89 9q-22 0 -38.5 -22.5t-27 -52t-16 -59t-5.5 -43.5q0 -23 22 -32zM26 17l-16 15v120q0 1 5 4t12 6.5t15 7t13 4.5q6 2 19 4.5
t27.5 4.5t27.5 3.5t19 1.5q29 -3 38 -17t9 -33v-27q0 -13 -0.5 -27t-5 -27t-14 -23.5t-27.5 -15.5q-3 -1 -17 -3.5t-32 -6.5q-17 -4 -32 -6t-34 5zM160 252l-136 -4q-15 67 -2 104t40 57q28 20 71.5 27.5t106.5 12.5q10 2 10.5 10t0.5 14q0 16 -14 24t-35.5 11.5t-46.5 4.5
t-46.5 4t-35.5 9t-14 19t4.5 40.5t14 55t23.5 48.5t33 21q60 0 122 -17t112 -50t81.5 -81t31.5 -110q0 -26 -10 -49l-21 -48q-13 -27 -33.5 -39t-46 -16.5t-54 -5t-56.5 -4.5q0 -2 -24 -18q-21 -15 -76 -20z" />
    <glyph glyph-name="FL0040h" unicode="@" horiz-adv-x="605" 
d="M-2 464v-23q0 -8 1.5 -35t3.5 -57.5l4 -58.5t4 -38l4 4l19 -20q5 -9 9.5 -19t9.5 -20q6 -13 9 -19l10 -20q17 -27 36.5 -47t41.5 -37q28 -27 59.5 -46.5l66.5 -39.5l18.5 -10.5l19.5 -11.5l13 -13q8 -8 18 -11l-2 2q3 -1 6 -4q8 -5 40 -6q5 -1 9 -1h10h17q65 0 82 16
q22 22 28 44q2 7 3 13t3 12l2 8l2 8q5 21 9.5 42t4.5 46v7h-1q-2 3 -4.5 7.5t-5.5 7.5l-16 16l-7 10.5t-9 8.5q-28 6 -59.5 13.5t-62.5 18.5t-60 26t-51 36q-25 40 -25 94q0 19 4 37.5t12 32.5t20.5 23t30.5 9q13 0 31 -8q0 -2 -0.5 -2.5t-0.5 -2.5l-2 -8q-1 -4 -10 -4
q-7 0 -10 1t-9 1h-7q-21 0 -32 -11q-11 -14 -18 -28t-7 -41q0 -25 17 -48q13 -15 28 -25l8 -7q15 -15 33 -25.5t45 -19.5l9 -3v1q11 -5 20 -7.5t20 -9.5q13 -5 26 -5q18 0 39 8h1q44 15 49 48q2 14 5 25t9 23v189q0 34 -13 61t-36 50l-5 5q-20 29 -50.5 51t-66 38t-73 26
t-70.5 15h-8q-2 0 -4 0.5t-4 0.5q-51 0 -93 -20.5t-68 -62.5q-5 -9 -11 -22.5t-10 -21.5l-5 -10.5t-7 -15.5l-2 -4l-2 -4q-8 -17 -19 -50t-24 -82zM10 441v20q26 97 42 130l16.5 34l16.5 34q29 46 73.5 67.5t95.5 17.5q42 -6 90.5 -20.5t89.5 -39.5t68.5 -60.5t27.5 -83.5
v-187q-5 -11 -8.5 -23t-5.5 -26q-4 -27 -43 -40q-38 -14 -60 -3q-8 5 -20.5 9.5t-28.5 9.5q-28 9 -46 20t-32 26q-14 17 -14 40q0 24 6 37t16 24q10 10 38 6q28 -5 33 12q2 9 3.5 13.5l1.5 4.5q-12 20 -33 32.5t-42 12.5q-20 0 -34.5 -9.5t-23.5 -25t-13.5 -35.5t-4.5 -41
q0 -61 29 -101t72.5 -65.5t94.5 -39.5t95 -23q2 -1 5.5 -5.5t4.5 -6.5v-4q0 -23 -4.5 -44t-9.5 -42q-2 -10 -5 -20t-5 -21q-5 -19 -25 -39q-19 -18 -111 -13q-31 2 -37 5l-12.5 6.5t-10.5 8.5l-10 10l-61 35t-55 34t-49.5 41t-44.5 55q-3 4 -11.5 23l-18.5 39.5t-18.5 35.5
t-11.5 11q-1 8 -3 31.5t-3.5 50.5t-2.5 50.5t-1 31.5z" />
    <glyph glyph-name="A" unicode="A" horiz-adv-x="610" 
d="M250 339q0 3 -0.5 15t-0.5 16q0 24 3.5 41.5t24.5 40.5q8 -3 15.5 -12t13.5 -20.5t9.5 -22.5t3.5 -17q0 -12 -12 -30t-30 -21q-5 -2 -15 2.5t-12 7.5zM365 713q-3 0 -17.5 -4.5t-35 -11.5l-44.5 -15.5t-44.5 -16.5t-35.5 -14.5t-18 -9.5q-18 -14 -31 -41t-23.5 -61
t-18 -72.5l-14 -74.5l-12 -67t-11.5 -50l-24.5 -73.5t-15.5 -78.5q-1 -10 0.5 -25.5t1.5 -33.5t-2.5 -34.5t-3.5 -29.5h24q1 0 19 5.5t42 14l49 17t40 14.5q3 1 9 4t12 6.5l11.5 6.5t7.5 4q9 7 15.5 27t16.5 40t25.5 32t42.5 2q13 -5 18.5 -18.5t7.5 -30.5t3 -35t4 -33.5
t10 -25.5t22 -10q1 0 13.5 7.5l30.5 18.5l39.5 24.5l39.5 25l30 19.5l12 8q0 1 0.5 12t0.5 17q0 18 -9 67t-24.5 111t-35.5 130t-41.5 124t-44 92.5t-41.5 36.5zM365 725q17 0 39 -31l16 -15q20 -20 41 -64.5t41 -100.5t38 -118t31 -117.5t21 -97.5t8 -59q0 -5 -0.5 -12.5
t-0.5 -12.5v-4q0 -1 -11.5 -8.5l-29.5 -19l-39.5 -25l-41 -25.5l-34.5 -21.5t-19 -11.5l1 -1h-3q-16 2 -24 10l-20 19q-20 8 -25 31.5t-6 52.5q-1 24 -6 44h-1q-11 0 -19 -6t-14 -15t-11 -20.5l-9 -21.5q-5 -14 -10 -24.5t-11 -15.5q-2 -1 -5 -3t-7 -4q-6 -4 -16 -8.5
t-15 -6.5q-15 -6 -40.5 -15l-50 -17l-43 -14t-19.5 -6h-33l-27 27h-6q0 15 0.5 21t1.5 11v3q4 17 4 41v15v8t-1 8t-1 11v10v7q2 33 12 67.5t21 65.5q0 2 1 5.5t6 16.5q6 19 11.5 45t10.5 57q6 37 13.5 78t19 78.5t27 68.5t37.5 49v-2q8 4 25 11l38 15l44 16.5t42.5 15
l32.5 11t16 4.5zM301 399q-10 -14 -11.5 -26t-1.5 -27q8 7 13.5 17t5.5 17q0 3 -2 8t-4 11zM271 340h1l-10 10zM256 345v-1v1z" />
    <glyph glyph-name="B" unicode="B" horiz-adv-x="650" 
d="M368 512v-1l-17 18zM313 436l3 12q6 19 17 33.5t31 18.5q-11 -24 -35 -54q-6 -8 -11 -12t-8 -6q0 3 3 8zM310 169h1q1 3 3 11q5 18 15.5 31.5t28.5 16.5q-2 -23 -15.5 -42.5t-36.5 -29.5l2 6t2 7zM71 287v-30q0 -8 -0.5 -15.5t-0.5 -15.5q-1 -8 -1 -17v-16v-33v-29
q1 -5 1 -15v-15v-32q0 -14 -0.5 -30t-1.5 -31q1 -5 7 -10.5t12 -8.5l20 -20q9 -9 15 -10q2 2 3 2q5 2 18 5t39 3q19 0 51 -3q23 -2 74 -3t135 -1q38 7 62 17t42 21q19 11 34.5 28.5t33.5 51.5q17 31 21.5 52t4.5 34q0 5 -0.5 9.5t-0.5 6.5q-2 10 -6 23.5t-9.5 27t-12.5 26
t-16 21.5l-13 12q-4 7 -8.5 12.5t-9.5 10.5q-5 3 -8.5 6t-7.5 6l7 7h1q18 15 33.5 40.5t27 54t17.5 57t6 49.5q0 27 -14.5 52t-36.5 47l-2 2q-22 29 -53.5 54t-60.5 42h-108q-27 0 -58 -9q-11 -3 -38.5 -14t-62 -26.5t-71.5 -34t-67.5 -36t-50.5 -32t-20 -23.5
q0 -29 10.5 -43.5t24.5 -26.5q8 -7 15 -15.5t11 -23.5v-11q0 -21 1.5 -40t6.5 -36q3 -18 4 -36.5t1 -37.5zM348 541q-30 0 -46.5 -17.5t-24.5 -42.5q-7 -24 -11 -42t8 -34q12 4 21 6.5t14 3.5q12 1 29 24q18 23 30.5 46t12.5 35q0 16 -9.5 18.5t-23.5 2.5zM78 365
q-5 20 -7 41t-1 46q-4 18 -14 28.5t-20.5 20t-18.5 22t-8 34.5q0 8 19 21.5t49 29.5t66 33l69.5 31.5l60 25t37.5 13.5q31 9 55 9h55h10h30h10q21 -12 44 -28.5t42.5 -37t32 -43t12.5 -46.5q0 -21 -6 -48.5t-17 -55t-25.5 -51.5t-32.5 -39q-5 -5 -12 -8.5l-24 -12.5
q32 -16 46 -25t26 -19q9 -8 16 -20t12.5 -25.5t9.5 -27t6 -23.5q1 -9 -0.5 -32.5t-23.5 -63.5q-17 -32 -31.5 -49t-32.5 -27q-17 -10 -40.5 -20t-61.5 -17q-81 0 -132 1t-74 3q-34 3 -55.5 2.5t-34 -2.5t-18 -4t-6.5 -2q-2 1 -5.5 4.5t-4.5 6.5q1 15 1.5 30t0.5 29v32v15v8
t-1 8q-2 61 1.5 120t-4.5 113zM339 269q-27 0 -42 -16.5t-22 -40.5q-6 -24 -9.5 -41.5t6.5 -33.5q25 1 44.5 11t32 25.5t18 35t2.5 40.5q0 16 -8.5 18t-21.5 2z" />
    <glyph glyph-name="C" unicode="C" horiz-adv-x="530" 
d="M81 60q28 -26 60.5 -43.5t61.5 -16.5q35 0 83 6.5t91.5 24.5t73.5 49.5t30 81.5q-1 30 -5 57.5t-10 47t-14.5 28.5t-18.5 2q-12 -5 -25 -13.5t-28.5 -17t-35.5 -15t-45 -6.5q-5 0 -19.5 2.5t-30 7t-27.5 10.5t-12 12v82q0 2 8 11l19 20.5t23 22.5t20 17q16 14 43 22.5
l53 17.5t45 21t19 33q0 42 -3 82t-7 80q-5 8 -15 14.5t-19 6.5q-60 0 -123.5 -23t-118.5 -62.5t-94 -94t-50 -117.5q0 -5 -0.5 -18t-0.5 -28t-0.5 -28t-0.5 -18q0 -44 4.5 -77.5t14 -63t23 -57.5t31.5 -60zM73 51l-3 3q-18 32 -32 60.5t-23.5 58.5t-14 65t-4.5 80v26
q0 5 0.5 10t0.5 10t0.5 10t0.5 10v28q11 65 51.5 121t96.5 97.5t122 65t128 23.5q13 0 26 -8t20 -19v-5l19 -18q7 -7 8 -9q4 -40 7 -80.5t3 -85.5q0 -15 -8 -26t-21 -19t-29.5 -14l-34.5 -12l-40.5 -13.5t-30.5 -16.5q-8 -6 -19 -16l-21.5 -20t-18 -18.5t-7.5 -9.5v-65
q14 -3 29.5 -5t20.5 -2q32 0 56 12t43 23v-1q2 2 5 3.5t5 3.5q1 1 4 2.5t15 6.5q7 5 14 5q14 0 25 -21l20 -19q15 -15 23.5 -53.5t10.5 -86.5q0 -35 -14.5 -61.5t-38.5 -45.5t-54.5 -31t-62 -19.5t-62.5 -10.5t-55 -3h-2q-32 0 -65 18t-61 44l-7 7q-11 7 -25 21z" />
    <glyph glyph-name="D" unicode="D" horiz-adv-x="692" 
d="M318 370v25q0 4 0.5 7.5t0.5 7.5v6q6 7 17.5 13.5t25 11t26 7.5t21.5 3q5 -14 7.5 -29t2.5 -25q0 -27 -6.5 -45t-19 -31t-30.5 -23t-40 -20q-4 22 -4.5 43t-0.5 49zM88 59l1 -7q16 -27 45 -44l7 -7q21 -22 50 -31.5t59 -9.5q34 0 79.5 17t94.5 45t96.5 65t85 77
t60.5 80.5t23 75.5q0 39 -7 80t-21 80.5t-35 75.5t-49 64h-1q-34 45 -81 73.5t-110 28.5h-9q-5 -2 -16 -4.5t-25 -6.5q-9 -2 -18.5 -4.5t-18.5 -4.5l-25.5 -5.5t-16.5 -4.5l-25 -8q-6 -3 -21.5 -9l-35.5 -14l-43 -16.5l-44 -16.5l-63 -24.5t-27 -17.5v-7q0 -2 1 -3l20 -61
l17 -13l16 -16l1 -1q12 -26 20 -70q5 -29 9.5 -58t6.5 -58q3 -53 3 -105q0 -68 -3 -135zM279 410v-10q0 -21 0.5 -37.5t2.5 -32t6 -32.5t12 -38h5h5l50.5 24t38 25.5t24 35t8.5 52.5q0 10 -2 26t-8 31t-16 25.5t-25 10.5q-9 0 -23.5 -3t-29.5 -8.5t-28 -12.5t-19 -16v-10
q0 -7 -0.5 -15t-0.5 -15zM100 60q2 60 3 120t-3 120q-2 30 -6 59.5t-10 58.5q-10 56 -28 82l-26 20l-20 60l-0.5 2t-0.5 4l14.5 6t37 14l49 18l51 19l43.5 16.5t26 10.5l30 10q7 2 24.5 6t36.5 9t36 9t23 6h5q66 0 116 -34t83 -87t49.5 -116.5t16.5 -122.5
q0 -34 -22.5 -73.5t-59 -78.5t-83 -75t-94.5 -63.5t-93 -44t-78 -16.5q-35 0 -68 14.5t-52 46.5z" />
    <glyph glyph-name="E" unicode="E" horiz-adv-x="543" 
d="M90 100q10 -19 21 -37t25 -32.5t31.5 -23.5t40.5 -9q7 0 29 6t51 15.5l60.5 20.5l58 21t44.5 18t19 11v10q0 7 0.5 15t0.5 15v10q0 27 -1.5 48t-9.5 35t-24.5 21t-46.5 7q-15 0 -26 -0.5t-21.5 -3t-23 -6.5t-28.5 -11q-10 2 -10.5 10.5t-0.5 15.5q0 22 12 32.5t30 15.5
t39 7.5t39 9t30 21t12 43.5q0 3 -0.5 8.5t-0.5 6.5l-4 15.5l-6 24l-6 24t-4 16.5h-15q-12 0 -27.5 -4.5l-31.5 -9t-31 -7t-25 0.5q-4 1 -8 8.5t-2 11.5q7 19 27 30t44 17t48.5 8.5t40.5 4.5q0 3 0.5 12.5t0.5 12.5q0 24 -3.5 50t-13 47.5t-27.5 35t-47 13.5q-21 0 -45 -5
t-47.5 -11.5t-46 -13.5t-41.5 -11q-2 -7 -15 -13.5t-31 -13.5t-38.5 -14t-37.5 -15t-28 -16.5t-10 -17.5q2 -12 11 -29t20.5 -36l22.5 -39t16 -36q6 -82 9 -168.5t1 -171.5zM79 95l-1 4q1 8 1 17v17v35q0 67 -3 134t-8 133q-5 15 -15 33.5l-21 37.5q-12 20 -22 38.5
t-12 33.5v3q0 10 8.5 19t22.5 17t31.5 15t35.5 13q23 8 42 17t23 19l30 7t32 9q2 1 5 1.5t5 1.5l58.5 15.5t58.5 7.5q30 0 49 -12.5t31 -32.5l8 -8l1 -1l4 -3q23 -23 30 -59.5t7 -71.5q0 -2 -0.5 -5.5t-0.5 -7.5v-20q-4 -1 -11 -1.5t-12 -1.5q-12 -2 -25.5 -3.5t-27.5 -3.5
h2h26q0 -6 1 -8l26 -25l3 -12.5l4.5 -19l5 -21l4.5 -18.5q2 -5 2.5 -9t1.5 -6v-6q0 -3 0.5 -6.5t0.5 -5.5q0 -26 -8.5 -41t-22 -23.5t-30.5 -12.5t-35 -7q-14 -2 -26 -4.5t-21 -7.5q10 2 23 3t29 1q38 0 57 -9.5t27 -27.5l17 -16q15 -14 17.5 -39.5t2.5 -60.5v-10
q0 -4 -0.5 -7.5t-0.5 -7.5v-25q-1 -3 -19.5 -11.5t-46 -20t-60.5 -23.5l-63 -22.5t-52.5 -17t-29.5 -6.5q-24 0 -43 9t-34 24l-11 10q-24 16 -40.5 41t-30.5 52zM439 669l-1 1q1 0 1 -1z" />
    <glyph glyph-name="F" unicode="F" horiz-adv-x="496" 
d="M90 100q10 -19 21 -37t25 -32.5t31.5 -23.5t40.5 -9h6q9 0 23 1.5t26.5 8.5t21.5 22t9 43l-8 43q0 7 1.5 13t1.5 12q0 11 -9 19q-3 0 -3 18q0 13 1 29t1 26v23q0 22 12 32.5t30 15.5t39 7.5t39 9t30 21t12 43.5q0 3 -0.5 8.5t-0.5 6.5l-4 15.5l-6 24l-6 24t-4 16.5h-15
q-11 0 -24 -3.5t-27.5 -7l-28 -7t-24.5 -3.5q-8 0 -15 3.5t-7 14.5l1 3q7 19 27 30t44 17t48.5 8.5t40.5 4.5l1 25q0 24 -3.5 50t-13 47.5t-27.5 35t-47 13.5q-21 0 -45 -5t-47.5 -11.5t-46 -13.5t-41.5 -11q-3 -10 -28.5 -20l-54.5 -20.5t-53 -22.5t-24 -26v-1
q2 -12 11 -29t20.5 -36l22.5 -39t16 -36q5 -66 8 -134.5t3 -137.5v-34v-17v-9t-1 -8zM79 95l-1 5q1 4 1 8v8v18v34q0 69 -3 135t-8 132q-5 15 -15 33.5l-21 37.5q-12 20 -22 38.5t-12 33.5v3q0 10 8.5 19t22.5 17t31 15t35 13q1 1 3 1t3 1q22 8 39.5 15.5t20.5 18.5l30 7
t32 9q2 1 5 1.5t5 1.5l58.5 15.5t58.5 7.5q30 0 49 -12.5t31 -32.5l8 -8l1 -1l4 -3q23 -23 30 -59.5t7 -71.5l-1 -33q-4 -1 -11 -1.5t-12 -1.5q-12 -2 -25.5 -3.5t-27.5 -3.5h2h26q0 -6 1 -8l26 -25l3 -12.5l4.5 -19l5 -21l4.5 -18.5q2 -5 2.5 -9t1.5 -6v-6q0 -3 0.5 -6.5
t0.5 -5.5q0 -26 -8.5 -41t-22 -23.5t-30.5 -12.5t-35 -7q-13 -2 -25 -4.5t-21 -7t-14.5 -12.5t-5.5 -21v-23q0 -5 -0.5 -11.5t-0.5 -13.5q-1 -4 -1 -8v-8v-14q0 -9 -2 -9l3 -3q11 -14 11 -25t-1 -14q-2 -8 -2 -9l8 -43q0 -32 -10 -49.5t-24 -25.5t-29.5 -9.5t-25.5 -1.5h-6
q-24 0 -43 9t-34 24l-11 10q-24 16 -40.5 41t-30.5 52zM439 669l-1 1q1 0 1 -1z" />
    <glyph glyph-name="G" unicode="G" horiz-adv-x="605" 
d="M258 290q0 4 -0.5 7t0.5 7q5 -18 14.5 -32.5t23.5 -20.5l17 -18q-5 -1 -9 -1.5t-9 -0.5q-17 0 -27 6q-5 11 -7.5 25t-2.5 28zM-2 280v-31l9 -11.5t7 -7.5q3 -4 5 -5q7 -14 13.5 -32l13.5 -38q14 -44 34.5 -87t54.5 -65l12 -11q15 -14 34 -23t43 -9q26 0 61.5 4.5t74 14.5
t76 26t67 38t48 51t18.5 66v172q-9 20 -13.5 45.5t-6.5 45.5l-27 26v5q-6 6 -16 11.5t-12 6.5h-9q-8 0 -21 -2t-32 -6q29 9 58 16t55 12q3 1 8 6.5t6 8.5v7q0 23 -4.5 42t-9.5 38q-4 9 -6 19.5t-4 19.5q-3 15 -20 32l-12 12q-8 12 -24 27q-23 17 -87 17h-16h-8t-9 -1
q-17 -1 -27.5 -3t-15.5 -4t-7.5 -3.5t-10.5 -5.5l-14 -14q-16 -9 -33 -17l-51.5 -27.5t-46.5 -28.5t-42.5 -34.5t-39.5 -45.5q-4 -6 -8.5 -14t-8.5 -17l-14 -29l-12.5 -25.5t-5.5 -10.5v-6q2 0 3 -1l-17 1q-1 -8 -3 -30t-3.5 -47t-2.5 -47t-1 -31zM10 250v12v18q0 8 1 29.5
t2.5 45.5t3.5 45.5t3 29.5q3 -4 11.5 9.5t18.5 32t18.5 36.5t11.5 22q21 29 44.5 49.5t49.5 37.5t55 31.5l61 31.5l10 10q6 4 10 6q3 2 5.5 3.5t7.5 3t13.5 3t23.5 2.5q87 4 111 -13q21 -17 25 -35q2 -10 5 -19t5 -19q5 -19 9.5 -38t4.5 -40v-4q-1 -2 -4.5 -5.5t-5.5 -4.5
q-44 -9 -95 -22t-94.5 -36t-72.5 -59.5t-29 -92.5q0 -19 4.5 -37t13.5 -32.5t23.5 -23t34.5 -8.5q21 0 42 11.5t33 29.5q0 2 -4 6t-6 4q-1 0 -5.5 -1.5t-9.5 -3.5t-9.5 -3.5t-5.5 -1.5t-7 -0.5t-9 -0.5q-17 0 -27.5 13.5t-16.5 32t-8.5 38.5t-2.5 33q0 11 14 21.5t36 20
t48.5 17t52 13.5t46 9t29.5 3h5q2 -1 10 -4.5t10 -5.5q2 -20 6.5 -45t13.5 -45v-170q0 -35 -18 -63t-47 -49t-65.5 -36t-73.5 -24.5t-72 -14t-60 -4.5q-41 0 -66 26t-42 63t-29 76t-27 66q0 1 -3 3.5l-7 6t-7 6.5t-3 4z" />
    <glyph glyph-name="H" unicode="H" horiz-adv-x="616" 
d="M294 403l1 -1h-1v1zM57 627l-50 -66q4 -19 9.5 -50t11 -71.5t10 -88t6.5 -98.5q3 -50 7 -97.5t10.5 -85t16.5 -62t25 -28.5l21 -21q7 -7 15 -7q2 0 4 0.5t4 0.5h6q3 1 10.5 5.5t16.5 10.5l14.5 9t9.5 6l22 9t36 14q14 5 25.5 9.5t15.5 6.5q17 6 17 22v21q0 13 -4 25
l-8 24q-10 21 -10 44q0 17 13 26.5t31 12.5q2 -15 3 -35t3 -41q1 -23 3 -45.5t5.5 -41t10.5 -31t18 -15.5l21 -21q7 -7 17 -7q16 0 47 12.5t62 31t54 40t23 40.5q0 61 -5 121t-11 121q-5 42 -8.5 83.5t-5.5 83.5q-1 14 -1.5 25t-0.5 21q0 7 0.5 13.5t0.5 12.5q0 7 0.5 13.5
t0.5 12.5q0 20 -2 41.5t-10 56.5l-25 25q-2 6 -2 8h-20q-9 0 -28.5 -6.5t-43 -17t-48.5 -23.5t-45.5 -26t-33.5 -24t-13 -18q0 -20 5 -45l4 -22t2 -22v-11q0 -2 -0.5 -4.5t-0.5 -4.5v-31q-2 -8 -10.5 -14t-18.5 -11v229l-27 27v6q-35 0 -63 -14t-55 -31l-43.5 -25.5
t-32.5 -11.5q-2 0 -3.5 0.5t-7.5 3.5zM20 560l40 52q15 -4 39 8t50.5 28.5t53 30.5t47.5 14v-248q0 -2 4 -10t6 -10l1.5 -0.5t3.5 -0.5q6 0 16.5 3.5t21 9t18.5 13t9 15.5v10q0 8 0.5 16.5t0.5 16.5v11q0 25 -5.5 46t-5.5 43q0 10 26.5 27t61 34t67 29.5t45.5 12.5h10
q7 -29 8.5 -49t1.5 -40t-1 -42.5t1 -55.5q5 -102 17.5 -204.5t12.5 -204.5q0 -17 -22 -37.5t-51.5 -37.5t-59 -28.5t-44.5 -11.5q-13 0 -19 17.5t-9 44.5t-4.5 57.5t-4 57.5t-8.5 44.5t-17 17.5q-27 0 -49.5 -11t-22.5 -39q0 -13 3.5 -24l7.5 -22.5l7.5 -22.5t3.5 -24v-21
q0 -9 -11 -14q-4 -2 -18.5 -7.5l-31 -11.5l-31.5 -12t-19 -8q-2 -1 -9.5 -5.5l-15.5 -9.5l-15.5 -9.5t-9.5 -5.5q-1 0 -5 -0.5t-6 -0.5q-12 0 -21 22t-15 59t-10 84.5t-7 97.5q-2 52 -6.5 99.5t-9.5 87t-10.5 70.5t-9.5 49z" />
    <glyph glyph-name="I" unicode="I" horiz-adv-x="300" 
d="M20 52l11 -55l7.5 -4.5t3.5 -2.5l22 -22q7 -5 8.5 -5.5t3.5 -0.5q3 0 4 0.5l3 1.5h1q5 1 16 6.5t19 10.5l-1 1l10 4q4 4 22 12.5l40 19.5l51.5 27t29.5 19v43q0 7 0.5 13.5t0.5 12.5v17q0 67 -2.5 131.5t-4.5 130.5q-3 66 -5 134.5t-2 137.5l-27 27v6q-23 0 -59.5 -9
t-71.5 -25.5t-61 -40.5t-29 -55v-40q0 -3 -0.5 -6.5t-0.5 -6.5v-86q0 -15 2.5 -30.5t8.5 -31.5v-334zM42 3l-10 52v333q-11 33 -11 60v60v14q0 12 0.5 24.5t0.5 23.5v16q3 28 26.5 50t54 37.5t63 23.5t53.5 8q0 -134 7 -262.5t7 -262.5v-17q0 -12 -0.5 -25.5t-0.5 -25.5v-16
q-1 -2 -21.5 -12.5l-45 -23l-47 -23.5t-26.5 -14q-2 -1 -7.5 -4l-12 -6.5t-12 -6t-8.5 -3.5q-1 0 -3 -1t-3 -1t-2.5 1z" />
    <glyph glyph-name="J" unicode="J" horiz-adv-x="572" 
d="M22 100l2 -4q24 -30 51 -51l5 -5q45 -45 97 -62.5t115 -17.5q36 0 61 6t44 16.5t34 25.5l31 32q24 25 60 57l21 94l10 486l-27 27v6h-10q-7 0 -9 1q-2 0 -5 0.5t-5 0.5h-3q-7 0 -26 -6.5t-44 -16.5t-51.5 -22.5t-49 -24.5t-37 -22.5t-14.5 -16.5q0 -65 5.5 -127.5
t5.5 -125.5v-47q0 -4 -0.5 -8t-0.5 -8v-37q0 -1 0.5 -1.5t0.5 -1.5q0 -2 -4.5 -2.5t-8.5 -0.5q-3 11 -4 24t-2 24q0 3 -0.5 6t-0.5 6t-2 5l-2 1q1 0 1 -1h1l-25 25q0 14 -60 22q-3 1 -11 1h-10q-43 0 -91 -24q-62 -32 -62 -50v-3q6 -11 9.5 -28.5t5.5 -37t2.5 -39.5t0.5 -37
q0 -14 0.5 -23t1.5 -15zM34 102q-1 6 -1.5 15t-0.5 21q0 17 -0.5 38t-2.5 41t-5.5 38t-9.5 29q-1 9 55 38q60 29 106 22q49 -6 49 -10q1 -12 2 -29.5t5.5 -33.5t13 -27.5t25.5 -11.5q8 0 17.5 2.5t6.5 18.5v19q0 14 0.5 29.5t0.5 28.5v20q0 63 -5.5 126.5t-5.5 126.5
q0 5 13.5 14.5t35 20t46.5 21.5l48.5 20.5t41.5 15t25 5.5q2 0 10 -1t10 -1l-10 -475l-20 -91q-32 -26 -52.5 -50t-42.5 -42.5t-50.5 -29.5t-76.5 -11q-69 0 -126 23t-102 80z" />
    <glyph glyph-name="K" unicode="K" horiz-adv-x="638" 
d="M60 696q3 -55 1 -110t-5 -110t-5.5 -110t-0.5 -110q-3 -16 -9.5 -28.5l-13.5 -25t-12 -26t-5 -30.5q0 -12 8.5 -25t22.5 -25t32.5 -23.5t38.5 -21.5q28 -15 54 -27l26 -11l23 -10q23 -11 25 3q7 33 13.5 82.5t6.5 103.5q0 31 -3.5 59.5t-3.5 61.5q2 0 4 2t3 1
q31 -23 60.5 -51t39.5 -69v-11v-19v-19v-11q0 -2 4.5 -14.5t9.5 -23.5q6 -12 8.5 -16.5t5.5 -12.5q3 -5 5 -9l5 -10t7 -15.5t11 -24.5l94 6l78 6q-4 51 -5.5 77t-1.5 31q0 23 -6 53t-17 60.5t-25.5 57.5t-32.5 45q-5 5 -12 9t-13.5 9t-11 12.5t-4.5 19.5q0 24 20.5 44
t44.5 38.5t42.5 37t13.5 40.5q-1 4 -14 15.5t-32.5 26l-42 30l-43 29t-35 22t-17.5 8.5q-19 0 -33 -12.5t-25 -31.5t-19.5 -41.5t-17 -41.5t-18.5 -31.5t-23 -12.5q1 1 1 18v27v27q0 17 -1 18q-3 18 -26.5 33.5t-53 28t-58.5 22.5t-42 16l-2 0.5t-3 0.5t-3 -0.5l-2 -0.5
q-2 -1 -5.5 -4.5t-4.5 -5.5zM204 -19l-12 5q-26 12 -54 27q-24 13 -45.5 27t-36.5 29l-4 3q-24 17 -39 35.5t-15 38.5q0 22 5.5 36.5t13.5 28.5q2 2 3.5 6t3.5 6q5 8 8.5 16.5t5.5 16.5q0 5 -0.5 11t-0.5 12v23q0 42 2 81.5l4 81.5l4 85.5t2 85.5v30v15t-1 15v4q2 5 8.5 11
t9.5 7t9 1q5 0 8 -1q10 -5 17.5 -8l15.5 -6q1 -1 3 -1t3 -1l39 -15.5t41.5 -18t37 -21t25.5 -24.5l19 -19q10 -11 13 -21q-1 0 1 2l2 4l2 4q7 19 16 38t20 34t25.5 24.5t32.5 9.5q3 0 17.5 -8.5t35 -22l44 -30l44 -31.5t35.5 -27.5t19 -18.5h1q0 -2 0.5 -2.5t0.5 -2.5
l20 -20q2 -2 3.5 -4t2.5 -3q1 -2 1 -11q0 -23 -19 -41.5t-42 -36.5q-22 -17 -41.5 -35t-19.5 -39v-4q2 -2 4.5 -4t5.5 -4q5 -5 9.5 -11t9.5 -12l9 -9q18 -18 33.5 -46.5t27 -59.5t17.5 -62t6 -54q0 -5 2 -35t6 -81l-87 -7l-100 -6l-28 28l-4 -1l-6 12t-5 11q-4 7 -5.5 11.5
t-3.5 7.5q-4 7 -4 10q-3 6 -4.5 10t-3.5 6q-2 3 -2.5 5t-3.5 7l-2 4v1q-3 3 -4 6q-7 14 -12 29t-5 18v56q-5 23 -18 41t-29 34q-3 2 -5 3.5t-4 3.5q0 -30 4 -53q3 -29 3 -59q0 -57 -6.5 -106t-13.5 -82q-3 -15 -18 -15q-8 0 -20 6q-8 4 -18 8.5t-20 8.5h1v-1z" />
    <glyph glyph-name="L" unicode="L" horiz-adv-x="594" 
d="M50 134v-11q9 -12 30 -32.5t45.5 -40.5t49 -35t40.5 -15q13 0 32.5 7t40 15.5l39.5 17t33 11.5t44 4.5t60.5 7t53.5 16.5t23 33q0 18 -4.5 40t-11.5 44t-16 42.5t-19 36.5q-5 0 -20 0.5t-20 0.5q-20 0 -36 -1t-32 -4.5t-33 -9.5t-39 -16q-8 2 -21.5 6t-18.5 14
q2 61 -0.5 122t-9.5 122q-2 21 -9 54t-20 64.5t-32 54t-44 22.5q-18 0 -33.5 -3t-31.5 -7t-33 -7.5t-37 -4.5q-10 -10 -10.5 -21.5t-0.5 -24.5q0 -29 8 -55.5t18 -54t18 -57t8 -62.5q0 -58 -6 -111.5t-6 -111.5v-13q0 -8 0.5 -18t0.5 -19zM38 120v23q0 2 -0.5 4.5t-0.5 5.5
v31q0 29 2 56.5l4 55.5l4 54.5t2 56.5t-8 57t-17 54l-3 9q-9 26 -16.5 52t-7.5 57v6q0 14 2.5 26t16.5 26q17 1 32 4l29 6q1 1 4 1t4 1q17 4 33.5 7t36.5 3t36 -12t29 -32l11 -10q16 -16 28 -40t20 -50t13 -50.5t7 -41.5q5 -48 8 -95.5t3 -95.5v-30q21 9 38 14.5t32.5 9
t32 4.5t37.5 1h6q3 0 6.5 -0.5t7.5 -0.5h28l3.5 -7t3.5 -5l21 -21q10 -17 20 -39t17.5 -45t12 -46t4.5 -42q0 -20 -15 -32.5t-37.5 -19.5t-49 -10t-48.5 -4q-11 -1 -21 -1.5t-17 -2.5q-12 -3 -26.5 -8.5t-29.5 -12.5q-25 -11 -49.5 -20.5t-41.5 -9.5q-11 0 -27 7.5
t-33.5 19.5t-35.5 26.5t-34 29.5q-26 21 -47.5 42.5t-29.5 33.5z" />
    <glyph glyph-name="M" unicode="M" horiz-adv-x="920" 
d="M536 552l-12 20q0 23 -12.5 38.5t-31 27t-39 20.5t-37.5 20q-24 12 -44.5 19t-30.5 7l-34 -36q-20 -45 -42 -86.5t-46 -81.5l-44 -76q-154 -202 -154 -307q0 -18 22 -38.5t51.5 -38t59 -29t44.5 -11.5q9 0 15 18t11 45q2 14 6.5 31.5t9.5 40.5q11 45 111 145l-19 -88
l-4 -67t-3 -65l63 -25l33 -13q2 -1 9.5 -5.5l15.5 -9.5l15.5 -9.5t9.5 -5.5q1 0 5 -0.5t6 -0.5q6 0 11.5 10.5t11 28.5t11.5 41.5l13 50.5q15 58 31 78q17 25 52 48l55 32l-19 -88l-4 -67t-3 -65l63 -25l33 -13q2 -1 9.5 -5.5l15.5 -9.5l15.5 -9.5t9.5 -5.5q1 0 5 -0.5
t6 -0.5q12 0 22.5 39t19.5 99t16 131t12 135t7.5 111t2.5 59t-13.5 26.5t-34.5 30t-47 30.5t-50.5 26.5t-45 18.5t-30.5 7l-34 -36q-40 -87 -75 -116zM485 648q13 -8 23.5 -16.5t17.5 -21.5l16 -15q2 -2 4 -4.5t4 -4.5q12 17 24.5 38.5t26.5 50.5l39 41q15 0 48.5 -13.5
t70 -34t69 -44t44.5 -43.5l12 -11q21 -21 21 -35q0 -9 -1.5 -39t-5 -72.5l-8 -94.5t-10 -104t-13 -101.5t-15.5 -87.5t-17 -61t-19 -23q-2 0 -4 0.5t-4 0.5h-6q-3 1 -11 5.5t-16 10.5l-15 9t-10 6q-6 2 -18 7l-29 12l-24.5 10t-28.5 11l-24 24q-2 1 -4.5 2t-4.5 2
q1 32 3 70.5t4 72.5l2 9q-29 -20 -41 -39q-8 -10 -14.5 -29t-14.5 -46q-2 -6 -3 -11.5t-3 -11.5q-12 -48 -23 -81.5t-27 -33.5q-2 0 -4 0.5t-4 0.5h-6q-3 1 -11 5.5t-16 10.5l-14.5 9t-9.5 6q-7 2 -18.5 7t-29.5 12l-24.5 10t-28.5 11l-24 24q-2 1 -4.5 2t-4.5 2q1 26 2 57
t3 61q-17 -22 -26.5 -38.5t-12.5 -28.5l-3.5 -14.5t-3.5 -13.5q-6 -25 -9 -44q-6 -30 -13.5 -50t-21.5 -20q-12 0 -32.5 7t-44 19t-46.5 27t-39 31l-5 5q-23 17 -37.5 34t-14.5 33q0 108 153 309h-1l47 81q51 84 89 168l39 41q12 0 35 -7t49 -20q19 -8 35.5 -16.5
t32.5 -18.5h-2z" />
    <glyph glyph-name="N" unicode="N" horiz-adv-x="608" 
d="M-3 564q0 -9 1.5 -38t5 -70.5l8 -92t10.5 -101.5t13 -99.5t15 -86.5t17.5 -62t19.5 -26l24 -24q4 -4 8 -4q2 0 4 0.5t4 0.5h6q3 1 10.5 5.5t16.5 10.5q7 5 13 8.5t9 5.5h1q7 2 13 6q12 5 35.5 14l53.5 20q-1 29 -2.5 61.5t-3.5 63.5q0 3 -0.5 6.5t-0.5 6.5l-11 47
q45 -54 52 -78q0 -4 2 -8.5t2 -8.5l7 -30t5 -24q5 -29 13 -49t22 -22l21 -21q6 -6 12 -6q16 0 47 12.5t62 31t54 40t23 40.5q0 61 -5 121t-11 121q-5 42 -8.5 83.5t-5.5 83.5q-1 14 -1.5 25t-0.5 21q0 7 0.5 13.5t0.5 12.5q0 7 0.5 13.5t0.5 12.5q0 20 -2 41.5t-10 56.5
l-25 25q-2 6 -2 8h-20q-14 0 -48 -12t-70 -31q-35 -19 -55 -33t-31 -34v-24v-13t1 -11v-2q0 -5 0.5 -10t0.5 -10l-11 34t-12 38h-1l-6 57l-27 26v7q-11 0 -33.5 -7.5t-49.5 -20t-55.5 -28.5t-52 -32.5t-38.5 -32.5t-15 -28zM9 564q0 11 13.5 25.5t34.5 30t47 30t50.5 26
t45 18.5t30.5 7l6 -51q48 -151 74 -177v10q0 8 0.5 16.5t0.5 16.5v11q0 25 -1.5 46.5t-1.5 44.5q8 16 26.5 29t52.5 30q35 18 67.5 30t45.5 12h10q7 -29 8.5 -49t1.5 -40t-1 -42.5t1 -55.5q5 -102 17.5 -204.5t12.5 -204.5q0 -17 -22 -37.5t-51.5 -37.5t-59 -28.5
t-44.5 -11.5q-9 0 -15 18t-11 44q-2 14 -6.5 31.5t-9.5 39.5q-10 42 -111 143l19 -87l4 -66t3 -64q-40 -14 -63 -23.5l-33 -13.5q-2 -1 -9.5 -5.5l-15.5 -9.5l-15.5 -9.5t-9.5 -5.5q-1 0 -5 -0.5t-6 -0.5q-9 0 -17 22.5t-15.5 59.5t-14 84.5t-11.5 98.5t-9 101t-7 91.5
t-4.5 70t-1.5 37.5z" />
    <glyph glyph-name="O" unicode="O" 
d="M268 321q0 45 27 71.5t67 44.5q6 0 8 1q2 0 2.5 0.5t2.5 0.5q34 0 54 -10q11 -20 11 -52q0 -63 -34 -98.5t-91 -35.5q-21 0 -34 9q-8 15 -10.5 32.5t-2.5 36.5zM-2 357q0 -3 0.5 -5.5t0.5 -4.5v-9q1 -16 1.5 -26.5t2.5 -21.5t6 -27t12 -43q13 -33 23 -56l18 -40
t15.5 -28.5t15.5 -21.5q5 -5 10.5 -9l10.5 -8l11 -11q19 -18 48 -33.5t61 -27t65 -18t61 -6.5h10q8 0 11 1q14 1 33 4t39 8.5t39 13t33 17.5l4 4l15.5 15l22.5 21q15 15 33.5 43t33.5 60l20 46t18 47.5t13 51t5 56.5q0 70 -27 139.5t-78 120.5l-3 2q-36 48 -86 76.5
t-111 28.5q-43 0 -88 -13t-88 -37t-81.5 -57t-67 -73t-45.5 -85.5t-17 -93.5zM229 351q0 -22 4.5 -43.5t14.5 -38.5t26.5 -27.5t40.5 -10.5q61 0 99 39.5t38 106.5q0 57 -27.5 79t-79.5 22q-2 0 -7.5 -1t-7.5 -1q-42 -20 -71.5 -47.5t-29.5 -77.5zM10 357q0 46 16.5 90
t44 82.5t65 70.5t79 55t85.5 36t85 13q60 0 109 -29.5t84 -76t54 -104.5t19 -115q0 -59 -17 -105t-38 -92q-14 -31 -32 -58.5t-33 -41.5l-26 -25l-15 -15q-14 -10 -32 -17t-37.5 -12t-38 -8t-32.5 -4q-27 -3 -61.5 2.5t-69.5 17t-66.5 28t-52.5 35.5q-7 10 -13.5 20.5
t-14 25.5t-17 36.5t-21.5 51.5l-13.5 49t-6.5 29.5t-2.5 25t-1.5 35.5z" />
    <glyph glyph-name="P" unicode="P" horiz-adv-x="654" 
d="M363 484q-8 -15 -22 -34.5t-31 -35.5q5 25 17 45t36 25zM68 -14v-4q5 -13 18 -18q1 0 1.5 -0.5t1.5 -0.5l19 -19q5 -5 9 -7q3 -1 8 -1q4 0 7 1q9 4 14 6l9 3.5l8 3l9 3.5q21 7 45.5 16.5t46 21t37 25t18.5 27.5h-1q2 6 2 20v54l-1 41q45 15 78.5 31.5t59.5 32.5
q58 34 64 45q2 4 4 6l4 4q3 3 6 5l6 4h1q2 2 4.5 3t8.5 7h1q18 17 33.5 45t27 59.5t17.5 62t6 53.5q0 32 -17.5 63.5t-43.5 57.5q-22 29 -50 53t-54 41h-30q-2 0 -4 0.5t-4 0.5h-26q-29 0 -51.5 -1.5t-52.5 -9.5q-11 -3 -38.5 -15t-62 -29t-71.5 -37.5t-67.5 -40t-50.5 -36
t-20 -26.5q0 -29 10.5 -44.5t24.5 -29.5q8 -8 14.5 -17.5t11.5 -27.5q0 -5 -0.5 -9.5t-0.5 -9.5v-23q0 -42 2 -80.5l4 -80.5l4 -84t2 -85v-30v-15t-1 -15zM348 525q-30 0 -46.5 -17t-24 -41t-9 -50.5t-1.5 -45.5q15 0 34.5 16.5t37 38.5t30 44t12.5 34q0 16 -9.5 18.5
t-23.5 2.5zM80 -14q3 55 1 109.5t-5 108.5t-5.5 108.5t-0.5 109.5q-4 19 -14 31t-20.5 23t-18.5 24.5t-8 36.5q0 9 19 24.5t49 33.5t66 37t69.5 35t60 27.5t37.5 14.5q32 9 55 10t55 1h10q7 0 15 -0.5t15 -0.5h10q21 -13 44 -32t42.5 -41.5t32 -48t12.5 -51.5q0 -22 -6 -52
t-17 -60t-25.5 -57t-32.5 -44q-5 -5 -12 -9t-14 -10q-6 -4 -11 -12t-60 -42q-28 -16 -63 -33t-80 -33l1 -47v-27v-27q0 -17 -1 -18q-3 -17 -26.5 -32.5t-53 -28t-58.5 -22.5t-42 -16l-2 -0.5t-3 -0.5t-3 0.5l-2 0.5q-2 1 -5.5 4.5t-4.5 5.5z" />
    <glyph glyph-name="Q" unicode="Q" horiz-adv-x="736" 
d="M266 261l2 -3q-2 2 -2 3zM268 327q0 46 27 73.5t66 44.5h6q2 0 4 0.5t4 0.5q15 0 28.5 -2t24.5 -7q12 -20 12 -55v-52q-25 5 -38 5q-76 0 -88 -95q-24 6 -33 13q-7 15 -10 34t-3 40zM-2 360q0 -3 0.5 -6t0.5 -5v-8q1 -17 1.5 -27.5t2.5 -22t6 -26.5t12 -42q13 -33 23 -56
l18 -40t15.5 -28.5t15.5 -21.5q9 -9 21 -18l11 -10q20 -19 50 -34.5t63 -27t66.5 -17.5t61.5 -6h14q12 1 27 2.5t42 9.5q9 -15 17.5 -23t16.5 -13l16 -16q9 -9 18.5 -12.5t20.5 -3.5q3 0 18 9t36 23.5l44 31.5l43 33t34.5 29t16.5 18h1q1 2 1 12q0 14 -8 27t-20 25l-10 9
q-9 14 -22.5 26.5l-26.5 23.5q14 35 23.5 61t13.5 42q4 20 6 38.5t2 35.5q0 70 -27 139.5t-78 120.5l-2 1l-1 1q-36 48 -86 76.5t-111 28.5q-64 0 -132.5 -28.5t-125 -77.5t-93 -114.5t-36.5 -138.5zM229 357q0 -24 4.5 -46.5t14.5 -39.5t26.5 -27.5t49.5 -18.5
q8 128 128 89v68q0 59 -27.5 81t-79.5 22q-2 0 -7.5 -0.5t-7.5 -0.5q-42 -18 -71.5 -47.5t-29.5 -79.5zM10 360q0 47 16.5 91t44 82.5t65 70.5t79 55t85.5 35.5t85 12.5q60 0 109 -29.5t84 -76t54 -104.5t19 -115q0 -29 -8 -72q-7 -32 -39 -112q6 -10 22.5 -23t33 -27.5
t27 -30.5t5.5 -32q-1 -4 -14 -16t-32.5 -27l-42 -32t-43 -31t-35 -23t-17.5 -9q-9 0 -17 2.5t-16 10.5t-16.5 22.5t-18.5 37.5q-39 -11 -57.5 -13.5t-32.5 -3.5q-27 -2 -61.5 3.5t-69.5 16.5t-66.5 27.5t-52.5 36.5q-7 10 -13.5 20.5t-14 25.5t-17 36.5t-21.5 51.5
q-9 32 -13.5 49.5t-6.5 29.5t-2.5 24.5t-1.5 35.5z" />
    <glyph glyph-name="R" unicode="R" horiz-adv-x="658" 
d="M365 488q-8 -20 -22 -43.5t-34 -38.5q4 29 16 53t40 29zM68 -10v-4q5 -13 18 -18q1 0 1.5 -0.5t1.5 -0.5l19 -19q5 -5 9 -7q3 -1 8 -1h2l18.5 6t23.5 8q21 7 46 16.5t47 21t38 25.5t19 30q1 3 1 18v28l2 -4q11 -28 25.5 -55t37.5 -39l15 -15q20 -20 46 -20q9 0 26.5 10.5
t39 26.5t44 36.5t41 39.5t30.5 35.5t12 25.5v2q-2 12 -11 21l-19 18q-6 16 -21.5 24.5t-32.5 16.5q-19 8 -35 18q-2 6 -2 18q0 13 7.5 19.5t15.5 11.5q2 2 5.5 4t8.5 7h1q19 16 34.5 43.5t26.5 58.5t17 61.5t6 53.5q0 32 -17 61.5t-43 55.5q-21 30 -50 54t-55 41h-30
q-2 0 -4 0.5t-4 0.5h-26q-29 0 -51.5 -1.5t-52.5 -9.5q-11 -3 -38.5 -15t-62 -28.5t-71.5 -36.5t-67.5 -39.5t-50.5 -35.5t-20 -26q0 -27 10 -42t22 -27q1 -1 1 -2l1 -1q8 -8 15 -18t12 -27q0 -5 -0.5 -9.5t-0.5 -9.5v-22q0 -40 2 -80l4 -80l4 -82.5t2 -82.5v-30v-14t-1 -15
zM348 529q-30 0 -46.5 -17t-24 -41t-9 -50.5t-1.5 -45.5q15 0 36 12.5t39 34.5t28.5 48t10.5 38q0 16 -9.5 18.5t-23.5 2.5zM80 -10q3 54 1 107.5t-5 107t-5.5 107t-0.5 107.5q-4 19 -14 30.5l-20.5 22.5t-18.5 24t-8 36q0 9 19 24t49 32.5t66 36.5t69.5 34.5l60 27
t37.5 14.5q32 9 55 10t55 1h10q7 0 15 -0.5t15 -0.5h10q21 -13 44 -31.5t42.5 -40.5t32 -47t12.5 -51q0 -22 -6 -51.5t-16.5 -59.5t-25.5 -56.5t-33 -42.5q-5 -5 -12 -9t-13.5 -9t-11 -12t-4.5 -19q0 -20 8.5 -33t21 -22t28 -16l29 -13t23 -14t11.5 -19q1 -8 -10 -23.5
t-28.5 -34t-39.5 -37.5t-43 -35t-38 -26t-25 -10q-19 0 -33 12.5t-25 30.5t-19.5 40t-17 40t-18.5 30.5t-23 12.5q1 -1 1 -17v-26v-27q0 -16 -1 -17q-3 -18 -26.5 -33t-53 -27.5t-58.5 -22t-42 -15.5l-2 -0.5t-3 -0.5t-3 0.5l-2 0.5q-2 1 -5.5 4.5t-4.5 5.5z" />
    <glyph glyph-name="S" unicode="S" horiz-adv-x="630" 
d="M57 217v-3q0 -4 6.5 -19.5t16.5 -37t22.5 -46l24 -46t21 -36.5t14.5 -18l8.5 -7t7.5 -5l16 -16q20 -18 35 -20.5t37 -2.5h7q27 0 63 7t75 20.5t76 33t67 44t48 53.5t18 62q0 57 -11 90.5t-33 55.5l-11 10q-12 19 -29 32.5t-38 22.5t-46.5 16t-54.5 14q-6 2 -11.5 3
t-11.5 3q-10 2 -13 3q15 8 34 16.5t27 11.5h1q2 1 9 1h31q12 0 24 1.5t21.5 5.5t15.5 12t6 21q0 35 -13.5 76t-27.5 79q-3 8 -6.5 18.5t-5.5 17.5l-25 25l-2 4t-1 4h-44q-25 0 -64 -11t-83 -30.5t-88.5 -45t-81.5 -55t-61.5 -61t-28.5 -61.5q0 -2 4.5 -14.5t12 -31.5
t17.5 -40.5t20 -40.5t19.5 -33.5t16.5 -18.5l23 -23q3 -3 6 -4v1q12 -5 28 -7.5l36 -5.5q24 -4 51 -8t47 -11q-2 -5 -14 -8.5t-26.5 -5t-28.5 -2t-21 -0.5q-12 0 -29 2.5t-35.5 7.5t-36 13.5t-30.5 20.5v-29q0 -1 -0.5 -2t-0.5 -2zM69 214q0 2 0.5 5.5t0.5 4.5
q9 -8 24 -13.5t32 -9.5t34 -5.5t29 -1.5q8 0 25 1t34 4t30 8.5t13 15.5q0 20 -25.5 31t-59.5 17.5t-67.5 10.5t-48.5 10q-9 3 -22.5 28t-26 55t-22 55t-9.5 28q4 29 28 59t59.5 58.5t79 53t86 43t80 29t62.5 10.5h35q7 -20 16 -43t16.5 -47t13 -47.5t5.5 -44.5
q0 -17 -12.5 -23t-29.5 -7.5t-34 -0.5t-25 -1q-5 -2 -16.5 -7.5l-24.5 -11.5l-24 -11.5t-15 -8.5q0 -1 -0.5 -4.5t-0.5 -5.5q0 -6 1.5 -11.5t9.5 -8.5q59 -17 107.5 -27.5t82.5 -30t52.5 -55.5t18.5 -105q0 -32 -17.5 -59.5t-46.5 -51t-65.5 -42t-74 -31.5t-73 -20t-61.5 -7
q-24 0 -38.5 2t-34.5 19q-5 3 -14 17.5t-20.5 35t-23 44l-21.5 44t-16 35.5t-6 18z" />
    <glyph glyph-name="T" unicode="T" horiz-adv-x="563" 
d="M184 372q1 -15 5.5 -50.5t11.5 -80l15 -91.5t16.5 -86.5t16.5 -64.5t14 -25q5 0 29 12l53.5 28l57.5 30.5t41 19.5l-24.5 92t-22.5 100.5t-16.5 102t-6.5 96.5q0 13 16 25.5t37 23.5l40.5 21.5t26.5 19.5q1 8 3 29t3.5 44t2.5 43.5t1 28.5q0 3 0.5 16.5t0.5 16.5
q-21 0 -65.5 -9.5t-99.5 -25.5t-112.5 -37t-105.5 -43t-78.5 -44t-30.5 -41q0 -11 1.5 -17t4 -11.5t6.5 -13.5t9 -22l40 -115q4 3 16 9t26.5 12.5t29 11.5t23.5 5h5q2 -1 5.5 -4.5t4.5 -5.5zM263 -38q-6 0 -14 20.5t-17 53t-18 74t-16.5 83t-13.5 79.5t-9 65
q-11 -3 -23 -8.5l-23 -11t-19 -10.5l-11 -7l-28 28q-2 -1 -2.5 -2t-1.5 -1l-46 134q-2 5 -3.5 8t-2.5 6l-2 4l-3 6v-1q-5 9 -7 16.5t-2 24.5q0 20 32 43.5t82 47t111 45.5t118 39t104 27t69 10v-6l27 -27q0 -2 -0.5 -11.5t-0.5 -14.5v-16q0 -8 -1 -29.5t-2.5 -45t-3.5 -45
t-3 -29.5q-6 -8 -21 -17t-33 -18q-24 -13 -45 -26t-21 -25q0 -45 6.5 -95.5t17 -102.5t23.5 -102.5l25 -95.5q-22 -10 -44.5 -22t-51.5 -26l-61 -32t-35 -14q-2 0 -4 2l-25 25h-1z" />
    <glyph glyph-name="U" unicode="U" horiz-adv-x="576" 
d="M270 301v-1h1zM240 330h-2v28q1 -11 1.5 -18.5t0.5 -9.5zM30 98l2 -5q11 -14 23 -25.5t25 -22.5l6 -5q45 -45 98 -62.5t116 -17.5q37 0 62.5 6t44.5 16.5t34 25.5l31 32q24 27 58 55l21 93l10 481l-27 27v6h-22q-2 0 -4 0.5t-4 0.5h-2q-7 0 -26 -6.5t-44 -16t-51.5 -22
l-49 -24t-37 -22t-14.5 -16.5q0 -64 5.5 -126.5t5.5 -124.5v-46q0 -4 -0.5 -8t-0.5 -8v-36q0 -1 0.5 -1.5t0.5 -1.5q0 -2 -4.5 -2.5t-8.5 -0.5q-3 11 -4 23.5t-2 23.5q0 3 -0.5 6t-0.5 5l-1 1l-26 27l26 -26q0 3 -1 19t-3 31q-2 17 -3.5 31t-1.5 18q0 7 1.5 33t3.5 56
t3.5 56.5t1.5 34.5v100l-27 27v6q-25 -2 -66 -15t-80.5 -34t-68.5 -48t-29 -58v-18q0 -10 0.5 -30.5t1 -47t1.5 -55.5t2 -55t2.5 -46.5t2.5 -29.5q6 -11 9.5 -28t5.5 -36.5t2.5 -39.5t0.5 -36q0 -14 0.5 -23t1.5 -15zM42 100q-1 6 -1.5 15t-0.5 21q0 17 -0.5 37.5t-2.5 40.5
t-5.5 37.5t-9.5 28.5q-2 14 -3.5 51t-3 79t-2.5 79t-1 51v18q0 28 26 53t62 44t73 31t59 14v-45v-45q0 -7 -1.5 -33.5t-3.5 -56.5t-3.5 -56.5t-1.5 -33.5q0 -4 1.5 -18.5t3.5 -31.5t3.5 -31.5t1.5 -18.5q1 -12 2 -29.5t5.5 -33t13 -27t25.5 -11.5q8 0 17.5 2.5t6.5 18.5v18
q0 14 0.5 29.5t0.5 28.5v19q0 63 -5.5 125.5t-5.5 125.5q0 5 13.5 14t35 20t46.5 21.5l48.5 19.5t41.5 14.5t25 5.5q2 0 10 -0.5t10 -0.5l-10 -470l-20 -90q-32 -26 -52.5 -49.5t-42 -41.5t-50.5 -29t-77 -11q-69 0 -126 23t-102 78z" />
    <glyph glyph-name="V" unicode="V" horiz-adv-x="610" 
d="M206 0q4 0 33 9.5t63.5 22l64 24t34.5 15.5q17 14 30.5 41t24 60.5t18 70.5l14 72l12 65.5t11.5 50.5l24.5 72.5t15.5 77.5q1 9 -0.5 24.5t-1.5 33.5q0 17 2.5 33.5t-3.5 27.5l-17 1q-1 0 -19 -5.5l-42 -13.5l-49 -16.5t-40 -14.5q-7 -2 -21 -10t-19 -10
q-8 -166 -12 -212q-3 -36 -5 -51.5t-2 -20.5v-6q0 -24 -3 -40.5t-18 -39.5q-6 3 -11.5 12t-10 19.5t-7 21.5t-2.5 17l-41.5 178.5t-14.5 68.5t-1.5 17t-1.5 18q0 27 -6.5 48t-28.5 21q-1 0 -13.5 -7.5l-30.5 -18.5l-39.5 -24l-39.5 -24.5l-30 -19l-12 -7.5q0 -1 -0.5 -12
t-0.5 -17q0 -18 9 -66t24.5 -109t35.5 -128t41.5 -122t44 -91t41.5 -36zM253 549q1 -8 14 -66l40 -173q3 13 3 31v6v6q0 7 1 11q0 4 0.5 7t1.5 7q1 8 2 18t2 24q2 23 5 79t7 141q11 5 13.5 6l7.5 3q5 3 13.5 7t13.5 6q15 6 40.5 14.5l50.5 17t43.5 14t19.5 5.5l25 -1l3 -9
l25 -24q6 -14 6 -27q0 -5 -0.5 -11t-0.5 -11q-1 -3 -1 -11v-10v-16q0 -10 1 -15q1 -4 1 -12v-9v-6q-2 -32 -11.5 -64.5t-20.5 -62.5h1q-2 -7 -5 -13t-5 -12l1 -1q-6 -18 -10.5 -42.5l-9.5 -53.5q-7 -37 -15.5 -77.5t-19 -77.5t-25 -67t-33.5 -46q-3 -3 -18 -9.5t-37 -14.5
l-46.5 -16.5l-46 -16t-36.5 -12t-17 -4.5q-12 0 -26 14l-17 17q-21 11 -43 52t-44 97.5t-41.5 121t-34.5 123t-23.5 103.5t-8.5 63v12q0 4 0.5 7t0.5 6v4l13 8.5l32.5 21l42 27l42 27l33 21t14.5 8.5q25 0 37 -23l20 -20q11 -11 14 -29t3 -38q1 -9 1.5 -18t1.5 -17z" />
    <glyph glyph-name="W" unicode="W" horiz-adv-x="872" 
d="M310 246q37 -22 42 -101q-2 -23 -3 -38.5t-1 -23.5q0 -14 17 -34q9 -9 21.5 -16.5t26 -13t25 -8.5t19.5 -3q9 0 28 12t43 48q10 19 21 36t23 33q11 22 34 56.5l58 83.5l86 137q49 54 60 93q11 44 11 51q0 8 -8 18.5t-21 22t-30 22.5t-36 21l-38.5 20t-36.5 17.5t-30.5 10
t-20.5 -1.5l-6 -45q-48 -149 -74 -175q-6 15 -6 51q0 17 1 29t2.5 22.5t3 20t1.5 21.5q-8 15 -26.5 28t-52.5 30q-35 18 -67.5 29.5t-45.5 11.5h-10q-7 -28 -8.5 -48t-1.5 -39q0 -20 1 -42.5t-13 -50.5l-32 -44l-42 -9q0 8 -0.5 16.5t-0.5 16.5v11q0 24 1.5 45.5t1.5 44.5
q-8 15 -26.5 28t-52.5 30q-35 18 -67.5 29.5t-45.5 11.5h-10q-7 -28 -8.5 -48t-1.5 -39q0 -20 1 -42.5t-1 -54.5q-2 -51 -0.5 -101.5t7.5 -101.5q13 -96 1 -183q-4 -20 -4.5 -33.5t3.5 -23.5t12.5 -18.5t23.5 -17.5q30 -17 59.5 -28.5t44.5 -11.5q9 0 15 18t11 44l25.5 40.5
l21.5 34.5q14 21 33 46.5t43 54.5zM340 146q-2 13 -3.5 24.5t-5.5 21.5l-34.5 -46l-25.5 -36h1l-9 -15l-17 -27l-20 -30q-6 -29 -13.5 -49t-21.5 -20q-17 0 -47.5 12t-61.5 29q-8 5 -14 9.5t-11 9.5l-10 9q-23 15 -32 29t-9 38q0 20 4 40q6 39 6 81q0 23 -1.5 47t-5.5 50
q-5 36 -6.5 72t-1.5 73v29v15t1 15q0 3 0.5 5.5t0.5 4.5q1 5 1 9v9v17q0 4 -0.5 7.5t-0.5 6.5v12q0 4 -0.5 7.5t-0.5 6.5v12q0 21 2 43.5t10 55.5h20q14 0 48 -11.5t70 -30.5t55.5 -33.5t30.5 -32.5l12 -12q11 -11 15 -19v-24v-12t-1 -11q-1 -10 -1.5 -19t-0.5 -19l25 36
q8 15 10 28.5t2 26.5v17q0 2 -0.5 4t-0.5 4v9q0 21 2 43.5t10 55.5h20q14 0 48 -11.5t70 -30.5t55.5 -33.5t30.5 -32.5l12 -12q11 -11 15 -19q5 14 10 30l11 34l6 46q9 6 13.5 7t9.5 1q21 0 54 -15.5t66 -33.5q32 -17 58.5 -38t37.5 -40l10 -9q23 -23 23 -38q0 -9 -11 -53
q-10 -42 -61 -96l-1 -1l-86 -136l-55.5 -81.5t-34.5 -56.5q-13 -17 -24 -34t-20 -34q-27 -41 -48 -54t-32 -13q-8 0 -21 3.5t-28 10.5t-30 16.5t-26 20.5l-10 9l-11.5 9.5t-10.5 9.5q-14 17 -14 35q0 9 1 24.5t3 38.5z" />
    <glyph glyph-name="X" unicode="X" horiz-adv-x="638" 
d="M252 476l-14 37v11v20v19v11q0 1 -2.5 7.5l-5.5 14.5t-6.5 16t-5.5 13l-4 8t-4 9q-3 5 -5 9l-5 10t-7 15.5t-11 24.5l-94 -6l-78 -6q4 -51 5.5 -77.5t1.5 -31.5q0 -23 6 -53.5t17 -61t25.5 -58t32.5 -45.5q5 -6 12 -10t13.5 -9.5t11 -12.5t4.5 -19q0 -24 -20.5 -44.5
t-44.5 -39t-42.5 -37.5t-13.5 -41q1 -4 14 -15.5t32.5 -26l42 -31t43 -30t35 -22t17.5 -8.5q28 0 47 27.5t30 60.5q5 11 9 21l8 20q10 22 19 31q5 7 13.5 22.5t19.5 38.5l12 -32v-11v-20v-19v-11q0 -2 4.5 -14l9.5 -25q6 -12 8.5 -16.5t5.5 -12.5q3 -5 5 -9l5 -10t7 -15.5
l11 -25.5l94 7l78 6q-4 51 -5.5 77.5t-1.5 31.5q0 23 -6 53.5t-17 61t-25.5 58t-32.5 45.5q-5 6 -12 10t-13.5 9t-11 12.5t-4.5 19.5q0 24 20.5 44.5t44.5 39t42.5 37.5t13.5 41q-1 4 -14 15.5t-32.5 26l-42 30.5l-43 29.5t-35 22t-17.5 8.5q-29 0 -46.5 -27t-31.5 -60
l-8 -21t-9 -20q-8 -19 -18 -32q-9 -11 -31 -65zM217 680q6 -15 10.5 -25t6.5 -15l2 -1q5 -9 7 -14.5t6 -10.5v-1l1 -1q4 -10 7 -14q2 -3 3.5 -8t3.5 -10l6 -16t5 -14q10 13 17 33q3 5 5.5 11t4.5 12q1 1 1 3t1 3q8 19 16.5 37t19.5 32.5t24.5 23t31.5 8.5q3 0 17.5 -8.5
t35 -22l44 -30l44 -32t35.5 -28t19 -18.5h1q0 -2 0.5 -2.5t0.5 -2.5l19 -19q3 -3 4 -6l3 -2q1 -2 1 -11q0 -22 -19 -41t-42 -37t-42 -36.5t-19 -39.5v-4q4 -3 7.5 -6t5.5 -7q2 -3 5 -6t5 -7l16 -15h-1q18 -18 33.5 -46.5t27 -60t17.5 -62.5t6 -55q0 -5 2 -35.5t6 -81.5
l-87 -7l-101 -7l-28 27h-4l-6.5 13.5t-5.5 12.5t-3 8t-2 5q-4 9 -6.5 13.5t-4.5 9.5q-1 2 -1.5 2.5t-1.5 2.5q-2 4 -3 7.5t-3 7.5q-3 1 -3 5l-0.5 1t-2.5 4q-5 11 -9.5 23t-6.5 19q-8 -11 -15 -27h-1q-3 -9 -7 -19t-9 -21h1q-6 -18 -14 -34.5t-18.5 -30t-24 -21.5t-29.5 -8
q-3 0 -16 7.5t-31 19t-38.5 26.5l-40.5 29.5t-36 27.5t-24 21l-3 3q-1 1 -2 1l-1 1l-2 1l-20.5 17.5t-10.5 12.5h-1q-1 2 -1 13q0 24 19 43t43 37q22 18 41 36t19 38q0 3 -2 11l-16 15v1l-2 2v-1l-11 8.5t-11 11.5q-18 19 -32.5 47.5t-25 59.5t-16.5 61t-6 53q0 5 -2 37
t-6 83l90 7l102 6q2 -6 5 -10zM606 555l-2 2zM619 541l-1 1v-1h1zM236 638l-1 1v-1h1z" />
    <glyph glyph-name="Y" unicode="Y" horiz-adv-x="630" 
d="M618 541l1 -1h-1v1zM266 573q-2 4 -4.5 10.5t-4.5 13.5h-1q-3 4 -6 15l-1 1v1q-5 8 -8.5 14.5t-6.5 14.5l-6.5 16t-9.5 22l-23 22q-2 6 -5 11l-103 -6l-90 -7q4 -51 6 -84t2 -38q0 -23 5.5 -54t16 -63t25.5 -60.5t33 -47.5q5 -7 11 -11.5l11 -8.5v1l16 -16q0 -2 2 -2
q2 -10 2 -12q0 -21 -19 -39.5t-41 -35.5q-24 -18 -43 -36.5t-19 -44.5q0 -12 1 -14h1q2 -5 10.5 -12t20.5 -18l2 -1q1 -1 2 -1.5t2 -1.5l2 -2q8 -9 24.5 -22l36 -27.5l40.5 -29.5l39 -27t30.5 -19.5t15.5 -7.5q31 0 51.5 29t32.5 65h1q4 7 7 16t7 19q0 1 3 7q10 22 19 32
q4 5 11 21.5l19 45.5h1q23 42 50 82.5t61 82.5q10 9 18.5 21l16.5 23q7 10 14.5 19.5t19.5 20.5l10 11h1q17 16 31 32t14 36v6q0 5 -1 6l-3 3q-2 2 -2.5 3t-1.5 2l-19 19q0 2 -0.5 2.5t-0.5 2.5h-1q-4 6 -19 18.5t-35.5 28l-44 32.5l-43.5 30.5t-35 22.5t-18 9q-18 0 -31 -8
t-23.5 -21t-19 -31t-16.5 -37q-5 -13 -8 -22.5t-4 -11.5q-5 -11 -9.5 -19.5t-9.5 -15.5l-4.5 11t-4.5 14zM346 235q-11 -28 -19 -44.5t-12 -22.5q-9 -10 -19 -32l-8 -20.5t-9 -21.5q-6 -17 -13.5 -33t-17 -28.5t-21 -20t-25.5 -7.5q-3 0 -17.5 9l-35 22.5t-43 30l-42 31.5
t-32.5 26.5t-14 15.5q-5 24 13.5 43t42.5 37.5t44.5 38.5t20.5 46q0 12 -4.5 19.5t-11 13t-13.5 9.5t-12 10q-18 18 -32.5 45.5t-25.5 59t-17 62.5t-6 55q0 5 -1.5 32.5t-5.5 78.5l78 6l94 6l11 -25.5t7 -15.5l5 -10t5 -9q2 -5 4 -9l4 -8l5.5 -13.5t6.5 -16.5l5.5 -14.5
t2.5 -7.5v-11v-20v-20v-11l12 -33q11 23 19.5 38.5t13.5 22.5q11 14 18 32q5 10 9 20.5l8 21.5q14 36 31.5 62.5t46.5 26.5q3 0 17.5 -9l35 -22.5l43 -29.5l42 -31t32.5 -26.5t14 -15.5q5 -23 -13 -42t-39 -39q-20 -19 -34 -41.5t-35 -42.5q-67 -79 -113 -168z" />
    <glyph glyph-name="Z" unicode="Z" horiz-adv-x="516" 
d="M68 102l1 -8q14 -26 31 -52t43 -41l9 -9q15 -14 33.5 -23.5t42.5 -9.5q7 0 30 7t53.5 18l63.5 23.5l60.5 23.5t45.5 19t18 9q0 -1 0.5 2.5t1.5 9.5l2.5 17.5t3 20t2.5 18t1 12.5q0 40 -22 62l-16 16q-13 23 -37.5 33t-55.5 10h-14q-8 0 -11 -1l45 95.5l62 136.5l8 6v16
q0 4 0.5 7.5t0.5 5.5q0 35 -7 71t-30 59l-14 13q-11 20 -30.5 32t-48.5 12t-58.5 -7.5l-58.5 -15.5q-2 -1 -5 -1.5t-5 -1.5q-15 -5 -31.5 -9l-29.5 -7q-5 -11 -21 -17l-36 -13q-17 -6 -34.5 -13t-31.5 -15t-23 -18t-9 -23q0 -20 7.5 -37.5t18.5 -36.5q1 -4 6 -10
q2 -2 2.5 -4.5t2.5 -4.5l-1 1q1 -3 3 -6.5l5 -8.5h-1q5 -9 15 -14l23 -22q8 -8 29 -8q11 0 28 2t38 7q-81 -195 -105 -328zM80 99q28 157 132 390l-56 -16q-92 -23 -102 -6l-10 18l-10 18q-10 18 -17.5 34.5t-7.5 34.5q0 17 22 29t49.5 22l51.5 18.5t28 18.5q19 4 41.5 11
t46 13.5t47.5 11.5t45 5q29 0 47 -13.5t27.5 -35t13 -47t3.5 -49.5q0 -3 -0.5 -12.5t-0.5 -12.5l-6 -4q-125 -275 -144 -300q16 7 28.5 11t23 6.5t21.5 3t26 0.5q39 0 65.5 -18t26.5 -61q0 -5 -1.5 -18t-4 -26.5t-4 -24t-1.5 -11.5t-17.5 -8.5t-44 -17.5l-58.5 -21.5
l-61 -21t-51.5 -16t-29.5 -6.5q-23 0 -40.5 9t-31.5 23.5t-25 32.5z" />
    <glyph glyph-name="FL005Bh" unicode="[" horiz-adv-x="450" 
d="M94 -42l15 -15q10 -10 25 -17q33 -17 63.5 -23t47.5 -6h55q15 0 30.5 1t31.5 5q28 8 35 72q2 19 3 36.5t1 33.5q0 11 -0.5 21t-1.5 19q-4 44 -16 56l-3 2l0.5 -0.5t1.5 -0.5l-20 19q-4 11 -12 16v1l-10.5 2.5l-14.5 3.5l-6 2q-1 1 -3 1t-3 1q-4 0 -5 1l-9 176l13 143
q0 18 13 25q15 10 39 14q31 6 31 92v10q0 57 -23 83l-18 17q-16 31 -51 31h-11q-50 0 -90 -10q-46 -11 -94 -20.5t-87 -9.5l-9 -49q-4 -15 -4 -38q0 -28 6 -51.5t14 -46.5q1 -1 1 -4q0 -2 1 -3q7 -23 13 -45.5t6 -46.5q-12 -284 -12 -340v-30q0 -3 0.5 -5.5t0.5 -4.5v-24
q10 -10 17 -43q9 -32 39 -51zM273 539l-13 -143l9 -179q0 -22 9 -29t32 -12q13 -4 22 -6.5t14 -3.5q9 -1 14 -52q4 -41 -2 -108q-6 -58 -28 -64q-34 -8 -64.5 -6t-50.5 0q-16 0 -45.5 6t-61.5 22q-32 17 -41 48q-8 34 -17 44v11q0 9 -0.5 19t-0.5 18v12q0 56 12 340
q0 33 -8.5 61.5l-17 55.5t-13.5 55t2 60l8 40q34 0 80.5 9.5t92.5 20.5q23 5 47.5 8t50.5 2q53 0 53 -89q1 -89 -24 -93q-26 -5 -42 -15q-17 -11 -17 -32z" />
    <glyph glyph-name="FL005Ch" unicode="\" horiz-adv-x="568" 
d="M28 638l144 -356q94 -176 116 -198q8 -17 26.5 -30.5t52.5 -31.5q35 -18 67.5 -30.5t45.5 -12.5q2 0 5.5 0.5t4.5 0.5q7 29 8.5 50t1.5 41q0 21 -1 44.5t-11 54.5q-161 197 -240 448l-7 22q0 9 -11 14q-4 2 -18.5 7.5t-31 12.5l-31.5 13t-19 8q-2 1 -9.5 5.5l-15.5 9.5
l-15.5 9.5t-9.5 5.5l-7.5 -3.5l-23.5 -10.5q-28 -13 -21 -73zM163 274l-147 363q-1 6 -1.5 12t-0.5 12q0 47 30 61q16 7 22 10l14 7l3 -1.5t6 -3.5q5 -2 10 -5.5t10 -6.5l15 -9.5t9 -4.5q23 -16 31.5 -18.5t15.5 -3.5q3 -1 6.5 -2t9.5 -3l17 -7.5t13 -5.5q7 -2 8 -3
q7 -3 11 -8t6 -10l21 -20l1 -1q4 -6 6 -12l1 -1l7 -22q79 -251 240 -447q9 -29 10.5 -52.5t1.5 -44.5v-6q0 -20 -2 -42.5t-10 -57.5h-10q-2 0 -3.5 -0.5t-3.5 -0.5q-14 0 -47.5 12.5t-69.5 31.5l-39.5 22.5t-27.5 20.5l-10 9q-28 18 -38 42q-12 14 -41 61.5t-74 134.5z" />
    <glyph glyph-name="FL005Dh" unicode="]" horiz-adv-x="450" 
d="M111 539l13 -143l-9 -179q0 -22 -9 -29t-32 -12q-13 -4 -22 -6.5t-14 -3.5q-9 -1 -14 -52q-4 -41 2 -108q6 -58 28 -64q34 -8 64.5 -6t50.5 0q16 0 45 6q32 6 62 22q33 17 40 48q9 34 18 44v11q0 9 0.5 19t0.5 18v12q0 56 -12 340q0 33 8.5 61.5l17 55.5t13.5 55t-2 60
l-8 40q-34 0 -80.5 9.5t-92.5 20.5q-23 5 -48 8t-51 2q-51 0 -53 -89q0 -89 25 -93q25 -5 42 -15q17 -11 17 -32zM71 188q18 4 25 9t7 20l9 178l-13 143v4q-5 1 -9.5 2t-9.5 3q-9 2 -13 7l-21 21q-31 9 -31 104q2 101 65 101h11q51 0 91 -10q46 -11 94 -20.5t87 -9.5l1 -8
l26 -25l9 -47q2 -9 3 -18.5t1 -18.5q0 -27 -6 -50.5t-14 -46.5q-8 -24 -14.5 -48.5t-6.5 -51.5q12 -284 12 -340v-30q0 -5 -0.5 -9.5t-0.5 -9.5v-15q-11 -14 -18 -42q-9 -38 -45 -54q-33 -17 -63.5 -23t-47.5 -6h-55q-15 0 -30.5 1t-31.5 5q-7 2 -13 8l-20 20q-28 10 -35 74
q-2 19 -3 36.5t-1 33.5q0 11 0.5 21t1.5 19q5 56 22 62v1l10.5 2.5l14.5 3.5l6 2q1 1 3 1t3 1z" />
    <glyph glyph-name="FL005Eh" unicode="^" horiz-adv-x="466" 
d="M148 701q-14 0 -29.5 -20.5t-31 -52.5t-29.5 -70.5t-24.5 -74t-17 -63t-6.5 -37.5v-17l18 -9.5l39.5 -20l40 -20t19.5 -9.5q15 0 19.5 12.5t4.5 27.5q1 6 1.5 11t1.5 10q0 8 39 142q0 8 7 22.5t15 18.5q11 -14 13 -23.5t2 -23.5v-3q0 -2 1 -11t4 -31q2 -13 4 -43.5
t4 -78.5q3 -2 13.5 -6t14.5 -6l27.5 -8t35 -9.5t30.5 -7.5l13 -3h12q5 6 3 15.5t-2 19.5q0 11 1 20t0 14q-1 22 -10.5 44.5l-17.5 41.5q-6 18 -12 48t-14.5 61.5t-20.5 59t-30 39.5q-4 3 -25 10t-45 13.5l-44.5 12t-23.5 5.5zM148 713q3 0 21.5 -5t41.5 -12l45 -14t32 -11v3
q7 -5 13.5 -12t13.5 -17l16 -15q12 -12 20.5 -30t15.5 -38.5t12 -42.5l10 -42l7 -29t6 -23q1 -2 2 -4.5t2 -4.5l-1 1q8 -18 16 -39t9 -42v-16q0 -4 -0.5 -8.5t-0.5 -9.5q0 -8 1 -11q0 -4 0.5 -8t0.5 -7q0 -9 -9 -18h-15l-4 3q-8 1 -22 3.5t-29 6t-29 7.5t-22 7q-5 2 -9 4
t-7 3v-1q-5 2 -10.5 5t-10.5 8l-18 18q-4 2 -7.5 4.5t-7.5 6.5q-2 45 -3.5 74t-3.5 43q-31 -103 -31 -112q0 -2 -0.5 -4.5t-0.5 -4.5q-1 -2 -1 -7q0 -4 -1 -7q-1 -19 -7.5 -33t-28.5 -14q-1 0 -20.5 10.5l-42 23.5l-41.5 23.5l-19 10.5l-25 24q-4 2 -6 4l-2 2v17
q0 11 7 39.5t18.5 65t26.5 76.5t32 73t34 54.5t32 21.5z" />
    <glyph glyph-name="FL005Fh" unicode="_" horiz-adv-x="586" 
d="M-16 -168v-20l15 -15l6 -6t6 -7q6 -7 13.5 -14.5t17.5 -15.5v1q1 -1 2.5 -2t3.5 -3l15 -15q2 -2 3 -2.5t3 -2.5v1q15 -15 75 -37h64h25h11t10 1q20 1 36.5 2.5t28.5 5.5q9 2 18.5 4.5t18.5 4.5q15 4 29 7t22 5q16 1 53 3q28 1 59.5 3.5t58 8t44 15.5t17.5 25
q0 14 -6 31.5t-16 35.5t-22 34.5t-25 29.5l-4 4q-5 8 -11.5 15l-13.5 14h-29q-2 0 -4 0.5t-4 0.5h-17q-26 0 -47 -1t-41 -3l-5.5 -1t-8.5 -2q-2 0 -2.5 -0.5t-1.5 -0.5l-22 -3q-28 -5 -105 -5q-83 3 -135 3q-8 0 -16 -0.5t-15 -0.5h-21q-66 -2 -78 -45q-6 -29 -6 -43v-7z
M-4 -184v9v7q0 5 -1 7q-2 8 6 43q9 34 66 36q29 1 75 0.5t112 -2.5q80 0 108 5q11 2 21.5 3.5t20.5 3.5q20 2 39.5 3t43.5 1h10q7 0 15 -0.5t15 -0.5h10q12 -12 23 -27.5t20 -32t14.5 -33t5.5 -29.5q0 -12 -16.5 -20t-42 -12.5t-55.5 -7t-56 -3.5q-38 -2 -54 -3
q-17 -2 -40.5 -8.5t-49.5 -12.5q-13 -4 -28 -5.5t-34 -2.5q-5 -1 -10 -1h-11h-25h-64q-56 21 -69 34q-14 13 -27.5 27z" />
    <glyph glyph-name="FL0060h" unicode="`" horiz-adv-x="244" 
d="M176 753l15 12q-3 27 -37 70q-33 43 -48 45l-25.5 3.5t-16.5 1.5q-28 -3 -36.5 -14t-8.5 -26q0 -21 49 -61q49 -41 69 -42q11 -1 33 4zM92 747q-13 9 -22 20q-3 1 -10 8q-53 44 -53 70q0 20 10.5 34t45.5 18q6 0 18 -1.5t26 -3.5q19 -2 51 -44v1q7 -8 8 -11
q5 -6 10.5 -11.5t12.5 -13.5l2 -2q36 -46 40 -80l-18 -14l-1 -1l-7 -8q-22 -5 -32 -5h-7q-23 2 -74 44z" />
    <glyph glyph-name="a" unicode="a" horiz-adv-x="614" 
d="M250 339q0 3 -0.5 15t-0.5 16q0 24 2.5 41.5t24.5 40.5q7 -3 14.5 -12t13 -20t9 -22t3.5 -18q0 -6 -3 -14t-8.5 -16t-12.5 -14t-16 -7q-5 -2 -14.5 2.5t-11.5 7.5zM365 713q-3 0 -17.5 -4.5t-35 -11.5l-44.5 -15.5t-44.5 -16.5t-35.5 -14.5t-18 -9.5q-18 -14 -31 -41
t-23.5 -61t-18 -72.5l-14 -74.5l-12 -67t-11.5 -50l-24.5 -73.5t-15.5 -78.5q-1 -10 0.5 -25.5t1.5 -33.5t-2.5 -34.5t-3.5 -29.5h24q1 0 19 5.5t42 14l49 17t40 14.5q3 1 9 4t12 6.5l11.5 6.5t7.5 4q9 7 15.5 27t16.5 40t25.5 32t42.5 2q13 -5 18.5 -18.5t7.5 -30.5t3 -35
t4 -33.5t10 -25.5t22 -10q1 0 13.5 7.5l30.5 18.5l39.5 24.5l39.5 25l30 19.5l12 8q0 1 0.5 12t0.5 17q0 18 -9 67t-24.5 111t-35.5 130t-41.5 124t-44 92.5t-41.5 36.5zM365 725q17 0 39 -31l16 -15q20 -20 41 -64.5t41 -100.5t38 -118t31 -117.5t21 -97.5t8 -59
q0 -5 -0.5 -12.5t-0.5 -12.5v-4q0 -1 -11.5 -8.5l-29.5 -19l-39.5 -25l-41 -25.5l-34.5 -21.5t-19 -11.5l1 -1h-3q-16 2 -24 10l-20 19q-20 8 -25 31.5t-6 52.5q-1 24 -6 44h-1q-11 0 -19 -6t-14 -15t-11 -20.5l-9 -21.5q-5 -14 -10 -24.5t-11 -15.5q-2 -1 -5 -3t-7 -4
q-6 -4 -16 -8.5t-15 -6.5q-15 -6 -40.5 -15l-50 -17l-43 -14t-19.5 -6h-33l-27 27h-6q0 15 0.5 21t1.5 11v3q4 17 4 41v15v8t-1 8t-1 11v10v7q2 33 12 67.5t21 65.5v-1q0 3 1 6t6 17q6 19 11.5 45t10.5 57q6 37 13.5 78t19 78.5t27 68.5t37.5 49v-2q8 4 25 11l38 15l44 16.5
t42.5 15l32.5 11t16 4.5zM299 399q-8 -14 -9.5 -25.5t-1.5 -25.5q7 7 11.5 16.5t4.5 15.5q0 4 -5 19zM256 345v-1v1z" />
    <glyph glyph-name="b" unicode="b" horiz-adv-x="650" 
d="M368 512v-1l-17 18zM313 436l3 12q6 19 17 33.5t31 18.5q-11 -24 -35 -54q-6 -8 -11 -12t-8 -6q0 3 3 8zM310 169h1q1 3 3 11q5 18 15.5 31.5t28.5 16.5q-2 -23 -15.5 -42.5t-36.5 -29.5l2 6t2 7zM71 287v-30q0 -8 -0.5 -15.5t-0.5 -15.5q-1 -8 -1 -17v-16v-33v-29
q1 -5 1 -15v-15v-32q0 -14 -0.5 -30t-1.5 -31q1 -5 7 -10.5t12 -8.5l20 -20q9 -9 15 -10q2 2 3 2q5 2 18 5t39 3q19 0 51 -3q23 -2 74 -3t136 -1q10 3 18.5 6.5t16.5 5.5q26 8 45 15t34 17.5t28.5 27.5t28.5 46q17 31 21.5 52t4.5 34q0 5 -0.5 9.5t-0.5 6.5q-2 10 -6 23.5
t-9.5 27t-12.5 26t-16 21.5l-13 12q-4 7 -8.5 12.5t-9.5 10.5q-5 3 -8.5 6t-7.5 6l7 7h1q18 15 33.5 40.5t27 54t17.5 57t6 49.5q0 27 -14.5 52t-36.5 47l-2 2q-22 29 -53.5 54t-60.5 42h-108q-27 0 -58 -9q-11 -3 -38.5 -14t-62 -26.5t-71.5 -34t-67.5 -36t-50.5 -32
t-20 -23.5q0 -29 10.5 -43.5t24.5 -26.5q8 -7 15 -15.5t11 -23.5v-11q0 -21 1.5 -40t6.5 -36q3 -18 4 -36.5t1 -37.5zM348 541q-30 0 -46.5 -17.5t-24.5 -42.5q-7 -24 -11 -42t8 -34q12 4 21 6.5t14 3.5q12 1 29 24q18 23 30.5 46t12.5 35q0 16 -9.5 18.5t-23.5 2.5zM78 365
q-5 20 -7 41t-1 46q-4 18 -14 28.5t-20.5 20t-18.5 22t-8 34.5q0 8 19 21.5t49 29.5t66 33l69.5 31.5l60 25t37.5 13.5q31 9 55 9h55h10h30h10q21 -12 44 -28.5t42.5 -37t32 -43t12.5 -46.5q0 -21 -6 -48.5t-17 -55t-25.5 -51.5t-32.5 -39q-5 -5 -12 -8.5l-24 -12.5
q32 -16 46 -25t26 -19q9 -8 16 -20t12.5 -25.5t9.5 -27t6 -23.5q1 -9 -0.5 -32.5t-23.5 -63.5q-17 -32 -31.5 -49t-32 -27.5t-42 -17.5t-60.5 -19q-81 0 -132 1t-74 3q-34 3 -55.5 2.5t-34 -2.5t-18 -4t-6.5 -2q-2 1 -5.5 4.5t-4.5 6.5q1 15 1.5 30t0.5 29v32v15v8t-1 8
q-2 61 1.5 120t-4.5 113zM339 269q-27 0 -42 -16.5t-22 -40.5q-6 -24 -9.5 -41.5t6.5 -33.5q25 1 44.5 11t32 25.5t18 35t2.5 40.5q0 16 -8.5 18t-21.5 2z" />
    <glyph glyph-name="c" unicode="c" horiz-adv-x="546" 
d="M81 56q10 -13 25 -24t32 -18.5t34 -11.5t31 -2q35 0 83 6.5t91.5 24.5t73.5 49.5t30 81.5q0 48 -7 75q-7 36 -16.5 45.5t-24.5 8.5q-12 0 -25 -7l-29 -16t-35.5 -16t-44.5 -7q-5 0 -19.5 2.5t-30 7t-27.5 10.5t-12 12v82q0 2 8 11l19 20.5t23 22.5t20 17q16 14 43 22.5
l53 17.5t45 21t19 33q0 42 -3 82t-7 80q-5 8 -15 14.5t-19 6.5q-60 0 -123.5 -23t-118.5 -62.5t-94 -94t-50 -117.5q0 -5 -0.5 -18t-0.5 -28t-0.5 -28t-0.5 -18q0 -44 4.5 -77.5t13.5 -63t23 -58.5t32 -63zM71 50l-1 1q-19 35 -33 64t-23 59t-13.5 64.5t-4.5 79.5v26
q0 5 0.5 10t0.5 10t0.5 10t0.5 10v28q11 65 51.5 121t96.5 97.5t122 65t128 23.5q13 0 26 -8t20 -19v-5l19 -18q-1 1 -2 1l-1 1l3 -2q7 -7 8 -9q4 -40 7 -80.5t3 -85.5q0 -15 -8 -26t-21 -19t-29.5 -14l-34.5 -12l-40.5 -13.5t-30.5 -16.5q-8 -6 -19 -16l-21.5 -20
t-18 -18.5t-7.5 -9.5v-65q14 -3 29.5 -5t20.5 -2q26 0 47.5 9t38.5 19h-1q13 8 24.5 13t24.5 5h3q13 0 22.5 -5t17.5 -21l17 -17q12 -12 20 -51q7 -29 7 -77q0 -35 -14.5 -61.5t-38.5 -45.5t-54.5 -31t-62 -19.5t-62.5 -10.5t-55 -3q-2 0 -4.5 -0.5t-4.5 -0.5
q-27 0 -58.5 14.5t-53.5 36.5l-12 12q-19 14 -29 27z" />
    <glyph glyph-name="d" unicode="d" horiz-adv-x="712" 
d="M318 370v25q0 4 0.5 7.5t0.5 7.5v6q6 7 17.5 13.5t25 11t26 7.5t21.5 3q5 -14 7.5 -29t2.5 -25q0 -27 -6.5 -45t-19 -31t-30.5 -23t-40 -20q-4 22 -4.5 43t-0.5 49zM88 59l1 -7q16 -27 45 -44l7 -7q21 -22 50 -31.5t59 -9.5q34 0 79.5 17t94.5 45t96.5 65t85 77
t60.5 80.5t23 75.5q0 39 -7 80t-21 80.5t-35 75.5t-49 64h-1q-34 45 -81 73.5t-110 28.5h-9q-5 -2 -16 -4.5t-25 -6.5q-9 -2 -18.5 -4.5t-18.5 -4.5l-25.5 -5.5t-16.5 -4.5l-25 -8q-6 -3 -21.5 -9l-35.5 -14l-43 -16.5l-44 -16.5l-63 -24.5t-27 -17.5v-7q0 -2 1 -3l20 -61
l17 -13l16 -16l1 -1q12 -26 20 -70q5 -29 9.5 -58t6.5 -58q3 -53 3 -105q0 -68 -3 -135zM279 410v-10q0 -21 0.5 -37.5t2.5 -32t6 -32.5t12 -38h5h5l50.5 24t38 25.5t24 35t8.5 52.5q0 10 -2 26t-8 31t-16 25.5t-25 10.5q-9 0 -23.5 -3t-29.5 -8.5t-28 -12.5t-19 -16v-10
q0 -7 -0.5 -15t-0.5 -15zM100 60q2 60 3 120t-3 120q-2 30 -6 59.5t-10 58.5q-10 56 -28 82l-26 20l-20 60l-0.5 2t-0.5 4l14.5 6t37 14l49 18l51 19l43.5 16.5t26 10.5l30 10q7 2 24.5 6t36.5 9t36 9t23 6h5q66 0 116 -34t83 -87t49.5 -116.5t16.5 -122.5
q0 -34 -22.5 -73.5t-59 -78.5t-83 -75t-94.5 -63.5t-93 -44t-78 -16.5q-35 0 -68 14.5t-52 46.5z" />
    <glyph glyph-name="e" unicode="e" horiz-adv-x="594" 
d="M38 126v-24q8 -11 27.5 -29.5t43.5 -38.5l34.5 -29t37 -27.5t35.5 -20.5t29 -8q18 0 42 9t48 20l31 13t26 8q7 2 17 2.5t22 1.5q22 1 48 4t48.5 9.5t37.5 18.5t15 32q0 17 -5 39t-13 45t-18 44.5t-20 37.5l-20 20q-6 8 -8 13h-26q-4 0 -7.5 0.5t-6.5 0.5h-6
q-20 0 -36.5 -1.5t-32.5 -4.5t-33 -9t-39 -15h-1q1 11 15.5 17.5t36 11t48 6.5l51.5 4q21 2 40.5 3.5t39.5 6.5v14q0 3 0.5 7t0.5 8t0.5 8t0.5 7v7q0 60 -24 84l-16 15q-16 34 -64 41q20 1 38.5 2.5t33 5t23 11.5t8.5 22q0 37 -11.5 75.5t-36.5 63.5l-11 10
q-14 23 -36.5 37.5t-53.5 14.5q-51 0 -98.5 -9.5t-95.5 -20.5q-45 -11 -90 -19.5t-91 -9.5q-14 -14 -16.5 -27t-2.5 -24v-6q0 -26 7.5 -53t17.5 -53q2 -4 2.5 -7.5t2.5 -7.5q8 -23 15 -48t7 -52q0 -56 -6 -107t-6 -109v-30q0 -3 0.5 -5.5t0.5 -4.5zM50 107v10q0 9 -0.5 19
t-0.5 18v12q0 57 6 108t6 108q0 31 -8 59.5t-18 55.5t-18 53t-8 53q0 12 0.5 23.5t10.5 21.5q46 1 92.5 10.5t92.5 20t92.5 19.5t93.5 9q30 0 50.5 -14.5t34 -38t19.5 -51.5t6 -55q0 -12 -10 -18t-26 -9t-36.5 -4l-41.5 -2q-22 -2 -42.5 -3.5t-36 -6.5t-25.5 -16.5
t-11 -32.5q35 0 58 6q22 6 58 6q63 0 88.5 -20.5t25.5 -80.5q0 -3 -0.5 -9t-0.5 -13t-0.5 -13t-0.5 -9q-23 -5 -62 -7t-76.5 -6.5t-65 -14t-27.5 -30.5q0 -22 9 -29t32 -11q22 9 39 15t33 9t32 4.5t36 1.5q5 0 20 -0.5t20 -0.5q10 -15 19 -35t16 -41.5t11.5 -42.5t4.5 -38
q0 -22 -23 -33t-53.5 -15.5t-60.5 -6t-44 -4.5t-33 -11l-39.5 -17t-39.5 -15.5t-33 -6.5q-16 0 -40.5 14.5t-49 34t-45.5 39.5t-30 31z" />
    <glyph glyph-name="f" unicode="f" horiz-adv-x="520" 
d="M9 583q0 -30 15 -60t26 -55q11 -24 18.5 -68.5t12.5 -98t9.5 -109.5t10 -101.5t13.5 -74.5t21 -29q1 0 2.5 0.5t2.5 0.5l100 50q9 4 19.5 7t20 7t15.5 11t6 19q0 29 -6 55.5t-6 55.5v9q0 6 0.5 13.5t0.5 13.5v9l22 5t25 8q12 6 20.5 9.5t28.5 9.5l64 13q6 0 10 8t6.5 18
t3.5 19.5t1 12.5q0 29 -2.5 51.5t-8.5 55.5q-3 8 -8 9.5t-11 1.5q-43 0 -82 -15t-79 -26q-1 0 -2.5 0.5t-3.5 0.5q0 13 -2.5 23t-4 18t1 15t11.5 13q13 9 43 13.5t60.5 10t53.5 14t23 26.5t-7.5 44.5t-21 52t-32 45.5t-39.5 24q-7 1 -35.5 -5.5t-67.5 -18t-82.5 -26
t-80.5 -30t-61 -30t-24 -25.5zM-3 583q0 12 24 27.5t61 31.5t81 32t84 28.5t70.5 20t40.5 7.5h5q17 -4 32.5 -17t28.5 -32l10 -9q15 -15 27 -35t20.5 -41t13 -40.5t4.5 -33.5q0 -13 -10 -22t-25.5 -15t-35.5 -10t-40 -7l-44 -7.5t-29 -9.5q-9 -6 -9 -12q0 1 1 1q4 2 9.5 3.5
t9.5 3.5v-2q28 10 56.5 18t58.5 8q8 0 16 -2.5t14 -17.5l20 -19q4 -5 9 -15q5 -30 7.5 -52.5t2.5 -53.5q0 -3 -1.5 -13.5t-4.5 -22t-8.5 -21t-13.5 -10.5l-63 -13q-24 -7 -32 -10t-17 -8q-11 -5 -21 -7.5t-17 -4.5q-1 -1 -3 -1v-1q0 -3 -0.5 -6.5t-0.5 -7.5v-22q0 -28 6 -55
t6 -56q0 -23 -14.5 -32t-33.5 -14q-5 -2 -10 -3t-8 -3l-102 -51q-1 0 -2.5 -0.5t-2.5 -0.5h-2q-6 0 -12 6l-22 22q-12 3 -21 24t-15 54.5t-10.5 76t-8.5 87.5q-3 37 -6.5 74.5t-8 70t-10 58.5t-12.5 42q-2 5 -4.5 10.5t-5.5 11.5q-2 3 -2.5 5.5t-2.5 5.5q-10 20 -18.5 42
t-8.5 45z" />
    <glyph glyph-name="g" unicode="g" horiz-adv-x="584" 
d="M258 290v10q3 -9 5.5 -14.5t6 -11t9 -11l14.5 -14.5h3l16 -16q-5 -1 -9 -1.5t-8 -0.5q-17 0 -27 6q-5 11 -7.5 25t-2.5 28zM-2 280v-31l9 -11.5t7 -7.5q3 -4 5 -5q7 -14 13.5 -32l13.5 -38q14 -44 34.5 -87t54.5 -65l12 -11q15 -14 34 -23t43 -9q26 0 61.5 4.5t74 14.5
t76 26t67 38t48 51t18.5 66v172q-5 11 -8.5 24l-6.5 25q-2 10 -4 18t-7 16q-1 1 -1.5 2t-2.5 3l-19 19q-1 1 -2 3t-3 5q-8 14 -26 14h-3q-20 0 -50.5 -7t-75.5 -24v1l-1 -1q-1 0 -1.5 -0.5t-1.5 -0.5q-13 -5 -19 -7q-1 -1 -3 -1q46 29 103 44.5t108 26.5q3 1 8 6.5t6 8.5v7
q0 24 -4.5 44.5t-10.5 40.5q-5 18 -9.5 36t-5.5 41l-27 27v5q-19 10 -70 10h-33q-10 0 -20 -0.5t-21 -1.5q-8 -2 -9 -2q-11 -2 -19.5 -3l-8.5 -1q-10 -3 -13 -4t-10 -3v-1h-2l-12 -12q-16 -9 -33 -17l-51.5 -27.5t-46.5 -28.5t-42.5 -34.5t-39.5 -45.5q-4 -6 -8.5 -14
t-8.5 -17l-14 -29l-12.5 -25.5t-5.5 -10.5v-6q2 0 3 -1l-17 1q-1 -8 -3 -30t-3.5 -47t-2.5 -47t-1 -31zM10 250v12v18q0 8 1 29.5t2.5 45.5t3.5 45.5t3 29.5q3 -4 11.5 9.5t18.5 32t18.5 36.5t11.5 22q21 29 44.5 49.5t49.5 37.5t55 31.5l61 31.5l10 10q8 3 14 5t10 3
q7 1 36 6q111 6 130 -4q1 -21 6 -40l10 -38t9.5 -38t4.5 -40v-4q-1 -2 -4.5 -5.5t-5.5 -4.5q-44 -9 -95 -22t-94.5 -36t-72.5 -59.5t-29 -92.5q0 -19 4.5 -37t13.5 -32.5t23.5 -23t34.5 -8.5q21 0 42 11.5t33 29.5l6 26q-47 -16 -80 -24q-12 12 -16 18t-10 24q-6 19 -9 39
q-2 20 7 29t16 14q6 5 13 8.5t15.5 6.5l20 7l27.5 10q45 17 76.5 24t49.5 7q14 2 20 -9q3 -5 5.5 -14.5t5 -20.5t5.5 -23t8 -22v-170q0 -35 -18 -63t-47 -49t-65.5 -36t-73.5 -24.5t-72 -14t-60 -4.5q-41 0 -66 26t-42 63t-29 76t-27 66q0 1 -3 3.5l-7 6t-7 6.5t-3 4z" />
    <glyph glyph-name="h" unicode="h" horiz-adv-x="624" 
d="M294 403l1 -1h-1v1zM57 627l-65 -88q13 -8 21 -33t13.5 -61.5t9 -81t6.5 -90.5q3 -51 7 -101.5t10.5 -91.5t16.5 -68t26 -32l21 -21q7 -7 16 -7q2 0 4 0.5t4 0.5h6q3 1 10.5 5.5t16.5 10.5l14.5 9t9.5 6l22 9t36 14q14 5 25.5 9.5t15.5 6.5q17 6 17 22v21q0 13 -4 25
l-8 24q-10 21 -10 44q0 17 13 26.5t31 12.5q2 -15 3 -35t3 -41q1 -23 3 -45.5t5.5 -41t10.5 -31t18 -15.5l21 -21q7 -7 17 -7q16 0 47 12.5t62 31t54 40t23 40.5q0 61 -5 121t-11 121q-5 42 -8.5 83.5t-5.5 83.5q-1 14 -1.5 25t-0.5 21q0 7 0.5 13.5t0.5 12.5q0 7 0.5 13.5
t0.5 12.5q0 20 -2 41.5t-10 56.5l-25 25q-2 6 -2 8h-20q-9 0 -28.5 -6.5t-43 -17t-48.5 -23.5t-45.5 -26t-33.5 -24t-13 -18q0 -20 5 -45l4 -22t2 -22v-11q0 -2 -0.5 -4.5t-0.5 -4.5v-31q-2 -8 -10.5 -14t-18.5 -11v229l-27 27v6q-35 0 -63 -14t-55 -31l-43.5 -25.5
t-32.5 -11.5q-2 0 -3.5 0.5t-7.5 3.5zM10 543l50 69q15 -4 39 8t50.5 28.5t53 30.5t47.5 14v-248q0 -2 4 -10t6 -10l1.5 -0.5t3.5 -0.5q6 0 16.5 3.5t21 9t18.5 13t9 15.5v10q0 8 0.5 16.5t0.5 16.5v11q0 25 -5.5 46t-5.5 43q0 10 26.5 27t61 34t67 29.5t45.5 12.5h10
q7 -29 8.5 -49t1.5 -40t-1 -42.5t1 -55.5q5 -102 17.5 -204.5t12.5 -204.5q0 -17 -22 -37.5t-51.5 -37.5t-59 -28.5t-44.5 -11.5q-13 0 -19 17.5t-9 44.5t-4.5 57.5t-4 57.5t-8.5 44.5t-17 17.5q-27 0 -49.5 -11t-22.5 -39q0 -13 3.5 -24l7.5 -22.5l7.5 -22.5t3.5 -24v-21
q0 -9 -11 -14q-4 -2 -18.5 -7.5l-31 -11.5l-31.5 -12t-19 -8q-2 -1 -9.5 -5.5l-15.5 -9.5l-15.5 -9.5t-9.5 -5.5q-1 0 -5 -0.5t-6 -0.5q-17 0 -27 38.5t-16 97t-10 127.5t-9.5 130.5t-14 105.5t-22.5 53z" />
    <glyph glyph-name="i" unicode="i" horiz-adv-x="322" 
d="M28 5l7 -38q2 2 5 3l27 -27q1 1 8 5t17.5 11t15.5 11q11 10 23 18.5t21 11.5l1 -1q11 4 21.5 5.5t21.5 3.5q18 3 36.5 7t33.5 11.5t24 20.5t9 35v6l-20 450v10l10 109v12q0 4 0.5 11t0.5 9l-27 27v6q-12 0 -34 -5.5t-49 -15t-55.5 -21.5t-51.5 -24.5t-38.5 -25
t-16.5 -22.5q1 -11 3 -39.5t3.5 -60.5t2.5 -60.5t1 -39.5v-68q0 -11 0.5 -23.5t0.5 -25.5v-166q0 -13 -0.5 -25.5t-0.5 -23.5v-71zM44 -14l-4 22q0 15 0.5 46.5t0.5 70.5v83v83q0 39 -0.5 70.5t-0.5 46.5q0 11 -1 39.5t-2.5 60.5t-3.5 60.5t-3 39.5q1 9 15 20t35 22.5
t46.5 22t49.5 19t44 13.5t31 5q0 -2 -0.5 -11t-0.5 -11l-10 -110v-5v-5l20 -450v-6q0 -25 -15.5 -37.5t-38 -18.5t-46.5 -9t-40 -9q-8 -3 -18 -10l-20.5 -15l-20.5 -15.5t-17 -11.5z" />
    <glyph glyph-name="j" unicode="j" horiz-adv-x="576" 
d="M22 100l2 -4q24 -30 51 -51l5 -5q45 -45 97 -62.5t115 -17.5q36 0 61 6t44 16.5t34 25.5l31 32q24 25 60 57l21 94l10 486l-27 27v6h-10q-7 0 -9 1q-2 0 -5 0.5t-5 0.5h-3q-7 0 -26 -6.5t-44 -16.5t-51.5 -22.5t-49 -24.5t-37 -22.5t-14.5 -16.5q0 -65 5.5 -127.5
t5.5 -125.5v-47q0 -4 -0.5 -8t-0.5 -8v-37q0 -1 0.5 -1.5t0.5 -1.5q0 -2 -4.5 -2.5t-8.5 -0.5q-3 11 -4 24t-2 24q0 3 -0.5 6t-0.5 6t-2 5l-2 1q1 0 1 -1h1l-25 25q0 14 -60 22q-3 1 -11 1h-10q-43 0 -91 -24q-62 -32 -62 -50v-3q6 -11 9.5 -28.5t5.5 -37t2.5 -39.5t0.5 -37
q0 -14 0.5 -23t1.5 -15zM34 102q-1 6 -1.5 15t-0.5 21q0 17 -0.5 38t-2.5 41t-5.5 38t-9.5 29q-1 9 55 38q60 29 106 22q49 -6 49 -10q1 -12 2 -29.5t5.5 -33.5t13 -27.5t25.5 -11.5q8 0 17.5 2.5t6.5 18.5v19q0 14 0.5 29.5t0.5 28.5v20q0 63 -5.5 126.5t-5.5 126.5
q0 5 13.5 14.5t35 20t46.5 21.5l48.5 20.5t41.5 15t25 5.5q2 0 10 -1t10 -1l-10 -475l-20 -91q-32 -26 -52.5 -50t-42.5 -42.5t-50.5 -29.5t-76.5 -11q-69 0 -126 23t-102 80z" />
    <glyph glyph-name="k" unicode="k" horiz-adv-x="650" 
d="M588 181l4 -4zM489 270l5 -6q-2 2 -3 3.5t-2 2.5zM48 10v-4q5 -13 18 -18q1 0 1.5 -0.5t1.5 -0.5l19 -19q5 -5 9 -7q3 -1 8 -1q4 0 7 1q11 5 19.5 8t19.5 8q21 7 46 16.5t46.5 21t37 25t18.5 29.5q1 3 1 19v29q0 -2 2 -4q12 -30 27.5 -58.5t38.5 -41.5l14 -13
q9 -9 19.5 -14.5t24.5 -5.5q3 0 18 9t35.5 22.5l44 29.5t44 31.5t34.5 27.5t16 17h1q1 2 1 11q0 13 -6.5 24t-17.5 22l-11 11q-8 14 -22 25.5l-29 24.5l-2 2l-2 2l1 -1q-2 2 -3 2.5t-3 2.5q-6 5 -12 9t-11 9q-4 7 -4 19t8 19.5t16 12.5q2 2 5.5 4.5t8.5 7.5q18 18 33.5 46.5
t27 59.5t17.5 62t6 54q0 5 2 35t6 81l-28 27q0 2 0.5 3t0.5 3l-90 7l-102 6l-6 -12t-5 -11q-8 -15 -9 -21q-2 -4 -3.5 -6.5l-1.5 -2.5q-2 -5 -4 -7.5t-4 -6.5q0 -1 -1 -1v-1q-5 -14 -7 -16q-1 -1 -1 -3q-3 -6 -4.5 -10.5t-3.5 -9t-4.5 -11.5l-6.5 -18v-57q-6 -25 -20 -44
t-32 -36q3 24 3 50q0 57 -7 108t-14 86l-26 25q0 2 -0.5 4t-0.5 4l-38 4l-6 -3l-14.5 -6.5t-15.5 -6.5v1q-8 -4 -9.5 -4.5t-6.5 -2.5q-26 -12 -54 -27q-21 -11 -41 -23.5t-35 -26t-24 -27.5t-9 -29q0 -22 5.5 -36.5t13.5 -28.5q2 -2 3.5 -6t3.5 -7v1q5 -8 8.5 -16.5
t5.5 -16.5q0 -6 -0.5 -11.5t-0.5 -11.5v-23q0 -42 2 -81.5l4 -81.5l4 -85.5t2 -85.5v-30v-15t-1 -15zM60 10q3 55 1 110t-5 110t-5.5 110t-0.5 110q-3 16 -9.5 28.5l-13.5 25t-12 26t-5 30.5q0 12 8.5 25t22.5 25t32.5 23.5t38.5 21.5q28 15 54 27l26 11l23 10l25 -3
q7 -33 13.5 -82.5t6.5 -103.5q0 -31 -3.5 -59.5t-3.5 -61.5q2 0 4 -2t3 -1q31 23 60.5 51t39.5 69v11v19v19v11q0 1 2.5 7.5l5.5 14.5t6.5 15.5t5.5 12.5l4 8t4 9q3 5 5 9l5 10t7 15.5t11 24.5l94 -6l78 -6q-4 -51 -5.5 -77t-1.5 -31q0 -23 -6 -53t-17 -60.5t-25.5 -57.5
t-32.5 -45q-5 -5 -12 -9t-13.5 -9.5t-11 -12.5t-4.5 -19q0 -24 20.5 -44t44.5 -38.5t42.5 -37t13.5 -40.5q-1 -4 -14 -15.5t-32.5 -26l-42 -30l-43 -29t-35 -22t-17.5 -8.5q-19 0 -33 12.5t-25 31.5t-19.5 41.5t-17 41.5t-18.5 31.5t-23 12.5q1 -1 1 -18v-27v-27
q0 -17 -1 -18q-3 -18 -26.5 -33.5t-53 -28t-58.5 -22.5t-42 -16l-2 -0.5t-3 -0.5t-3 0.5l-2 0.5q-2 1 -5.5 4.5t-4.5 5.5z" />
    <glyph glyph-name="l" unicode="l" horiz-adv-x="602" 
d="M50 134v-11q9 -12 30 -32.5t45.5 -40.5t49 -35t40.5 -15q13 0 32.5 7t40 15.5l39.5 17t33 11.5t44 4.5t60.5 7t53.5 16.5t23 33q0 18 -4.5 40t-11.5 44t-16 42.5t-19 36.5q-5 0 -20 0.5t-20 0.5q-20 0 -36 -1t-32 -4.5t-33 -9.5t-39 -16q-8 2 -21.5 6t-18.5 14
q2 61 -0.5 122t-9.5 122q-2 21 -9 54t-20 64.5t-32 54t-44 22.5q-18 0 -33.5 -3t-31.5 -7t-33 -7.5t-37 -4.5q-10 -10 -10.5 -21.5t-0.5 -24.5q0 -29 8 -55.5t18 -54t18 -57t8 -62.5q0 -58 -6 -111.5t-6 -111.5v-13q0 -8 0.5 -18t0.5 -19zM38 120v23q0 2 -0.5 4.5t-0.5 5.5
v31q0 29 2 56.5l4 55.5l4 54.5t2 56.5t-8 57t-17 54l-3 9q-9 26 -16.5 52t-7.5 57v6q0 14 2.5 26t16.5 26q17 1 32 4l29 6q1 1 4 1t4 1q17 4 33.5 7t36.5 3t36 -12t29 -32l11 -10q16 -16 28 -40t20 -50t13 -50.5t7 -41.5q5 -48 8 -95.5t3 -95.5v-30q21 9 38 14.5t32.5 9
t32 4.5t37.5 1h6q3 0 6.5 -0.5t7.5 -0.5h28l3.5 -7t3.5 -5l21 -21q10 -17 20 -39t17.5 -45t12 -46t4.5 -42q0 -20 -15 -32.5t-37.5 -19.5t-49 -10t-48.5 -4q-11 -1 -21 -1.5t-17 -2.5q-12 -3 -26.5 -8.5t-29.5 -12.5q-25 -11 -49.5 -20.5t-41.5 -9.5q-11 0 -27 7.5
t-33.5 19.5t-35.5 26.5t-34 29.5q-26 21 -47.5 42.5t-29.5 33.5z" />
    <glyph glyph-name="m" unicode="m" horiz-adv-x="950" 
d="M206 701q-20 0 -42 -36t-43.5 -91t-41.5 -122t-35.5 -128t-24.5 -109t-9 -66q0 -6 0.5 -17t0.5 -12l12 -7.5l30 -19l39.5 -24.5l39.5 -24l30.5 -18.5t13.5 -7.5q22 0 28.5 21t6.5 48q1 9 1.5 18t1.5 17t14.5 68.5l41.5 178.5q0 3 0.5 11.5t3.5 17t9 14.5t17 5
q16 -1 19 -17.5t3 -40.5v-6q0 -5 2 -20.5t5 -51.5q5 -47 12 -212q3 -1 8 -4t11 -6l12 -6t9 -4q15 -6 40 -14.5l49 -16.5l42 -13.5t19 -5.5l17 1q6 11 3.5 27.5t-2.5 33.5q0 18 1.5 33.5t0.5 24.5l2 28.5t3 28.5l41 152.5t15 57.5q3 11 13 14q11 3 24 -7t13 -34v-6
q0 -5 2 -20.5t5 -51.5q5 -47 12 -212q3 -1 8 -4t11 -6l12 -6t9 -4q15 -6 40 -14.5l49 -16.5l42 -13.5t19 -5.5l17 1q6 11 3.5 27.5t-2.5 33.5q0 18 1.5 33.5t0.5 24.5q-2 39 -15.5 77.5l-24.5 72.5q-6 20 -11.5 50.5l-12 65.5t-14.5 72t-18 70.5t-23.5 60.5t-30.5 41
q-5 4 -34.5 15.5l-64 24t-63.5 22t-33 9.5q-20 0 -42 -36q-20 -32 -52 -148l-20 44q-36 73 -66 84q-14 6 -30.5 12l-33.5 12q-34 13 -63 22.5t-33 9.5zM206 713q4 0 33 -9.5t63 -22.5v1l35.5 -13t32.5 -13q21 -7 47 -45l4 -3l3 -2q7 -8 14 -17.5t15 -22.5q11 40 21.5 66
t18.5 40q26 41 53 41q2 0 17.5 -4.5t37 -12l46.5 -16t46.5 -17l37 -15t18.5 -9.5l10.5 -11t10.5 -14l13 -12q18 -17 31 -46.5t23.5 -65t18 -74t13.5 -73.5q5 -30 10.5 -55.5t10.5 -44.5h-1q2 -6 5 -12.5t5 -13.5h-1q11 -30 20.5 -62.5t11.5 -64.5v-6v-10q0 -7 -1 -11t-1 -8
v-8v-15v-11q0 -7 1 -10q0 -6 0.5 -11.5t0.5 -10.5q0 -11 -6 -27l-23 -1q-1 0 -19.5 5.5t-43 14l-50 17t-40.5 14.5l1 -1l-32 16l-6 2.5t-9 4.5l-23 23q-5 2 -6.5 2.5t-3.5 2.5q-4 84 -7 140t-5 79q-1 14 -2 24.5t-2 18.5q-2 10 -2 13q-1 3 -1 12l-16 -60l-33 -123l-6 -20
q-2 -15 -3 -28.5l-2 -27.5v-6v-10q0 -7 -1 -11t-1 -8v-8v-15v-11q0 -7 1 -10q0 -6 0.5 -11.5t0.5 -10.5q0 -11 -6 -27l-23 -1q-1 0 -19.5 5.5t-43 14l-50 17t-40.5 14.5l1 -1l-32 16l-6 2.5t-9 4.5l-23 23q-5 2 -6.5 2.5t-3.5 2.5q-4 84 -7 140t-5 79q-1 14 -2 24.5t-2 18.5
q-2 10 -2 13q-1 4 -1 10v7q-1 -3 -1 -10v-6l-41.5 -178t-14.5 -68t-1.5 -17t-1.5 -17q0 -31 -8.5 -54.5t-35.5 -23.5q-1 0 -14 8l-32.5 20l-41.5 26.5l-41.5 26.5t-32 20.5l-12.5 8.5l-24 23l-6.5 5l-2.5 2v4q0 3 -0.5 6t-0.5 7v12q0 18 9.5 67t26 111.5t37.5 130.5t44 125
t46.5 93.5t44.5 36.5zM421 608l-1 1q1 0 1 -1z" />
    <glyph glyph-name="n" unicode="n" horiz-adv-x="608" 
d="M-3 564q0 -9 1.5 -38t5 -70.5l8 -92t10.5 -101.5t13 -99.5t15 -86.5t17.5 -62t19.5 -26l24 -24q4 -4 8 -4q2 0 4 0.5t4 0.5h6q3 1 10.5 5.5t16.5 10.5q7 5 13 8.5t9 5.5h1q7 2 13 6q12 5 35.5 14l53.5 20q-1 29 -2.5 61.5t-3.5 63.5q0 3 -0.5 6.5t-0.5 6.5l-11 47
q45 -54 52 -78q0 -4 2 -8.5t2 -8.5l7 -30t5 -24q5 -29 13 -49t22 -22l21 -21q6 -6 12 -6q16 0 47 12.5t62 31t54 40t23 40.5q0 61 -5 121t-11 121q-5 42 -8.5 83.5t-5.5 83.5q-1 14 -1.5 25t-0.5 21q0 7 0.5 13.5t0.5 12.5q0 7 0.5 13.5t0.5 12.5q0 20 -2 41.5t-10 56.5
l-25 25q-2 6 -2 8h-20q-14 0 -48 -12t-70 -31q-35 -19 -55 -33t-31 -34v-24v-13t1 -11v-2q0 -5 0.5 -10t0.5 -10l-11 34t-12 38h-1l-6 57l-27 26v7q-11 0 -33.5 -7.5t-49.5 -20t-55.5 -28.5t-52 -32.5t-38.5 -32.5t-15 -28zM9 564q0 11 13.5 25.5t34.5 30t47 30t50.5 26
t45 18.5t30.5 7l6 -51q48 -151 74 -177v10q0 8 0.5 16.5t0.5 16.5v11q0 25 -1.5 46.5t-1.5 44.5q8 16 26.5 29t52.5 30q35 18 67.5 30t45.5 12h10q7 -29 8.5 -49t1.5 -40t-1 -42.5t1 -55.5q5 -102 17.5 -204.5t12.5 -204.5q0 -17 -22 -37.5t-51.5 -37.5t-59 -28.5
t-44.5 -11.5q-9 0 -15 18t-11 44q-2 14 -6.5 31.5t-9.5 39.5q-10 42 -111 143l19 -87l4 -66t3 -64q-40 -14 -63 -23.5l-33 -13.5q-2 -1 -9.5 -5.5l-15.5 -9.5l-15.5 -9.5t-9.5 -5.5q-1 0 -5 -0.5t-6 -0.5q-9 0 -17 22.5t-15.5 59.5t-14 84.5t-11.5 98.5t-9 101t-7 91.5
t-4.5 70t-1.5 37.5z" />
    <glyph glyph-name="o" unicode="o" 
d="M268 321q0 45 27 71.5t67 44.5q6 0 8 1q2 0 2.5 0.5t2.5 0.5q34 0 54 -10q11 -20 11 -52q0 -63 -34 -98.5t-91 -35.5q-21 0 -34 9q-8 15 -10.5 32.5t-2.5 36.5zM-2 357q0 -3 0.5 -5.5t0.5 -4.5v-9q1 -16 1.5 -26.5t2.5 -21.5t6 -27t12 -43q13 -33 23 -56l18 -40
t15.5 -28.5t15.5 -21.5q5 -5 10.5 -9l10.5 -8l11 -11q19 -18 48 -33.5t61 -27t65 -18t61 -6.5h10q8 0 11 1q14 1 33 4t39 8.5t39 13t33 17.5l4 4l15.5 15l22.5 21q15 15 33.5 43t33.5 60l20 46t18 47.5t13 51t5 56.5q0 70 -27 139.5t-78 120.5l-3 2q-36 48 -86 76.5
t-111 28.5q-43 0 -88 -13t-88 -37t-81.5 -57t-67 -73t-45.5 -85.5t-17 -93.5zM229 351q0 -22 4.5 -43.5t14.5 -38.5t26.5 -27.5t40.5 -10.5q61 0 99 39.5t38 106.5q0 57 -27.5 79t-79.5 22q-2 0 -7.5 -1t-7.5 -1q-42 -20 -71.5 -47.5t-29.5 -77.5zM10 357q0 46 16.5 90
t44 82.5t65 70.5t79 55t85.5 36t85 13q60 0 109 -29.5t84 -76t54 -104.5t19 -115q0 -59 -17 -105t-38 -92q-14 -31 -32 -58.5t-33 -41.5l-26 -25l-15 -15q-14 -10 -32 -17t-37.5 -12t-38 -8t-32.5 -4q-27 -3 -61.5 2.5t-69.5 17t-66.5 28t-52.5 35.5q-7 10 -13.5 20.5
t-14 25.5t-17 36.5t-21.5 51.5l-13.5 49t-6.5 29.5t-2.5 25t-1.5 35.5z" />
    <glyph glyph-name="p" unicode="p" horiz-adv-x="650" 
d="M363 484q-8 -15 -22 -34.5t-31 -35.5q5 25 17 45t36 25zM68 -15l1 -4q4 -13 16 -16l22 -22q6 -6 17 -6q3 0 7 1t7 3l1 -1l13 4.5t23 8.5l28 11l30 12q32 14 57 30.5t29 36.5h-1q2 6 2 20v54l-1 41q45 15 78.5 31.5t59.5 32.5q58 34 64 45q2 4 4 6l4 4q3 3 6 5l6 4h1
q2 2 4.5 3t8.5 7h1q18 17 33.5 45t27 59.5t17.5 62t6 53.5q0 32 -17.5 63.5t-43.5 57.5q-22 29 -50 53t-54 41h-30q-2 0 -4 0.5t-4 0.5h-26q-29 0 -51.5 -1.5t-52.5 -9.5q-11 -3 -38.5 -15t-62 -29t-71.5 -37.5t-67.5 -40t-50.5 -36t-20 -26.5q0 -29 10.5 -44.5t24.5 -29.5
q8 -8 14.5 -17.5t11.5 -27.5q0 -5 -0.5 -9.5t-0.5 -9.5v-23q0 -42 2 -80.5l4 -80.5l4 -84t2 -85v-31v-15t-1 -15zM348 525q-30 0 -46.5 -17t-24 -41t-9 -50.5t-1.5 -45.5q15 0 34.5 16.5t37 38.5t30 44t12.5 34q0 16 -9.5 18.5t-23.5 2.5zM80 -14q3 55 1 109.5t-5 108.5
t-5.5 108.5t-0.5 109.5q-4 19 -14 31t-20.5 23t-18.5 24.5t-8 36.5q0 9 19 24.5t49 33.5t66 37t69.5 35t60 27.5t37.5 14.5q32 9 55 10t55 1h10q7 0 15 -0.5t15 -0.5h10q21 -13 44 -32t42.5 -41.5t32 -48t12.5 -51.5q0 -22 -6 -52t-17 -60t-25.5 -57t-32.5 -44q-5 -5 -12 -9
t-14 -10q-6 -4 -11 -12t-60 -42q-28 -16 -63 -33t-80 -33l1 -47v-27v-27q0 -17 -1 -18q-3 -17 -26.5 -32.5t-53.5 -28.5l-30 -12t-28 -10.5l-23 -8l-13 -4.5q-8 -4 -15 -2.5t-11 9.5z" />
    <glyph glyph-name="q" unicode="q" horiz-adv-x="736" 
d="M266 261l2 -3q-2 2 -2 3zM268 327q0 46 27 73.5t66 44.5h6q2 0 4 0.5t4 0.5q15 0 28.5 -2t24.5 -7q12 -20 12 -55v-52q-25 5 -38 5q-76 0 -88 -95q-24 6 -33 13q-7 15 -10 34t-3 40zM-2 360q0 -3 0.5 -6t0.5 -5v-8q1 -17 1.5 -27.5t2.5 -22t6 -26.5t12 -42q13 -33 23 -56
l18 -40t15.5 -28.5t15.5 -21.5q9 -9 21 -18l11 -10q20 -19 50 -34.5t63 -27t66.5 -17.5t61.5 -6h14q12 1 27 2.5t42 9.5q9 -15 17.5 -23t16.5 -13l16 -16q9 -9 18.5 -12.5t20.5 -3.5q3 0 18 9t36 23.5l44 31.5l43 33t34.5 29t16.5 18h1q1 2 1 12q0 14 -8 27t-20 25l-10 9
q-9 14 -22.5 26.5l-26.5 23.5q14 35 23.5 61t13.5 42q4 20 6 38.5t2 35.5q0 70 -27 139.5t-78 120.5l-2 1l-1 1q-36 48 -86 76.5t-111 28.5q-64 0 -132.5 -28.5t-125 -77.5t-93 -114.5t-36.5 -138.5zM229 357q0 -24 4.5 -46.5t14.5 -39.5t26.5 -27.5t49.5 -18.5
q8 128 128 89v68q0 59 -27.5 81t-79.5 22q-2 0 -7.5 -0.5t-7.5 -0.5q-42 -18 -71.5 -47.5t-29.5 -79.5zM10 360q0 47 16.5 91t44 82.5t65 70.5t79 55t85.5 35.5t85 12.5q60 0 109 -29.5t84 -76t54 -104.5t19 -115q0 -29 -8 -72q-7 -32 -39 -112q6 -10 22.5 -23t33 -27.5
t27 -30.5t5.5 -32q-1 -4 -14 -16t-32.5 -27l-42 -32t-43 -31t-35 -23t-17.5 -9q-9 0 -17 2.5t-16 10.5t-16.5 22.5t-18.5 37.5q-39 -11 -57.5 -13.5t-32.5 -3.5q-27 -2 -61.5 3.5t-69.5 16.5t-66.5 27.5t-52.5 36.5q-7 10 -13.5 20.5t-14 25.5t-17 36.5t-21.5 51.5
q-9 32 -13.5 49.5t-6.5 29.5t-2.5 24.5t-1.5 35.5z" />
    <glyph glyph-name="r" unicode="r" horiz-adv-x="662" 
d="M365 488q-8 -20 -22 -43.5t-34 -38.5q4 29 16 53t40 29zM68 -10v-4q5 -13 18 -18q1 0 1.5 -0.5t1.5 -0.5l19 -19q5 -5 9 -7q3 -1 8 -1h2l18.5 6t23.5 8q21 7 46 16.5t47 21t38 25.5t19 30q1 3 1 18v28l2 -4q11 -28 25.5 -55t37.5 -39l15 -15q20 -20 46 -20q9 0 26.5 10.5
t39 26.5t44 36.5t41 39.5t30.5 35.5t12 25.5v2q-2 12 -11 21l-19 18q-6 16 -21.5 24.5t-32.5 16.5q-19 8 -35 18q-2 6 -2 18q0 13 7.5 19.5t15.5 11.5q2 2 5.5 4t8.5 7h1q19 16 34.5 43.5t26.5 58.5t17 61.5t6 53.5q0 32 -17 61.5t-43 55.5q-21 30 -50 54t-55 41h-30
q-2 0 -4 0.5t-4 0.5h-26q-29 0 -51.5 -1.5t-52.5 -9.5q-11 -3 -38.5 -15t-62 -28.5t-71.5 -36.5t-67.5 -39.5t-50.5 -35.5t-20 -26q0 -27 10 -42t22 -27q1 -1 1 -2l1 -1q8 -8 15 -18t12 -27q0 -5 -0.5 -9.5t-0.5 -9.5v-22q0 -40 2 -80l4 -80l4 -82.5t2 -82.5v-30v-14t-1 -15
zM348 529q-30 0 -46.5 -17t-24 -41t-9 -50.5t-1.5 -45.5q15 0 36 12.5t39 34.5t28.5 48t10.5 38q0 16 -9.5 18.5t-23.5 2.5zM80 -10q3 54 1 107.5t-5 107t-5.5 107t-0.5 107.5q-4 19 -14 30.5l-20.5 22.5t-18.5 24t-8 36q0 9 19 24t49 32.5t66 36.5t69.5 34.5l60 27
t37.5 14.5q32 9 55 10t55 1h10q7 0 15 -0.5t15 -0.5h10q21 -13 44 -31.5t42.5 -40.5t32 -47t12.5 -51q0 -22 -6 -51.5t-16.5 -59.5t-25.5 -56.5t-33 -42.5q-5 -5 -12 -9t-13.5 -9t-11 -12t-4.5 -19q0 -20 8.5 -33t21 -22t28 -16l29 -13t23 -14t11.5 -19q1 -8 -10 -23.5
t-28.5 -34t-39.5 -37.5t-43 -35t-38 -26t-25 -10q-19 0 -33 12.5t-25 30.5t-19.5 40t-17 40t-18.5 30.5t-23 12.5q1 -1 1 -17v-26v-27q0 -16 -1 -17q-3 -18 -26.5 -33t-53 -27.5t-58.5 -22t-42 -15.5l-2 -0.5t-3 -0.5t-3 0.5l-2 0.5q-2 1 -5.5 4.5t-4.5 5.5z" />
    <glyph glyph-name="s" unicode="s" horiz-adv-x="534" 
d="M7 165q0 -14 5 -24.5t11 -20.5v1q1 -2 1.5 -2.5t1.5 -2.5q9 -12 13 -21q4 -8 7.5 -19t7.5 -22q7 -20 13 -33.5t23 -21.5l18 -18q11 -11 30 -15.5t57 -4.5h7q13 3 32 8t38.5 11t36.5 12t25 10q6 3 12.5 5.5t12.5 5.5q32 14 61.5 29t51.5 34.5t35 46.5t13 66
q0 64 -11 103.5t-34 62.5l-10 10q-23 38 -68 52t-114 21q10 12 36 15.5t54 6.5q19 1 36.5 3t31 6.5t21.5 12.5t8 21q0 12 -3.5 35t-10 49t-17 50t-24.5 38l-3 2l1 -1q1 0 2 -1l-15 15q-9 14 -20 23t-24 9q-62 0 -126 -19t-116 -55.5t-84.5 -90.5t-32.5 -123q0 -27 8 -50
t19 -47q1 -1 1 -3t1 -3l3 -6q8 -19 19 -31t25 -20l12 -12q20 -20 45 -27t53 -9q-24 -9 -46.5 -10.5t-49.5 -1.5q-13 0 -29 -0.5t-33 -1.5q-14 -14 -16 -23.5t-2 -23.5zM19 165q0 11 1.5 18.5t9.5 16.5q32 2 56.5 1.5t46.5 1.5t42.5 7.5t44.5 19.5q8 5 9.5 8.5t1.5 11.5
q0 2 -0.5 5.5t-0.5 4.5q-29 4 -57 4.5t-53.5 5.5t-46 18t-33.5 42l-21 51t-10 53q0 66 31.5 117.5t81.5 87t112 53.5t122 18q19 0 33 -22.5t23.5 -52t14 -59t4.5 -43.5t-14 -20.5t-35.5 -9.5t-46.5 -4t-46.5 -5t-35.5 -12.5t-14 -25.5q0 -7 0.5 -15.5t10.5 -10.5
q62 -5 106 -13t71.5 -29.5t40.5 -61t13 -107.5q0 -40 -15 -67t-40.5 -46.5t-58 -34.5l-67.5 -31q-8 -4 -24.5 -9.5l-35.5 -11.5t-38 -11t-32 -8h-5q-39 0 -57.5 5.5t-27.5 17.5t-13.5 31t-16.5 46q-6 14 -18.5 31t-12.5 34z" />
    <glyph glyph-name="t" unicode="t" horiz-adv-x="528" 
d="M150 429q9 0 15.5 -27.5t11.5 -70.5t8.5 -95l7 -101t7.5 -89t10 -58q1 0 4.5 -0.5t5.5 -0.5q7 0 34.5 12t57.5 29t54 34t24 28q0 77 -10.5 151.5t-10.5 151.5v14q0 11 0.5 23t0.5 23v15q1 2 4.5 5.5t5.5 4.5q4 1 13.5 3t21 3.5t21.5 2.5t14 1q18 36 19.5 79.5t1.5 82.5
q0 6 0.5 15t0 18.5t-3 19t-8.5 15.5q-5 0 -20 0.5t-20 0.5q-34 0 -65 -3t-61.5 -8.5t-63.5 -13l-70 -16.5l-80 -40q-7 -3 -19 -5.5t-23.5 -6t-20 -10t-8.5 -17.5q0 -23 4 -49.5t11.5 -53.5t19 -52.5t26.5 -45.5q11 2 20.5 7l19 10.5t19 9.5t21.5 4zM233 -51l-27 27h-5
q-9 27 -14 77t-9 110q0 5 -0.5 10t-0.5 10q-5 60 -9 114.5t-9 87.5q-5 -2 -10 -5t-10 -5q-9 -5 -18 -9.5t-25 -7.5l-28 27h-3q-17 22 -29.5 49t-21 56t-13 57t-4.5 52q0 12 5.5 20t14.5 13t19.5 8t20.5 5l10 2q-1 0 9 2l81 41l70 16.5t64 13t62.5 8.5t66.5 3h6q3 0 6.5 -0.5
t7.5 -0.5h24q4 -4 7 -8t5 -8l17 -17q11 -11 14.5 -24.5t3.5 -27.5q0 -5 -0.5 -8.5t-0.5 -7.5v-37q0 -34 -3.5 -71t-21.5 -72q-5 0 -15.5 -1t-21.5 -2.5t-21 -3.5t-14 -3q-4 0 -4 -4v-12q0 -6 -0.5 -11.5t-0.5 -11.5v-37q0 -76 10.5 -151t10.5 -152q0 -8 -12 -19t-30 -23.5
t-40 -25t-42 -22.5t-35 -16t-20 -6q-2 0 -3.5 0.5t-3.5 0.5h-10z" />
    <glyph glyph-name="u" unicode="u" horiz-adv-x="580" 
d="M270 301v-1h1zM240 330h-2v28q1 -11 1.5 -18.5t0.5 -9.5zM30 98l2 -5q11 -14 23 -25.5t25 -22.5l6 -5q45 -45 98 -62.5t116 -17.5q37 0 62.5 6t44.5 16.5t34 25.5l31 32q24 27 58 55l21 93l10 481l-27 27v6h-22q-2 0 -4 0.5t-4 0.5h-2q-7 0 -26 -6.5t-44 -16t-51.5 -22
l-49 -24t-37 -22t-14.5 -16.5q0 -64 5.5 -126.5t5.5 -124.5v-46q0 -4 -0.5 -8t-0.5 -8v-36q0 -1 0.5 -1.5t0.5 -1.5q0 -2 -4.5 -2.5t-8.5 -0.5q-3 11 -4 23.5t-2 23.5q0 3 -0.5 6t-0.5 5l-1 1l-26 27l26 -26q0 3 -1 19t-3 31q-2 17 -3.5 31t-1.5 18q0 7 1.5 33t3.5 56
t3.5 56.5t1.5 34.5v100l-27 27v6q-25 -2 -66 -15t-80.5 -34t-68.5 -48t-29 -58v-18q0 -10 0.5 -30.5t1 -47t1.5 -55.5t2 -55t2.5 -46.5t2.5 -29.5q6 -11 9.5 -28t5.5 -36.5t2.5 -39.5t0.5 -36q0 -14 0.5 -23t1.5 -15zM42 100q-1 6 -1.5 15t-0.5 21q0 17 -0.5 37.5t-2.5 40.5
t-5.5 37.5t-9.5 28.5q-2 14 -3.5 51t-3 79t-2.5 79t-1 51v18q0 28 26 53t62 44t73 31t59 14v-45v-45q0 -7 -1.5 -33.5t-3.5 -56.5t-3.5 -56.5t-1.5 -33.5q0 -4 1.5 -18.5t3.5 -31.5t3.5 -31.5t1.5 -18.5q1 -12 2 -29.5t5.5 -33t13 -27t25.5 -11.5q8 0 17.5 2.5t6.5 18.5v18
q0 14 0.5 29.5t0.5 28.5v19q0 63 -5.5 125.5t-5.5 125.5q0 5 13.5 14t35 20t46.5 21.5l48.5 19.5t41.5 14.5t25 5.5q2 0 10 -0.5t10 -0.5l-10 -470l-20 -90q-32 -26 -52.5 -49.5t-42 -41.5t-50.5 -29t-77 -11q-69 0 -126 23t-102 78z" />
    <glyph glyph-name="v" unicode="v" horiz-adv-x="594" 
d="M253 549q-1 8 -1.5 17t-1.5 18q0 20 -3 38t-14 29l-20 20q-12 23 -37 23q-1 0 -14.5 -8.5l-33 -21l-42 -27l-42 -27l-32.5 -21l-13 -8.5v-4q0 -3 -0.5 -6t-0.5 -7v-12q0 -17 8.5 -62.5t23.5 -104t34.5 -123.5t41 -121.5t44 -97t43.5 -51.5l17 -17q14 -14 26 -14
q2 0 17 4.5t36.5 12l46 16l46.5 16.5t37 14.5t18 9.5q19 16 33.5 45.5t25.5 65.5t19 76t14 77q5 30 10.5 55.5t10.5 44.5l-1 1q2 6 5 12t5 13h-1q11 30 20.5 62.5t11.5 64.5v6v9q0 8 -1 12q-1 5 -1 15v16v10q0 8 1 11q0 5 0.5 11t0.5 11q0 13 -6 27l-25 24l-3 9l-25 1
q-1 0 -19 -5.5l-42.5 -13.5l-49.5 -16.5t-41 -14.5l-33 -16q-8 -4 -11 -5t-6 -3q-4 -84 -7 -140t-5 -79q-1 -14 -2 -24t-2 -18q-1 -4 -1.5 -7t-0.5 -7q-1 -4 -1 -11v-6v-6q0 -18 -3 -31l-40 173t-14 66zM206 0q-20 0 -42 36t-43.5 91t-41.5 122t-35.5 128t-24.5 109t-9 66
q0 6 0.5 17t0.5 12l12 7.5l30 19l39.5 24.5l39.5 24l30.5 18.5t13.5 7.5q22 0 28.5 -21t6.5 -48q1 -9 1.5 -18t1.5 -17t14.5 -68.5l41.5 -178.5q0 -6 2.5 -17t7 -21.5t10 -19.5t11.5 -12q15 23 18 39.5t3 40.5v6q0 5 2 20.5t5 51.5q5 47 12 212q3 1 8 4t11 6l12 6t9 4
q15 6 40 14.5l49 16.5l42 13.5t19 5.5l17 -1q6 -11 3.5 -27.5t-2.5 -33.5q0 -18 1.5 -33.5t0.5 -24.5q-2 -39 -15.5 -77.5l-24.5 -72.5q-6 -20 -11.5 -50.5l-12 -65.5t-14.5 -72t-18 -70.5t-23.5 -60.5t-30.5 -41q-5 -4 -34.5 -15.5l-64 -24t-63.5 -22t-33 -9.5z" />
    <glyph glyph-name="w" unicode="w" horiz-adv-x="938" 
d="M529 -8l15 -15q16 -16 32 -16q2 0 17 4.5l36.5 11.5t46 16l46 17t37 14.5t18.5 9.5q19 16 33.5 45.5t25.5 65.5t19 76t14 77q5 30 10.5 55.5t10.5 44.5l-1 1q2 6 5 12t5 13h-1q11 30 20.5 62.5t11.5 64.5v6v9q0 8 -1 12q-1 5 -1 15v16v10q0 8 1 11q0 5 0.5 11t0.5 11
q0 13 -6 27l-25 24l-3 9l-25 1q-1 0 -19.5 -5.5t-43.5 -14l-50.5 -17t-40.5 -14.5l-31 -15q-8 -4 -11 -5t-6 -3q-4 -84 -7 -140t-5 -79q-1 -14 -2 -24.5t-2 -18.5q-1 -4 -1.5 -7t-0.5 -6q-1 -4 -1 -11v-6v-6q0 -22 -4 -37q-5 21 -16.5 63l-28.5 108l-6 21q-2 14 -3 27.5
l-2 27.5v6v9q0 8 -1 12q-1 5 -1 15v16v10q0 8 1 11q0 5 0.5 11t0.5 11q0 13 -6 27l-25 24l-3 9l-25 1q-1 0 -19.5 -5.5t-43.5 -14l-50.5 -17t-40.5 -14.5l-31 -15q-8 -4 -11 -5t-6 -3q-4 -84 -7 -140t-5 -79q-1 -14 -2 -24.5t-2 -18.5q-1 -4 -1.5 -7t-0.5 -6q-1 -4 -1 -11
v-6v-6q0 -18 -3 -31l-40 173t-14 66t-1.5 17t-1.5 18q0 20 -3 38t-14 29l-20 20q-12 23 -37 23q-1 0 -14.5 -8.5l-33 -21l-42 -27l-42 -27l-32.5 -21l-13 -8.5v-4q0 -3 -0.5 -6t-0.5 -7v-12q0 -17 8.5 -62.5t23.5 -104t34.5 -123.5t41 -121.5t44 -97t43.5 -51.5l17 -17
q14 -14 26 -14q5 0 33.5 10l65.5 22q14 6 28 10.5t27 9.5h1q2 1 4 1.5t4 1.5q15 6 31.5 25t34.5 54q17 -50 28 -66q18 -28 36 -37zM206 0q-20 0 -42 36t-43.5 91t-41.5 122t-35.5 128t-24.5 109t-9 66q0 6 0.5 17t0.5 12l12 7.5l30 19l39.5 24.5l39.5 24l30.5 18.5t13.5 7.5
q22 0 28.5 -21t6.5 -48q1 -9 1.5 -18t1.5 -17t14.5 -68.5l41.5 -178.5q0 -6 2.5 -17t7 -21.5t10 -19.5t11.5 -12q15 23 18 39.5t3 40.5v6q0 5 2 20.5t5 51.5q5 47 12 212q3 1 8 4t11 6l12 6t9 4q15 6 40 14.5l49 16.5l42 13.5t19 5.5l17 -1q6 -11 3.5 -27.5t-2.5 -33.5
q0 -18 1.5 -33.5t0.5 -24.5l2 -28.5t3 -28.5l41 -152.5t15 -57.5q2 -5 3.5 -11t3.5 -11q5 -10 10.5 -19t11.5 -12q15 23 18 39.5t3 40.5v6q0 5 2 20.5t5 51.5q5 47 12 212q3 1 8 4t11 6l12 6t9 4q15 6 40 14.5l49 16.5l42 13.5t19 5.5l17 -1q6 -11 3.5 -27.5t-2.5 -33.5
q0 -18 1.5 -33.5t0.5 -24.5q-2 -39 -15.5 -77.5l-24.5 -72.5q-6 -20 -11.5 -50.5l-12 -65.5t-14.5 -72t-18 -70.5t-23.5 -60.5t-30.5 -41q-5 -4 -34.5 -15.5l-64 -24t-63.5 -22t-33 -9.5q-20 0 -42 36q-20 32 -52 148l-20 -44q-36 -73 -66 -85l-30.5 -11t-33.5 -13
l-63 -21.5t-33 -9.5z" />
    <glyph glyph-name="x" unicode="x" horiz-adv-x="630" 
d="M252 476l-14 37v11v20v19v11q0 1 -2.5 7.5l-5.5 14.5t-6.5 16t-5.5 13l-4 8t-4 9q-3 5 -5 9l-5 10t-7 15.5t-11 24.5l-94 -6l-78 -6q4 -51 5.5 -77.5t1.5 -31.5q0 -23 6 -53.5t17 -61t25.5 -58t32.5 -45.5q5 -6 12 -10t13.5 -9.5t11 -12.5t4.5 -19q0 -24 -20.5 -44.5
t-44.5 -39t-42.5 -37.5t-13.5 -41q1 -4 14 -15.5t32.5 -26l42 -31t43 -30t35 -22t17.5 -8.5q28 0 47 27.5t30 60.5q5 11 9 21l8 20q10 22 19 31q5 7 13.5 22.5t19.5 38.5l12 -32v-11v-20v-19v-11q0 -2 4.5 -14l9.5 -25q6 -12 8.5 -16.5t5.5 -12.5q3 -5 5 -9l5 -10t7 -15.5
l11 -25.5l94 7l78 6q-4 51 -5.5 77.5t-1.5 31.5q0 23 -6 53.5t-17 61t-25.5 58t-32.5 45.5q-5 6 -12 10t-13.5 9t-11 12.5t-4.5 19.5q0 24 20.5 44.5t44.5 39t42.5 37.5t13.5 41q-1 4 -14 15.5t-32.5 26l-42 30.5l-43 29.5t-35 22t-17.5 8.5q-29 0 -46.5 -27t-31.5 -60
l-8 -21t-9 -20q-8 -19 -18 -32q-9 -11 -31 -65zM217 680q6 -15 10.5 -25t6.5 -15l2 -1q5 -9 7 -14.5t6 -10.5v-1l1 -1q4 -10 7 -14q2 -3 3.5 -8t3.5 -10l6 -16t5 -14q10 13 17 33q3 5 5.5 11t4.5 12q1 1 1 3t1 3q8 19 16.5 37t19.5 32.5t24.5 23t31.5 8.5q3 0 17.5 -8.5
t35 -22l44 -30l44 -32t35.5 -28t19 -18.5h1q0 -2 0.5 -2.5t0.5 -2.5l19 -19q3 -3 4 -6l3 -2q1 -2 1 -11q0 -22 -19 -41t-42 -37t-42 -36.5t-19 -39.5v-4q4 -3 7.5 -6t5.5 -7q2 -3 5 -6t5 -7l16 -15h-1q18 -18 33.5 -46.5t27 -60t17.5 -62.5t6 -55q0 -5 2 -35.5t6 -81.5
l-87 -7l-101 -7l-28 27h-4l-6.5 13.5t-5.5 12.5t-3 8t-2 5q-4 9 -6.5 13.5t-4.5 9.5q-1 2 -1.5 2.5t-1.5 2.5q-2 4 -3 7.5t-3 7.5q-3 1 -3 5l-0.5 1t-2.5 4q-5 11 -9.5 23t-6.5 19q-8 -11 -15 -27h-1q-3 -9 -7 -19t-9 -21h1q-6 -18 -14 -34.5t-18.5 -30t-24 -21.5t-29.5 -8
q-3 0 -16 7.5t-31 19t-38.5 26.5l-40.5 29.5t-36 27.5t-24 21l-3 3q-1 1 -2 1l-1 1l-2 1l-20.5 17.5t-10.5 12.5h-1q-1 2 -1 13q0 24 19 43t43 37q22 18 41 36t19 38q0 3 -2 11l-16 15v1l-2 2v-1l-11 8.5t-11 11.5q-18 19 -32.5 47.5t-25 59.5t-16.5 61t-6 53q0 5 -2 37
t-6 83l90 7l102 6q2 -6 5 -10zM606 555l-2 2zM619 541l-1 1v-1h1zM236 638l-1 1v-1h1z" />
    <glyph glyph-name="y" unicode="y" horiz-adv-x="630" 
d="M618 542l1 -1h-1v1zM266 574h-1q-2 4 -4 10.5l-4 13.5h-1q-3 4 -6 15l-1 1v1q-5 8 -8.5 14.5t-6.5 14.5l-6.5 16t-9.5 22l-23 22q-2 6 -5 11l-103 -6l-90 -7q4 -51 6 -84t2 -38q0 -24 6 -56t17.5 -64.5t27 -61.5t34.5 -48l6 -6l2 -2t3 -2q0 -1 2 -3v-1h1v-2v-5
q0 -5 -1 -10q0 -3 -0.5 -6.5t-0.5 -7.5l-2.5 -41t-2.5 -51.5t-1.5 -56.5t-0.5 -55q0 -7 10 -17.5t26 -21.5l9 -9q14 -14 39.5 -31t51.5 -31.5t48 -24.5t28 -10t11 3h6q8 22 12 63.5t7 92.5q2 24 3.5 52t3.5 54q1 20 2 36t2 24q108 47 141 86q10 9 18.5 21l16.5 23
q7 10 14.5 19.5t19.5 20.5l10 11h1q17 16 31 32t14 36v6q0 5 -1 6l-3 3q-2 2 -2.5 3t-1.5 2l-19 19q0 2 -0.5 2.5t-0.5 2.5h-1q-4 6 -19 18.5t-35.5 28l-44 32.5l-43.5 30.5t-35 22.5t-18 9q-18 0 -31.5 -8.5t-24.5 -23.5t-20 -34.5t-17 -40.5q-1 -1 -1 -3v-1l-1 -1
q-2 -7 -4.5 -12.5t-4.5 -10.5q-8 -17 -17 -31q-4 7 -9 25zM316 317q-1 -6 -2.5 -25t-3 -44l-3 -52.5t-3.5 -49.5q-3 -49 -7 -89.5t-10 -58.5q-1 0 -4.5 -1.5t-5.5 -1.5q-5 0 -19.5 6t-33 15.5t-39.5 21.5t-38 23.5t-28.5 22t-11.5 17.5q0 36 1.5 76.5t3 74.5t3 57t1.5 25
q1 10 -6 14.5t-12 9.5q-18 18 -32.5 45.5t-25.5 59t-17 62.5t-6 55q0 5 -1.5 32.5t-5.5 78.5l78 6l94 6l11 -25.5t7 -15.5l5 -10t5 -9q2 -5 4 -9l4 -8l5.5 -13.5t6.5 -16.5l5.5 -14.5t2.5 -7.5v-11v-20v-20v-11l12 -33q11 23 19.5 38.5t13.5 22.5q11 14 18 32q5 10 9 20.5
t8 22.5q14 35 31.5 61.5t46.5 26.5q3 0 17.5 -9l35 -22.5l43 -29.5l42 -31t32.5 -26.5t14 -15.5q5 -23 -13 -42t-39 -39q-20 -19 -34 -41.5t-35 -42.5q-34 -40 -143 -87z" />
    <glyph glyph-name="z" unicode="z" horiz-adv-x="536" 
d="M70 102l1 -8q14 -26 31 -51t42 -41l9 -8q16 -16 35.5 -25.5t45.5 -9.5q8 0 32 7t55 18l65 23.5l62.5 23.5t47 19t18.5 9q0 -1 0.5 2.5t1.5 9.5l2.5 17.5t3 20t2.5 18t1 12.5q0 40 -22 62l-16 15q-12 23 -37.5 33.5t-58.5 10.5h-15q-8 0 -12 -1q20 38 47 96l64 136l8 6v16
q0 4 0.5 7.5t0.5 5.5q0 34 -7 70t-30 59l-13 13q-12 20 -32 32.5t-51 12.5q-32 0 -67.5 -8.5t-67.5 -17.5q-15 -5 -31 -9l-28 -7q-4 -9 -21 -15.5l-39 -14.5q-18 -6 -35.5 -12.5t-32 -15t-23.5 -18.5t-9 -23q0 -22 7.5 -39.5t18.5 -36.5l9 -14.5t6 -8.5l-1 1l9 -18
q4 -5 12 -7l21 -20q8 -8 30 -8q24 0 69 9q-43 -99 -69.5 -180.5t-38.5 -147.5zM82 99q14 78 48 175t89 215l-58 -16q-96 -22 -106 -6l-10 18t-11 18q-10 18 -17.5 34.5t-7.5 34.5q0 17 23 29t51 21.5l53 18.5t29 19q19 4 42.5 11t48 13.5t49 11.5t46.5 5q30 0 48.5 -13.5
t28.5 -35t13.5 -47t3.5 -49.5q0 -3 -0.5 -12.5t-0.5 -12.5l-6 -4l-101 -211.5t-48 -88.5q16 7 29 11t24 6.5t22.5 3t26.5 0.5q42 0 68.5 -18t26.5 -61q0 -5 -1.5 -18t-4 -26.5t-4 -24t-1.5 -11.5t-18 -8.5t-45.5 -17.5l-60.5 -21.5l-63 -21t-53 -16t-31 -6.5q-24 0 -42 9
t-32.5 23.5t-26 32.5t-21.5 36z" />
    <glyph glyph-name="FL007Bh" unicode="{" horiz-adv-x="422" 
d="M78 -30l27 -27l16 4q12 0 25.5 -8t27.5 -18q15 -11 30 -19.5t29 -8.5q32 0 130 9q-2 58 -9 107t-20 91l-25 24l-2 8q-40 17 -52 29q-12 16 -12 172l6 79q0 1 7.5 9.5t18 19l21.5 20.5t19 16q20 17 20 143q0 85 -24 109l-17 17q-13 25 -34 25q-10 0 -12 -1
q-21 -7 -46.5 -20.5t-54.5 -35.5q-57 -40 -97 -95.5t-52 -121.5v-29q0 -5 -0.5 -10t-0.5 -10v-15q0 -7 -1 -10v-116q0 -52 1.5 -85t3.5 -50q4 -25 9.5 -46t12.5 -41t16 -40.5l20 -44.5q1 -11 6 -15v1q2 -4 4.5 -8.5t4.5 -8.5zM210 443l-6 -79q0 -158 14 -178q7 -9 14 -17
t14 -15q13 -13 50 -30q12 -40 19 -86t9 -98q-43 -4 -73.5 -6t-47.5 -2q-14 0 -29.5 10l-31.5 21t-32 18.5t-30 2.5l-23.5 51.5t-19 45.5t-14.5 44t-10 48q-2 17 -3.5 50t-1.5 84v113q1 3 1 13v15q0 15 0.5 28t0.5 18q11 63 50 117.5t94 93.5q54 39 98 53t44 -108
q0 -123 -16 -136q-8 -6 -20 -17t-23 -22.5l-19 -20.5t-8 -11z" />
    <glyph glyph-name="FL007Ch" unicode="|" horiz-adv-x="314" 
d="M28 -51l8 -50l4 4l28 -28l19 18.5l24.5 22.5t24 20t17.5 12q8 5 19.5 7.5t25.5 4.5q18 4 36 8.5t32.5 13.5t23.5 24.5t9 41.5v6l-20 544v11l10 134v13q0 4 0.5 11.5t0.5 9.5l-27 27v6q-12 0 -34 -6.5t-49 -17t-55.5 -24t-51.5 -28.5t-38.5 -29.5t-16.5 -27.5
q0 -3 0.5 -9.5t1.5 -14.5v-6q2 -18 3 -42.5t1 -49.5q2 -38 3 -72t1 -47v-85q0 -14 0.5 -28t0.5 -30v-200q0 -17 -0.5 -32t-0.5 -29v-83zM44 -77l-4 27q0 19 0.5 56.5t0.5 86.5v99v101q0 48 -0.5 85t-0.5 58q0 13 -1 47.5t-3 72.5q0 19 -1 38t-2 35.5t-2 28.5t-1 18
q1 12 15 25.5t35 27t46.5 26t49.5 22t44 15.5t31 6q0 -2 -0.5 -12t-0.5 -12l-10 -134v-7v-5l20 -544v-6q0 -32 -16 -47t-38 -22.5t-46 -11t-40 -11.5q-7 -3 -17.5 -11t-21.5 -17.5l-21 -19z" />
    <glyph glyph-name="FL007Dh" unicode="}" horiz-adv-x="422" 
d="M122 443l6 -79q0 -158 -14 -178q-7 -9 -14 -17t-14 -15q-13 -13 -50 -30q-12 -40 -19 -86t-9 -98q43 -4 73.5 -6t47.5 -2q13 0 29 10l32 21t32 18.5t30 2.5l23.5 51.5t19 45.5t14.5 44t10 48q2 17 3.5 50t1.5 84v78q0 32 -1 35v28q0 15 -0.5 28t-0.5 18q-11 63 -50 117.5
t-94 93.5q-28 20 -52.5 33t-46.5 20q-43 13 -43 -108q0 -123 16 -136q8 -6 20 -17t23 -22.5l19 -20.5t8 -11zM116 363l-6 79q0 2 -8 10l-19 19q-2 1 -7 6l-7 6q-15 14 -25 22q-20 17 -20 145q0 121 47 121q10 0 12 -1q20 -7 46 -20t56 -36q25 -18 47 -39t41 -45
q33 -35 56 -76.5t32 -87.5v-14q0 -7 0.5 -15.5t0.5 -18.5v-26q1 -3 1 -37v-78q0 -52 -1.5 -85t-3.5 -50q-8 -47 -22 -85t-36 -86q-2 -5 -6.5 -14.5t-6.5 -14.5l-10.5 3.5l-4.5 1.5q-11 0 -25 -8.5l-29 -18.5l-1 1q-16 -11 -30 -19.5t-28 -8.5q-33 0 -130 9l-27 27h-6
q2 61 9 112t20 91q39 16 53 30q6 6 13 14t14 17q11 17 11 170zM112 444q-1 2 -2 2.5t-3 2.5z" />
    <glyph glyph-name="FL007Eh" unicode="~" horiz-adv-x="462" 
d="M234 447v1l-1 1q0 -1 0.5 -1.5l0.5 -0.5q0 -1 -1 -1l-1 1l-2.5 5l-2.5 5q-2 1 -5.5 1.5t-6.5 1.5q-4 0 -5 1h1q-14 3 -31 3h-9q-7 0 -10 -1q-9 -2 -17.5 -3t-15.5 -2q-10 -2 -17 -3t-5 0q-27 -9 -39 -29.5t-19 -37.5l-7 -15l-4 -4q-6 -6 -12.5 -14.5t-7.5 -17.5v-10
q0 -1 0.5 -1.5t0.5 -1.5q0 -12 15 -18l22 -22q10 -10 34 -10h8q5 0 8 1q14 2 26.5 4t20.5 3q1 0 11 2q4 1 7.5 1.5t10.5 4.5l2 21t3 18q7 8 8 11q1 -1 2 -1.5t2 -2.5v-2q0 -2 2 -4q0 -17 19 -23l20 -20q10 -10 30 -10q11 0 14 1q11 2 17 2.5t10 0.5q13 0 16 1q15 2 30.5 10
t32.5 30q18 23 28 42.5t10 26.5v8q-1 14 -5 18l-1 1l-23 22q-2 10 -9 12.5t-29 6.5q-10 2 -20.5 3t-20.5 1q-5 0 -8.5 -0.5t-6.5 -0.5h-5q-15 0 -22 -8t-8 -18q-1 -1 -1 -4l-1 -1l-8 -14q-1 3 -3 7l-16 15q-2 2 -3 4t-3 4zM294 321q-9 -2 -16.5 -1t-26.5 -3q-19 -3 -29 2
t-10 11q0 2 -0.5 3.5t-1.5 3.5q0 3 -12 23q-13 22 -30 31q-4 -5 -9 -12l-11 -15q-4 -21 -6 -38q-3 -1 -10.5 -2.5t-10.5 -2.5q-8 -1 -21.5 -3l-26.5 -4q-18 -3 -30.5 1t-12.5 9q0 4 -1 7.5t0 4.5q1 9 8.5 16.5t13.5 14.5q4 7 8.5 18t11 22t16 21t23.5 15q3 1 18.5 3.5
t33.5 4.5q19 3 32 0t27 -5q7 -10 12.5 -16t13.5 -16l11.5 -13t8.5 3q12 19 12 23q1 1 1 3q0 3 1 4q0 6 4 11t14 5q1 0 19 1t39 -4q22 -4 26.5 -11.5l4.5 -7.5v-7q0 -6 -9.5 -23.5t-26.5 -39.5q-16 -20 -30 -27.5t-28 -9.5z" />
    <glyph glyph-name="FL20ACh" horiz-adv-x="610" 
d="M206 701q-20 0 -42 -36t-43.5 -91t-41.5 -122t-35.5 -128t-24.5 -109t-9 -66q0 -6 0.5 -17t0.5 -12l12 -7.5l30 -19l39.5 -24.5l39.5 -24l30.5 -18.5t13.5 -7.5q11 0 53 -1t117 -3t116.5 -5t49.5 -5q11 -2 16 -3.5t3 -1.5l17 1q6 11 3.5 27.5t-2.5 33.5q0 18 1.5 33.5
t0.5 24.5q-2 39 -15.5 77.5l-24.5 72.5q-6 20 -11.5 50.5l-12 65.5l-14 72t-18 70.5t-24 60.5t-30.5 41q-5 4 -34.5 15.5l-64 24t-63.5 22t-33 9.5zM206 713q2 0 17.5 -4.5t37 -12l46.5 -16t46.5 -17l37 -15t18.5 -9.5q12 -9 23 -27l12 -11q18 -18 31.5 -48t23.5 -66
t17.5 -74.5t13.5 -73.5l9.5 -53.5t10.5 -42.5h-1q2 -6 5 -12.5t5 -13.5h-1q11 -30 20.5 -62.5t11.5 -64.5v-6v-10q0 -7 -1 -11t-1 -8v-8v-15v-11q0 -7 1 -10q0 -6 0.5 -11.5t0.5 -10.5q0 -11 -6 -27l-22 -1l-18 18q-9 -1 -14 -3l10 -10q-1 1 -5 1q-26 4 -159 9q-75 2 -117 3
t-53 1q-1 0 -14 8l-32.5 20l-41.5 26.5l-41.5 26.5t-32 20.5l-12.5 8.5l-24 23l-6.5 5l-2.5 2v4q0 3 -0.5 6t-0.5 7v12q0 18 9.5 67t26 111.5t37.5 130.5t44 125t46.5 93.5t44.5 36.5z" />
    <glyph glyph-name="FL201Ah" unicode="&#x201a;" horiz-adv-x="268" 
d="M18 13l10 -15q3 0 4 -1q1 0 1.5 -0.5t1.5 -0.5l24 -24q-1 -2 -2 -5t-2 -7l-2 -4q-10 -24 -10 -50q0 -11 1.5 -18.5t3.5 -15.5q8 -20 24 -26l19 -19q10 -10 24 -10q21 0 48.5 25t53.5 74q13 35 19 56.5t7 28.5q1 8 1.5 17.5t1.5 19.5q2 16 3 32t1 31v46q0 17 -3.5 32
t-14.5 26l-2 1h1l-16 15q-6 14 -18 23t-34 13q-7 0 -22.5 -2.5t-32 -5.5t-31.5 -6.5t-21 -5.5q-7 -2 -17 -7.5t-19 -12t-15.5 -12.5t-6.5 -9v-160zM28 20l-18 21v155q0 2 5.5 6t13.5 8.5t16.5 8.5t14.5 6t20 5.5t30 6.5l30 5.5t20 2.5q32 -6 41.5 -24.5t9.5 -43.5v-34
q2 -24 -1.5 -54.5t-5.5 -56.5q0 -16 -24 -80q-18 -35 -37 -57t-35.5 -31.5t-29 -6t-18.5 18.5q-12 33 4 76q16 45 4 46q-6 1 -14 3.5t-18 6.5z" />
    <glyph glyph-name="FL0192h" unicode="&#x192;" horiz-adv-x="488" 
d="M72 638q-81 -53 -58 -166q8 -18 14.5 -47.5t11 -66t8 -77.5t6.5 -81q5 -55 10.5 -100t6.5 -68l2 -22.5t3 -22.5q-36 -83 -64 -105q-29 -23 0 -42l132 4q57 28 82 64q26 35 28 87t6 68q5 22 5 29q0 28 -6 54t-6 55v9q0 5 0.5 12.5t0.5 13.5v9l22 5t25 8q12 6 20.5 9.5
t28.5 9.5l64 13q6 0 10 8t6.5 18t3.5 19t1 12q0 29 -2.5 51t-8.5 54q-3 8 -8 9.5t-11 1.5q-43 0 -82 -14.5t-79 -25.5q-1 0 -2.5 0.5t-3.5 0.5q0 15 -3.5 27t-3 21t8 16.5t29.5 13.5q20 5 47 9t51 9t40.5 13t16.5 22q0 17 -7.5 43.5t-21 52t-32 45t-39.5 23.5q-7 0 -35.5 -6
t-67.5 -18l-41 -12.5l-41 -13t-37.5 -14.5t-29.5 -17zM70 652v-2q24 17 58 28.5l69 22.5q5 2 10 3t10 3q39 12 70 18t40 6q35 -8 62 -50l9 -8q15 -15 27 -35t20.5 -40.5t13 -40t4.5 -32.5t-10 -21.5t-26.5 -14.5t-36.5 -10t-41 -7l-48 -9q-29 -8 -31 -19l15 5q29 10 57.5 18
t62.5 8q8 0 15.5 -2.5t14.5 -16.5l20 -20q4 -4 9 -16q5 -29 7.5 -50.5t2.5 -52.5q0 -3 -1.5 -13.5t-4.5 -21.5t-8.5 -20.5t-13.5 -10.5l-63 -13q-24 -7 -32 -10t-17 -8q-11 -5 -21 -7.5t-17 -4.5q-1 -1 -3 -1v-1q0 -3 -0.5 -6.5t-0.5 -7.5v-21q0 -28 6 -55t6 -54
q0 -9 -5 -31q-5 -17 -6 -66q-2 -55 -30 -92q-29 -38 -87 -68l-137 -4l-6.5 5t-4.5 4l-18 18h-3q-21 13 -21 32q0 16 18 31q13 10 27.5 34.5t31.5 62.5q-2 9 -2.5 20t-1.5 23q-1 14 -3 35.5t-5 48.5q-5 37 -9 84q-3 40 -6.5 80.5t-8 76.5t-11 65.5t-14.5 47.5
q-2 12 -3.5 24.5t-1.5 24.5q0 86 73 134z" />
    <glyph glyph-name="FL201Eh" unicode="&#x201e;" horiz-adv-x="528" 
d="M10 189v-151l18 -21l8 -12q10 -4 18 -6.5t14 -3.5q12 -2 -4 -45q-16 -42 -4 -74q6 -15 18.5 -18t29 6.5t35.5 31t37 54.5q24 63 24 78q2 26 5.5 56.5t1.5 53.5v33q0 24 -9.5 42.5t-41.5 24.5q-6 0 -20 -2.5l-30 -5.5t-30 -6.5t-20 -5.5t-14.5 -6t-16.5 -8.5t-13.5 -8.5
t-5.5 -6zM258 189v-151l18 -21l8 -12q10 -4 18 -6.5t14 -3.5q12 -2 -4 -45q-16 -42 -4 -74q6 -15 18.5 -18t29 6.5t35.5 31t37 54.5q24 63 24 78q2 26 5.5 56.5t1.5 53.5v33q0 24 -9.5 42.5t-41.5 24.5q-6 0 -20 -2.5l-30 -5.5t-30 -6.5t-20 -5.5t-14.5 -6t-16.5 -8.5
t-13.5 -8.5t-5.5 -6zM-2 33v156q0 3 6.5 9t15.5 12.5t19 12t17 7.5q6 2 21 5.5t31.5 6.5t32 5.5t22.5 2.5q21 -4 33.5 -13t18.5 -21l17 -17q9 -9 14 -24v14q0 3 6.5 9t15.5 12.5t19 12t17 7.5q6 2 21 5.5t31.5 6.5t32 5.5t22.5 2.5q21 -4 33.5 -13t18.5 -21l17 -17
q11 -11 14.5 -26t3.5 -32v-33q0 -4 0.5 -8t0.5 -9q0 -17 -1.5 -32.5t-3.5 -32.5q-1 -8 -1.5 -14.5t-1.5 -13.5q0 -14 -26 -84q-26 -48 -54 -72t-49 -24q-14 0 -23 9l-21 21q-14 7 -22 24q-5 17 -5 34q0 24 10 48q2 5 2.5 8.5t2.5 7.5l-23 23q-1 0 -1.5 0.5t-1.5 0.5
q-1 1 -4 1l-10 14l-20 23v-6q-1 -8 -1.5 -14.5t-1.5 -13.5q0 -14 -26 -84q-26 -48 -54 -72t-49 -24q-14 0 -23 9l-21 21q-14 7 -22 24q-5 17 -5 34q0 24 10 48q2 5 2.5 8.5t2.5 7.5l-23 23q-1 0 -1.5 0.5t-1.5 0.5q-1 1 -4 1l-10 15z" />
    <glyph glyph-name="FL2026h" unicode="&#x2026;" horiz-adv-x="856" 
d="M274 190v-150l18 -21l8 -11q20 -8 36.5 -6t35.5 7t34 8t18 4q20 7 30.5 20t15 29.5t5 34t0.5 33.5v33q0 24 -9.5 42t-41.5 24q-6 0 -20 -2.5l-30 -5.5t-30 -6t-20 -5t-14.5 -6t-16.5 -8.5t-13.5 -8.5t-5.5 -5zM10 190v-150l18 -21l8 -11q20 -8 36.5 -6t35.5 7t34 8t18 4
q20 7 30.5 20t15 29.5t5 34t0.5 33.5v33q0 24 -9.5 42t-41.5 24q-6 0 -20 -2.5l-30 -5.5t-30 -6t-20 -5t-14.5 -6t-16.5 -8.5t-13.5 -8.5t-5.5 -5zM550 190v-150l18 -21l8 -11q20 -8 36.5 -6t35.5 7t34 8t18 4q20 7 30.5 20t15 29.5t5 34t0.5 33.5v33q0 24 -9.5 42t-41.5 24
q-6 0 -20 -2.5l-30 -5.5t-30 -6t-20 -5t-14.5 -6t-16.5 -8.5t-13.5 -8.5t-5.5 -5zM-2 35v155q0 3 6.5 9t15.5 12t19 11.5t17 7.5q6 2 20.5 5t31.5 6l32.5 5.5t22.5 2.5q23 -5 35.5 -14t17.5 -23l16 -15q11 -11 14.5 -25t3.5 -31v-42q0 -17 -1 -34t-7 -33t-18 -29t-34 -21h-1
q-7 -2 -21 -5t-28 -7q-11 -3 -21.5 -5t-21.5 -2q-8 0 -16.5 1.5t-19.5 6.5l-25 25q-1 1 -3 1t-3 1l-6 7zM538 35v155q0 3 6.5 9t15.5 12t19 11.5t17 7.5q6 2 20.5 5t31.5 6l32.5 5.5t22.5 2.5q23 -5 35.5 -14t17.5 -23l15 -14h-1l2 -1q11 -11 14.5 -25t3.5 -31v-42
q0 -17 -1 -34t-7 -33t-18 -29t-34 -21h-1q-7 -2 -21 -5t-28 -7q-11 -3 -21.5 -5t-21.5 -2q-8 0 -16.5 1.5t-19.5 6.5l-25 25q-1 1 -3 1t-3 1l-6 7zM262 35v155q0 3 6.5 9t15.5 12t19 11.5t17 7.5q6 2 20.5 5t31.5 6l32.5 5.5t22.5 2.5q23 -5 35.5 -14t17.5 -23l15 -14h-1
l2 -1q11 -11 14.5 -25t3.5 -31v-42q0 -17 -1 -34t-7 -33t-18 -29t-34 -21h-1q-7 -2 -21 -5t-28 -7q-11 -3 -21.5 -5t-21.5 -2q-8 0 -16.5 1.5t-19.5 6.5l-25 25q-1 1 -3 1t-3 1l-6 7z" />
    <glyph glyph-name="FL2020h" unicode="&#x2020;" horiz-adv-x="500" 
d="M428 393l-4 83l-20 71q-32 -4 -45.5 -10.5t-25.5 -6.5q-2 0 -3.5 0.5l-1.5 0.5l-4 21l-6 144q-21 0 -47.5 -14.5t-53 -31t-50.5 -28.5t-39 -8l-50 -70q15 -9 30 -56q-16 -2 -27 -4t-19 -4q-10 -4 -20.5 -7t-16.5 -3q-2 0 -3.5 0.5l-1.5 0.5l-16 -79q60 -84 112 -84
l6.5 -24t3.5 -16t1.5 -15t0.5 -21l20 -176q12 -73 29 -73q2 0 6 0.5t5 0.5q2 1 9.5 5.5l15.5 9.5l15.5 9.5t9.5 5.5q4 2 19 8l31.5 12.5l31 12t18.5 7.5q11 5 11 14v21q0 1 -0.5 4t-1.5 8q-1 3 -8.5 47.5l-22.5 132.5q-12 70 -6 87q6 16 34 13q28 -2 84 12zM54 322l12 -11
l-13 12q-15 12 -30.5 28.5t-31.5 39.5l20 98l14 -7q5 0 14.5 2.5t18.5 6.5q6 2 14 3.5l19 3.5q-14 31 -30 42l63 89q6 -3 8 -3.5t4 -0.5q11 0 32 11.5t44 26.5q27 17 55.5 31t62.5 14v-6l27 -27l5 -125q8 2 19.5 4.5t31.5 5.5l2 -7l26 -26l22 -79l4 -92q-61 -14 -87 -14h-15
q-15 0 -16 -6q-2 -10 -2 -15q0 -11 1 -28t5 -39l2 -1l6 -32.5t5 -29.5l15 -87l5 -30v-3l1 -1q1 -3 1 -11v-21q0 -16 -17 -22q-4 -2 -17 -7l-29 -11l-31 -12l-22 -9v-1q-3 -2 -9.5 -6l-14.5 -9q-9 -6 -16.5 -10.5t-10.5 -5.5h-6q-2 0 -4 -0.5t-4 -0.5q-6 0 -12 6l-22 21
q-25 6 -37 84l-20 176q0 17 -1 25.5t-3 19.5q-21 10 -46 35q-3 2 -6 5zM355 252l-1 1v-1h1z" />
    <glyph glyph-name="FL2021h" unicode="&#x2021;" horiz-adv-x="500" 
d="M66 311l-12 11l6 -6t6 -5q25 -25 46 -35q2 -11 3 -19.5t1 -25.5v-2l-19 -5v-1l-78 -7l-27 -34l4 -108l7 -2l26 -25l69 -14l40 10q12 -67 35 -72l22 -21q6 -6 12 -6q2 0 4 0.5t4 0.5h6q3 1 10.5 5.5t16.5 10.5l14.5 9t9.5 6l22 9l31 12t29 11.5t17 7.5q17 6 17 22v21
q0 8 -1 11l-1 1v3h-1q-1 2 -2 9l-3 20l54 12l28 32l10 27v87l6 27l-28 27l2 6l-105 9q0 -1 2 5q1 7 16 7h15q26 0 87 14l-4 92l-22 79l-26 26l-2 7q-20 -3 -31.5 -5.5t-19.5 -4.5l-5 125l-27 27v6q-34 0 -62.5 -14t-55.5 -31q-23 -15 -44 -26.5t-32 -11.5q-2 0 -4 0.5
t-8 3.5l-63 -89q16 -11 30 -42l-19 -3.5t-14 -3.5q-9 -4 -18.5 -6.5t-14.5 -2.5l-14 7l-20 -98q16 -23 31.5 -39.5t30.5 -28.5zM404 547l20 -71l4 -83q-56 -14 -84 -12q-28 3 -34 -13t5 -81l33 32l89 -9l-4 -17v-89l-8 -21l-26 -30l-59 -13q6 -38 7 -39q1 -5 1.5 -8t0.5 -4
v-21q0 -9 -11 -14q-4 -2 -18.5 -7.5l-31 -12l-31.5 -12.5t-19 -8q-2 -1 -9.5 -5.5l-15.5 -9.5l-15.5 -9.5t-9.5 -5.5q-1 0 -5 -0.5t-6 -0.5q-17 0 -29 73l-4 36l-76 -20l-60 13l-4 93l21 26l77 8l27 8l-1 12q0 13 -0.5 21t-1.5 15t-3.5 16l-6.5 24q-52 0 -112 84l16 79
l1.5 -0.5t3.5 -0.5q6 0 16.5 3t20.5 7q8 2 19 4t27 4q-15 47 -30 56l50 70q15 -4 39 8t50.5 28.5t53 31t47.5 14.5l6 -144l4 -21l1.5 -0.5t3.5 -0.5q12 0 25.5 6.5t45.5 10.5z" />
    <glyph glyph-name="FL02C6h" unicode="&#x2c6;" horiz-adv-x="399" 
d="M237 723l2 -2zM332 806q-1 1 -2 1.5t-2 1.5l-9 9q-3 5 -7 10l-8 10q-20 23 -36.5 30.5t-40.5 13.5h-1q-2 0 -3 0.5t-3 0.5q-4 0 -5 1q-15 4 -38 4h-10q-6 0 -9 -1q-23 -2 -41 -4.5t-21 -3.5q-26 -8 -39.5 -27.5t-22.5 -36.5q-3 -5 -4.5 -8.5t-3.5 -5.5q0 -1 -1 -1
q-1 -1 -2 -1q-10 -8 -17.5 -16t-8.5 -19v-10q0 -1 0.5 -1.5t0.5 -1.5t-0.5 -1.5t-0.5 -1.5v-2l-1 -1v-2q0 -7 11 -18h4l27 -27h14q1 0 12.5 1.5t26 3t29.5 3.5t24 3q4 1 16 3.5t15 3.5q1 9 2.5 19.5t5.5 21.5q3 3 5.5 6.5t6.5 7.5q2 -3 3.5 -5l1.5 -2q0 -6 2 -8q0 -2 1 -3
q0 -16 17 -22l22 -21q8 -8 26 -8q19 5 27.5 6t18.5 1h18q15 0 23 0.5t11.5 2.5t4.5 6.5t2 13.5v8q0 8 -11 26t-30 40zM224 870q23 -6 38 -12.5t33 -27.5t28.5 -37.5t10.5 -22.5v-7l-4.5 -7.5t-27.5 -7.5q-12 0 -23.5 -1t-21.5 -2.5t-15.5 -2.5l-5.5 -1q-13 0 -17 5t-4 11
q-1 2 -1.5 3.5t-1.5 3.5q0 3 -13 22q-8 11 -15.5 19l-12.5 13q-18 -16 -27 -28q-3 -10 -4.5 -19.5t-2.5 -17.5q-3 -1 -11.5 -2.5t-12.5 -2.5q-9 -1 -24 -3t-29.5 -3.5t-25.5 -3t-12 -1.5h-11q-3 3 -2 6.5t1 7.5t-1 7.5t0 4.5q1 9 9.5 16l16.5 14q5 7 10 17.5t12.5 21.5
t17.5 20.5t25 14.5q3 1 21 3.5t38 4.5q21 3 36 0t29 -5z" />
    <glyph glyph-name="FL2030h" unicode="&#x2030;" horiz-adv-x="764" 
d="M502 184q0 23 15 36.5t35 22.5l2.5 0.5t3.5 0.5q25 0 38.5 -11t13.5 -38q0 -31 -18 -50t-48 -19q-23 0 -32.5 18t-9.5 40zM398 188q0 -12 3 -33t8 -37q12 -31 18 -45t14 -23q10 -10 25.5 -18.5t32 -14.5t33 -8.5t29.5 -0.5q12 0 33.5 5t34.5 16q0 3 18 20.5t33 49.5
l17.5 47t8.5 53q0 29 -9 58.5t-26 53t-41 38t-53 14.5q-30 0 -61.5 -14t-57.5 -38t-43 -55.5t-17 -67.5zM82 529q0 23 15 36.5t35 22.5l2.5 0.5t3.5 0.5q25 0 38.5 -11t13.5 -38q0 -31 -18 -50t-48 -19q-23 0 -32.5 18t-9.5 40zM-22 533q0 -12 3 -33t8 -37q12 -31 18 -45
t14 -23q10 -10 25.5 -18.5t32 -14.5t33 -8.5t29.5 -0.5q12 0 33.5 5t34.5 16q0 3 18 20.5t33 49.5l17.5 47t8.5 53q0 29 -9 58.5t-26 53t-41 38t-53 14.5q-30 0 -61.5 -14t-57.5 -38t-43 -55.5t-17 -67.5zM144 96l-17 -28q-7 -60 37 -89q5 1 7 1.5t3 0.5q1 1 7.5 5.5t15 9.5
t15 9.5t7.5 5.5q4 2 17.5 8t28.5 12q15 7 21 18t10 35q102 255 240 468q4 18 7.5 30l5.5 19q6 13 6 34q0 20 -1 41t-8 50l-3.5 0.5t-5.5 0.5q-6 0 -16.5 -3.5t-24.5 -9t-30 -13.5t-31 -17q-11 -13 -17 -19.5t-11 -12.5l-11.5 -13.5l-19.5 -22.5q-8 -16 -65.5 -145.5z
M-34 533q0 38 18 72t46 59.5t61.5 40.5t65.5 15q33 0 60 -17.5t46 -44.5l8 -8q22 -23 36 -54.5t17 -64.5q17 40 28 62.5t14 29.5q14 17 21.5 25t12.5 14q2 2 3.5 4t3.5 4l9.5 11.5l12.5 14.5q31 18 63 30.5t45 12.5h8q2 0 4.5 -0.5l7.5 -1.5q0 -2 2 -8l25 -25q8 -32 9 -54.5
t1 -44.5q0 -23 -7 -37h1l-5.5 -18.5t-7.5 -31.5q-30 -46 -57.5 -92.5l-53.5 -94.5q26 20 55.5 32t57.5 12q33 0 60 -17.5t46 -44.5l8 -8q26 -26 40 -62.5t14 -73.5q0 -26 -6.5 -47t-14.5 -41l-6 -16q-11 -24 -24 -39.5t-21 -23.5q-2 -2 -3.5 -4.5l-1.5 -2.5q-15 -13 -38 -19
t-37 -7q-3 -1 -13 -1q-14 0 -30 3.5t-32 9.5t-30 14.5t-24 18.5l-12 11q-12 8 -20 17q-8 8 -13 19t-13 32q-1 1 -3 8q-4 8 -5 9.5t-1 3.5q-5 12 -7 29t-4 31q-14 -30 -26.5 -60l-24.5 -61q-4 -27 -11 -39.5t-26 -20.5q-13 -5 -26 -11t-18 -9l-1 1q-4 -4 -10 -7.5t-12 -8.5
q-22 -14 -24 -16h-5l-2.5 -1t-7.5 -2q-8 4 -18 14l-13 13h-1q-23 14 -34.5 36.5t-11.5 49.5v9q0 2 0.5 5.5t1.5 8.5l21 35q14 29 26 56.5l23 53.5l26.5 57.5l23.5 53.5q-15 -9 -33.5 -13t-29.5 -4q-3 -1 -13 -1q-14 0 -30 3.5t-32 9.5t-30 14.5t-24 18.5l-12 11
q-12 8 -20 17q-8 8 -13 19t-13 32q-1 1 -3 8q-4 8 -5 9.5t-1 3.5q-5 16 -8 38.5t-3 35.5zM121 499q0 -13 1 -16h2q25 0 39.5 15.5t14.5 41.5q0 7 -1 9q-2 0 -4.5 0.5t-4.5 0.5q-1 0 -1.5 -0.5t-2.5 -0.5q-17 -8 -30 -19.5t-13 -30.5zM541 154q0 -13 1 -16h2q25 0 39.5 15.5
t14.5 41.5q0 7 -1 9q-2 0 -4.5 0.5t-4.5 0.5q-1 0 -1.5 -0.5t-2.5 -0.5q-17 -8 -30 -19.5t-13 -30.5z" />
    <glyph glyph-name="FL0160h" unicode="&#x160;" horiz-adv-x="630" 
d="M207 749q13 -2 26.5 -5t32.5 -1l36 5.5t19 3.5q14 5 24 14.5t16.5 20.5t11.5 21.5t9 17.5l14.5 14t8.5 16q1 1 0 4.5t-1 7.5t2 7.5t-3 6.5h-9l-10.5 -1.5t-24 -3t-27.5 -3.5t-22 -3q-4 -1 -12 -2.5t-10 -2.5q-1 -8 -3 -17.5l-4 -19.5q-8 -12 -24 -28q-10 8 -27 32
q-12 19 -12 22q-1 2 -1.5 3.5t-1.5 3.5q0 6 -4 11t-15 5q-1 0 -20.5 -3.5t-40.5 -3.5t-26 -7.5l-5 -7.5v-7q0 -5 10.5 -22.5t26.5 -37.5q17 -21 30.5 -27.5t35.5 -12.5zM69 214q0 -3 6 -18t16 -35.5l21.5 -44t23 -44t20.5 -35t14 -17.5q20 -17 34.5 -19t38.5 -2q26 0 61.5 7
t73 20t74 31.5t65.5 42t46.5 51t17.5 59.5q0 69 -18.5 105t-52.5 55.5t-82.5 30t-107.5 27.5q-8 3 -9.5 8.5t-1.5 11.5q0 2 0.5 5.5t0.5 4.5q4 3 15 8.5l24 11.5l24.5 11.5t16.5 7.5q8 2 25 1t34 0.5t29.5 7.5t12.5 23q0 21 -5.5 44.5t-13 47.5t-16.5 47t-16 43h-35
q-25 0 -62.5 -10.5t-80 -29t-86 -43t-79 -53t-59.5 -58.5t-28 -59q0 -3 9.5 -28t22 -55t26 -55t22.5 -28q15 -6 48.5 -10t67.5 -10.5t59.5 -17.5t25.5 -31q0 -10 -13 -15.5t-30 -8.5t-34 -4t-25 -1q-12 0 -29 1.5t-34 5.5t-32 9.5t-24 13.5q0 -1 -0.5 -4.5t-0.5 -5.5z
M57 214v3q0 1 0.5 2t0.5 2v29q13 -12 30.5 -20.5t36 -13.5t35.5 -7.5t29 -2.5q7 0 21 0.5t28.5 2t26.5 5t14 8.5q-20 7 -47 11t-51 8l-36 5.5t-28 7.5v-1q-3 1 -6 4l-23 23q-7 4 -16.5 18.5t-19.5 33.5t-20 40.5t-17.5 40.5t-12 31.5t-4.5 14.5q4 37 39 75t84 71.5
t104.5 60.5t102.5 42q-2 0 -4.5 -0.5t-4.5 -0.5q-5 -1 -11 -1.5t-11 -1.5q-4 0 -7.5 -0.5t-6.5 -0.5q-14 0 -21.5 1.5t-15.5 3.5q-2 1 -6 1q-3 0 -5 1q-20 5 -32.5 10.5t-26.5 19.5l-12 11q-16 10 -32 30q-17 22 -28.5 41t-11.5 27v10q2 18 8 21t35 3q16 0 32.5 2.5
t22.5 4.5h6q14 0 20.5 -5.5t8.5 -13.5l22 -21q7 -7 7 -18l1 -1q0 -1 2 -3q0 -2 2 -8q3 3 5 6t5 6q1 3 1.5 6.5t1.5 6.5q2 8 3 16.5t2 14.5q5 2 15 4t13 3q7 1 19.5 2t23.5 3q8 1 12.5 1.5t8.5 1.5t9 1.5t13 1.5h16q8 -10 10 -15l19 -18q9 -9 9 -14q0 -2 -0.5 -3.5t-0.5 -2.5
q-1 -1 -1 -3t0.5 -3.5t0.5 -3.5v-6q-1 -11 -7 -17.5t-13 -12.5h-1l-3 -3q-2 -2 -4.5 -8l-2.5 -6h-1q-7 -15 -18 -32.5t-32 -28.5q24 6 43 6h44q0 -2 1 -4l2 -4l25 -25q2 -7 5.5 -17.5t6.5 -18.5q14 -38 27.5 -79t13.5 -76q0 -13 -6 -21t-15.5 -12t-21.5 -5.5t-24 -1.5h-31
q-7 0 -9 -1h-1q-8 -3 -27 -11.5t-34 -16.5q3 -1 13 -3q6 -2 11.5 -3t11.5 -3q29 -7 54.5 -14t46.5 -16t38 -22.5t29 -32.5l11 -10q22 -22 33 -55.5t11 -90.5q0 -33 -18 -62t-48 -53.5t-67 -44t-76 -33t-75 -20.5t-63 -7h-7q-22 0 -37 2.5t-35 20.5l1 -1q-1 0 -3 2l-17 16
q-3 2 -6 5t-7 6q-6 6 -16.5 22.5t-22 38l-23.5 45.5l-21.5 44.5t-15.5 35t-6 17.5zM383 809q0 2 1 3l-3 -3l2 -1v1z" />
    <glyph glyph-name="FL2039h" unicode="&#x2039;" horiz-adv-x="244" 
d="M31 428q-2 -18 -6 -38t-1 -46l6 -49t4 -28q5 -19 16.5 -33t24.5 -24t25.5 -16.5t20.5 -11.5q8 -9 16.5 -20t18.5 -12q1 -2 5 -0.5t9 1.5t9 -1.5t7 2.5v13q0 1 -1.5 16l-3.5 34l-4 38.5t-3 30.5q-2 4 -3.5 15.5t-2.5 14.5q-20 2 -44 9l-18 19.5t-17 20.5l17 12.5t23 18.5
q23 17 26 17l4 2l4 2q7 0 13 6t6 22q0 1 -1.5 9t-3 20t-2.5 26.5t-1 29.5t-2.5 23.5t-6 13t-6.5 6l-3 1.5h-8q-7 0 -26.5 -15t-44.5 -38q-12 -12 -19.5 -22.5t-12 -20.5t-7.5 -21.5zM19 429l3 14q3 12 6 22t8 19.5t12.5 19.5t20.5 23q26 26 48.5 41.5t30.5 15.5h8l8.5 -4
t15.5 -18l19 -19q5 -5 9.5 -15.5t4.5 -29.5q0 -23 2.5 -44t4.5 -32q1 -3 1 -9q0 -21 -8.5 -29t-18.5 -8q-4 -4 -9 -4q-2 0 -21 -15h1l-12 -9.5t-20 -14.5l-1 -1q11 -3 22.5 -4t25.5 -3v-6l27 -27q0 -1 0.5 -6.5t0.5 -7.5v-1q1 -6 1.5 -12t2.5 -9h1q0 -4 0.5 -8t1.5 -9
q1 -14 3 -31.5t3.5 -33t2.5 -27t1 -12.5v-16q-9 -9 -15 -9q-1 0 -2 0.5t-2 0.5q-2 0 -3 0.5t-3 0.5h-4q-6 -2 -8 -2q-7 0 -9 2h-1q-10 5 -14 10l-21 20q-10 4 -16 12q-10 6 -21.5 14t-22.5 19l-6 5q-17 11 -32.5 28.5t-22.5 43.5q-1 4 -4 29l-6 50q-1 3 -1 9v10q0 24 4 40
q0 2 0.5 4t0.5 4q1 5 1.5 9.5t1.5 9.5z" />
    <glyph glyph-name="FL0152h" unicode="&#x152;" horiz-adv-x="866" 
d="M299 257q-5 0 -20.5 2t-29.5 5v65q0 1 7.5 9.5t18 18.5l21.5 20t19 16q11 9 31.5 16l41.5 14l8 2t9 3l3 -66q0 -8 0.5 -16.5t1.5 -16.5q0 -6 0.5 -13.5t0.5 -15.5q-2 -2 -3.5 -3t-3.5 -3v2q-20 -13 -46 -26t-59 -13zM70 54l3 -3q14 -14 25 -21l7 -7q28 -26 61 -44t65 -18
h2q23 0 52.5 3t60.5 10t61 18.5t54 29.5q6 -6 12 -11t13 -9l11 -11q14 -14 32.5 -23t44.5 -9q7 0 30 6.5t52.5 17l62.5 22.5t60.5 23.5t46 20t19.5 11.5v25q0 4 0.5 7.5t0.5 7.5v10q0 35 -2.5 60.5t-17.5 39.5l-17 16q-8 18 -27 27.5t-57 9.5q-16 0 -29 -1t-23 -3
q9 5 21 7.5t26 4.5q18 3 35 7t30.5 12.5t22 23.5t8.5 41q0 2 -0.5 5.5t-0.5 6.5v6q-1 2 -1.5 6t-2.5 9l-4.5 18.5l-5 21l-4.5 19l-3 12.5l-26 25q-1 2 -1 8h-26h-2q14 2 27.5 3.5t25.5 3.5q5 1 12 1.5t11 1.5v20q0 4 0.5 7.5t0.5 5.5q0 35 -7 71.5t-30 59.5l-2 1h1l-13 13
q-12 19 -31 31t-48 12t-58.5 -7.5l-58.5 -15.5q-2 -1 -5 -1.5t-5 -1.5q-15 -5 -32 -9l-30 -7q-5 -12 -28 -21q-1 2 -8 9l-3 2l1 -1q1 0 2 -1l-19 19v4q-7 11 -20 19t-26 8q-62 0 -128 -23.5t-122 -65t-96.5 -97.5t-51.5 -121v-28q0 -5 -0.5 -10t-0.5 -10t-0.5 -10t-0.5 -10
v-26q0 -45 4.5 -80t14 -65t23.5 -58.5t32 -60.5zM299 245q23 0 41 5t33 12.5t27.5 16t23.5 14.5l-4 74.5l-4 72.5q-3 8 -7.5 18t-10.5 20q-14 -6 -30.5 -11.5l-32.5 -11t-30.5 -11.5t-24.5 -14q-8 -6 -20 -17t-23 -22.5l-19 -20.5t-8 -11v-82q0 -6 12 -12t27.5 -10.5t30 -7
t19.5 -2.5zM81 60q-18 32 -31.5 60t-23 57.5t-14 63t-4.5 77.5q0 5 0.5 18t0.5 28t0.5 28t0.5 18q11 63 50 117.5t94 94t118.5 62.5t123.5 23q9 0 19 -6.5t15 -14.5l2 -26t3 -26q26 9 47 18t24 18q19 4 41.5 11t46 13.5t47.5 11.5t45 5q29 0 47 -13.5t27.5 -35t13 -47.5
t3.5 -50q0 -3 -0.5 -12.5t-0.5 -12.5q-16 -2 -40.5 -4.5t-48.5 -8.5t-44 -17t-27 -30q-2 -4 2 -11.5t8 -8.5q10 -3 25 -0.5t31 7l31.5 9t27.5 4.5h15q1 -5 4 -16.5l6 -24l6 -24l4 -15.5q0 -1 0.5 -6.5t0.5 -8.5q0 -29 -12 -43.5t-30 -21t-39 -9t-39 -7.5t-30 -15.5
t-12 -32.5q0 -7 0.5 -15.5t10.5 -10.5q16 7 28.5 11t23 6.5t21.5 3t26 0.5q30 0 46.5 -7t24.5 -21t9.5 -35t1.5 -48v-10q0 -7 -0.5 -15t-0.5 -15v-10q-1 -3 -19 -11t-44.5 -18l-58 -21l-60.5 -20.5t-51 -15.5t-29 -6q-38 0 -61.5 22t-41.5 51q-22 -21 -52.5 -34.5t-63.5 -22
t-65 -11.5t-57 -3q-29 -1 -61.5 16.5t-60.5 43.5z" />
    <glyph glyph-name="FL017Dh" unicode="&#x17d;" horiz-adv-x="516" 
d="M157 749q15 -2 29.5 -5t34.5 -1l38 5.5t21 3.5q15 5 25 14.5t17.5 20.5t12.5 21.5t10 17.5q7 7 15 14t9 16q1 1 0 4.5t-1 7.5t2 7.5t-3 6.5h-10l-11 -1.5t-25.5 -3t-29.5 -3.5t-24 -3q-3 -1 -12 -2.5t-11 -2.5q-1 -8 -3 -17.5l-4 -19.5l-13 -15t-13 -13q-10 8 -28 32
q-14 20 -14 22q-1 2 -1.5 3.5t-1.5 3.5q0 6 -4 11t-16 5q-1 0 -10 -1.5t-25 -3.5t-31 -2q-22 0 -27 -7.5l-5 -7.5v-7q0 -5 11 -22.5t28 -37.5q10 -11 18 -17.5t15.5 -10.5t16 -6.5t20.5 -5.5zM80 99l21 -36t25 -32.5t31.5 -23.5t40.5 -9q7 0 29.5 6.5t51.5 16l61 21
l58.5 21.5t44 17.5t17.5 8.5t1.5 11.5t4 24t4 26.5t1.5 18q0 43 -26.5 61t-65.5 18q-15 0 -26 -0.5t-21.5 -3t-23 -6.5t-28.5 -11q19 25 144 300l6 4q0 3 0.5 12.5t0.5 12.5q0 24 -3.5 49.5t-13 47t-27.5 35t-47 13.5q-21 0 -45 -5t-47.5 -11.5t-46 -13.5t-41.5 -11
q-4 -10 -28 -18.5l-51.5 -18.5t-49.5 -22t-22 -29q0 -18 7.5 -34.5t17.5 -34.5l10 -18l10 -18q10 -17 102 6l56 16q-104 -233 -132 -390zM69 94l-1 8q24 133 105 328q-21 -5 -38 -7t-28 -2q-21 0 -29 8l-23 22q-10 5 -15 14h1l-5 8.5t-3 6.5l1 -1q-2 2 -2.5 4.5t-2.5 4.5
q-5 6 -6 10q-11 19 -18.5 36.5t-7.5 37.5q0 13 9 23t23 18t31.5 15t34.5 13l36 13t21 17l29.5 7t31.5 9q2 1 5 1.5t5 1.5l58.5 15.5t58.5 7.5t48.5 -12t30.5 -32l13 -12h-1l2 -1q23 -23 30 -59t7 -71q0 -2 -0.5 -5.5t-0.5 -7.5v-16l-8 -6l-62 -136.5l-45 -95.5q3 1 11 1h14
q31 0 55.5 -10t37.5 -33l16 -16q22 -22 22 -62q0 -4 -1 -12.5t-2.5 -18t-3 -20l-2.5 -17.5q-1 -6 -1.5 -9.5t-0.5 -2.5q0 -1 -18 -9t-45.5 -19l-60.5 -23.5l-63.5 -23.5t-53.5 -18t-30 -7q-24 0 -42.5 9.5t-33.5 23.5l-9 9q-26 15 -43 41t-31 52zM208 828q0 -3 4 -10
q4 4 7 7.5t6 7.5q1 1 1 4t1 4q2 7 3 14.5t2 18.5q6 2 9.5 3t7.5 2q1 0 7 2q1 0 1.5 0.5t1.5 0.5h-1q1 1 9 1q2 0 4 0.5t5 0.5q10 1 24 3q3 1 7 1t6 1q16 2 27.5 3t12.5 2h18q8 -10 10 -15l19 -18q9 -9 9 -14q0 -2 -0.5 -3.5t-0.5 -2.5q-1 -1 -1 -3t0.5 -3.5t0.5 -3.5v-6
q-2 -10 -7.5 -17t-12.5 -13h-1q-2 -2 -3 -2.5t-3 -2.5q-2 -4 -4 -7.5t-4 -7.5q-9 -17 -22 -35.5t-38 -26.5q2 0 -12 -2t-31 -4l-18 -3q-3 -1 -9 -1h-8q-21 0 -36 4q-4 1 -7 1.5t-7 1.5q-22 6 -36 11.5t-31 22.5l-9 9q-7 5 -15 11.5t-16 16.5q-19 22 -30.5 41t-11.5 27v10
q2 18 8.5 21t35.5 3h16q11 0 19.5 1t27.5 6q16 0 23.5 -5.5t9.5 -13.5l23 -22q6 -6 6 -17l1 -1q0 -1 2 -3z" />
    <glyph glyph-name="FL2018h" unicode="&#x2018;" horiz-adv-x="282" 
d="M190 517v187l-15 26l-7 14q-19 10 -33.5 7.5t-31.5 -7.5l-31.5 -10.5t-16.5 -4.5q-17 -10 -26.5 -26.5t-14 -36.5t-5 -42t-0.5 -43v-40q0 -32 9 -54t37 -30q6 0 19 3t27 7.5l26.5 8.5l18.5 6q6 1 13.5 6.5t14 11.5l11.5 11t5 6zM52 435l-15 15q-24 11 -32 34.5t-8 56.5
v40q0 22 1 45.5t6 45t15.5 39.5t30.5 30q7 0 37 11l6 2q1 1 3 1q3 0 4 1l4 2l16 4t19 2q18 0 38 -11l4 -8l24 -24l8 -17l16 -28v-189q0 -1 -5.5 -7.5t-13 -14t-16.5 -14.5t-15 -8l-11 -4q-9 -3 -21 -6.5l-24 -7t-23 -5.5t-18 -2q-19 6 -30 17z" />
    <glyph glyph-name="FL2019h" unicode="&#x2019;" horiz-adv-x="282" 
d="M-2 503l16 -28l9 -18q4 -3 8 -4l24 -24q19 -10 36 -10q12 0 20.5 2.5l18.5 5.5q2 1 5 2l6 2q30 11 37 11q19 12 30 30t15.5 38.5t5.5 43t1 45.5v40q0 25 -4.5 44t-17.5 32l-15 15q-12 26 -44 35q-7 0 -21 -3.5t-29.5 -8l-29 -8.5t-19.5 -6v-1q-8 -5 -17.5 -12.5t-17 -14
t-12.5 -12t-5 -6.5v-190zM25 480l-15 26v187q0 1 5 6l11.5 11t14 11.5t13.5 6.5l18.5 6l26.5 8.5t27 7.5t19 3q28 -8 37 -30t9 -54v-40q0 -21 -0.5 -43t-5 -42t-14 -36.5t-26.5 -26.5q-3 0 -16.5 -4.5l-31.5 -10.5q-17 -5 -31.5 -7.5t-33.5 7.5z" />
    <glyph glyph-name="FL201Ch" unicode="&#x201c;" horiz-adv-x="518" 
d="M438 517v187l-15 26l-7 14q-19 10 -33.5 7.5t-31.5 -7.5l-31.5 -10.5t-16.5 -4.5q-17 -10 -26.5 -26.5t-14 -36.5t-5 -42t-0.5 -43v-40q0 -32 9 -54t37 -30q6 0 19 3t27 7.5l26.5 8.5l18.5 6q6 1 13.5 6.5t14 11.5l11.5 11t5 6zM190 517v187l-15 26l-7 14
q-19 10 -33.5 7.5t-31.5 -7.5l-31.5 -10.5t-16.5 -4.5q-17 -10 -26.5 -26.5t-14 -36.5t-5 -42t-0.5 -43v-40q0 -32 9 -54t37 -30q6 0 19 3t27 7.5l26.5 8.5l18.5 6q6 1 13.5 6.5t14 11.5l11.5 11t5 6zM52 435l-15 15q-24 11 -32 34.5t-8 56.5v40q0 22 1 45.5t6 45t15.5 39.5
t30.5 30q7 0 37 11l6 2q1 1 3 1q3 0 4 1l4 2l16 4t19 2q18 0 38 -11l4 -8l24 -24l8 -17l16 -28v-189q0 -1 -5.5 -7.5t-13 -14t-16.5 -14.5t-15 -8l-11 -4q-9 -3 -21 -6.5l-24 -7t-23 -5.5t-18 -2q-19 6 -30 17zM300 435l-15 15q-24 11 -32 34.5t-8 56.5v40q0 22 1 45.5t6 45
t15.5 39.5t30.5 30q7 0 37 11l6 2q4 0 5 1l6 3l16 4t19 2q18 0 38 -11l4 -8l24 -24l8 -17l16 -28v-189q0 -1 -5.5 -7.5t-13 -14t-16.5 -14.5t-15 -8l-11 -4q-9 -3 -21 -6.5l-24 -7t-23 -5.5t-18 -2q-19 6 -30 17z" />
    <glyph glyph-name="FL201Dh" unicode="&#x201d;" horiz-adv-x="518" 
d="M246 503l16 -28l9 -18q4 -3 8 -4l24 -24q19 -10 36 -10q11 0 19.5 2.5l18.5 5.5l6 2l6 2q30 11 37 11q19 12 30 30t15.5 38.5t5.5 43t1 45.5v40q0 25 -4.5 44t-17.5 32l-15 15q-12 26 -44 35q-7 0 -21 -3.5t-29.5 -8l-29 -8.5t-19.5 -6v-1q-8 -5 -17.5 -12.5t-17 -14
t-12.5 -12t-5 -6.5v-190zM-2 503l16 -28l9 -18q4 -3 8 -4l24 -24q19 -10 36 -10q11 0 19.5 2.5l18.5 5.5h1q2 1 5 2l6 2q30 11 37 11q19 12 30 30t15.5 38.5t5.5 43t1 45.5v40q0 25 -4.5 44t-17.5 32l-15 15q-12 26 -44 35q-7 0 -21 -3.5t-29.5 -8l-29 -8.5t-19.5 -6v-1
q-8 -5 -17.5 -12.5t-17 -14t-12.5 -12t-5 -6.5v-190zM25 480l-15 26v187q0 1 5 6l11.5 11t14 11.5t13.5 6.5l18.5 6l26.5 8.5t27 7.5t19 3q28 -8 37 -30t9 -54v-40q0 -21 -0.5 -43t-5 -42t-14 -36.5t-26.5 -26.5q-3 0 -16.5 -4.5l-31.5 -10.5q-17 -5 -31.5 -7.5t-33.5 7.5z
M273 480l-15 26v187q0 1 5 6l11.5 11t14 11.5t13.5 6.5l18.5 6l26.5 8.5t27 7.5t19 3q28 -8 37 -30t9 -54v-40q0 -21 -0.5 -43t-5 -42t-14 -36.5t-26.5 -26.5q-3 0 -16.5 -4.5l-31.5 -10.5q-17 -5 -31.5 -7.5t-33.5 7.5z" />
    <glyph glyph-name="FL2022h" unicode="&#x2022;" horiz-adv-x="288" 
d="M9 355q0 -32 11 -62.5t39 -46.5l15 -14q11 -11 26.5 -17.5t36.5 -6.5q66 0 106 38t40 102q0 49 -24 73l-15 15q-14 24 -40.5 34.5t-66.5 10.5h-3q-1 0 -2 -0.5t-3 -0.5h-10q-23 -10 -43 -21.5t-35 -26t-23.5 -33.5t-8.5 -44zM21 355q0 23 8 40t21.5 30.5t32 23.5t39.5 19
q2 0 7.5 0.5t7.5 0.5q52 0 79.5 -20t27.5 -71q0 -60 -38 -95.5t-99 -35.5q-24 0 -40.5 9.5t-26.5 24.5t-14.5 34.5t-4.5 39.5z" />
    <glyph glyph-name="FL2013h" unicode="&#x2013;" horiz-adv-x="450" 
d="M40 308v-2q11 -20 26 -27l18 -17q15 -15 37 -15h8q3 0 9 2h1q32 10 78.5 14t91.5 7q26 2 49 4t41 4v15q0 3 0.5 7t0.5 8q0 5 2 10t2 13q0 61 -29 90l-13 13q-16 28 -48 41t-89 13q-45 0 -78 -9q-1 0 -7 -2q-1 -1 -5 -1q-3 0 -4 -1q-17 -5 -37 -8.5t-45 -11.5
q-29 -26 -29 -67q0 -32 20 -80zM51 312q-39 92 4 132l55.5 13.5l39.5 9.5q33 9 75 9q77 0 108.5 -27.5t31.5 -87.5q0 -3 -2 -9t-2 -14q0 -7 -0.5 -13t-0.5 -9q-21 -3 -54.5 -5t-70 -5t-71 -7t-58.5 -11q-34 -10 -55 24z" />
    <glyph glyph-name="FL2014h" unicode="&#x2014;" horiz-adv-x="570" 
d="M64 312q28 -34 73 -24q35 8 79.5 11.5t92.5 6.5q51 3 97 5t72 5q0 3 0.5 9t0.5 13q0 8 3 14t3 9q0 60 -42.5 87.5t-145.5 27.5q-56 0 -101 -9q-21 -4 -52.5 -9.5l-74.5 -13.5q-57 -41 -5 -132zM55 304l-4 4q-24 40 -24 80q0 41 40 68l28.5 5.5t26.5 4.5q27 4 48 9
q3 1 7 1q5 0 8 1q-1 0 7 2q45 9 105 9q78 0 122 -15t63 -47l14 -14q15 -15 21.5 -35t6.5 -46l-0.5 -2.5t-0.5 -3.5q-5 -8 -5 -17q0 -4 -0.5 -8t-0.5 -7v-15q-24 -4 -50 -4.5t-57 -2.5l-35 -2l-36 -2q-4 0 -7.5 -0.5t-7.5 -0.5l-82.5 -6t-72.5 -11q-6 -2 -11 -2h-11
q-31 0 -54 23l-12 12q-15 8 -26 22z" />
    <glyph glyph-name="FL02DCh" unicode="&#x2dc;" horiz-adv-x="436" 
d="M226 879v1l-1 1q0 -1 0.5 -1.5l0.5 -0.5q0 -1 -1 -1l-1 1l-2.5 5l-2.5 5q-2 1 -5.5 1.5t-6.5 1.5q-4 0 -5 1h1q-14 3 -31 3h-9q-7 0 -10 -1q-9 -2 -17.5 -3t-15.5 -2q-10 -2 -17 -3t-5 0q-27 -9 -39 -29.5t-19 -37.5l-7 -15l-4 -4q-6 -6 -12.5 -14.5t-7.5 -17.5v-10
q0 -1 0.5 -1.5t0.5 -1.5q0 -12 15 -18l22 -22q10 -10 34 -10h8q5 0 8 1q14 2 26.5 4t20.5 3q1 0 11 2q4 1 7.5 1.5t10.5 4.5l2 21t3 18q7 8 8 11q1 -1 2 -1.5t2 -2.5v-2q0 -2 2 -4q0 -17 19 -23l20 -20q10 -10 30 -10q11 0 14 1q11 2 17 2.5t10 0.5q13 0 16 1q15 2 30.5 10
t32.5 30q18 23 28 42.5t10 26.5v8q-1 14 -5 18l-1 1l-23 22q-2 10 -9 12.5t-29 6.5q-10 2 -20.5 3t-20.5 1q-5 0 -8.5 -0.5t-6.5 -0.5h-5q-15 0 -22 -8t-8 -18q-1 -1 -1 -4l-1 -1l-8 -14q-1 3 -3 7l-16 15q-2 2 -3 4t-3 4zM286 753q-9 -2 -16.5 -1t-26.5 -3q-19 -3 -29 2
t-10 11q0 2 -0.5 3.5t-1.5 3.5q0 3 -12 23q-13 22 -30 31q-4 -5 -9 -12l-11 -15q-4 -21 -6 -38q-3 -1 -10.5 -2.5t-10.5 -2.5q-8 -1 -21.5 -3l-26.5 -4q-18 -3 -30.5 1t-12.5 9q0 4 -1 7.5t0 4.5q1 9 8.5 16.5t13.5 14.5q4 7 8.5 18t11 22t16 21t23.5 15q3 1 18.5 3.5
t33.5 4.5q19 3 32 0t27 -5q7 -10 12.5 -16t13.5 -16l11.5 -13t8.5 3q12 19 12 23q1 1 1 3q0 3 1 4q0 6 4 11t14 5q1 0 19 1t39 -4q22 -4 26.5 -11.5l4.5 -7.5v-7q0 -6 -9.5 -23.5t-26.5 -39.5q-16 -20 -30 -27.5t-28 -9.5z" />
    <glyph glyph-name="FL2122h" unicode="&#x2122;" horiz-adv-x="771" 
d="M360 765q-11 0 -23.5 -19t-25 -47.5t-23.5 -63.5t-19.5 -67t-13.5 -57t-5 -34v-20q-9 37 -15.5 74.5t-6.5 68.5q0 4 9 9.5t20 10.5q10 5 18 9.5t13 13.5q0 4 0.5 14.5t1.5 22.5l2 22t1 16v25l-27 27v6q-11 0 -35.5 -5.5t-54.5 -14.5t-62 -20.5t-58 -24t-43 -25t-17 -22.5
q0 -9 1 -12.5t3 -7.5q0 -1 0.5 -2l0.5 -1q3 -8 4.5 -11t4.5 -8l23 -66l1 0.5l3 1.5l28 -27q7 5 22 12q4 -24 10.5 -53t13 -53.5t12.5 -41.5t10 -17h2l26 -26q1 -1 2 -1q3 0 16.5 6.5l30.5 15l33 17l22 11.5q-8 25 -15 54q4 -2 7 -4t7 -4l19 -19l50.5 -32l26 -16t11 -6
t4.5 -1q17 0 21 12t5 29q1 2 1 12q0 3 1 5q0 8 10 52q1 -5 1 -11v-12v-13q0 -6 1 -13q2 -2 6 -5.5t9 -5.5l18 -18q4 -4 13.5 -9.5t13.5 -6.5q11 -5 26.5 -10l28.5 -9h1q8 -2 11.5 -3t9.5 -3h14l4 10t2 8q0 2 -0.5 4.5t-0.5 5.5t-0.5 6t-0.5 6q0 4 0.5 8t0.5 7v12q1 3 1 16
l2 10v2q2 8 4.5 16t4.5 16q1 -6 1 -13v-13v-15t1 -16q4 -6 15 -12l18 -17q4 -4 13.5 -9.5t13.5 -6.5q11 -5 26.5 -10l28.5 -9h1q8 -2 11.5 -3t9.5 -3h14l4 10t2 8q0 2 -0.5 4.5t-0.5 5.5t-0.5 6t-0.5 6q0 4 0.5 8t0.5 7v14q-1 17 -6.5 34.5t-11.5 34.5l-2 8q-3 9 -5.5 22.5
l-5.5 29.5q-3 18 -7 37.5t-9.5 37t-12.5 32.5t-16 24l-19 19q-4 5 -8 9.5t-8 9.5v-2l-24 9l-32.5 12l-29.5 10.5t-14 4.5q-19 0 -35 -28h2q-5 -7 -8 -16t-8 -21l-8 8q-14 24 -29 29q-2 1 -5 1.5l-3 0.5l-8 3q-2 1 -4 1.5t-4 1.5q-7 2 -8 3q-18 8 -34 12.5t-18 4.5zM360 753
q2 0 16.5 -4.5t31.5 -11.5l16 -6l16 -6q15 -5 33 -42l10 -22q8 29 14 47.5t12 26.5q10 18 21 18q1 0 15.5 -5l32 -11l32.5 -11.5t17 -7.5q13 -11 21.5 -35t14.5 -51.5t10 -53t9 -40.5l12.5 -36t7.5 -39q1 -5 0 -12.5t-1 -16.5t1.5 -17t-1.5 -14h-9l-9 3t-21 6.5t-25 8
t-20 7.5q-3 1 -10.5 4.5t-9.5 5.5q-3 82 -6 106q-2 18 -2.5 25.5t-0.5 10.5v3q0 12 -6.5 17t-12.5 3q-5 -2 -6 -7q-1 -2 -7.5 -28t-20.5 -77q-1 -4 -1.5 -7t-0.5 -7q0 -11 -1 -14q1 -5 0 -12.5t-1 -16.5t1.5 -17t-1.5 -14h-9l-9 3t-21 6.5t-25 8t-20 7.5q-3 1 -10.5 4.5
t-9.5 5.5q-3 82 -6 106q-2 18 -2.5 25.5t-0.5 10.5v3q0 12 -1.5 20t-9.5 9q-8 0 -11.5 -6t-3.5 -13v-5q-28 -111 -28 -124q-1 -2 -1 -8q0 -7 -1 -9q0 -14 -3 -24.5t-14 -10.5q-1 0 -14 8l-28.5 17.5l-28 17.5l-12.5 8v14q0 9 4.5 33t12 54.5t17.5 64t21 61t22 45.5t21 18z
M94 589l-5 5h-3q-4 0 -11 -2.5t-14.5 -6l-13.5 -6.5l-8 -4l-20 57q-6 14 -8.5 18t-2.5 14q0 9 15.5 20.5t39 22.5t52.5 21.5t56.5 18t50 12.5t32.5 5v-16q0 -4 -1 -14.5t-1.5 -22t-1.5 -22t-1 -14.5q-3 -5 -13 -10l-20.5 -10.5t-18.5 -11.5t-8 -13q0 -46 11.5 -99t23.5 -96
l-20 -10.5l-29 -15l-27.5 -13.5t-14.5 -6q-3 0 -6.5 12.5t-8 32t-9 43.5t-8 46t-5.5 39.5t-2 25.5z" />
    <glyph glyph-name="FL0161h" unicode="&#x161;" horiz-adv-x="534" 
d="M163 749q15 -2 30 -5t36 -1l40.5 5.5t21.5 3.5q16 5 27 14.5t18.5 20.5t12.5 21.5t10 17.5l16.5 14t9.5 16q1 1 0 4.5t-1 7.5t1.5 7.5t-2.5 6.5h-11l-11.5 -1.5t-26.5 -3t-31 -3.5t-25 -3q-4 -1 -13 -2.5t-12 -2.5q-1 -8 -3 -17.5l-4 -19.5q-9 -12 -27 -28q-7 5 -14.5 13
t-15.5 19q-14 20 -14 22q-1 2 -1.5 3.5t-1.5 3.5q0 6 -4 11t-18 5q-1 0 -22.5 -3.5t-45.5 -3.5q-23 0 -28.5 -7.5l-5.5 -7.5v-7q0 -5 12 -22.5t29 -37.5q19 -21 34.5 -27.5t39.5 -12.5zM19 165q0 -17 12.5 -34t18.5 -31q12 -27 16.5 -46t13.5 -31t27.5 -17.5t57.5 -5.5h5
q13 3 32 8t38 11l35.5 11.5t24.5 9.5l67.5 31t58 34.5t40.5 46.5t15 67q0 68 -13 107.5t-40.5 61t-71.5 29.5t-106 13q-10 2 -10.5 10.5t-0.5 15.5q0 17 14 25.5t35.5 12.5t46.5 5t46.5 4t35.5 9.5t14 20.5t-4.5 43.5t-14 59t-23.5 52t-33 22.5q-60 0 -122 -18t-112 -53.5
t-81.5 -87t-31.5 -117.5q0 -28 10 -53l21 -51q13 -29 33.5 -42t46 -18t53.5 -5.5t57 -4.5q0 -1 0.5 -4.5t0.5 -5.5q0 -8 -1.5 -11.5t-9.5 -8.5q-24 -14 -44.5 -19.5t-42.5 -7.5t-46.5 -1.5t-56.5 -1.5q-8 -9 -9.5 -16.5t-1.5 -18.5zM7 165q0 14 2 23.5t16 23.5q17 1 33 1.5
t29 0.5q27 0 49.5 1.5t46.5 10.5q-28 2 -53 9t-45 27l-12 12q-14 8 -25 20t-19 31l-3 6q-1 1 -1 3t-1 3q-11 24 -19 47t-8 50q0 52 19 95.5t51 77.5t74.5 58t89.5 38q-8 1 -14 2t-12 3q-3 1 -7 1t-7 1q-23 5 -39 11.5t-33 23.5l-11 10q-15 10 -28 26q-19 22 -31.5 41
t-12.5 27v10q1 9 2.5 14t6 7t13 2.5t24.5 0.5q18 0 36.5 2.5t25.5 4.5h6q17 0 24 -5.5t9 -12.5l22 -22q6 -6 6 -18l1 -1q0 -2 1 -2q0 -1 1 -1q0 -4 5 -11l9 9t7 8q1 1 1 5q0 5 1 6q2 8 3 15.5l2 14.5q4 1 11 3t14 3v1q1 1 5 1h5q2 0 4.5 0.5t5.5 0.5q12 1 27 3h-1q3 1 6 1
q4 0 7 1q17 2 29 3t13 2h19q8 -10 10 -15l19 -18q9 -9 9 -15q0 -1 -0.5 -1.5t-0.5 -1.5q0 -2 -0.5 -2.5t-0.5 -2.5t0.5 -3.5t0.5 -3.5v-6q-1 -11 -8.5 -18l-15.5 -14q-1 -1 -2.5 -2t-3.5 -3q-3 -3 -6 -11q-8 -14 -17.5 -29t-26.5 -26h12q13 0 24 -9t20 -23l15 -15
q14 -14 24.5 -38t17 -50t10 -49t3.5 -35q0 -13 -8 -21t-21.5 -12.5t-31 -6.5t-36.5 -3q-28 -3 -54 -6.5t-36 -15.5q69 -7 114 -21t68 -52l10 -10q23 -23 34 -62.5t11 -103.5q0 -39 -13 -66t-35 -46.5t-51.5 -34.5t-61.5 -29q-6 -3 -12.5 -5.5t-12.5 -5.5q-8 -4 -25 -10
t-36.5 -12t-38.5 -11t-32 -8h-7q-38 0 -57 4.5t-30 15.5l-18 18q-17 8 -23 21.5t-13 33.5q-4 11 -7.5 22t-7.5 19q-4 9 -13 21q-1 2 -1.5 2.5t-1.5 2.5v-1q-6 10 -11 20.5t-5 24.5z" />
    <glyph glyph-name="FL203Ah" unicode="&#x203a;" horiz-adv-x="244" 
d="M176 292q2 18 6 38t1 45l-6 50t-4 28q-5 19 -16.5 33t-24.5 23.5t-26 16.5t-20 12q-8 9 -16.5 20t-18.5 12q-1 2 -5 0.5t-9 -1.5t-9 1.5t-7 -2.5v-13q0 -2 1.5 -16.5l3.5 -33.5l4 -38.5t3 -30.5q2 -4 3.5 -15.5t2.5 -14.5q20 -2 44 -9l18 -19.5t17 -20.5l-17 -12.5
t-23 -18.5q-23 -17 -26 -17l-4 -2l-4 -2q-7 0 -13 -6t-6 -22q0 -3 4 -29.5t4 -56.5q0 -29 8.5 -36t9.5 -7h8q6 0 26.5 15t43.5 38q13 12 20.5 22t12 20.5t7.5 22zM60 368l-27 26q-1 1 -6 1v7q0 2 -0.5 5t-0.5 5l-2 12.5t-3 8.5q0 3 -0.5 6.5t-0.5 7.5q-2 13 -3 30
q-2 12 -3.5 25.5t-2.5 25t-1.5 19t-0.5 8.5v17q11 11 19 11l1 -1h2q1 0 1.5 -0.5t1.5 -0.5h6q6 2 5 2h4q7 0 10 -4q9 -4 15.5 -10.5t12.5 -13.5l4.5 -6t2.5 -3l3.5 -1.5t8.5 -4.5l35 -23t32 -35l11 -10q9 -9 16.5 -20.5t11.5 -26.5q1 -3 4 -27t6 -52q1 -3 1 -9v-9
q0 -14 -1.5 -25.5t-3.5 -22.5q-1 -5 -1.5 -9.5t-1.5 -9.5v-1q-1 -4 -2 -7t-2 -7q-6 -24 -13.5 -41.5t-32.5 -40.5h-1q-25 -24 -46.5 -39.5t-28.5 -15.5h-8q-1 0 -4.5 1t-8.5 6l-21 20q-6 2 -16 13t-10 42q0 19 -2 38t-4 32q0 1 -0.5 1.5t-0.5 1.5q-1 3 -1 7v6q0 21 9 30
t19 10l4 2q2 0 4 2q3 0 15 9l23 18l15 11h-1v1q-25 7 -41 8zM99 540l2 -2q0 2 -2 2z" />
    <glyph glyph-name="FL0153h" unicode="&#x153;" horiz-adv-x="950" 
d="M299 257q-5 0 -20.5 2t-29.5 5v65q0 1 7.5 9.5t18 18.5l21.5 20t19 16q10 8 28 15t39 14q5 0 7 1q4 -17 4 -41q0 -26 -2 -49.5l-4 -47.5q-18 -11 -40 -19.5t-48 -8.5zM70 54l3 -3q14 -14 25 -21l7 -7q28 -26 61 -44t65 -18h2q24 0 54.5 2.5t62 9.5t61 19t53.5 31
q15 -14 31.5 -27t33.5 -23.5t32.5 -17t27.5 -6.5q18 0 42 9t48 20l31 13t26 8q7 2 17 2.5t22 1.5q22 1 48 4t48.5 9.5t37.5 18.5t15 32q0 17 -5 39t-13 45t-18 44.5t-20 37.5l-20 20q-6 8 -8 13h-26q-4 0 -7.5 0.5t-6.5 0.5h-6q-20 0 -36.5 -1.5t-32.5 -4.5t-33 -9t-39 -15
h-1q1 11 15.5 17.5t36 11t48 6.5l51.5 4q21 2 40.5 3.5t39.5 6.5v14q0 3 0.5 7t0.5 8t0.5 8t0.5 7v7q0 60 -24 84l-16 15q-16 34 -64 41q20 1 38.5 2.5t33 5t23 11.5t8.5 22q0 37 -11.5 75.5t-36.5 63.5l-11 10q-14 23 -36.5 37.5t-53.5 14.5q-51 0 -100 -9.5t-97 -20.5
q-8 -2 -15 -3.5t-15 -3.5q-11 -3 -23.5 -6t-25.5 -5l-17 17v3q-7 11 -20.5 19.5t-25.5 8.5q-62 0 -128 -23.5t-122 -65t-96.5 -97.5t-51.5 -121v-28q0 -5 -0.5 -10t-0.5 -10t-0.5 -10t-0.5 -10v-26q0 -45 4.5 -80t14 -65t23.5 -58.5t32 -60.5zM299 245q33 0 57 10.5t43 21.5
l4 51.5t2 53.5q0 25 -5 47.5t-13 44.5q-28 -11 -58.5 -20t-48.5 -24q-8 -6 -20 -17t-23 -22.5l-19 -20.5t-8 -11v-82q0 -6 12 -12t27.5 -10.5t30 -7t19.5 -2.5zM81 60q-18 32 -31.5 60t-23 57.5t-14 63t-4.5 77.5q0 5 0.5 18t0.5 28t0.5 28t0.5 18q11 63 50 117.5t94 94
t118.5 62.5t123.5 23q9 0 19 -6.5t15 -14.5q1 -8 1.5 -16t1.5 -16q37 6 75 15l75.5 17.5t75.5 14.5t76 6q30 0 50.5 -14.5t34 -38t19.5 -51.5t6 -55q0 -12 -10 -18t-26 -9t-36.5 -4l-41.5 -2q-22 -2 -42.5 -3.5t-36 -6.5t-25.5 -16.5t-11 -32.5q35 0 58 6q22 6 58 6
q63 0 88.5 -20.5t25.5 -80.5q0 -3 -0.5 -9t-0.5 -13t-0.5 -13t-0.5 -9q-23 -5 -62 -7t-76.5 -6.5t-65 -14t-27.5 -30.5q0 -22 9 -29t32 -11q22 9 39 15t33 9t32 4.5t36 1.5q5 0 20 -0.5t20 -0.5q10 -15 19 -35t16 -41.5t11.5 -42.5t4.5 -38q0 -22 -23 -33t-53.5 -15.5
t-60.5 -6t-44 -4.5t-33 -11l-39.5 -17t-39.5 -15.5t-33 -6.5q-11 0 -26.5 7t-32 18t-33.5 24.5t-32 27.5q-23 -20 -53 -32.5t-61.5 -20t-62.5 -10t-55 -2.5q-29 -1 -61.5 16.5t-60.5 43.5z" />
    <glyph glyph-name="FL017Eh" unicode="&#x17e;" horiz-adv-x="536" 
d="M188 749q15 -2 29.5 -5t35.5 -1l39.5 5.5t20.5 3.5q16 5 26.5 14.5t18 20.5t12.5 21.5t10 17.5q7 7 15.5 14t9.5 16q1 1 0 4.5t-1 7.5t2 7.5t-3 6.5h-10l-11.5 -1.5t-26.5 -3t-30 -3.5t-24 -3q-4 -1 -13 -2.5t-11 -2.5q-1 -8 -2.5 -17t-5.5 -20l-13 -15t-13 -13
q-13 10 -29 32q-14 20 -14 22q-1 2 -1.5 3.5t-1.5 3.5q0 6 -4 11t-17 5q-1 0 -10 -1.5t-25 -3.5t-31 -2q-23 0 -29 -7.5l-6 -7.5v-7q0 -5 12 -22.5t29 -37.5q19 -21 33.5 -27.5t38.5 -12.5zM82 99q10 -18 21.5 -36t26 -32.5t32.5 -23.5t42 -9q8 0 31 6.5t53 16l63 21
l60.5 21.5t45.5 17.5t18 8.5t1.5 11.5t4 24t4 26.5t1.5 18q0 43 -26.5 61t-68.5 18q-15 0 -26.5 -0.5t-22.5 -3t-24 -6.5t-29 -11q11 14 48 88l101 212l6 4q0 3 0.5 12.5t0.5 12.5q0 24 -3.5 49.5t-13.5 47t-28.5 35t-48.5 13.5q-22 0 -46.5 -5t-49 -11.5t-48 -13.5
t-42.5 -11q-4 -10 -29 -19l-53 -18.5t-51 -21.5t-23 -29q0 -18 7.5 -34.5t17.5 -34.5q6 -9 11 -18l10 -18q10 -16 106 6l58 16q-55 -118 -89 -215t-48 -175zM71 94l-1 8q24 136 109 328q-23 -5 -40.5 -7t-29.5 -2q-22 0 -30 8l-21 20q-8 2 -12 7l-9 18l1 -1q-2 2 -6 8.5
l-9 14.5q-11 19 -18.5 36.5t-7.5 39.5q0 13 9 23t23.5 18.5t32 15t35.5 12.5l39 14.5t21 15.5l28 7t31 9q14 4 29.5 8l30.5 8h-9q-22 0 -37 4q-4 1 -7 1.5t-7 1.5q-23 5 -37 10t-30 22l-12 11q-15 12 -30 28q-19 22 -31.5 41t-12.5 27v10q3 9 5 14t6.5 7t12.5 2.5t23 0.5h16
q11 0 19.5 1t27.5 6q17 0 24.5 -5.5t9.5 -13.5l23 -22q6 -6 6 -17l1 -1q0 -2 1 -2l1 -1q0 -4 4 -11q5 4 8.5 8.5l7.5 9.5q4 15 6 39q5 2 14.5 4.5t16.5 3.5q1 0 1.5 0.5t1.5 0.5h2q7 1 18 2t24 3q9 1 14 1.5t9.5 1.5t9.5 1.5t14 1.5h17q8 -10 10 -15l19 -18q9 -9 9 -14
q0 -2 -0.5 -3.5t-0.5 -2.5q-1 -1 -1 -3t0.5 -3.5t0.5 -3.5v-6q-1 -9 -6 -15t-11 -11l-6 -4.5t-4 -3.5q-5 -5 -9 -15q-9 -17 -22.5 -36t-39.5 -27h5q31 0 51 -12.5t32 -32.5l13 -13q23 -23 30 -59t7 -70q0 -2 -0.5 -5.5t-0.5 -7.5v-16l-8 -6l-64.5 -136l-46.5 -96q4 1 12 1
h15q33 0 58.5 -10.5t37.5 -33.5l16 -15q22 -22 22 -62q0 -4 -1 -12.5t-2.5 -18t-3 -20l-2.5 -17.5q-1 -6 -1.5 -9.5t-0.5 -2.5q0 -1 -18.5 -9t-47 -19l-62.5 -23.5l-65 -23.5t-55 -18t-32 -7q-26 0 -45.5 9.5t-35.5 25.5l-9 8q-25 16 -42 41t-31 51z" />
    <glyph glyph-name="FL0178h" unicode="&#x178;" horiz-adv-x="630" 
d="M306 856v-91l13 -12l6 -7q13 -5 28 -4.5t28.5 3.5t24 6t14.5 2q22 8 30 22t8 29v21v20q0 15 -7 26t-31 14q-4 0 -15 -1.5t-23.5 -3t-23.5 -3.5t-15 -3q-9 -2 -23 -9t-14 -9zM102 856v-91l13 -12l6 -7q13 -5 28 -4.5t28.5 3.5t24 6t14.5 2q22 8 30 22t8 29v21v20
q0 15 -7 26t-31 14q-4 0 -15 -1.5t-23.5 -3t-23.5 -3.5t-15 -3q-9 -2 -23 -9t-14 -9zM346 235q23 45 51 86.5t62 81.5q21 20 35 42.5t34 41.5q21 20 39 39t13 42q-1 4 -14 15.5t-32.5 26.5l-42 31l-43 29.5l-35 22.5t-17.5 9q-29 0 -46.5 -26.5t-31.5 -62.5l-8 -21.5
t-9 -20.5q-8 -19 -18 -32q-5 -7 -13.5 -22.5t-19.5 -38.5l-12 33v11v20v20v11q0 1 -2.5 7.5l-5.5 14.5t-6.5 16.5l-5.5 13.5l-4 8t-4 9q-3 5 -5 9l-5 10t-7 15.5l-11 25.5l-94 -6l-78 -6q4 -51 5.5 -78.5t1.5 -32.5q0 -24 6 -55t17 -62.5t25.5 -59t32.5 -45.5q5 -6 12 -10
t13.5 -9.5t11 -13t4.5 -19.5q0 -26 -20.5 -46t-44.5 -38.5t-42.5 -37.5t-13.5 -43q1 -4 14 -15.5t32.5 -26.5l42 -31.5t43 -30l35 -22.5t17.5 -9q14 0 25.5 7.5t21 20t17 28.5t13.5 33q5 11 9 21.5l8 20.5q10 22 19 32q4 6 12 22.5t19 44.5zM294 760v96q0 2 5 6.5t12.5 9
t15 8.5t13.5 6q4 1 15.5 3t24.5 3.5t24.5 3t16.5 1.5q21 -3 31.5 -10t14.5 -18l19 -19q7 -7 9 -15.5t2 -19.5v-41q0 -17 -10 -33t-37 -27h-2q-7 0 -18 -4q-5 -2 -9 -2.5t-9 -1.5q17 -10 45.5 -29.5l56.5 -40t50 -38.5t27 -25h1q0 -2 0.5 -2.5t0.5 -2.5l19 -19q1 -1 1.5 -2
t2.5 -3l3 -3q1 -1 1 -6v-6q0 -20 -14 -36t-31 -32h-1l-10 -11q-12 -11 -19.5 -20.5t-14.5 -19.5l-16.5 -23t-18.5 -21q-34 -40 -61 -80t-50 -85h-1l-19 -45.5t-11 -21.5q-9 -10 -19 -32q-3 -6 -3 -7q-4 -10 -7 -19t-7 -16h-1q-12 -36 -32.5 -65t-51.5 -29q-4 0 -29 16
l-56 37.5t-60 44t-41 35.5l-2 2q-1 1 -2 1.5t-2 1.5l-2 1q-12 11 -20.5 18t-10.5 12h-1q-1 2 -1 14q0 26 19 44.5t43 36.5q22 17 41 35.5t19 39.5q0 2 -2 12q-2 0 -2 2l-16 16v-1l-11 8.5t-11 11.5q-18 19 -33 47.5t-25.5 60.5t-16 63t-5.5 54q0 5 -2 38t-6 84l90 7l56 3
l-23 23l-6 2l-7 8h-1l-16 16v96q0 2 5 6.5t12.5 9t15 8.5t13.5 6q4 1 15.5 3t24.5 3.5t24.5 3t16.5 1.5q21 -3 31.5 -10t14.5 -18l18 -18q-1 0 -1.5 0.5l-0.5 0.5l3 -2q7 -7 9 -15.5t2 -19.5v-41q0 -17 -10 -33t-37 -27h-2q-7 0 -18 -4q-14 -5 -31 -6l23 -23q5 -11 9.5 -22
l6.5 -16q3 -8 6.5 -14.5t8.5 -14.5v-1l1 -1q3 -11 7 -15l4 -13.5t4 -10.5h1q2 -8 4.5 -14l4.5 -11q4 6 8 13t8 18q7 13 15 38q11 29 24 52t33 35q-4 1 -7 2t-7 3l-25 25l-6 2l-7 8l-1 1z" />
    <glyph glyph-name="space" unicode="&#xa0;" horiz-adv-x="296" 
 />
    <glyph glyph-name="FL00A1h" unicode="&#xa1;" horiz-adv-x="330" 
d="M222 765q-17 0 -37 -5v-1h-2q-1 -1 -4 -1l-33.5 -8.5t-16.5 -3.5q-23 -8 -35.5 -21t-18.5 -29t-7 -33.5t-1 -33.5v-40q0 -23 6 -40.5t27 -27.5l17 -17q12 -12 41 -18q6 0 21.5 2.5t32 5.5t31 6t20.5 5q7 1 16.5 6.5t18.5 11.5t15 11.5t6 6.5v148l-20 22l-5 4l-2 4v1h-1
l-1 3l-21 21l-8 12q-12 5 -21 7t-18 2zM272 465l-3 6q-4 4 -14.5 9.5t-14.5 5.5q-27 0 -56 -2t-54.5 -10t-44.5 -25t-27 -48q-17 -69 -30 -146t-24 -152q-2 -12 -3 -22.5t-3 -21.5v-5q0 -2 -0.5 -4.5t-0.5 -5.5v-7q0 -26 24 -37l19 -19q12 -12 32.5 -15.5t37.5 -3.5
q13 0 40 4t56.5 12.5t55.5 20.5t37 27q3 28 5 48.5t3 38.5t1.5 36t0.5 42q0 49 -2 91t-5 90q-1 14 -1.5 29.5t-1.5 32.5l-3 6l-24 24v1zM262 735l18 -20v-144q0 -1 -5.5 -5t-13.5 -8.5t-16.5 -8.5t-14.5 -5q-6 -2 -20 -5t-30 -6l-30 -5.5t-20 -2.5q-32 6 -41.5 23t-9.5 41
v31q0 16 0.5 33t5 32.5t15 28.5t30.5 20q3 0 18 3.5t34 8.5q19 4 35.5 6t36.5 -6zM260 464q2 -36 3.5 -66.5l3 -59t2.5 -57t1 -60.5q0 -23 -0.5 -40.5t-1.5 -35.5t-3 -38.5t-5 -48.5q-10 -14 -34.5 -24.5t-52.5 -18t-54 -11t-39 -3.5q-11 0 -23 1.5t-23 5t-18 10.5t-7 19
q0 4 0.5 12t0.5 9l25.5 169.5t34.5 170.5q7 27 25 42.5t41.5 23t50.5 9t53 1.5q3 0 10.5 -4t9.5 -6z" />
    <glyph glyph-name="FL00A2h" unicode="&#xa2;" horiz-adv-x="518" 
d="M136 556v-12q-13 -9 -28 -23t-34 -34q-36 -38 -45 -81q0 -4 -1.5 -12.5t-1.5 -19.5v-33q0 -30 4 -54t12.5 -45t21 -40.5t29.5 -41.5q26 -17 56.5 -30t57.5 -10l14 -17q-4 -55 15 -95q78 -12 148 28q-5 55 -12 104q18 6 35.5 14.5t31 20t22 25.5t8.5 32q-5 21 -9 40.5
t-9 33.5t-12 20t-17 0q-12 -3 -23.5 -9t-25.5 -11.5t-32.5 -10t-44.5 -4.5q-5 0 -18 1.5t-27.5 4.5t-25.5 6.5t-11 8.5v59q0 1 7.5 7l18 14l21.5 16t18 12q15 9 40 15t49 12.5t42 15t18 21.5q0 31 -2.5 59t-6.5 56q-4 5 -14 8.5t-17 3.5q-28 0 -58 -3t-62 -8q7 48 0 108
q-65 8 -156 -28q-4 -60 24 -124zM60 490q18 20 34 34t30 25v4q-25 53 -25 111v11q0 3 0.5 7t0.5 6q45 17 80 25t64 8h15q4 0 9 -0.5t11 -1.5q0 -2 0.5 -3.5t0.5 -3.5l26 -26q2 -19 3.5 -36t1.5 -29v-3q20 2 39 3.5t38 1.5q9 0 22.5 -6t20.5 -15v-5l27 -26q4 -28 6.5 -56.5
t2.5 -60.5q0 -11 -8 -19t-21 -14t-29.5 -10.5l-32.5 -8.5q-18 -5 -34.5 -9t-27.5 -11l-16.5 -11l-20.5 -13.5t-17 -11.5l-7 -5v-35q13 -2 25.5 -2.5t17.5 -0.5q34 0 54.5 7t36.5 15q8 4 15.5 7t13.5 5q7 4 15 4q17 0 28 -23l16 -16q0 1 -1 1v1l3 -3q10 -9 15 -28.5t10 -43.5
q2 -6 3 -12t3 -13q0 -20 -8.5 -35.5t-22 -28t-30.5 -21.5t-35 -16l6.5 -51t5.5 -51q-61 -35 -122 -35q-9 0 -19.5 1t-22.5 3l-26 26q-1 1 -6 1q-20 40 -20 85q-23 5 -46.5 16t-44.5 25l-19 19q-4 2 -6.5 3.5t-4.5 3.5q-18 24 -31.5 45.5t-23 43t-14 46.5t-4.5 57v33
q0 8 0.5 14t1.5 11q1 3 1 10q8 42 44 81h-1z" />
    <glyph glyph-name="FL00A3h" unicode="&#x20ac;" horiz-adv-x="614" 
d="M7 381l3 -5q11 -17 27 -23l14 -14l6 -6t7 -5v-8q-2 0 -3.5 -0.5t-3.5 -0.5q-10 -2 -13 -3q-8 -8 -17 -14l-4 -4q-6 -5 -9.5 -9t-3.5 -14q0 -7 3.5 -18t12.5 -28l-4 2q13 -24 32 -34l18 -18q6 -6 10 -9q10 -29 23.5 -57.5t33.5 -62.5q7 -8 14.5 -15.5t15.5 -12.5l11 -11
q22 -22 53.5 -36.5t59.5 -14.5l8 1q24 0 55 3t62.5 10.5t62 19.5t54.5 31t38.5 45.5t14.5 61.5q0 45 -6 77q-4 17 -7.5 25.5t-7.5 12.5l-20 20q-5 11 -10 14.5t-13 3.5h-4q-2 0 -4 -0.5t-4 -0.5q-2 -1 -13 -1q-23 -43 -50 -63q1 1 1 7q0 4 2 10t2 11q0 28 -16 44l-2 1
q1 0 1 -1h1l-17 16q-6 16 -19.5 24t-31.5 12q37 0 63 3v15q0 3 0.5 6.5t0.5 7.5t2 10t2 11q0 29 -17 46l-18 18q-2 4 -5 8t-7 7q18 4 38.5 5.5t39.5 1.5q9 0 16.5 -0.5t15.5 -0.5h20q26 0 26 12q0 45 -3 85.5t-7 80.5q-1 2 -8 9l-19 18v5q-7 11 -20 19t-26 8q-51 0 -107 -17
t-107 -47.5t-93 -72.5t-66 -93l-72 -17q-2 -2 -4 -3.5t-4 -3.5q-2 0 -2 -1v1q-21 -17 -21 -31q0 -10 9 -26q3 -10 4 -12t3 -7q0 -3 1 -4q0 -2 2 -4zM19 386q-1 7 -6 13l-9.5 22t-3.5 13t3.5 9t10.5 10l6 4.5t3 2.5l77 19q23 50 63.5 92t90 72t104.5 47t106 17q9 0 19 -6.5
t15 -14.5q4 -40 7 -80t3 -82q0 -3 -17 -3q-10 0 -23 0.5t-29 0.5q-18 0 -37 -1t-37 -4.5t-33 -10t-24 -16.5q40 -2 65.5 -15t25.5 -48q0 -2 -2 -8t-2 -13t-0.5 -12.5t-0.5 -8.5q-8 -1 -22.5 -1.5t-34.5 -0.5h-41h-22t-22 -1v-48q5 0 9.5 0.5t9.5 0.5q4 1 12 1h11h23
q21 0 39 -2t31 -8.5t20.5 -18t7.5 -29.5q0 -2 -2 -8t-2 -13t-0.5 -12.5t-0.5 -8.5q-7 -1 -25 -3t-39 -3.5l-42 -3t-33 -1.5h-10q-7 0 -9 -1q7 -30 32.5 -36t75.5 -6q49 0 84.5 19t61.5 70q5 0 9.5 1t8.5 1q6 0 10 -6.5t9 -29.5q6 -32 6 -75q0 -50 -30 -81.5t-73.5 -49.5
t-91.5 -24.5t-83 -6.5l-9 -1q-14 0 -29.5 4.5t-31 12.5t-29 18t-23.5 22q-23 42 -38.5 75.5t-23.5 71.5q-2 0 -3.5 -0.5t-3.5 -0.5q-24 0 -41 26q-1 1 -1 3q0 1 -1 2q-8 17 -11.5 26.5t-3.5 15.5q0 8 7 13t19 16q8 2 15 3.5t13 3.5v7q0 5 0.5 18t0.5 28q-1 -1 -3 -1
q-4 -1 -7 -1.5t-7 -0.5q-25 0 -41 25z" />
    <glyph glyph-name="FL00A4h" unicode="&#xa4;" horiz-adv-x="638" 
d="M268 569h1h-1zM604 557l2 -2zM160 350q0 21 13.5 39t36 31.5t53 21t64.5 7.5q35 0 66 -8.5t54 -22.5q14 -20 14 -38q0 -20 -13 -37.5t-35.5 -30.5t-52.5 -20.5t-63 -7.5q-40 0 -74 10.5t-57 27.5q-4 7 -5 13.5t-1 14.5zM-9 382q0 -43 18 -80.5t51 -68.5
q-23 -18 -39 -36.5t-16 -39.5q0 -11 1 -13h1q2 -5 12 -13.5l24 -19.5l3 -3q8 -8 24 -21t36 -27.5l40.5 -29.5t38.5 -26.5t31 -19t16 -7.5q16 0 29.5 8t24 21.5t18.5 30t14 34.5h-1q5 11 9.5 22.5l8.5 21.5h1q1 1 1 4t1 4q5 0 8.5 0.5t7.5 0.5q2 -7 4.5 -13.5t6.5 -14.5
q2 -3 2.5 -4l0.5 -1q0 -3 2 -5l3.5 -7t3.5 -8q1 -2 1.5 -2.5t1.5 -2.5q2 -5 4.5 -9.5t6.5 -13.5q1 -2 2 -5t3 -8t5.5 -12.5l6.5 -13.5h4l28 -27l101 7l87 7q-4 51 -6 81.5t-2 35.5q0 29 -9 67.5t-25 75.5q29 46 29 101q0 32 -10.5 60.5t-29.5 53.5q19 15 32 30t13 34v6
q0 5 -1 6l-3 2q-1 3 -4 6l-19 19q0 2 -0.5 2.5t-0.5 2.5h-1q-4 6 -19 18.5t-35.5 28l-44 32l-44 30t-35 22t-17.5 8.5q-18 0 -31 -8.5t-23.5 -22t-19 -30.5t-16.5 -35v-1h-1l-1 -1h-15q-18 0 -40 -3v1v1q-4 5 -6 10.5t-7 14.5l-2 1q-2 5 -6.5 15t-10.5 25l-23 23q-3 4 -5 10
l-102 -6l-90 -7q4 -51 6 -83t2 -37q0 -20 3.5 -46t11.5 -53q-29 -50 -29 -99zM121 380q0 -23 14 -42.5t38 -34t56 -23t68 -8.5t68 8.5t56 23t38 34t14 42.5q0 22 -14 42t-38 34.5t-56 23t-68 8.5t-68 -8.5t-56 -23t-38 -34.5t-14 -42zM3 382q0 54 31 100q-8 26 -12.5 52
t-4.5 46q0 5 -1.5 31.5t-5.5 77.5l78 6l94 6q7 -15 11 -24.5t7 -15.5l5 -10t5 -9q2 -5 4 -9l4 -8l5 -12t6 -15q14 2 29 3.5t31 1.5h12q10 0 13 -1q1 4 2 7t2 5q14 33 31.5 60t46.5 27q3 0 17.5 -8.5t35 -22l43 -29.5l42 -30.5t32.5 -26t14 -15.5q5 -20 -10 -37.5t-37 -34.5
q20 -25 31.5 -54t11.5 -61q0 -53 -30 -99q16 -37 25.5 -76.5t9.5 -68.5q0 -5 1.5 -31.5t5.5 -77.5l-78 -6l-94 -7l-11 25.5t-7 15.5l-5 10t-5 9q-3 8 -5.5 12.5t-8.5 16.5l-9.5 25t-4.5 14v25l-27 -4t-29 -3l-4 -8t-4 -9l-8 -20t-9 -21q-11 -33 -30 -60.5t-47 -27.5
q-3 0 -17.5 8.5t-35 22t-43 30l-42 31t-32.5 26t-14 15.5q-3 12 1.5 22.5t13.5 21t21 20l25 19.5q-35 29 -55.5 67t-20.5 83z" />
    <glyph glyph-name="FL00A5h" unicode="&#xa5;" horiz-adv-x="634" 
d="M141 21h2q11 -8 23 -15.5l25 -15.5l-26.5 15.5t-23.5 15.5zM3 221l5 -6q2 -2 4.5 -3.5t6.5 -3.5l21 -21q21 -15 48 -18h-11q-3 -1 -11 -1q-7 0 -11 -1q-11 -1 -24 -2t-24 -3q-16 -22 -16 -53q0 -9 1 -19t4 -23q8 -6 11 -7l22 -22q30 -21 63 -21h10q8 0 11 1q3 0 11 2h1
q10 0 13 1l8 -8q14 -14 39.5 -31t51 -31.5t47 -24t27.5 -9.5t11 3h5q8 23 10.5 49.5l5.5 60.5h2q2 0 5 0.5t6 0.5q49 1 85 3q6 0 16 0.5t15 0.5q0 1 0.5 4.5t0.5 6.5q1 2 1 11l3 9q1 1 1 5q0 25 -15 40l-18 18q-9 17 -31 27.5t-61 16.5v9h1q2 0 4.5 0.5t5.5 0.5q49 1 85 3
q6 0 16 0.5t15 0.5q0 1 0.5 4.5t0.5 6.5q1 2 1 11l3 9q1 1 1 5q0 23 -15 40l-18 18q-8 14 -22 23q46 19 69 48h-1q22 22 36 45.5t33 42.5l9 9q17 17 32 35t15 39v6q0 5 -1 6l-1 1l-4 4t-5 6l-16 16q0 2 -0.5 2.5t-0.5 2.5h-1q-3 6 -18 19.5t-35.5 29.5l-44 34t-44 32
l-35.5 23.5t-18 9.5q-18 0 -31.5 -9t-24.5 -24.5t-20 -35.5t-17 -42q-6 -20 -13 -35q-2 -5 -5.5 -12t-8.5 -15q-3 10 -10 27t-10 27l-6 12q-1 2 -2 5.5t-2 5.5q-5 8 -6.5 11t-3.5 8q-2 6 -7 18l-11 26l-24 23q-2 2 -2.5 5t-1.5 5l-103 -6l-90 -7q4 -54 6 -88.5t2 -39.5
q0 -26 6 -60t17.5 -68.5t27 -65t34.5 -49.5l9 -9q-5 0 -9.5 -0.5t-8.5 -0.5q-3 -1 -11 -1q-7 0 -11 -1q-11 -1 -24 -2t-24 -3q-16 -22 -16 -53q0 -23 4 -40zM15 224q-11 54 6 78q30 4 54.5 6t44.5 4v2q1 10 -6 15t-12 10q-18 18 -32.5 47t-25.5 62.5t-17 66.5t-6 59
q0 5 -1.5 34t-5.5 83l78 6l94 6q7 -16 11 -26t7 -16.5l5 -11t5 -9.5q2 -5 4 -9.5t4 -8.5l5.5 -14t6.5 -17.5l5.5 -15.5t2.5 -8v-65l10 -30q24 45 35 59q5 8 9.5 17l8.5 17q5 11 9 22t8 24q14 37 31.5 64.5t46.5 27.5q3 0 17.5 -9.5l35 -23.5t43 -31l42 -33t32.5 -28t14 -16
q5 -24 -13 -44.5t-39 -41.5q-20 -20 -34 -43.5t-35 -44.5q-33 -42 -137 -71q66 -5 93.5 -20t27.5 -44q0 -1 -2 -5t-2 -8q0 -5 -1 -8.5t-1 -5.5q-19 -1 -45.5 -2t-61.5 -2q-5 0 -9.5 -0.5t-9.5 -0.5q-1 -5 -1 -14v-14q0 -7 -0.5 -13.5t-1.5 -13.5q70 -5 98.5 -20.5
t28.5 -44.5q0 -1 -2 -5t-2 -8q0 -5 -1 -8.5t-1 -5.5q-19 -1 -45.5 -2t-61.5 -2q-5 0 -10.5 -0.5t-10.5 -0.5q-3 -37 -6 -66t-8 -44q-1 0 -4.5 -1.5t-5.5 -1.5q-5 0 -18 5.5t-30 14.5l-36.5 20t-36.5 23t-30 23t-17 19q-9 -1 -16.5 -2l-14.5 -2q-47 -6 -75 15q-11 54 6 78
q30 4 54.5 6t44.5 4q1 14 1.5 26.5t0.5 25.5q-14 -2 -24 -3q-47 -6 -75 15z" />
    <glyph glyph-name="FL00A6h" unicode="&#xa6;" horiz-adv-x="314" 
d="M28 -51l8 -50l4 4l28 -28l19 18.5l24.5 22.5t24 20t17.5 12q8 5 19.5 7.5t25.5 4.5q18 4 36 8.5t32.5 13.5t23.5 24.5t9 41.5v6l-20 544v11l10 134v13q0 4 0.5 11.5t0.5 9.5l-27 27v6q-12 0 -34 -6.5t-49 -17t-55.5 -24t-51.5 -28.5t-38.5 -29.5t-16.5 -27.5
q0 -3 0.5 -9.5t1.5 -14.5v-6q2 -18 3 -42.5t1 -49.5q2 -38 3 -72t1 -47v-85q0 -14 0.5 -28t0.5 -30v-200q0 -17 -0.5 -32t-0.5 -29v-83zM44 -77l-4 27q0 19 0.5 56.5t0.5 86.5v99v101q0 48 -0.5 85t-0.5 58q0 13 -1 47.5t-3 72.5q0 19 -1 38t-2 35.5t-2 28.5t-1 18
q1 12 15 25.5t35 27t46.5 26t49.5 22t44 15.5t31 6q0 -2 -0.5 -12t-0.5 -12l-10 -134v-7v-5l20 -544v-6q0 -32 -16 -47t-38 -22.5t-46 -11t-40 -11.5q-7 -3 -17.5 -11t-21.5 -17.5l-21 -19z" />
    <glyph glyph-name="FL00A7h" unicode="&#xa7;" horiz-adv-x="673" 
d="M232 264v4q0 9 7 20.5t17.5 21.5t24 18t25.5 10q2 1 4 1.5t4 1.5h-1q12 5 27.5 9t32.5 4h3q0 -3 0.5 -5.5t0.5 -4.5v-18q0 -7 -2.5 -18.5t-6.5 -17.5q-32 -19 -64.5 -28.5t-57.5 -10.5q-5 2 -9 7h1zM1 17q0 -14 7 -29t17 -29q2 -3 3 -5.5t3 -5.5q3 -8 6 -18l7 -24
q6 -20 12 -34t23 -22l18 -18q10 -10 28.5 -14.5t53.5 -4.5h7q12 3 30 8t36 11t33.5 12t23.5 10q5 2 8.5 4t8.5 4l59.5 30t50 35t34 47.5t12.5 66.5q0 10 -0.5 18.5t-1.5 17.5h1l12.5 6.5l12.5 6.5q28 14 53 29t44.5 35t31 46.5t11.5 64.5q0 69 -10.5 108.5t-33.5 62.5
l-11 11q-21 35 -58.5 48t-94.5 20q8 12 30.5 15.5t47.5 5.5q16 1 31.5 3t27.5 6.5t19.5 12.5t7.5 21q0 12 -3 36t-9.5 50.5t-16 51t-22.5 37.5l-4 3v-1h1l-14 15q-8 12 -16.5 19.5t-19.5 7.5q-50 0 -101.5 -16.5t-95 -48.5t-74.5 -79t-41 -107q-40 -16 -75.5 -40.5
t-61.5 -57.5t-41.5 -74t-15.5 -89q0 -24 7 -46.5t16 -45.5q1 -2 1.5 -5l0.5 -3q0 -2 2 -4q10 -23 22.5 -37.5t26.5 -22.5l11 -10q18 -18 40 -25t47 -9q-22 -9 -42.5 -10.5t-46.5 -1.5q-12 0 -28 -0.5t-31 -1.5q-12 -16 -14.5 -25.5t-2.5 -21.5zM388 372v9q-15 9 -30.5 11.5
t-30 0t-28 -7l-25.5 -8.5q-14 -2 -28 -10.5t-26 -20.5t-19.5 -25t-7.5 -23q0 -7 0.5 -15.5t9.5 -10.5q6 -1 11.5 -6t10.5 -10.5l10 -10.5t11 -6q29 1 64 10.5t64 28.5q6 6 10.5 22.5t4.5 25.5v9q0 9 -0.5 19t-0.5 18zM13 17q0 11 1.5 18.5t8.5 16.5q30 2 53 1.5t43.5 1.5
t39.5 7.5t41 19.5q8 5 9 8.5t1 11.5v10q-27 4 -53.5 4.5t-50 5.5t-42.5 18t-32 42l-19 51t-9 53q0 48 15.5 87.5t41.5 71t61.5 55t74.5 38.5q6 60 35 106t71.5 77.5t93.5 48t101 16.5q16 0 28.5 -22.5t20.5 -52t12 -59t4 -43.5t-12.5 -20.5t-31 -9.5t-40 -4t-40 -5
t-31 -12.5t-12.5 -25.5q0 -7 0.5 -15.5t8.5 -10.5q54 -5 92.5 -13t62.5 -29.5t35.5 -61t11.5 -107.5q0 -40 -13.5 -67t-35.5 -46.5t-50.5 -34.5l-58.5 -31q-2 -1 -4 -1.5t-4 -2.5q1 -10 1.5 -20t0.5 -21q0 -40 -14 -67t-37.5 -46.5t-53.5 -34.5l-63 -31q-8 -4 -23 -9.5
t-33 -11.5t-35.5 -11t-29.5 -8h-5q-37 0 -54 5.5t-25.5 17.5t-12.5 31t-15 46q-6 14 -17.5 31t-11.5 34z" />
    <glyph glyph-name="FL00A8h" unicode="&#xa8;" horiz-adv-x="443" 
d="M23 748l7 -8l6 -2l25 -25q18 -6 32 -6t26.5 2.5l22.5 4.5q11 4 18 4h2q27 11 37 27t10 33v41q0 11 -2 19.5t-9 15.5l-19 19q-4 11 -14.5 18t-31.5 10q-5 0 -16.5 -1.5t-24.5 -3t-24.5 -3.5t-15.5 -3q-6 -2 -13.5 -6t-15 -8.5t-12.5 -9t-5 -6.5v-96l16 -16h1zM239 748
l7 -8l6 -2l25 -25q18 -6 32 -6t26.5 2.5l22.5 4.5q11 4 18 4h2q27 11 37 27t10 33v41q0 11 -2 19.5t-9 15.5l-19 19q-4 11 -14.5 18t-31.5 10q-5 0 -16.5 -1.5t-24.5 -3t-24.5 -3.5t-15.5 -3q-6 -2 -13.5 -6t-15 -8.5t-12.5 -9t-5 -6.5v-96l16 -16h1zM247 757l-13 12v91
q0 2 14 9t23 9q4 1 15 3t23.5 3.5t23.5 3t15 1.5q24 -3 31 -14t7 -26v-20v-21q0 -15 -8 -29t-30 -22q-4 1 -14.5 -2t-24 -6t-28.5 -3.5t-28 4.5zM31 757l-13 12v91q0 2 14 9t23 9q4 1 15 3t23.5 3.5t23.5 3t15 1.5q24 -3 31 -14t7 -26v-20v-21q0 -15 -8 -29t-30 -22
q-4 1 -14.5 -2t-24 -6t-28.5 -3.5t-28 4.5z" />
    <glyph glyph-name="FL00AAh" unicode="&#xaa;" horiz-adv-x="358" 
d="M193 725q-2 0 -15 -4.5l-30 -10t-33 -11.5l-24 -9v2q-13 -10 -21.5 -25.5t-14.5 -33.5t-10 -37t-7 -37q-3 -17 -6 -31t-6 -23q-1 -1 -1 -3q0 -3 -1.5 -4.5t-1.5 -6.5q-2 -8 -2 -7q-5 -14 -9 -28t-5 -28v-21q0 -2 0.5 -4t0.5 -4t-0.5 -5.5t-1.5 -8.5q-1 -3 -1 -13v-16h6
l27 -27h21q1 0 10.5 3t22 7.5l26 9l22.5 7.5q2 2 9.5 5t8.5 3q7 7 15 24l2 6q0 3 4 10q2 -13 6.5 -23.5t15.5 -13.5l22 -22q6 -6 16 -6l-2 2q9 0 29 12l39 23q10 6 14.5 8.5t12.5 7.5v20q0 9 -4 29.5t-11 47t-16.5 56t-19.5 57t-21 49.5t-21 33l-18 18q-17 23 -27 23z
M132 549v-16q14 -3 22.5 -1t13.5 5.5t6.5 8.5t1.5 8t-2.5 9.5t-6.5 12.5t-9 11t-9 6q-14 -12 -15.5 -21.5t-1.5 -22.5zM193 713q10 0 21 -17.5t22 -44.5t21.5 -60t18 -63t12 -53.5t4.5 -32.5v-14l-13 -8l-28.5 -17.5l-28.5 -17t-14 -7.5q-11 0 -14 10.5t-5 22.5v13
q0 9 -3 17t-12 25q-10 13 -26 12q-1 -17 -3.5 -26.5t-4.5 -15.5t-4.5 -10t-3.5 -10q-3 -8 -8 -13q-1 0 -9.5 -4t-10.5 -6l-20.5 -7.5t-24.5 -8t-21 -6.5t-10 -3h-12q0 7 1.5 15t1.5 16q0 9 -1 16.5t0 12.5q1 19 7.5 38l12.5 36q5 14 9.5 39.5t10 52.5t14 50.5t22.5 34.5
q2 2 17 7.5l32.5 11.5t32.5 10.5t17 4.5z" />
    <glyph glyph-name="FL00ABh" unicode="&#xab;" horiz-adv-x="468" 
d="M31 428q-2 -18 -6 -38t-1 -46l6 -49t4 -28q5 -19 16.5 -33t24.5 -24t25.5 -16.5t20.5 -11.5q8 -9 16.5 -20t18.5 -12q1 -2 5 -0.5t9 1.5t9 -1.5t7 2.5v13q0 1 -1.5 16l-3.5 34l-4 38.5t-3 30.5q-2 4 -3.5 15.5t-2.5 14.5q-20 2 -44 9l-18 19.5t-17 20.5l17 12.5t23 18.5
q23 17 26 17l4 2l4 2q7 0 13 6t6 22q0 1 -1.5 9t-3 20t-2.5 26.5t-1 29.5t-2.5 23.5t-6 13t-6.5 6l-3 1.5h-8q-7 0 -26.5 -15t-44.5 -38q-12 -12 -19.5 -22.5t-12 -20.5t-7.5 -21.5zM243 424q-2 -18 -6 -38t-1 -46l6 -49t4 -28q5 -19 16.5 -33t24.5 -24t25.5 -16.5
t20.5 -11.5q8 -9 16.5 -20t18.5 -12q1 -2 5 -0.5t9 1.5t9 -1.5t7 2.5v13q0 1 -1.5 16l-3.5 34l-4 38.5t-3 30.5q-2 4 -3.5 15.5t-2.5 14.5q-20 2 -44 9l-18 19.5t-17 20.5l17 12.5t23 18.5q23 17 26 17l4 2l4 2q7 0 13 6t6 22q0 1 -1.5 9t-3 20t-2.5 26.5t-1 29.5t-2.5 23.5
t-6 13t-6.5 6l-3 1.5h-8q-7 0 -26.5 -15t-44.5 -38q-12 -12 -19.5 -22.5t-12 -20.5t-7.5 -21.5zM231 425l3 14q3 12 6 22t8 19.5t12.5 19.5t20.5 23q26 26 48.5 41.5t30.5 15.5h8l8.5 -4t15.5 -18l19 -19q5 -5 9.5 -15.5t4.5 -29.5q0 -23 2.5 -44t4.5 -32q1 -3 1 -9
q0 -21 -8.5 -29t-18.5 -8q-4 -4 -9 -4q-2 0 -21 -15h1l-12 -9.5t-20 -14.5l-1 -1q11 -3 22.5 -4t25.5 -3v-6l27 -27q0 -1 0.5 -7t0.5 -8l2 -12.5t3 -8.5q0 -4 0.5 -8t1.5 -9q1 -14 3 -31.5t3.5 -33t2.5 -27t1 -12.5v-16q-9 -9 -15 -9q-1 0 -2 0.5t-2 0.5q-2 0 -3 0.5t-3 0.5
h-4q-6 -2 -8 -2q-7 0 -9 2h-1q-10 5 -14 10l-21 20q-10 4 -16 12q-10 6 -21.5 14t-22.5 19l-6 5q-17 11 -32.5 28.5t-22.5 43.5q-1 4 -4 29l-6 50q-1 3 -1 9v10q0 24 4 40q0 2 0.5 4t0.5 4q1 5 1.5 9.5t1.5 9.5zM19 429l3 14q3 12 6 22t8 19.5t12.5 19.5t20.5 23
q26 26 48.5 41.5t30.5 15.5h8l8.5 -4t15.5 -18l19 -19q5 -5 9.5 -15.5t4.5 -29.5q0 -23 2.5 -44t4.5 -32q1 -3 1 -9q0 -21 -8.5 -29t-18.5 -8q-4 -4 -9 -4q-2 0 -21 -15h1l-12 -9.5t-20 -14.5l-1 -1q11 -3 22.5 -4t25.5 -3v-6l27 -27q0 -1 0.5 -6.5t0.5 -7.5v-1
q1 -6 1.5 -12t2.5 -9h1q0 -4 0.5 -8t1.5 -9q1 -14 3 -31.5t3.5 -33t2.5 -27t1 -12.5v-16q-9 -9 -15 -9q-1 0 -2 0.5t-2 0.5q-2 0 -3 0.5t-3 0.5h-4q-6 -2 -8 -2q-7 0 -9 2h-1q-10 5 -14 10l-21 20q-10 4 -16 12q-10 6 -21.5 14t-22.5 19l-6 5q-17 11 -32.5 28.5t-22.5 43.5
q-1 4 -4 29l-6 50q-1 3 -1 9v10q0 24 4 40q0 2 0.5 4t0.5 4q1 5 1.5 9.5t1.5 9.5z" />
    <glyph glyph-name="FL00ACh" unicode="&#xac;" horiz-adv-x="570" 
d="M91 272l-5 6q1 -2 2 -3zM79 285l14 -14h-1q0 1 -1 1l2 -1q24 -24 54 -24h11q5 0 11 2q29 7 62.5 9.5l70.5 5.5v-32q0 -33 8 -56.5t32 -34.5l15 -15q11 -11 30 -17q7 0 18 2t23 5.5l24 7t21 6.5l11 4q6 1 15 8t16.5 14.5t13 14t5.5 7.5v189l-16 28l-8 17l-24 24l-4 8
l-27 9q-47 35 -158 35q-60 0 -105 -9q-8 -2 -7 -2q-3 -1 -8 -1q-4 0 -7 -1q-21 -5 -48 -9q-13 -2 -26.5 -4.5l-28.5 -5.5q-40 -27 -40 -68q0 -38 24 -78q13 -16 28 -25zM480 421l15 -26v-187q0 -1 -5 -6l-11.5 -11t-14 -11.5t-13.5 -6.5l-18.5 -6l-26.5 -8.5t-27 -7.5
t-19 -3q-28 8 -37 30t-9 54v40q0 8 -0.5 17t0.5 17h-5q-48 -3 -92.5 -6.5t-79.5 -11.5q-45 -10 -73 24q-52 91 5 132l74.5 13.5t52.5 9.5q45 9 101 9q111 0 154 -34q5 -1 11 -3t11 -4z" />
    <glyph glyph-name="FL00ADh" unicode="&#xad;" horiz-adv-x="382" 
d="M43 312q16 -35 45 -24q19 7 47 11t58 7t57.5 5t45.5 5v22q0 8 2.5 14t2.5 9q0 60 -26 87.5t-89 27.5q-35 0 -62 -9l-32.5 -9.5l-45.5 -13.5q-35 -41 -3 -132zM79 258l-19 18q-16 7 -28 31l-1 1q-15 43 -15 80q0 40 24 67q1 1 3 1q3 0 4 1l41 12l31 9v1q27 9 67 9
q85 0 112 -49l13 -13q29 -29 29 -95l-0.5 -3.5t-1.5 -5.5q-1 -3 -2 -7.5t-1 -6.5v-30q-15 -3 -34 -4.5t-41 -3.5q-38 -3 -77 -7.5t-62 -12.5h1q-5 -2 -9 -2.5t-8 -0.5q-12 0 -26 11z" />
    <glyph glyph-name="FL00AFh" unicode="&#xaf;" horiz-adv-x="586" 
d="M-30 859v-9l21.5 -22t27.5 -27q13 -13 69 -34h64h25h11q7 0 10 1q19 1 34 2.5t28 5.5q26 6 49.5 12.5t40.5 8.5q16 1 54 3q26 1 56 3.5t55.5 7t42 12.5t16.5 20q0 13 -5.5 29.5t-14.5 33t-20 32t-23 27.5h-10q-7 0 -15 0.5t-15 0.5h-10q-24 0 -43.5 -1t-39.5 -3
q-10 -2 -20.5 -3.5t-21.5 -3.5q-14 -2 -41 -3.5t-67 -1.5q-66 2 -112 2.5t-75 -0.5q-57 -2 -66 -36q-8 -35 -6 -43q1 -1 1 -7v-7zM-42 846v20q0 3 -1 4v6q0 14 6 43q12 43 78 45h21q7 0 15 0.5t16 0.5q51 0 135 -3q38 0 64.5 1.5t40.5 3.5l22 3q2 0 2.5 0.5t2.5 0.5h-1
q3 1 8.5 2l5.5 1q20 2 41 3t47 1h17q2 0 4 -0.5t4 -0.5h29l12.5 -14.5t12.5 -15.5l4 -3q13 -13 25 -29.5t22 -34.5t16 -35.5t6 -31.5q0 -15 -17.5 -24.5t-44 -15.5t-58 -8.5t-59.5 -3.5q-37 -2 -53 -3q-8 -2 -22 -5t-29 -7q-9 -2 -18.5 -4.5t-18.5 -4.5q-12 -4 -28.5 -5.5
t-36.5 -2.5q-3 -1 -10 -1h-11h-89q-60 22 -75 37v-1l-18 17q-8 6 -9 7q-7 6 -17.5 16.5l-18.5 18.5l-12 12q-3 4 -5.5 6.5z" />
    <glyph glyph-name="FL00B0h" unicode="&#xb0;" horiz-adv-x="376" 
d="M118 540q0 23 15 36.5t35 22.5l2.5 0.5t3.5 0.5q25 0 38.5 -11t13.5 -38q0 -31 -18 -50t-48 -19q-23 0 -32.5 18t-9.5 40zM14 544q0 -12 3 -33t8 -37q12 -31 18 -45t14 -23q10 -10 25.5 -18.5t32 -14.5t33 -8.5t29.5 -0.5q12 0 33.5 5t34.5 16q0 3 18 20.5t33 49.5
l17.5 47t8.5 53q0 29 -9 58.5t-26 53t-41 38t-53 14.5q-30 0 -61.5 -14t-57.5 -38t-43 -55.5t-17 -67.5zM2 544q0 38 18 72t46 59.5t61.5 40.5t65.5 15q33 0 60 -17.5t46 -44.5l8 -8q26 -26 40 -62.5t14 -73.5q0 -26 -6.5 -47t-14.5 -41l-6 -16q-11 -24 -24 -39.5t-21 -23.5
q-2 -2 -3.5 -4.5l-1.5 -2.5q-15 -14 -38 -20t-37 -6q-3 -1 -13 -1q-14 0 -30 3.5t-32 9.5t-30 14.5t-24 18.5l-12 11q-12 8 -20 17q-8 8 -13 19t-13 32q-1 1 -3 8q-4 8 -5 9.5t-1 3.5q-5 16 -8 38.5t-3 35.5zM157 510q0 -13 1 -16h2q25 0 39.5 15.5t14.5 41.5q0 7 -1 9
q-2 0 -4.5 0.5t-4.5 0.5q-1 0 -1.5 -0.5t-2.5 -0.5q-17 -8 -30 -19.5t-13 -30.5z" />
    <glyph glyph-name="FL00B1h" unicode="&#xb1;" horiz-adv-x="450" 
d="M40 22l2 -2q10 -16 24 -22l17 -17q15 -15 38 -15q5 0 9 0.5t8 1.5q29 8 73 11t87 5q29 2 55 3.5t46 4.5v14q0 3 0.5 6t0.5 7l3 12q1 2 1 7q0 48 -24 72l-15 14q-14 27 -47 39.5t-93 12.5q-51 0 -78 -7q-10 -3 -29 -6q-11 -2 -23.5 -4.5l-26.5 -5.5h1l-19 -3
q-30 -24 -30 -60q0 -30 20 -68zM31 341l4 -6q7 -8 15 -12l17 -16q16 -16 42 -20l12 -76q1 -1 3 -1q3 0 4 -1l26 -25q33 -6 57 -6q72 0 104 48l-4 76q27 2 43 7t24.5 11t11 10.5t2.5 6.5l3 11q1 2 1 10q-3 77 -24 98l-19 18q-9 18 -22 22q-8 2 -16.5 3t-16.5 3l-3 66l-27 27
v6q-22 5 -42 8t-40 3q-23 0 -47 -5t-51 -16l7 -102q-6 -2 -7 -2t-7 -2l-12 -4l-12.5 -4t-14.5 -4q-14 -13 -22 -27.5t-8 -33.5q0 -32 19 -71zM51 27q-39 77 4 111q32 6 55.5 11t39.5 8q27 7 75 7q77 0 108.5 -23t31.5 -73q0 -2 -2 -7t-2 -12q0 -6 -0.5 -11t-0.5 -8
q-21 -3 -54.5 -4.5t-70 -4t-71.5 -5.5t-58 -9q-34 -9 -55 20zM43 344q-39 82 4 118l38 11.5t23 6.5l-8 104q73 28 156 7l4 -97l34 -4t34 -6q25 -8 29 -96q0 -3 -2 -8.5t-2 -12.5q0 -1 -2.5 -5t-11 -8.5t-24.5 -8.5t-43 -5l4 -82q-36 -54 -144 -36l-16 104q-47 -5 -73 18z
" />
    <glyph glyph-name="FL00B2h" unicode="&#xb2;" horiz-adv-x="310" 
d="M1 632q0 -9 2 -15t14 -14h3l18 -19q-15 -8 -25 -27l1 1q-3 -3 -3 -5q-1 -1 -1 -4v1q-5 -11 -9 -22.5t-4 -25.5l7 -138q1 -1 7 -1l26 -26q37 -5 83 -6.5t103 -1.5q13 0 22.5 12t15.5 28t9 31.5t3 23.5q0 9 -5 14l-23 22q-2 10 -10 14q35 7 50 28t15 73q0 31 -21 52l-15 14
q-13 23 -39.5 36t-57.5 24q-5 3 -15 6.5l-21 7t-21 5.5t-16 2h-3q-19 0 -30.5 -2t-18 -6.5t-10 -11.5t-6.5 -17q-2 -4 -3.5 -8.5t-3.5 -9.5q-1 -1 -1 -2l-1.5 -2t-2.5 -4q-1 -1 -2.5 -3t-2.5 -3l-5.5 -9.5t-2.5 -11.5zM13 632q0 7 7 15.5t10 15.5q6 13 8.5 22t7.5 14.5t15 8
t30 2.5h3q6 0 16.5 -2t21.5 -5t20 -6.5t11 -5.5l36.5 -14t31 -16.5t22 -23t8.5 -32.5q0 -33 -7 -52t-22 -29t-38.5 -13.5t-57.5 -6.5q-4 -1 -4.5 -5.5t-0.5 -7.5q0 -12 16 -15.5t35.5 -5t35.5 -4t16 -12.5q0 -7 -2.5 -21t-7.5 -28.5t-13 -25.5t-18 -11q-57 0 -101 1.5
t-76 5.5l-7 127q0 13 5 25l10 25q12 20 30.5 26t40.5 6q8 0 15.5 0.5t15.5 1.5v5q0 3 -0.5 5t-4.5 4q-19 11 -35.5 12t-36.5 1q-7 0 -14 0.5t-15 1.5q-5 4 -6 7.5t-1 9.5z" />
    <glyph glyph-name="FL00B3h" unicode="&#xb3;" horiz-adv-x="306" 
d="M125 602h-17h-7q-5 0 -8 1h-4q-11 0 -20 -4.5t-14 -16.5l1 1q-4 -7 -4 -14q0 -20 32 -55q2 -1 3.5 -1.5t3.5 -1.5l24 -24q4 -2 6.5 -3t4.5 -2q6 -9 6 -13l-1 0.5t-3 0.5q-11 0 -16 8q-8 7 -32 17h-15q-63 0 -63 -43v-4q0 -2 0.5 -3.5t0.5 -3.5q7 -40 32 -54l21 -21
q3 -3 6.5 -5.5t8.5 -3.5l-1 1q11 -5 20 -8t13 -4l9 -3q0 1 -1 1q4 -1 6.5 -1.5t5.5 -1.5q4 -1 7 -1.5t6 -0.5q12 -4 30 -4h54q11 6 24 14.5t23.5 19t17.5 23t7 25.5q0 20 -10.5 48.5t-26.5 45.5l-11 10q4 2 7.5 4.5l6.5 4.5q2 1 4 2.5t4 2.5q11 10 17 25t8 27q0 1 0.5 4
t0.5 5q0 7 -2.5 18t-11.5 26l-3 3q-10 16 -19 26l-9 8l-1 1v1q0 2 -1 3v-2q-8 11 -15 18.5t-18 15.5h-2l-1 1q-1 1 -3 1h-1l-1 1q-8 4 -18.5 7.5t-26.5 5.5h-66q-33 0 -45 -4v-1q-8 -3 -13.5 -12.5t-5.5 -21.5v-5q0 -2 0.5 -2.5t0.5 -1.5q3 -24 25 -33l18 -18q13 -14 46 -16
q2 0 3.5 -0.5t3.5 -0.5q1 -1 1 -6q0 -4 -1 -5q0 -1 -1 -1zM108 590h15q7 0 11 1t4 9q4 18 -9.5 36t-38.5 18q-45 3 -48 29t11 31q12 4 40 4h65q19 -3 30.5 -7.5t20.5 -8.5q9 -6 16 -14t15 -23q11 -19 12 -30.5t0 -15.5q-2 -11 -7 -25t-15 -22l-12.5 -8.5t-22.5 -11.5
q8 -4 11.5 -6.5t6.5 -5.5q8 -6 15.5 -17.5t13 -25t8.5 -27t3 -23.5q0 -11 -6.5 -22t-16 -21t-21 -17.5t-21.5 -12.5h-5h-15h-5h-27q-15 0 -27 4q-2 0 -8.5 1.5t-17.5 3.5l-20 6t-20 7q-19 4 -28 48q-8 43 63 39q18 -8 27 -15q7 -10 23 -10t16 11q0 6 -6 17t-15 22
q-9 10 -14 12q-10 0 -18 4q-34 37 -25 53t26 14q3 -1 8 -1h8z" />
    <glyph glyph-name="FL00B4h" unicode="&#xb4;" horiz-adv-x="244" 
d="M26 744l8 -9l1 -1l4 -3l14 -12l12 -11q20 -5 32 -5h7q20 2 73 44t53 68q0 10 -2 18t-9 15l-20 19q-5 12 -16.5 19.5t-35.5 10.5q-6 0 -18 -1.5l-27 -3.5q-10 -1 -23.5 -14t-32.5 -36q-19 -24 -28.5 -44.5t-11.5 -37.5l19 -16h1zM34 753l-15 12q3 26 36 70q34 43 48 45
l26.5 3.5t16.5 1.5q28 -3 36.5 -14t8.5 -26q0 -20 -50 -61t-68 -42q-11 -1 -33 4z" />
    <glyph glyph-name="FL00B5h" unicode="&#xb5;" horiz-adv-x="630" 
d="M269 664l-2 2zM270 162q8 -12 18 -31l2 1v-1q-2 -5 0 -7l5 -12.5t10 -22.5q10 -29 25 -54t37 -36l13 -13q20 -20 43 -20q3 0 18.5 9t36 23l44 30.5t43.5 32.5t34 28.5t16 17.5h1q1 2 1 12q0 14 -6.5 25.5t-17.5 22.5l-11 10q-8 14 -20.5 25.5t-26.5 22.5q-2 2 -3.5 2.5
t-3.5 2.5q-17 10 -28 22q-5 10 -5 23q0 14 6.5 20.5t14.5 11.5q5 4 10.5 7.5t7.5 6.5h-1q18 19 33.5 48t26.5 60.5t17.5 63t6.5 56.5q0 5 2 36.5t6 82.5l-28 27q0 2 0.5 3t0.5 3l-90 7l-103 6q-4 -7 -7 -14t-5 -13q-2 -5 -3 -8t-2 -5q-3 -7 -6 -12.5l-7 -12.5l1 1l-1 -1.5
t-2 -3.5v-1h-1q-5 -14 -7 -16q-2 -7 -4.5 -13.5t-4.5 -10.5q-11 -24 -11 -31v-53q-8 11 -14 28q-6 11 -9.5 20t-6.5 18q-10 23 -20 42.5t-23 33.5l-11 10q-11 19 -26 30.5t-36 11.5q-3 0 -18 -9t-35.5 -22.5l-44 -30.5l-44 -32.5t-35.5 -28t-18 -18.5h-1q-1 -1 -1 -6v-8
q0 -21 15.5 -39t35.5 -36l6 -6q10 -9 16.5 -17l12.5 -16q3 -3 5 -7t7 -9q6 -9 12.5 -17.5t14.5 -16.5q33 -40 60.5 -79.5t50.5 -84.5q11 -28 19 -45t13 -24zM249 235q-23 45 -51 86.5t-62 81.5q-21 20 -35 42.5t-34 41.5q-21 20 -39 39t-13 42q1 4 14 15.5t32.5 26.5l42 31
l43 29.5l35 22.5t17.5 9q29 0 46.5 -26.5t31.5 -62.5l8 -21.5t9 -20.5q8 -19 18 -32q5 -7 13.5 -22.5t19.5 -38.5l12 33v11v20v20v11q0 1 2.5 7.5l5.5 14.5t6.5 16.5l5.5 13.5l4 8t4 9q3 5 5 9l5 10t7 15.5l11 25.5l94 -6l78 -6q-4 -51 -5.5 -78.5t-1.5 -32.5q0 -24 -6 -55
t-17 -62.5t-25.5 -59t-32.5 -45.5q-5 -6 -12 -10t-13.5 -9.5t-11 -13t-4.5 -19.5q0 -26 20.5 -46t44.5 -38.5t42.5 -37.5t13.5 -43q-1 -4 -14 -15.5t-32.5 -26.5l-42 -31.5t-43 -30l-35 -22.5t-17.5 -9q-14 0 -25.5 7.5t-21 20t-17 28.5t-13.5 33q-5 11 -9 21.5l-8 20.5
q-10 22 -19 32q-4 6 -12 22.5t-19 44.5z" />
    <glyph glyph-name="FL00B7h" unicode="&#xb7;" horiz-adv-x="268" 
d="M18 421v-153l18 -20l8 -12q20 -8 36.5 -6t35.5 7t34 8t18 4q20 7 30.5 20.5t15 30t5 34.5t0.5 34v34q0 25 -9.5 43t-41.5 23q-6 0 -20 -2.5l-30 -5.5t-30 -6t-20 -5q-3 0 -9.5 -3l-13.5 -6.5t-13 -7.5l-9 -6zM6 263v162l16 16l17.5 10t23.5 9v1q5 2 20 5t32 6l32.5 5.5
t21.5 2.5q23 -4 36 -13t19 -22l17 -17q11 -11 14 -25t3 -31v-43q0 -17 -1 -34.5t-7 -34t-18 -29.5t-34 -21h-1q-7 -2 -21 -5t-28 -7q-11 -3 -21.5 -5t-21.5 -2q-8 0 -16.5 1.5t-19.5 6.5l-25 24l-6 3l-6 8z" />
    <glyph glyph-name="FL00B8h" unicode="&#xb8;" horiz-adv-x="204" 
d="M-120 -109l4 -96q1 -1 4 -1t4 -1l25 -26q45 -16 68.5 -25.5t28.5 -12.5q6 -5 12.5 -6.5t12.5 -3.5q1 0 2 -0.5t2 -0.5q6 -2 22 -5.5t33 -6.5t32.5 -5t21.5 -2q37 7 47.5 24.5t10.5 38.5v27q0 3 0.5 6t0.5 7q0 14 -1.5 26.5t-3.5 25.5q-1 6 -1.5 11.5t-1.5 10.5
q-2 18 -25 63l-17 22.5t-12 14.5l-16 16q-6 8 -10 12.5t-6 6.5q-16 13 -96 13q-17 -14 -17 -29q0 -8 2 -17t7 -18v1q10 -22 14 -38l-40 -5zM-104 -197l-4 79l100 24l48 6q1 15 -16 54q-16 34 0 46q72 0 85 -10q9 -8 31 -36q24 -48 24 -61q2 -20 5.5 -44t1.5 -42v-27
q0 -18 -9.5 -33t-41.5 -21q-5 0 -19.5 2t-30.5 4.5t-30.5 5.5t-19.5 5q-6 2 -14.5 4.5t-16.5 7.5q-8 4 -93 36z" />
    <glyph glyph-name="FL00B9h" unicode="&#xb9;" horiz-adv-x="190" 
d="M14 386l8 -35h6l27 -27h15q5 5 9 6t9 3q3 1 7 5l2 0.5t5 2.5l21 9.5l23.5 11t19.5 11t8 9.5v44q0 33 -1 66t-3 67q-2 33 -2.5 71t-0.5 72l-27 27v6q-14 0 -35.5 -4.5t-42.5 -13.5t-36.5 -22.5t-16.5 -31.5v-70q0 -11 1.5 -19.5t3.5 -16.5v-171zM32 363l-6 26v173
q-5 18 -5 31v30v7v26v7q1 15 13.5 26t29.5 18.5t35 11.5t29 4q0 -67 3.5 -133.5t3.5 -133.5v-11v-26v-7q0 -2 -11 -7.5l-24.5 -12l-26 -12t-14.5 -6.5q-2 -2 -11 -5t-11 -6h-3h-2z" />
    <glyph glyph-name="FL00BAh" unicode="&#xba;" horiz-adv-x="376" 
d="M118 540q0 23 15 36.5t35 22.5l2.5 0.5t3.5 0.5q25 0 38.5 -11t13.5 -38q0 -31 -18 -50t-48 -19q-23 0 -32.5 18t-9.5 40zM14 544q0 -12 3 -33t8 -37q12 -31 18 -45t14 -23q10 -10 25.5 -18.5t32 -14.5t33 -8.5t29.5 -0.5q12 0 33.5 5t34.5 16q0 3 18 20.5t33 49.5
l17.5 47t8.5 53q0 29 -9 58.5t-26 53t-41 38t-53 14.5q-30 0 -61.5 -14t-57.5 -38t-43 -55.5t-17 -67.5zM2 544q0 38 18 72t46 59.5t61.5 40.5t65.5 15q33 0 60 -17.5t46 -44.5l8 -8q26 -26 40 -62.5t14 -73.5q0 -26 -6.5 -47t-14.5 -41l-6 -16q-11 -24 -24 -39.5t-21 -23.5
q-2 -2 -3.5 -4.5l-1.5 -2.5q-15 -14 -38 -20t-37 -6q-3 -1 -13 -1q-14 0 -30 3.5t-32 9.5t-30 14.5t-24 18.5l-12 11q-12 8 -20 17q-8 8 -13 19t-13 32q-1 1 -3 8q-4 8 -5 9.5t-1 3.5q-5 16 -8 38.5t-3 35.5zM157 510q0 -13 1 -16h2q25 0 39.5 15.5t14.5 41.5q0 7 -1 9
q-2 0 -4.5 0.5t-4.5 0.5q-1 0 -1.5 -0.5t-2.5 -0.5q-17 -8 -30 -19.5t-13 -30.5z" />
    <glyph glyph-name="FL00BBh" unicode="&#xbb;" horiz-adv-x="468" 
d="M388 288q2 18 6 38t1 45l-6 50t-4 28q-5 19 -16.5 33t-24.5 23.5t-26 16.5t-20 12q-8 9 -16.5 20t-18.5 12q-1 2 -5 0.5t-9 -1.5t-9 1.5t-7 -2.5v-13q0 -2 1.5 -16.5l3.5 -33.5l4 -38.5t3 -30.5q2 -4 3.5 -15.5t2.5 -14.5q20 -2 44 -9l18 -19.5t17 -20.5l-17 -12.5
t-23 -18.5q-23 -17 -26 -17l-4 -2l-4 -2q-7 0 -13 -6t-6 -22q0 -3 4 -29.5t4 -56.5q0 -29 8.5 -36t9.5 -7h8q6 0 26.5 15t43.5 38q13 12 20.5 22t12 20.5t7.5 22zM176 292q2 18 6 38t1 45l-6 50t-4 28q-5 19 -16.5 33t-24.5 23.5t-26 16.5t-20 12q-8 9 -16.5 20t-18.5 12
q-1 2 -5 0.5t-9 -1.5t-9 1.5t-7 -2.5v-13q0 -2 1.5 -16.5l3.5 -33.5l4 -38.5t3 -30.5q2 -4 3.5 -15.5t2.5 -14.5q20 -2 44 -9l18 -19.5t17 -20.5l-17 -12.5t-23 -18.5q-23 -17 -26 -17l-4 -2l-4 -2q-7 0 -13 -6t-6 -22q0 -3 4 -29.5t4 -56.5q0 -29 8.5 -36t9.5 -7h8
q6 0 26.5 15t43.5 38q13 12 20.5 22t12 20.5t7.5 22zM60 368l-27 26q-1 1 -6 1v7q0 2 -0.5 5t-0.5 5l-2 12.5t-3 8.5q0 3 -0.5 6.5t-0.5 7.5q-2 13 -3 30q-2 12 -3.5 25.5t-2.5 25t-1.5 19t-0.5 8.5v17q11 11 19 11l1 -1h2q1 0 1.5 -0.5t1.5 -0.5h6q6 2 5 2h4q7 0 10 -4
q9 -4 15.5 -10.5t12.5 -13.5q2 -6 6 -8l1 -1l3.5 -1.5t8.5 -4.5l35 -23t32 -35l11 -10q9 -9 16.5 -20.5t11.5 -26.5q1 -3 4 -27t6 -52q1 -3 1 -9v-9q0 -14 -1.5 -25.5t-3.5 -22.5q-1 -5 -1.5 -9.5t-1.5 -9.5v-1q-1 -4 -2 -7t-2 -7q-6 -24 -13.5 -41.5t-32.5 -40.5h-1
q-25 -24 -46.5 -39.5t-28.5 -15.5h-8q-1 0 -4.5 1t-8.5 6l-21 20q-6 2 -16 13t-10 42q0 19 -2 38t-4 32q0 1 -0.5 1.5t-0.5 1.5q-1 3 -1 7v6q0 21 9 30t19 10l4 2q2 0 4 2q3 0 15 9l23 18l15 11h-1v1q-25 7 -41 8zM272 364l-27 26q-1 1 -6 1v7q0 2 -0.5 5t-0.5 5l-2 12.5
t-3 8.5q0 3 -0.5 6.5t-0.5 7.5q-2 13 -3 30q-2 12 -3.5 25.5t-2.5 25t-1.5 19t-0.5 8.5v17q11 11 19 11l1 -1h2q1 0 1.5 -0.5t1.5 -0.5h6q6 2 9 2q7 0 10 -4q9 -4 15.5 -10.5t12.5 -13.5q2 -6 6 -8l1 -1l3.5 -1.5t8.5 -4.5l35 -23t32 -35l11 -10q9 -9 16.5 -20.5t11.5 -26.5
q1 -3 4 -27t6 -52q1 -3 1 -9v-9q0 -14 -1.5 -25.5t-3.5 -22.5q-1 -5 -1.5 -9.5t-1.5 -9.5v-1q-1 -4 -2 -7t-2 -7q-6 -24 -13.5 -41.5t-32.5 -40.5h-1q-25 -24 -46.5 -39.5t-28.5 -15.5h-8q-1 0 -4.5 1t-8.5 6l-21 20q-6 2 -16 13t-10 42q0 19 -2 38t-4 32q0 1 -0.5 1.5
t-0.5 1.5q-1 3 -1 7v6q0 21 9 30t19 10l4 2q2 0 4 2q3 0 15 9l23 18l15 11h-1v1q-25 7 -41 8z" />
    <glyph glyph-name="FL00BCh" unicode="&#xbc;" horiz-adv-x="644" 
d="M14 386l8 -35h6l27 -27h15q5 5 9 6t9 3q3 1 7 5l2 0.5t5 2.5q9 4 22.5 9.5t25.5 12.5l-30 -68l-34 -75l-23 -53.5t-26 -56.5l-21 -35q-1 -5 -1.5 -8.5t-0.5 -5.5v-9q0 -27 11.5 -49.5t34.5 -36.5h1l13 -13q10 -10 18 -14q5 1 7.5 2l2.5 1h5q2 2 24 16q6 5 12 8.5t10 7.5
l1 -1q5 3 18 9t26 11q19 8 26 20.5t11 39.5q20 52 43.5 104t49.5 104q0 -21 2 -41.5l4 -40.5l10 -61q2 0 3 -0.5t3 -0.5l27 -26q19 -2 39.5 -2.5t34.5 -0.5h28v-102h6l27 -27q20 0 34 7t27 15l20 13t15 6q1 0 4 -0.5t4 -0.5l24 35q-1 5 -3 17l-7.5 57.5t-6.5 78.5
q-3 46 -7.5 84.5t-17.5 50.5l-21 20q-9 17 -19 17h-5q-5 0 -11 -3.5t-11 -7.5l-2 -2l-4 -3q-2 0 -3 -0.5t-2 -0.5q-3 -2 -6.5 -3.5l-8.5 -3.5q-6 -2 -12.5 -6t-11.5 -8l-2 4q-8 -1 -13 -9q-2 2 -2 3l-22 21q-4 16 -19 16q-10 0 -27 -8t-34 -20q27 51 55 96.5l58 93.5
q4 20 7.5 31.5l5.5 18.5h-1q7 14 7 37q0 22 -1 44.5t-9 54.5l-25 25q-2 6 -2 8l-7.5 1.5t-4.5 0.5h-8q-13 0 -45 -12.5t-63 -30.5l-12.5 -14.5l-9.5 -11.5q-2 -2 -3.5 -4t-3.5 -4q-5 -6 -12.5 -14t-21.5 -25q-9 -18 -75 -168q-5 -9 -8.5 -18.5t-8.5 -20.5v10q0 33 -1 66
t-3 67q-2 33 -2.5 71t-0.5 72l-27 27v6q-14 0 -35.5 -4.5t-42.5 -13.5t-36.5 -22.5t-16.5 -31.5v-70q0 -11 1.5 -19.5t3.5 -16.5v-171zM600 65l-18 -27q-8 2 -19.5 -4t-24 -14t-25 -15t-22.5 -7v124q0 1 -2 5t-3 5h-1h-2q-34 -9 -128 -3l-9 53q-6 52 -6 104q0 9 10 19
t23.5 18.5t27.5 14.5t22 6q9 0 11.5 -19t3.5 -41.5t3.5 -41t11.5 -18.5q13 0 23 6t10 20q0 11 -5.5 21.5t-5.5 24.5v10q0 5 6 7q2 1 9 4t15 6l15.5 6t9.5 4q1 0 10.5 7t12.5 7h5q6 0 10 -11t7 -29t5 -41.5l4 -48.5q2 -54 8 -94.5t8 -57.5zM32 363l-6 26v173q-5 18 -5 31v30
v7v26v7q1 15 13.5 26t29.5 18.5t35 11.5t29 4q0 -67 3.5 -133.5t3.5 -133.5v-11v-26v-7q0 -2 -11 -7.5l-24.5 -12l-26 -12t-14.5 -6.5q-2 -2 -11 -5t-11 -6h-3h-2zM27 68l17 28l166.5 374.5t65.5 145.5l19.5 22.5l11.5 13.5t11 12.5t17 19.5q15 9 31 17t30 13.5t24.5 9
t16.5 3.5q2 0 5.5 -0.5l3.5 -0.5q7 -29 8 -50t1 -41q0 -21 -6 -34l-5.5 -19t-7.5 -30q-138 -213 -240 -468q-4 -24 -10 -35t-21 -18q-15 -6 -28.5 -12t-17.5 -8q-1 -1 -7.5 -5.5t-15 -9.5t-15 -9.5t-7.5 -5.5q-1 0 -3 -0.5t-7 -1.5q-44 29 -37 89z" />
    <glyph glyph-name="FL00BDh" unicode="&#xbd;" horiz-adv-x="644" 
d="M14 386l8 -35h6l27 -27h15q5 5 9 6t9 3q3 1 7 5l2 0.5t5 2.5q9 4 22.5 9.5t25.5 12.5l-30 -68l-34 -75l-23 -53.5t-26 -56.5l-21 -35q-1 -5 -1.5 -8.5t-0.5 -5.5v-9q0 -27 11.5 -49.5t34.5 -36.5h1l13 -13q10 -10 18 -14q5 1 7.5 2l2.5 1h5q2 2 24 16q6 5 12 8.5t10 7.5
l1 -1q5 3 18 9t26 11q19 8 26 20.5t11 39.5q20 51 42.5 101l47.5 101q1 -5 4 -9.5t12 -10.5h3l18 -19q-15 -8 -25 -27q-2 -2 -2 -4q-1 -1 -1 -3q-5 -11 -9 -22.5t-4 -25.5l7 -138q5 0 7 -1l26 -26q37 -5 83 -6.5t103 -1.5q13 0 22.5 12t15.5 28t9 31.5t3 23.5q0 9 -5 14
l-23 22q-2 10 -10 14q35 7 50 28t15 73q0 31 -21 52l-15 14q-13 23 -39.5 36t-57.5 24q-5 3 -15 6.5l-21 7t-21 5.5t-16 2h-3q-15 0 -24.5 -1.5t-16.5 -3.5q24 45 49 86l52 83q4 20 7.5 31.5l5.5 18.5h-1q7 14 7 37q0 22 -1 44.5t-9 54.5l-25 25q-2 6 -2 8l-7.5 1.5
t-4.5 0.5h-8q-13 0 -45 -12.5t-63 -30.5l-12.5 -14.5l-9.5 -11.5q-2 -2 -3.5 -4t-3.5 -4q-5 -6 -12.5 -14t-21.5 -25q-9 -18 -75 -168q-5 -9 -8.5 -18.5t-8.5 -20.5v10q0 33 -1 66t-3 67q-2 33 -2.5 71t-0.5 72l-27 27v6q-14 0 -35.5 -4.5t-42.5 -13.5t-36.5 -22.5
t-16.5 -31.5v-70q0 -11 1.5 -19.5t3.5 -16.5v-171zM337 264q0 7 7 15.5t10 15.5q6 13 8.5 22t7.5 14.5t15 8t30 2.5h3q6 0 16.5 -2t21.5 -5t20 -6.5t11 -5.5l36.5 -14t31 -16.5t22 -23t8.5 -32.5q0 -33 -7 -52t-22 -29t-38.5 -13.5t-57.5 -6.5q-4 -1 -4.5 -5.5t-0.5 -7.5
q0 -12 16 -15.5t35.5 -5t35.5 -4t16 -12.5q0 -7 -2.5 -21t-7.5 -28.5t-13 -25.5t-18 -11q-57 0 -101 1.5t-76 5.5l-7 127q0 13 5 25l10 25q12 20 30.5 26t40.5 6q8 0 15.5 0.5t15.5 1.5v5q0 3 -0.5 5t-4.5 4q-19 11 -35.5 12t-36.5 1q-7 0 -14 0.5t-15 1.5q-5 4 -6 7.5
t-1 9.5zM32 363l-6 26v173q-5 18 -5 31v30v7v26v7q1 15 13.5 26t29.5 18.5t35 11.5t29 4q0 -67 3.5 -133.5t3.5 -133.5v-11v-26v-7q0 -2 -11 -7.5l-24.5 -12l-26 -12t-14.5 -6.5q-2 -2 -11 -5t-11 -6h-3h-2zM27 68l17 28l166.5 374.5t65.5 145.5l19.5 22.5l11.5 13.5
t11 12.5t17 19.5q15 9 31 17t30 13.5t24.5 9t16.5 3.5q2 0 5.5 -0.5l3.5 -0.5q7 -29 8 -50t1 -41q0 -21 -6 -34l-5.5 -19t-7.5 -30q-138 -213 -240 -468q-4 -24 -10 -35t-21 -18q-15 -6 -28.5 -12t-17.5 -8q-1 -1 -7.5 -5.5t-15 -9.5t-15 -9.5t-7.5 -5.5q-1 0 -3 -0.5
t-7 -1.5q-44 29 -37 89z" />
    <glyph glyph-name="FL00BEh" unicode="&#xbe;" horiz-adv-x="776" 
d="M103 346l9 -3q0 1 -1 1q4 -1 6.5 -1.5t5.5 -1.5q4 -1 7 -1.5t6 -0.5q12 -4 30 -4h54q4 2 10 5.5l14 8.5q-14 -29 -28 -61.5l-30 -67.5l-23 -53.5t-26 -56.5l-21 -35q-1 -5 -1.5 -8.5t-0.5 -5.5v-9q0 -27 11.5 -49.5t34.5 -36.5h1l13 -13q10 -10 18 -14q5 1 7.5 2l2.5 1h5
q2 2 24 16q6 5 12 8.5t10 7.5l1 -1q5 3 18 9t26 11q19 8 26 20.5t11 39.5q24 60 50 117t55 114q0 -54 6 -105l10 -61q2 0 3 -0.5t3 -0.5l27 -26q19 -2 39.5 -2.5t34.5 -0.5h28v-102h6l27 -27q20 0 34 7t27 15l20 13t15 6q1 0 4 -0.5t4 -0.5l24 35q-1 5 -3 17l-7.5 57.5
t-6.5 78.5q-3 46 -7.5 84.5t-17.5 50.5l-21 20q-9 17 -19 17h-5q-5 0 -11 -3.5t-11 -7.5l-2 -2l-4 -3q-2 0 -3 -0.5t-2 -0.5q-3 -2 -6.5 -3.5l-8.5 -3.5q-6 -2 -12.5 -6t-11.5 -8l-2 4q-8 -1 -13 -9q-2 2 -2 3l-22 21q-4 16 -19 16q-7 0 -17.5 -4t-21.5 -10t-22 -14t-20 -17
q28 54 58 105l63 102q4 20 7.5 31.5l5.5 18.5h-1q7 14 7 37q0 22 -1 44.5t-9 54.5l-25 25q-2 6 -2 8l-7.5 1.5t-4.5 0.5h-8q-13 0 -45 -12.5t-63 -30.5l-12.5 -14.5l-9.5 -11.5q-2 -2 -3.5 -4t-3.5 -4q-5 -6 -12.5 -14t-21.5 -25q-9 -18 -75 -168q-2 -2 -2.5 -5t-1.5 -5
q-5 18 -13 36t-19 30l-11 10q4 2 7.5 4.5l6.5 4.5q2 1 4 2.5t4 2.5q11 10 17 25t8 27q0 1 0.5 4t0.5 5q0 7 -2.5 18t-11.5 26l-3 3q-10 16 -19 26l-9 8l-1 1v1q0 2 -1 3v-2q-8 11 -15 18.5t-18 15.5h-2l-1 1q-1 1 -3 1h-1l-1 1q-8 4 -18.5 7.5t-26.5 5.5h-66q-33 0 -45 -4
v-1q-8 -3 -13.5 -12.5t-5.5 -21.5v-5q0 -2 0.5 -2.5t0.5 -1.5q3 -24 25 -33l18 -18q13 -14 46 -16q2 0 3.5 -0.5t3.5 -0.5q1 -1 1 -6q0 -4 -1 -5q0 -1 -1 -1h-17h-7q-5 0 -8 1h-4q-11 0 -20 -4.5t-14 -16.5l1 1q-4 -7 -4 -14q0 -20 32 -55q2 -1 3.5 -1.5t3.5 -1.5l24 -24
q4 -2 6.5 -3t4.5 -2q6 -9 6 -13l-1 0.5t-3 0.5q-11 0 -16 8q-8 7 -32 17h-15q-63 0 -63 -43v-4q0 -2 0.5 -3.5t0.5 -3.5q7 -40 32 -54l21 -21q3 -3 6.5 -5.5t8.5 -3.5l-1 1q11 -5 20 -8t13 -4zM108 590h15q7 0 11 1t4 9q4 18 -9.5 36t-38.5 18q-45 3 -48 29t11 31q12 4 40 4
h65q19 -3 30.5 -7.5t20.5 -8.5q9 -6 16 -14t15 -23q11 -19 12 -30.5t0 -15.5q-2 -11 -7 -25t-15 -22l-12.5 -8.5t-22.5 -11.5q8 -4 11.5 -6.5t6.5 -5.5q8 -6 15.5 -17.5t13 -25t8.5 -27t3 -23.5q0 -11 -6.5 -22t-16 -21t-21 -17.5t-21.5 -12.5h-5h-15h-5h-27q-15 0 -27 4
q-2 0 -8.5 1.5t-17.5 3.5l-20 6t-20 7q-19 4 -28 48q-8 43 63 39q18 -8 27 -15q7 -10 23 -10t16 11q0 6 -6 17t-15 22q-9 10 -14 12q-10 0 -18 4q-34 37 -25 53t26 14q3 -1 8 -1h8zM712 65l-18 -27q-8 2 -19.5 -4t-24 -14t-25 -15t-22.5 -7v124q0 1 -2 5t-3 5h-1h-2
q-34 -9 -128 -3l-9 53q-6 52 -6 104q0 9 10 19t23.5 18.5t27.5 14.5t22 6q9 0 11.5 -19t3.5 -41.5t3.5 -41t11.5 -18.5q13 0 23 6t10 20q0 11 -5.5 21.5t-5.5 24.5v10q0 5 6 7q2 1 9 4t15 6l15.5 6t9.5 4q1 0 10.5 7t12.5 7h5q6 0 10 -11t7 -29t5 -41.5l4 -48.5
q2 -54 8 -94.5t8 -57.5zM127 68l17 28l166.5 374.5t65.5 145.5l19.5 22.5l11.5 13.5t11 12.5t17 19.5q15 9 31 17t30 13.5t24.5 9t16.5 3.5q2 0 5.5 -0.5l3.5 -0.5q7 -29 8 -50t1 -41q0 -21 -6 -34l-5.5 -19t-7.5 -30q-138 -213 -240 -468q-4 -24 -10 -35t-21 -18
q-15 -6 -28.5 -12t-17.5 -8q-1 -1 -7.5 -5.5t-15 -9.5t-15 -9.5t-7.5 -5.5q-1 0 -3 -0.5t-7 -1.5q-44 29 -37 89z" />
    <glyph glyph-name="FL00BFh" unicode="&#xbf;" horiz-adv-x="518" 
d="M480 560v120l-16 15l-7 10q-19 7 -34 5t-32 -6q-18 -4 -32 -6.5t-17 -3.5q-18 -5 -27.5 -15.5t-14 -23.5t-5 -27t-0.5 -27v-27q0 -19 9 -33t38 -17q6 0 19 1.5t27.5 3.5t27.5 4.5t19 4.5q5 1 13 4.5t15 7t12 6.5t5 4zM466 464l-136 -4q-54 -4 -76 -20q-24 -17 -24 -18
q-29 -4 -57 -4.5t-53.5 -5t-46 -16.5t-33.5 -39l-21 -48t-10 -49q0 -62 31.5 -110t81.5 -81t112 -50t122 -17q19 0 33 21t23.5 48.5t14 55t4.5 40.5t-14 19t-35.5 9t-46.5 4t-46.5 4.5t-35.5 11.5t-14 24q0 6 0.5 14t10.5 10q63 5 106.5 12.5t71.5 27.5q27 20 40 57t-2 104z
M329 472l147 4q0 -2 0.5 -4t0.5 -4l26 -25q10 -41 10 -70q0 -40 -14 -65t-36 -42q-30 -22 -73.5 -29.5t-106.5 -12.5q-5 -3 -5 -6q13 -4 30 -5.5t35 -2.5q17 -1 33.5 -2.5t30 -4.5t22.5 -9.5t12 -16.5l21 -20q8 -8 8 -20q0 -14 -5 -43t-15.5 -58t-26.5 -51t-37 -22
q-39 0 -79 7t-77.5 20.5t-71.5 34t-60 46.5l-2 2q-45 34 -72 80.5t-27 106.5q0 23 7.5 43.5t16.5 40.5l1 1v1q0 2 1 3l3 6q1 2 1.5 3.5t1.5 3.5q11 23 26.5 36t34.5 19.5t40.5 8.5t44.5 3q13 1 26 1.5t28 2.5q4 5 18 16q27 18 82 23zM492 685v-2l1 -1l4 -6l22 -22v-124
q0 -1 -5.5 -5.5t-14 -9.5l-17 -10t-14.5 -6q-6 -2 -19.5 -4.5t-28.5 -4.5t-29 -3.5t-20 -1.5q-28 3 -41 16l-19 18q-17 8 -22.5 22.5t-5.5 32.5v31q0 14 1 29.5t6.5 29.5t16.5 25t32 17q3 0 17 3q1 1 4 1t5 1q8 1 12.5 2t10.5 3h1q2 0 3 1q9 2 17.5 3.5t19.5 1.5q17 0 35 -7
l7 -10z" />
    <glyph glyph-name="FL00C0h" unicode="&#xc0;" horiz-adv-x="610" 
d="M256 344v1v-1zM301 399q2 -6 4 -11t2 -8q0 -7 -5.5 -17t-13.5 -17q0 15 1.5 27t11.5 26zM235 749q44 -38 68 -44l-40 -14.5t-40 -15l-34 -13.5t-22 -10v2q-21 -17 -37 -48.5t-28 -71t-20 -82t-14 -79.5v1q-5 -30 -10 -54.5t-10 -41.5q-5 -13 -6 -16.5t-1 -5.5
q-11 -31 -21 -65.5t-12 -67.5v-7v-10q0 -7 1 -11t1 -8v-8v-15q0 -24 -4 -41v-3q-1 -5 -1.5 -11t-0.5 -21h6l27 -27h33q1 0 19.5 6l43 14l50 17t40.5 15q5 2 15 6.5t16 8.5q4 2 7 4t5 3q6 5 11 15.5t10 24.5l9 21.5t11 20.5t14 15t19 6h1q5 -20 6 -44q1 -29 6 -52.5t25 -31.5
l20 -19q10 -10 27 -10l-1 1q4 2 19 11.5l34.5 21.5l41 25.5l39.5 25t29.5 19.5l11.5 8v4q0 5 0.5 12.5t0.5 12.5q0 17 -8 59t-21 97.5t-31 117.5t-38 118t-41 100.5t-41 64.5l-16 15q-20 28 -36 30l8 7q-2 16 -11.5 36t-27.5 43l-14 17.5t-12 13.5l-6 5q-35 45 -51 46
q-7 1 -13.5 1.5t-12.5 1.5h-1v1q-3 1 -9 1h-8q-34 -4 -44.5 -18t-10.5 -34q0 -26 48 -68q9 -9 18 -15q3 -4 6.5 -7t7.5 -6zM336 765l-15 -12l-6 -7q-18 -5 -37 -2q-22 4 -67 42q-44 39 -44 59q0 15 8.5 26t35.5 14q2 0 6.5 -0.5t9.5 -1.5q6 -1 12.5 -1.5t13.5 -1.5
q14 -2 47 -45q33 -44 36 -70zM250 339q2 -3 12 -7.5t15 -2.5q18 3 30 21t12 30q0 6 -3.5 17t-9.5 22.5t-13.5 20.5t-15.5 12q-21 -23 -24.5 -40.5t-3.5 -41.5q0 -4 0.5 -16t0.5 -15zM365 713q19 0 41.5 -36.5t44 -92.5t41.5 -124t35.5 -130t24.5 -111t9 -67q0 -6 -0.5 -17
t-0.5 -12l-12 -8l-30 -19.5l-39.5 -25l-39.5 -24.5l-30.5 -18.5t-13.5 -7.5q-15 0 -22 10t-10 25.5t-4 33.5t-3 35t-7.5 30.5t-18.5 18.5q-27 10 -42.5 -2t-25.5 -32t-16.5 -40t-15.5 -27q-2 -1 -7.5 -4l-11.5 -6.5t-12 -6.5t-9 -4q-15 -6 -40 -14.5l-49 -17t-42 -14
t-19 -5.5h-24q1 13 3.5 29.5t2.5 34.5t-1.5 33.5t-0.5 25.5q2 39 15.5 78.5l24.5 73.5q6 19 11.5 50l12 67l14 74.5t17.5 72.5t23.5 61t31.5 41q3 3 18 9.5t35.5 14.5t44.5 16.5l44.5 15.5t35 11.5t17.5 4.5z" />
    <glyph glyph-name="FL00C1h" unicode="&#xc1;" horiz-adv-x="610" 
d="M256 344v1v-1zM272 340h-1l-9 10zM301 399q2 -6 4 -11t2 -8q0 -7 -5.5 -17t-13.5 -17q0 15 1.5 27t11.5 26zM365 725q-3 0 -16.5 -4.5l-33.5 -11.5q10 5 23.5 14.5t30.5 23.5q53 42 53 68q0 10 -2 18t-9 15l-20 19q-5 12 -16.5 19.5t-35.5 10.5q-6 0 -18 -1.5l-27 -3.5
q-10 -1 -23.5 -14t-32.5 -36q-19 -24 -28.5 -44.5t-11.5 -37.5l19 -16h1l8 -9l1 -1l4 -3l14 -12l12 -11q20 -5 32 -5h7l-39 -14.5l-37.5 -14t-31.5 -12.5t-21 -10v2q-21 -17 -37 -48.5t-28 -71t-20 -82t-14 -79.5v1q-5 -30 -10 -54.5t-10 -41.5q-5 -13 -6 -16.5t-1 -5.5
q-11 -31 -21 -65.5t-12 -67.5v-7v-10q0 -7 1 -11t1 -8v-8v-15q0 -24 -4 -41v-3q-1 -5 -1.5 -11t-0.5 -21h6l27 -27h33q1 0 19.5 6l43 14l50 17t40.5 15q5 2 15 6.5t16 8.5q4 2 7 4t5 3q6 5 11 15.5t10 24.5l9 21.5t11 20.5t14 15t19 6h1q5 -20 6 -44q1 -29 6 -53t25 -31
l20 -19q8 -8 24 -10h3l-1 1q4 2 19 11.5l34.5 21.5l41 25.5l39.5 25t29.5 19.5l11.5 8v4q0 5 0.5 12.5t0.5 12.5q0 17 -8 59t-21 97.5t-31 117.5t-38 118t-41 100.5t-41 64.5l-16 15q-22 31 -39 31zM226 753l-15 12q3 26 36 70q34 43 48 45l26.5 3.5t16.5 1.5
q28 -3 36.5 -14t8.5 -26q0 -20 -50 -61t-68 -42q-11 -1 -33 4zM250 339q2 -3 12 -7.5t15 -2.5q18 3 30 21t12 30q0 6 -3.5 17t-9.5 22.5t-13.5 20.5t-15.5 12q-21 -23 -24.5 -40.5t-3.5 -41.5q0 -4 0.5 -16t0.5 -15zM365 713q19 0 41.5 -36.5t44 -92.5t41.5 -124t35.5 -130
t24.5 -111t9 -67q0 -6 -0.5 -17t-0.5 -12l-12 -8l-30 -19.5l-39.5 -25l-39.5 -24.5l-30.5 -18.5t-13.5 -7.5q-15 0 -22 10t-10 25.5t-4 33.5t-3 35t-7.5 30.5t-18.5 18.5q-27 10 -42.5 -2t-25.5 -32t-16.5 -40t-15.5 -27q-2 -1 -7.5 -4l-11.5 -6.5t-12 -6.5t-9 -4
q-15 -6 -40 -14.5l-49 -17t-42 -14t-19 -5.5h-24q1 13 3.5 29.5t2.5 34.5t-1.5 33.5t-0.5 25.5q2 39 15.5 78.5l24.5 73.5q6 19 11.5 50l12 67l14 74.5t17.5 72.5t23.5 61t31.5 41q3 3 18 9.5t35.5 14.5t44.5 16.5l44.5 15.5t35 11.5t17.5 4.5z" />
    <glyph glyph-name="FL00C2h" unicode="&#xc2;" horiz-adv-x="610" 
d="M256 344v1v-1zM350 723l1 -2q0 1 -1 1v1zM272 340h-1l-9 10zM301 399q2 -6 4 -11t2 -8q0 -7 -5.5 -17t-13.5 -17q0 15 1.5 27t11.5 26zM341 882h-1q-2 0 -3 0.5t-3 0.5q-4 0 -5 1q-15 4 -41 4h-10q-7 0 -10 -1q-23 -2 -43.5 -4.5t-22.5 -3.5q-27 -8 -42.5 -28t-24.5 -37
q-4 -11 -7 -14l-2 -2q-1 -1 -2 -1q-10 -7 -17.5 -14.5t-8.5 -18.5v-10q0 -1 0.5 -1.5t0.5 -1.5t-0.5 -1.5t-0.5 -1.5v-2l-1 -1v-2q0 -7 11 -18h4l27 -27h14q1 0 13 1.5t27.5 3t31.5 3.5t25 3h1q6 0 8 1q6 1 13 2.5t11 3.5l2 19.5t4 18.5h1q4 5 8 9l9 9l3 -4.5l3 -4.5
q0 -5 2 -7q0 -2 1 -3q0 -16 17 -22l11 -12q-17 -5 -43 -14t-53 -19.5l-49.5 -19.5t-31.5 -14v2q-21 -17 -37 -48.5t-28 -71t-20 -82t-14 -79.5v1q-5 -30 -10 -54.5t-10 -41.5q-5 -13 -6 -16.5t-1 -5.5q-11 -31 -21 -65.5t-12 -67.5v-7v-10q0 -7 1 -11t1 -8v-8v-15
q0 -24 -4 -41v-3q-1 -5 -1.5 -11t-0.5 -21h6l27 -27h33q1 0 19.5 6l43 14l50 17t40.5 15q5 2 15 6.5t16 8.5q4 2 7 4t5 3q6 5 11 15.5t10 24.5l9 21.5t11 20.5t14 15t19 6h1q5 -20 6 -44q1 -29 6 -53t25 -31l20 -19q8 -8 24 -10h3l-1 1q4 2 19 11.5l34.5 21.5l41 25.5
l39.5 25t29.5 19.5l11.5 8v4q0 5 0.5 12.5t0.5 12.5q0 17 -8 59t-21 97.5t-31 117.5t-38 118t-41 100.5t-41 64.5l-16 15q-2 3 -3.5 5.5t-3.5 4.5q22 5 53 5q16 0 24.5 0.5t12.5 2.5t5 6.5t2 13.5v8q0 6 -11.5 24.5t-33.5 41.5l-5 5l-10.5 12.5l-12.5 14.5q-12 12 -21 19
t-18 11.5t-19 7.5t-22 6zM338 870q24 -6 39.5 -13t35.5 -27q20 -21 31 -38t11 -22v-7q0 -1 -1.5 -4t-9.5 -7t-24 -4q-24 0 -46 -3.5t-23 -3.5q-14 0 -18.5 5t-4.5 11q-1 2 -1.5 3.5t-1.5 3.5q0 2 -14 22q-9 11 -16.5 19t-13.5 13q-7 -6 -14 -13t-14 -15q-4 -11 -5.5 -20
t-2.5 -17q-3 -1 -12 -2.5t-13 -2.5q-9 -1 -25 -3t-31.5 -3.5t-27.5 -3t-13 -1.5h-11q-4 3 -2.5 6.5t1.5 7.5t-1 7.5t0 4.5q1 9 10 16t17 14q5 7 10.5 17.5t13 21.5t18.5 20.5t27 14.5q3 1 22.5 3.5t40.5 4.5q22 3 38 0t31 -5zM250 339q2 -3 12 -7.5t15 -2.5q18 3 30 21
t12 30q0 6 -3.5 17t-9.5 22.5t-13.5 20.5t-15.5 12q-21 -23 -24.5 -40.5t-3.5 -41.5q0 -4 0.5 -16t0.5 -15zM365 713q19 0 41.5 -36.5t44 -92.5t41.5 -124t35.5 -130t24.5 -111t9 -67q0 -6 -0.5 -17t-0.5 -12l-12 -8l-30 -19.5l-39.5 -25l-39.5 -24.5l-30.5 -18.5
t-13.5 -7.5q-15 0 -22 10t-10 25.5t-4 33.5t-3 35t-7.5 30.5t-18.5 18.5q-27 10 -42.5 -2t-25.5 -32t-16.5 -40t-15.5 -27q-2 -1 -7.5 -4l-11.5 -6.5t-12 -6.5t-9 -4q-15 -6 -40 -14.5l-49 -17t-42 -14t-19 -5.5h-24q1 13 3.5 29.5t2.5 34.5t-1.5 33.5t-0.5 25.5
q2 39 15.5 78.5l24.5 73.5q6 19 11.5 50l12 67l14 74.5t17.5 72.5t23.5 61t31.5 41q3 3 18 9.5t35.5 14.5t44.5 16.5l44.5 15.5t35 11.5t17.5 4.5z" />
    </font>
</defs>
</svg>
