<?xml version="1.0" standalone="no"?>
<!DOCTYPE svg PUBLIC "-//W3C//DTD SVG 1.1//EN" "http://www.w3.org/Graphics/SVG/1.1/DTD/svg11.dtd" >
<svg>
<metadata>
Created by FontForge 20120731 at Thu Dec  8 10:50:05 2022
 By ffonts
Copyright (c) 2022 by Khurasan &#38; Jalembe. All rights reserved.
</metadata>
<defs>
<font id="AbaloneSmile" horiz-adv-x="481" >
  <font-face 
    font-family="Abalone Smile"
    font-weight="400"
    font-stretch="normal"
    units-per-em="1000"
    panose-1="0 0 0 0 0 0 0 0 0 0"
    ascent="800"
    descent="-200"
    x-height="533.5"
    cap-height="750.5"
    bbox="-190 -336.261 954.879 1001"
    underline-thickness="50"
    underline-position="-50"
    unicode-range="U+000D-2212"
  />
<missing-glyph horiz-adv-x="298" 
 />
    <glyph glyph-name=".notdef" horiz-adv-x="298" 
 />
    <glyph glyph-name="NULL" horiz-adv-x="0" 
 />
    <glyph glyph-name="NULL" horiz-adv-x="0" 
 />
    <glyph glyph-name="nonmarkingreturn" unicode="&#xd;" horiz-adv-x="298" 
 />
    <glyph glyph-name="space" unicode=" " horiz-adv-x="298" 
 />
    <glyph glyph-name="asciitilde" unicode="~" horiz-adv-x="661" 
d="M523 394q17 12 37.5 9.5t36 -14.5t23.5 -31t1 -40q-17 -38 -36 -72t-47 -60q-33 -31 -67.5 -42t-66.5 -3.5t-62 31t-54 61.5q-13 21 -21 32.5t-15.5 13t-17.5 -8.5t-28 -33q-10 -13 -19.5 -28t-18.5 -32q-17 -27 -43 -30t-48 9t-32 36t7 53q23 41 52.5 82t71.5 67
q35 22 67 23.5t59.5 -11.5t52 -38t44.5 -58q13 -27 26 -32t24.5 4t21.5 27.5t18 39.5q6 13 13.5 25t20.5 20z" />
    <glyph glyph-name="currency" unicode="&#xa4;" horiz-adv-x="580" 
d="M430 481q23 -29 35 -66.5t14 -78.5t-5.5 -83t-23.5 -80q22 -32 45 -63.5t48 -63.5q12 -21 6 -43.5t-28 -36.5q-24 -14 -47 -6.5t-40 27.5l-56 80l-4 -3q-49 -40 -107 -48t-110 18l-6 -14q-9 -20 -29.5 -33t-46.5 -8q-23 7 -38 27t-7 43q8 20 17 39l18 38q-21 38 -27 83
t0.5 90t25 88.5t46.5 78.5q-17 26 -32.5 51.5t-31.5 51.5q-13 25 -3.5 47t29.5 32.5t43.5 7t39.5 -28.5q11 -20 22.5 -41.5t24.5 -42.5q50 24 103 16l73 105q14 20 37 25.5t47 -5.5q22 -11 29 -35t-6 -44l-72 -105zM208 159q12 -9 26 -10t27.5 3.5t25.5 14t20 21.5
q13 19 22.5 43t14 49.5t3 51t-10.5 48.5q-17 39 -46 42.5t-54 -15.5q-19 -15 -33 -37t-22 -47.5t-10 -53t3 -51.5q3 -17 11 -32.5t23 -26.5z" />
    <glyph glyph-name="grave" unicode="`" horiz-adv-x="257" 
d="M108 760q23 -26 48.5 -50.5t49.5 -47.5q18 -18 17 -34.5t-12 -26.5t-27 -11t-29 12q-29 23 -56 47.5t-50 51.5q-13 13 -13 29t13 30q11 11 29.5 11t29.5 -11z" />
    <glyph glyph-name="question" unicode="?" horiz-adv-x="611" 
d="M276 770q51 10 105.5 4.5t100 -29.5t75 -66.5t31.5 -105.5q2 -47 -16.5 -92.5t-54.5 -81.5q-18 -19 -38.5 -33.5t-43 -28.5t-46 -28.5t-48.5 -32.5q-22 -16 -33 -37.5t0 -54.5q3 -27 -14 -43.5t-39.5 -21t-44.5 3t-29 27.5q-24 62 -13 105.5t42 77t75.5 62t89.5 60.5
q43 31 59.5 67.5t7.5 66t-43 44.5t-92 5q-56 -12 -110 -51q-13 -9 -24 -21.5t-23 -23.5q-11 -10 -23 -16t-28 -6q-13 -1 -25 4.5t-21.5 15t-15 22t-5.5 25.5q0 18 10 33t26 31q41 44 94 75t114 44zM162 -1q0 30 20.5 46t45 17t46 -14.5t24.5 -48.5q2 -32 -17.5 -49
t-44.5 -18t-47.5 15.5t-26.5 51.5z" />
    <glyph glyph-name="underscore" unicode="_" horiz-adv-x="480" 
d="M409 73q18 1 29.5 -12t12.5 -30q0 -8 -3.5 -16.5t-8.5 -13.5q-14 -11 -30 -11q-19 -2 -37.5 -2.5t-38.5 -1.5q-132 -3 -265 0q-17 1 -29 13t-13 30q-1 16 12.5 29t29.5 12q19 -1 38 -1h38q67 -2 133 -0.5t132 4.5z" />
    <glyph glyph-name="bracketright" unicode="]" horiz-adv-x="380" 
d="M199 -27v28v80q1 42 1 82.5t1 81.5q2 82 4.5 163t5.5 162q1 31 2 60.5t3 59.5q-14 1 -33 1.5t-38.5 1t-38 2t-32.5 3.5q-32 14 -41.5 39t-2.5 48t28.5 37t51.5 6q2 -1 7 -1q17 -2 39 -3t45 -1.5t45.5 -0.5h40.5q13 0 25 -5.5t21.5 -14.5t15 -21.5t5.5 -25.5
q-6 -104 -10.5 -206t-6.5 -204q-3 -104 -4 -206t-1 -205q0 -32 -16.5 -58.5t-47.5 -33.5q-16 -3 -33 -3h-34h-115q-33 0 -49 20.5t-15.5 45.5t17 46t47.5 22h113z" />
    <glyph glyph-name="backslash" unicode="\" horiz-adv-x="455" 
d="M405 -1q9 -18 5 -34.5t-15.5 -29t-29 -19t-34.5 -5.5t-31.5 11t-21.5 31q-26 115 -59.5 228.5t-76.5 234.5q-24 74 -51 146.5t-57 144.5q-10 28 4 50.5t37 31.5t48 1.5t38 -37.5q16 -41 31 -81t30 -81q28 -73 53 -146.5t46 -146.5q23 -75 44 -149.5t40 -149.5z" />
    <glyph glyph-name="bracketleft" unicode="[" horiz-adv-x="380" 
d="M294 -27q31 -1 47.5 -22t17 -46t-15.5 -45.5t-49 -20.5h-115h-34t-33 3q-31 7 -47.5 33.5t-16.5 58.5q0 103 -1 205t-4 206q-2 102 -6.5 204t-10.5 206q0 13 5.5 25.5t15 21.5t21.5 14.5t25 5.5h40.5t45.5 0.5t45 1.5t39 3q5 0 7 1q30 8 51.5 -6t28.5 -37t-3 -48t-41 -39
q-14 -2 -33 -3.5t-38.5 -2t-38 -1t-32.5 -1.5q2 -30 3 -59.5t2 -60.5q3 -81 5.5 -162t4.5 -163q1 -41 1 -81.5t1 -82.5v-80v-28h113v0z" />
    <glyph glyph-name="Z" unicode="Z" horiz-adv-x="556" 
d="M500 575q-30 -62 -64 -127t-71 -130t-77 -128t-82 -121q63 5 125.5 9.5t125.5 10.5q13 1 25.5 -6t23.5 -15q8 -9 12.5 -21.5t6.5 -25.5q1 -13 -5 -26t-14 -21q-11 -11 -23.5 -14.5t-25.5 -4.5q-7 -1 -14.5 -1.5t-15.5 -0.5q-57 -5 -114 -9.5t-116 -9.5l-57 -3
q-23 -2 -42.5 3.5t-36.5 21.5q-8 8 -12.5 16t-8.5 18q-1 2 -1 3t-1 3q-4 8 -4 21q2 26 12.5 48.5t29.5 51.5q42 60 78.5 119.5t71 120.5t68.5 123t70 128q-69 -12 -138 -16.5t-136 -0.5q-34 1 -50 23t-16 48t17 46.5t49 18.5q73 -5 148.5 -0.5t147.5 24.5q24 5 49 5.5
t46 -7.5t35 -26t16 -49q0 -20 -9 -46t-23 -53z" />
    <glyph glyph-name="Y" unicode="Y" horiz-adv-x="625" 
d="M556 698q16 -118 25 -237t5 -246q-1 -45 -10 -96.5t-31 -96.5t-58.5 -78t-91.5 -42q-27 -4 -60 -3.5t-65 8t-60 23t-45 41.5q-11 21 -6 43.5t19.5 38.5t35.5 20.5t44 -10.5q33 -27 65 -31t58 10.5t43.5 44t23.5 70.5q6 51 5 103t-3 109q-20 -39 -46.5 -74.5t-58.5 -66.5
q-38 -36 -82.5 -55t-87 -16t-78 30t-55.5 84q-14 38 -16 79t-3 81q0 69 5.5 140.5t19.5 134.5q10 31 34 42t47.5 5t40 -27.5t10.5 -55.5q-12 -55 -16 -112.5t-6 -120.5q0 -64 11 -93.5t29 -34.5t40 10.5t45 43t43.5 63t34.5 69.5q20 47 35.5 96t30.5 99q7 25 25 38.5t39 15
t39.5 -10t25.5 -35.5z" />
    <glyph glyph-name="X" unicode="X" horiz-adv-x="619" 
d="M342 398q57 -91 113 -182.5t124 -188.5q13 -24 6 -50.5t-30 -43.5q-26 -17 -51.5 -7.5t-42.5 32.5q-48 74 -95 148t-97 152q-31 -64 -59 -128.5t-56 -132.5q-10 -23 -31.5 -39t-50.5 -9q-12 4 -23 12t-18 19t-9.5 24t2.5 27q36 91 76.5 180.5t86.5 181.5l-74 124t-72 126
q-14 30 -3.5 55.5t31.5 38t47 8t43 -33.5q23 -43 48 -91.5t55 -87.5q12 22 30 51.5t37.5 60t38 60t32.5 51.5q15 23 40 29.5t51 -6.5q12 -6 20 -17t11.5 -23.5t2 -26t-8.5 -25.5q-45 -72 -89 -141.5t-85 -146.5z" />
    <glyph glyph-name="W" unicode="W" horiz-adv-x="862" 
d="M818 639q3 -96 10 -194.5t9 -210.5q2 -43 -1.5 -89t-20.5 -91q-20 -44 -48 -71t-62 -35.5t-71.5 4t-75.5 48.5q-23 21 -42 47.5t-35.5 54t-30 55t-23.5 51.5q-7 -17 -13 -31.5t-14 -31.5q-12 -29 -25.5 -56t-30.5 -52q-35 -51 -79 -74t-87 -18.5t-78.5 37.5t-52.5 95
q-21 74 -21.5 153t4.5 163q2 66 4.5 129.5t6.5 127.5q1 31 23.5 45t48 13t46 -16t18.5 -42q-6 -75 -8.5 -151.5t-6.5 -163.5q-1 -34 -0.5 -76t4.5 -79.5t12 -63.5t21.5 -29t34 23.5t48.5 95.5q25 57 44.5 116t35.5 119q4 23 24 36.5t44 15t44.5 -11t24.5 -40.5
q12 -55 26.5 -111t43.5 -120t54.5 -92.5t44 -25t28 39.5t7.5 101q-3 109 -9 218t-12 222q1 28 21 43t44 15t45 -14t24 -44q1 -9 1 -17.5t1 -16.5z" />
    <glyph glyph-name="V" unicode="V" horiz-adv-x="579" 
d="M428 707q7 28 32.5 37t50 1.5t40.5 -28.5t5 -52q-16 -38 -32 -74.5t-32 -73.5q-52 -136 -98 -271.5t-84 -281.5q-8 -22 -26 -32t-38 -9t-38.5 13t-27.5 35q-31 101 -55 206t-48 230q-14 71 -26 140t-25 140q-5 33 13.5 53t43.5 24.5t47.5 -7t26.5 -41.5
q18 -106 38.5 -212.5t46.5 -226.5q2 -9 4 -19t4 -19q38 118 82 234t96 234z" />
    <glyph glyph-name="U" unicode="U" horiz-adv-x="599" 
d="M451 740q11 21 33.5 27.5t44 1.5t36.5 -21.5t12 -41.5q-10 -180 -14 -364.5t2 -386.5q0 -33 -21 -48.5t-46.5 -15.5t-46.5 16t-21 48q-1 29 -1.5 57.5t-0.5 56.5q-24 -43 -57.5 -72.5t-70.5 -43.5t-75 -12.5t-72 18.5t-61 51t-42 85q-11 37 -15 76t-6 76q-3 68 -0.5 136
t6.5 138l9 174q3 23 14 38t26.5 22t32.5 6.5t31 -8t23 -22.5t8 -36q-2 -29 -3 -58t-3 -58q-5 -79 -10.5 -158t-0.5 -163q3 -73 16.5 -115t33 -58t43.5 -8.5t46.5 32t42 64t31.5 88.5q10 45 17.5 99t14 111t13.5 113.5t17 106.5q2 13 4.5 25.5t9.5 23.5z" />
    <glyph glyph-name="T" unicode="T" horiz-adv-x="504" 
d="M420 744q30 3 47.5 -15.5t18.5 -43t-14.5 -47.5t-51.5 -29q-18 -2 -36.5 -3t-36.5 -2q-3 0 -6 -0.5t-5 -0.5q-5 -73 -5.5 -146t3 -148t10.5 -154.5t18 -166.5q1 -32 -18.5 -49t-44.5 -18.5t-48 13.5t-27 48q-13 72 -20 149.5t-9.5 156.5t-1 158.5t6.5 154.5
q-29 0 -57.5 2t-54.5 4q-19 0 -34 9q-20 12 -27.5 33.5t-2.5 42.5t21 36t43 14q80 -7 161 -6t171 8z" />
    <glyph glyph-name="S" unicode="S" horiz-adv-x="536" 
d="M173 721q41 25 88.5 29.5t93 -8.5t84 -42.5t61.5 -74.5q12 -23 13 -44q1 -15 -4.5 -29.5t-15.5 -25.5t-24.5 -16t-32.5 -2q-14 3 -25.5 11t-19.5 22q-14 25 -34.5 47.5t-55.5 26.5q-30 4 -54 -11t-36 -38.5t-7.5 -51.5t33.5 -49q18 -14 38.5 -25.5t40.5 -22.5
q36 -23 71.5 -51.5t63.5 -63.5t42.5 -78.5t12 -87.5t-22.5 -84t-62 -69q-38 -26 -86 -37.5t-99 -4.5q-36 5 -70.5 20.5t-63.5 40t-50 57t-30 71.5q-5 21 2.5 39.5t22 30.5t34 15t39.5 -8q18 -10 23.5 -24.5t13.5 -34.5q29 -57 96 -70q21 -4 43 -1t40 13t28.5 27t7.5 43
q-2 20 -11.5 38t-23.5 33.5t-31 28t-33 23.5q-25 16 -51 30.5t-50 32t-45 38.5t-36 50q-18 36 -22 77t6.5 80t35 73t62.5 57z" />
    <glyph glyph-name="R" unicode="R" horiz-adv-x="658" 
d="M357 789q68 2 120.5 -19t87 -57.5t51.5 -85.5t15 -102.5t-23.5 -108.5t-63.5 -104q-43 -50 -100 -85t-123 -50q44 -29 89.5 -50.5t99.5 -28.5q16 -2 27 -10t16.5 -20t6 -26t-3.5 -27q-7 -27 -30.5 -40.5t-51.5 -6.5q-88 14 -160 57t-141 98q2 -27 5 -55t8 -55
q5 -20 -1 -36.5t-18.5 -27t-29 -15.5t-32.5 -2t-29.5 13.5t-19.5 30.5q-29 179 -28.5 361t26.5 372q5 19 18.5 30.5t30.5 15.5t35 -1t32 -19q42 26 89 39t98 15zM407 371q25 19 45.5 47.5t31.5 60t12 63t-12 56.5t-41.5 41t-75.5 16q-39 0 -77 -13t-73 -39
q-20 -15 -32 -35.5t-17 -55.5q-4 -51 -5 -102.5t0 -102.5q66 -16 128 3t116 61z" />
    <glyph glyph-name="Q" unicode="Q" horiz-adv-x="661" 
d="M569 616q35 -64 52.5 -135.5t14.5 -143.5t-26.5 -142t-69.5 -131q8 -14 17.5 -26.5t17.5 -25.5q17 -23 11 -45.5t-24 -37.5q-18 -16 -42 -18.5t-44 14.5q-13 11 -22.5 26t-18.5 30q-26 -16 -57 -24.5t-63 -9t-63.5 7.5t-58.5 26q-53 35 -89.5 87.5t-56 114t-22.5 129
t10.5 132t42.5 123.5t73 105q50 53 108.5 71.5t116 9t108.5 -45.5t85 -91zM462 192q0 -1 1 -3q20 37 28.5 88.5t5.5 105.5t-18.5 104.5t-42.5 84.5q-19 25 -43 37t-49.5 13t-51 -9.5t-47.5 -31.5q-27 -26 -45 -61.5t-28 -75.5t-12 -81.5t3 -79.5q4 -34 22 -74.5t45 -72.5
t61 -46.5t71 4.5q-12 20 -23.5 41t-22.5 41q-17 30 -6 55t34 38t49 8.5t39 -32.5q7 -14 15 -27t15 -26z" />
    <glyph glyph-name="P" unicode="P" horiz-adv-x="576" 
d="M176 704q51 24 108.5 26t110 -17t93.5 -58.5t58 -97.5q20 -69 3.5 -143t-63.5 -135q-29 -36 -65.5 -65t-79 -46.5t-89 -22.5t-93.5 7q0 -14 -0.5 -34t-1 -42t-0.5 -42.5v-34.5q-3 -31 -23.5 -47.5t-43.5 -17t-43.5 15t-23.5 49.5v42t0.5 50t1 50t0.5 42q3 122 9 248
q2 63 5.5 124t6.5 124q3 25 18.5 42t36 21.5t41 -4.5t34.5 -34zM295 293q30 13 58 38t46 57t23.5 68.5t-8.5 71.5q-9 20 -24 34.5t-34.5 23.5t-41.5 11t-44 -2q-29 -7 -53 -27t-46 -53q-2 -56 -4.5 -111.5t-4.5 -111.5q32 -14 66.5 -13.5t66.5 14.5z" />
    <glyph glyph-name="O" unicode="O" horiz-adv-x="650" 
d="M537 611q38 -39 58.5 -90.5t25.5 -108t-4 -115.5t-31 -113.5t-56 -101.5t-77 -80q-40 -29 -85.5 -43.5t-92.5 -12.5q-59 3 -104 32t-76.5 74t-49 100.5t-20.5 111.5q-7 143 66 281q36 65 89.5 107t115 53.5t124.5 -10t117 -84.5zM487 343q4 33 0 67.5t-17.5 65.5
t-37.5 56t-58 39q-29 11 -54.5 7t-47 -18.5t-40 -37.5t-31.5 -49q-32 -66 -39.5 -146.5t18.5 -154.5q24 -66 68 -91t91 -4q35 16 60.5 46t43 67t28 77t16.5 76z" />
    <glyph glyph-name="N" unicode="N" horiz-adv-x="643" 
d="M581 729q9 -41 16 -82.5t12 -83.5q14 -132 5.5 -270.5t-49.5 -281.5q-10 -37 -47 -47q-17 -5 -34.5 0t-30.5 18q-30 30 -51 66.5t-39 75.5q-45 93 -93 182.5t-104 180.5v-232q1 -59 1.5 -117t2.5 -116q0 -31 -21 -47.5t-46.5 -17t-46.5 15t-21 49.5q-1 37 -1 74.5
t-1 75.5q-1 66 -1 132.5v133.5q0 32 -0.5 64t0.5 64q2 33 7 69.5t24 72.5q9 16 24.5 24.5t33 8.5t33.5 -8.5t26 -24.5q62 -89 119 -181.5t112 -198.5q16 -29 30.5 -58.5t28.5 -59.5q1 3 1 6.5t1 5.5q14 87 12.5 177t-12.5 182q-7 55 -21 113q-8 33 9 54t42 26.5t49 -5
t30 -40.5z" />
    <glyph glyph-name="M" unicode="M" horiz-adv-x="833" 
d="M689 735q30 -178 47 -358.5t28 -375.5q-1 -32 -20.5 -49t-43.5 -17.5t-45 15.5t-25 51q-2 30 -3.5 60t-3.5 60q-6 96 -14.5 190t-20.5 189q-3 -5 -6 -9.5t-6 -9.5q-40 -54 -81.5 -117.5t-90.5 -124.5q-14 -17 -33.5 -24t-39 -4t-37.5 15t-29 33q-23 46 -45.5 92.5
t-46.5 99.5q-4 -53 -5.5 -105.5t-1.5 -105.5q-1 -56 -0.5 -111t2.5 -112q0 -31 -21 -47t-46 -16.5t-46 15t-21 48.5q-1 38 -1.5 74.5t-0.5 73.5q-2 119 3.5 237t24.5 239q2 15 4.5 30t5.5 29q5 22 22 35t37 15.5t38 -6t26 -28.5q39 -78 78 -157.5t78 -165.5q0 -2 2 -4
q60 83 114.5 168.5t102.5 176.5q11 20 29 31t36.5 11.5t34 -10t21.5 -31.5z" />
    <glyph glyph-name="L" unicode="L" horiz-adv-x="404" 
d="M317 77q31 2 47.5 -18t17.5 -45t-15 -47t-50 -24q-38 -2 -77 -5.5t-81 -5.5q-18 -1 -36.5 3t-34 13t-27.5 24t-17 37q-3 13 -4 26t-2 27q-11 158 -8.5 317.5t15.5 332.5q1 34 23 49.5t47 15t45.5 -17t18.5 -47.5q-4 -38 -6 -75t-4 -75q-8 -123 -4 -245t6 -250h8
q34 2 68 5t70 5z" />
    <glyph glyph-name="K" unicode="K" horiz-adv-x="540" 
d="M324 387q-17 -19 -34.5 -35.5t-35.5 -33.5q0 -1 2 -1q81 -48 146.5 -121.5t101.5 -167.5q8 -24 3.5 -43.5t-16.5 -32.5t-28.5 -19t-33 -4t-30 13.5t-18.5 33.5q-1 2 -2 4.5t-2 5.5q-30 71 -82.5 126.5t-125.5 97.5q2 -54 3.5 -107.5t3.5 -107.5q1 -20 -8 -34.5
t-23.5 -22.5t-32 -8.5t-32.5 6t-26 21.5t-12 38q-2 40 -3 80t-3 81q-2 72 -2 142.5t1 142.5t3.5 142.5t6.5 142.5q0 31 19.5 47t44 16.5t46 -15.5t25.5 -48q-3 -41 -4.5 -81t-2.5 -80q-2 -36 -2 -71.5t-2 -71.5q69 65 125 135q56 74 102 161q15 26 40.5 30.5t47 -7t32 -36
t-4.5 -55.5q-12 -25 -26 -48.5t-29 -46.5q-30 -45 -63 -87.5t-69 -80.5z" />
    <glyph glyph-name="I" unicode="I" horiz-adv-x="204" 
d="M46 686q1 34 23 49.5t47 15t45.5 -17t18.5 -47.5q-3 -36 -5.5 -71.5t-4.5 -70.5q-2 -63 -4 -126.5t-1 -126.5q1 -32 2 -69.5t2.5 -76.5t3 -76.5t4.5 -68.5q1 -26 -19 -46.5t-48 -20.5q-26 -2 -46 18t-21 49q-3 35 -5 70.5t-3 70.5q-2 32 -2.5 69.5t-1 76.5t-0.5 76.5
t1 69.5q2 63 5.5 126.5t8.5 126.5z" />
    <glyph glyph-name="J" unicode="J" horiz-adv-x="538" 
d="M494 651q8 -70 13 -139t6 -138q0 -38 -1 -84.5t-7 -94.5t-18.5 -94t-36 -83.5t-60 -63.5t-89.5 -34q-56 -8 -111.5 12.5t-96.5 67.5q-29 35 -43.5 75.5t-20 84t-3 89.5t8.5 91q1 21 12 35t27 21t34 7t32.5 -7t23 -21t6.5 -35q-2 -13 -4 -32t-3.5 -41.5t-1.5 -46.5t3 -47
q6 -47 28 -74t49.5 -34.5t56 3t48.5 37.5q13 18 19.5 41t9 47t2.5 48.5t1 47.5q2 81 -2.5 162.5t-12.5 163.5q-57 -11 -115 -19t-116 -13q-21 -1 -35.5 8.5t-22 25t-8 33.5t6.5 34t21.5 26.5t37.5 10.5l44 4t45 6q44 6 87 14t86 17q34 7 60 -12t33 -50q2 -12 3.5 -25
t3.5 -24z" />
    <glyph glyph-name="braceright" unicode="}" horiz-adv-x="450" 
d="M104 -2q2 0 4 -0.5t5 -0.5q23 -3 36 9.5t19.5 33.5t8 48t0.5 54.5t-3 52.5t-1 42q0 12 2 27.5t7 29.5t12.5 26t19.5 18q-13 13 -22 29t-14.5 34t-9 36t-5.5 34q-3 25 -3 53l-2 54t0 53q1 39 -6 59.5t-17.5 29t-21.5 9t-18 0.5q-33 0 -50 21t-18 45.5t14.5 45.5t47.5 21
q54 2 108 -6q22 -5 37.5 -16t25.5 -25.5t15.5 -32.5t7.5 -37q9 -63 8 -125t4 -125q1 -19 5 -37t12 -32.5t21 -23t33 -8.5q27 -2 41 -20t16 -40.5t-8.5 -42.5t-32.5 -26q-27 -8 -42.5 -12.5t-23 -13.5t-9 -25.5t-1.5 -47.5q0 -55 1.5 -108t-4.5 -107q-7 -30 -26.5 -51.5
t-46.5 -29.5q-37 -11 -80.5 -8.5t-76.5 8.5q-29 4 -41 27.5t-7.5 48.5t24.5 42.5t55 9.5z" />
    <glyph glyph-name="bar" unicode="|" horiz-adv-x="219" 
d="M170 216q2 -76 5 -150.5t8 -150.5q2 -30 -17 -47t-43.5 -18t-46.5 14.5t-26 50.5q-4 43 -6.5 85.5t-4.5 85.5q-2 75 -4 150.5t-2 150.5q1 75 3.5 150.5t6.5 151.5q2 34 24 49.5t47.5 15t45.5 -17.5t18 -47q-8 -115 -9 -230.5t1 -242.5z" />
    <glyph glyph-name="braceleft" unicode="{" horiz-adv-x="450" 
d="M349 -2q34 8 54.5 -9.5t25 -42.5t-7.5 -48.5t-41 -27.5q-33 -6 -76.5 -8.5t-80.5 8.5q-27 8 -46.5 29.5t-26.5 51.5q-6 54 -4.5 107t1.5 108q0 31 -1.5 47.5t-9 25.5t-23 13.5t-42.5 12.5q-22 6 -32.5 26t-8.5 42.5t16 40.5t41 20q20 0 33 8.5t21 23t12 32.5t5 37
q5 63 4 125t8 125q4 38 23 69t63 42q54 8 108 6q32 0 47.5 -21t14.5 -45.5t-18 -45.5t-50 -21q-7 0 -18 -0.5t-21.5 -9t-17.5 -29t-6 -59.5q1 -26 0 -53l-2 -54q0 -28 -3 -53q-2 -16 -5.5 -34t-9 -36t-14.5 -34t-22 -29q12 -6 19.5 -18t12.5 -26t7 -29.5t2 -27.5
q1 -17 -1 -42t-3 -52.5t0.5 -54.5t8 -48t19.5 -33.5t36 -9.5q3 0 5 0.5t4 0.5z" />
    <glyph glyph-name="z" unicode="z" horiz-adv-x="528" 
d="M434 126q36 -7 52.5 -30t14 -47.5t-23 -42t-58.5 -13.5q-66 8 -134.5 8.5t-134.5 -13.5q-22 -3 -48.5 -2.5t-48.5 22.5q-14 13 -18 27.5t-2 29.5t9.5 30t15.5 30q60 96 122.5 188t128.5 184q-15 2 -37.5 1.5t-48.5 -3t-53 -7.5t-51 -11q-27 -5 -46 1.5t-29 19.5t-12 30.5
t3 33.5t17.5 28.5t31.5 15.5q67 14 136.5 21.5t143.5 4.5q15 0 34 -2.5t36.5 -10t30.5 -20t17 -33.5q5 -21 0 -41.5t-17 -37.5q-60 -89 -122.5 -175t-121.5 -181q52 5 104.5 3t108.5 -8z" />
    <glyph glyph-name="y" unicode="y" horiz-adv-x="530" 
d="M367 510q7 26 28 37.5t43.5 8.5t40 -19t19.5 -45q2 -55 3 -108.5t1 -108.5q-1 -33 -0.5 -67t-0.5 -69t-5 -69.5t-13 -68.5q-5 -21 -13 -42t-20 -38q-17 -27 -41 -47.5t-52.5 -34t-60.5 -19t-65 -0.5q-75 7 -146 53q-23 15 -30 40q-5 14 -2.5 27t8.5 24t17.5 19.5
t23.5 12.5q11 3 25.5 1.5t25.5 -8.5q19 -12 40.5 -22.5t45.5 -13.5q46 -4 71.5 18t37 53t13.5 63.5t3 50.5q1 23 2 46.5t1 47.5q-39 -50 -79.5 -75.5t-79 -29.5t-72.5 12t-58.5 48t-38 79.5t-10.5 107.5q2 51 11 102t26 99q4 21 17.5 32t30 14t34 -2t30.5 -15.5t18 -27
t-2 -36.5q-15 -46 -24 -94.5t-7 -99.5q0 -78 32 -81t78 62q23 32 42 68t35 74l17 41v0z" />
    <glyph glyph-name="x" unicode="x" horiz-adv-x="465" 
d="M316 593q18 27 45 30.5t48 -9t30 -36.5t-8 -52q-30 -51 -62 -102.5t-67 -111.5q29 -60 58.5 -119.5t61.5 -118.5q11 -31 1.5 -55.5t-29 -36t-45 -7.5t-45.5 31l-27.5 55t-28.5 55q-7 14 -12.5 26.5t-12.5 26.5q-22 -40 -41.5 -80.5t-38.5 -80.5q-17 -26 -43 -30
t-47.5 7.5t-31.5 36t5 55.5q28 60 58.5 118.5t66.5 122.5q-23 48 -45.5 95.5t-44.5 95.5q-14 33 -1.5 57.5t35 36t47 6t35.5 -32.5q4 -8 12.5 -24.5t17.5 -35t16.5 -34.5t8.5 -23q20 35 41.5 67.5t42.5 66.5z" />
    <glyph glyph-name="w" unicode="w" horiz-adv-x="777" 
d="M600 501q1 30 20 45t42.5 15.5t44.5 -14.5t27 -46q7 -56 10.5 -111t3.5 -109t-6.5 -110.5t-34.5 -102.5q-24 -38 -60.5 -58.5t-78.5 -22.5q-35 -1 -66 11t-56.5 33t-44.5 49.5t-31 60.5q-22 -40 -53 -81.5t-71 -66.5q-49 -30 -96.5 -21.5t-76.5 48.5q-21 29 -31.5 69
t-12.5 86t2 95t11.5 96t17 89.5t18.5 74.5q9 29 33.5 39t48.5 4.5t39.5 -25.5t7.5 -50q-14 -62 -25 -127q-3 -29 -6 -54q-2 -25 -3.5 -57t-0.5 -60.5t5.5 -49t14 -23.5t25.5 17.5t40 73.5q17 36 28.5 75.5t23.5 78.5q10 24 28.5 37t38.5 13t37 -12.5t25 -37.5
q6 -34 17.5 -81.5t30.5 -91.5q20 -48 41 -66t39 -11.5t30.5 35.5t16.5 74q3 65 -0.5 131.5t-12.5 138.5z" />
    <glyph glyph-name="v" unicode="v" horiz-adv-x="520" 
d="M366 532q6 21 20 32.5t30.5 14t33.5 -2t29.5 -15.5t17.5 -27.5t-1 -36.5q-12 -53 -30.5 -120t-44 -135t-56.5 -130.5t-67 -106.5q-15 -18 -36 -28.5t-44 -9.5q-24 0 -46 15q-26 19 -44.5 56t-32.5 81q-28 88 -46.5 182t-27.5 203q-3 31 18 49.5t48 21t50 -11.5t23 -47
q4 -95 22 -187.5t48 -183.5q45 88 77.5 187.5t58.5 199.5z" />
    <glyph glyph-name="u" unicode="u" horiz-adv-x="575" 
d="M526 457q6 -91 15 -189.5t25 -190.5q5 -30 -12 -50.5t-41 -27.5t-47.5 2.5t-30.5 38.5q-4 19 -6.5 37t-5.5 36q-14 -27 -36.5 -52.5t-51 -45t-61 -31t-66.5 -11.5q-60 -2 -97 25.5t-56.5 73t-24.5 103.5t-1.5 116t13.5 110.5t20 87.5q10 30 34.5 40.5t48.5 4t39.5 -28
t6.5 -53.5q-17 -65 -26.5 -135t0.5 -140q5 -34 17 -50.5t27.5 -19.5t33 5.5t34.5 25.5q28 28 46.5 66.5t30.5 81t19.5 86.5t13.5 83q4 25 24.5 41t44.5 18.5t44.5 -11t25.5 -46.5z" />
    <glyph glyph-name="t" unicode="t" horiz-adv-x="422" 
d="M334 380q31 2 47.5 -17.5t17.5 -44t-15 -46.5t-50 -26q-14 0 -28.5 -0.5t-28.5 -0.5q-2 -44 -5.5 -88t2.5 -90q2 -9 3.5 -18.5t4.5 -19.5q9 -30 -6.5 -51t-39.5 -28t-48.5 2.5t-34.5 40.5q-18 53 -16.5 113.5t6.5 140.5q-14 1 -27.5 1.5t-27.5 2.5q-31 0 -47 19.5
t-16.5 43.5t15.5 45.5t48 25.5q17 -1 33 -2t33 -2q4 73 13 148.5t16 150.5q1 32 23 48.5t47.5 16.5t46 -16t18.5 -49q-10 -73 -16.5 -147t-14.5 -154q12 0 24 0.5t23 0.5z" />
    <glyph glyph-name="s" unicode="s" horiz-adv-x="469" 
d="M234 472q-22 0 -32.5 -8.5t-11 -21t8.5 -25.5t27 -22q26 -14 52.5 -26.5t51.5 -29.5q30 -18 53.5 -45t38 -59.5t17 -68.5t-10.5 -72q-11 -32 -32 -58.5t-49 -44.5t-61.5 -27.5t-69.5 -7.5q-45 2 -88.5 18t-82.5 54q-23 23 -19.5 50.5t21 46t43.5 22t49 -22.5
q10 -16 28 -26.5t38.5 -13.5t40.5 2.5t34 20.5q11 12 17 27t5 30.5t-10 30.5t-27 27q-26 18 -55 31.5t-58 30.5q-51 24 -75.5 67t-19.5 94q6 63 45 104t96 53q30 6 62 3t62.5 -14.5t57.5 -30.5t48 -44q17 -21 19.5 -47t-19.5 -49q-8 -9 -22 -14.5t-26 -5.5q-11 0 -25 5.5
t-22 14.5q-19 20 -44 35t-55 17z" />
    <glyph glyph-name="r" unicode="r" horiz-adv-x="445" 
d="M387 504q18 -13 25.5 -29.5t6.5 -33t-9.5 -31.5t-22 -24t-31 -9.5t-35.5 10.5q-16 13 -34 12.5t-34.5 -10t-31 -26t-23.5 -34.5q-12 -25 -17 -57.5t-5.5 -67.5t3 -69.5t9.5 -63.5q3 -16 -1 -31t-13 -26t-22 -18.5t-27 -8.5q-32 -3 -47.5 14t-22.5 42t-8 53t-2 49
q-8 89 -12.5 177t-4.5 177q0 32 21 48t46.5 16t46.5 -16t21 -48v-4q20 19 49 29t60.5 11t62 -7t52.5 -24z" />
    <glyph glyph-name="q" unicode="q" horiz-adv-x="516" 
d="M459 479q23 -14 25.5 -38.5t-2.5 -48.5q-2 -23 -3.5 -45t-3.5 -43q-9 -106 -7 -209.5t15 -209.5q2 -19 -6 -33.5t-22 -22.5t-31.5 -9.5t-33 5t-27 21.5t-14.5 39q-7 52 -10.5 105t-4.5 111q-28 -21 -60 -32q-43 -16 -81 -12.5t-68.5 22t-53 48.5t-33.5 67t-10.5 78.5
t16.5 81.5q25 69 69 118t99.5 68.5t119 6.5t127.5 -68zM169 308q-11 -38 -4.5 -66t24 -39.5t43.5 -3t54 43.5q26 34 40.5 74.5t22.5 85.5q-26 24 -54 21.5t-53 -19.5t-44.5 -44t-28.5 -53z" />
    <glyph glyph-name="o" unicode="o" 
d="M410 481q33 -41 44 -98t2.5 -116.5t-35 -113.5t-67.5 -89q-33 -27 -72 -39.5t-78 -9t-74.5 22.5t-62.5 55q-33 41 -44.5 93.5t-4.5 107t30.5 106t61.5 89.5q33 36 72 54t79 17.5t78.5 -20t70.5 -59.5zM188 159q12 -9 26 -10t27.5 3.5t25.5 14t20 21.5q13 19 22.5 43
t14 49.5t3 51t-10.5 48.5q-17 39 -46 42.5t-54 -15.5q-19 -15 -33 -37t-22 -47.5t-10 -53t3 -51.5q3 -17 11 -32.5t23 -26.5z" />
    <glyph glyph-name="p" unicode="p" horiz-adv-x="551" 
d="M338 545q51 -6 89 -30.5t61 -61t31 -81t-1 -88.5t-35.5 -84.5t-71.5 -69.5q-51 -31 -113.5 -40t-122.5 -2q4 -54 9 -106.5t11 -105.5q3 -30 -16 -48.5t-43.5 -22.5t-47.5 8t-27 43q-9 64 -12 137t-3.5 152.5t0 165t-2.5 173.5q2 25 18 42.5t37 22.5t41.5 -3.5t32.5 -33.5
q38 19 81 28.5t85 4.5zM171 233q35 -17 75 -15t76 20q30 16 49 45t19.5 57t-19.5 49t-67 21q-22 0 -43.5 -6.5t-39.5 -19t-31.5 -30t-18.5 -39.5q-5 -18 -3.5 -38.5t3.5 -43.5z" />
    <glyph glyph-name="n" unicode="n" horiz-adv-x="593" 
d="M176 376q37 47 82.5 80t91.5 39t88 -20t72 -97q15 -36 26 -79t18.5 -86t12 -82.5t7.5 -69.5q2 -21 -7.5 -35t-24.5 -21.5t-33 -8t-33 6.5t-25.5 21.5t-10.5 36.5q-2 43 -9.5 86t-18.5 87q-18 75 -41 99.5t-55 -1.5q-19 -15 -34.5 -36t-29 -44t-25 -48.5t-23.5 -49.5
q-11 -24 -24 -47.5t-22 -48.5q-10 -28 -32 -42.5t-45 -13.5t-41 17.5t-18 51.5q1 23 1.5 46t2.5 46q5 82 11.5 163t16.5 162q4 35 26.5 50.5t48 14t44.5 -18.5t16 -46q-3 -24 -5.5 -47t-5.5 -46q-1 -5 -1 -9.5t-1 -9.5z" />
    <glyph glyph-name="m" unicode="m" horiz-adv-x="848" 
d="M585 552q55 25 107 9.5t84 -60.5q21 -29 31 -69t11.5 -85.5t-3.5 -94t-13.5 -95t-19 -88.5l-18.5 -74q-7 -30 -31 -40.5t-49 -4.5t-41.5 27t-8.5 53q17 64 28.5 130t13.5 137q1 67 -14 96t-38 25.5t-50.5 -36.5t-51.5 -88q-14 -35 -24.5 -72t-19.5 -74q-8 -27 -28.5 -38
t-43 -8.5t-40.5 19t-20 45.5q-2 44 -5.5 85t-12.5 81q-5 27 -17 42.5t-26.5 17.5t-29.5 -10.5t-26 -39.5q-15 -37 -23 -78t-10.5 -83.5t-1.5 -85.5t3 -84q2 -27 -14 -43t-38 -19.5t-44.5 6.5t-32.5 35q-6 15 -9.5 32.5t-6 35t-4 34t-3.5 29.5q-10 102 -12 206t15 205
q5 30 26 43.5t44 11.5t41.5 -18.5t18.5 -46.5l-3 -33q38 22 76.5 31.5t74 2.5t65 -30.5t49.5 -67.5q12 18 27.5 36t34 35t39.5 31.5t44 24.5z" />
    <glyph glyph-name="a" unicode="a" horiz-adv-x="534" 
d="M396 492q16 27 41.5 32t47 -4.5t34 -30.5t2.5 -46q-5 -31 -8.5 -62t-6.5 -63q-12 -143 3 -285q1 -21 -8 -35t-24 -21.5t-33 -8t-33 6.5t-25.5 21.5t-10.5 36.5q-2 11 -2.5 23t-1.5 24q-12 -11 -25 -19.5t-27 -15.5q-24 -12 -51.5 -19.5t-55.5 -8t-55.5 7t-51.5 25.5
q-26 18 -43.5 45t-27.5 58t-11 64.5t7 66.5q12 52 41.5 99.5t72 80.5t94.5 47.5t109 0.5q27 -6 49 -20zM233 150q29 10 49.5 30.5t35.5 47.5t25 56.5t18 57.5q-43 48 -87 38t-80 -58q-14 -18 -23.5 -51.5t-8.5 -64.5t17 -49.5t54 -6.5z" />
    <glyph glyph-name="b" unicode="b" horiz-adv-x="525" 
d="M168 453q46 17 91.5 23.5t85.5 0.5t72.5 -25.5t53.5 -55.5q22 -38 28.5 -82t-1.5 -87t-30 -83t-56 -70q-51 -45 -111.5 -59t-134.5 0q2 -12 2.5 -23t1.5 -22q1 -28 -19.5 -47t-47.5 -20q-26 -2 -45.5 18t-21.5 49q-4 42 -5.5 82.5t-3.5 81.5q-2 72 -0.5 145t5.5 145
q9 154 33 305q2 13 10 23t19.5 16t25 8t26.5 0t23.5 -10t17 -20t8.5 -25.5t-2 -26.5q-3 -42 -9 -84.5t-11 -96.5q-2 -15 -2.5 -30t-2.5 -30zM161 168q28 -21 59.5 -25.5t60 6t50 34t28.5 58.5q5 27 1 54t-18 44.5t-38 20t-58 -18.5q-15 -8 -30.5 -20t-27.5 -25.5t-20 -27.5
t-8 -26v-37.5t1 -36.5z" />
    <glyph glyph-name="c" unicode="c" 
d="M361 388q-24 18 -50 32.5t-51 17t-46 -12t-35 -54.5q-18 -45 -17.5 -96.5t22.5 -96.5q11 -23 29 -41t41 -16q20 2 41.5 17.5t44.5 40.5q14 17 34 20t38 -4.5t30.5 -24t12.5 -38.5q0 -26 -19 -47q-38 -46 -91 -74t-110 -24q-45 2 -80.5 23.5t-60.5 56t-40 77.5t-20.5 89
t-1.5 90.5t17 81.5q13 40 37.5 75t58 59t75.5 33.5t89 -2.5q46 -11 87 -36t58 -54q2 -4 3 -7t3 -7q7 -23 -1 -42.5t-23.5 -31.5t-36 -14t-38.5 10z" />
    <glyph glyph-name="d" unicode="d" horiz-adv-x="558" 
d="M533 766q-23 -178 -22.5 -357t23.5 -369q0 -25 -16.5 -41.5t-38.5 -22t-43 3.5t-31 35q-1 2 -1.5 4t-1.5 4q-36 -18 -82 -28.5t-92.5 -8t-89 20.5t-70.5 58q-24 33 -34 73t-8 82t15 84t36 78q47 72 125.5 108t175.5 21q2 64 7.5 127.5t13.5 127.5q1 23 12 37.5t26.5 21
t33 6t32 -8.5t23.5 -22t7 -34zM371 161q10 10 11 16.5t1 22.5q-3 43 -4.5 84t-3.5 85q-17 10 -37 12.5t-41 0.5q-54 -8 -87 -47t-46 -94q-5 -28 -1 -53t19 -42t41.5 -23.5t65.5 1.5q41 11 82 37z" />
    <glyph glyph-name="e" unicode="e" horiz-adv-x="526" 
d="M440 173q22 1 37.5 -11t22.5 -30t4.5 -38.5t-17.5 -35.5q-25 -28 -61 -46.5t-76 -27.5t-81 -7.5t-77 14.5q-57 20 -97.5 65.5t-57.5 106.5q-17 64 -10 134.5t46 136.5q31 45 79 74t108 29q35 0 65.5 -12.5t54 -35t38.5 -53.5t19 -67q4 -52 -22.5 -88t-68.5 -55.5
t-91.5 -23t-91.5 10.5q7 -36 25.5 -58.5t44 -33t56.5 -9t63 13.5q11 5 21 13t20 15t21.5 12.5t25.5 6.5zM261 336q24 2 32.5 13t5.5 23.5t-16 22t-31 8.5q-21 -2 -39.5 -17.5t-34.5 -36.5q21 -7 41.5 -11.5t41.5 -1.5z" />
    <glyph glyph-name="f" unicode="f" horiz-adv-x="536" 
d="M133 504q13 52 43 85.5t68 49t80.5 13.5t81 -20.5t69 -54t44.5 -87.5q8 -32 -8 -53.5t-40 -28.5t-48.5 3.5t-31.5 42.5q-4 25 -17 40t-30 20.5t-35 1t-31 -17.5q-12 -13 -17 -31t-6.5 -43t-0.5 -57.5t1 -74.5q15 1 39 2t50 2.5t50 3t39 3.5q31 1 48 -18t18 -43t-15 -46.5
t-51 -28.5q-14 -2 -37 -3.5t-48 -2.5t-48.5 -2t-38.5 -2q3 -48 10 -94.5t16 -97.5q7 -33 -8 -54.5t-39 -28t-48.5 4t-34.5 41.5q-10 57 -17.5 113t-12.5 114h-33q-33 0 -49.5 21t-16.5 46.5t16.5 46.5t49.5 21h26q0 22 -0.5 49t0 55t3.5 56t10 54z" />
    <glyph glyph-name="g" unicode="g" horiz-adv-x="562" 
d="M486 530q15 -81 25.5 -164.5t13.5 -170.5q2 -50 -1 -98t-19 -100q-21 -70 -70.5 -108.5t-109.5 -45t-120.5 20.5t-103.5 87q-20 26 -16 53t21 44t42.5 19.5t48.5 -20.5q8 -8 16.5 -16t17.5 -16q28 -25 53.5 -31.5t45.5 3t35 34t22 60.5q6 41 4 82t-6 88
q-24 -24 -51 -43.5t-59 -32.5q-48 -20 -90.5 -18.5t-74.5 18t-53 46.5t-27 68t4.5 81t40.5 87q17 25 40 49t50 44t57.5 34.5t62.5 20.5q30 6 63.5 6t63 -8.5t50 -26t24.5 -46.5zM267 324q23 18 40 41t28 50q11 25 11.5 39t-7 19.5t-21 3.5t-28.5 -9q-30 -14 -57.5 -36
t-50.5 -50q-25 -34 -24.5 -55.5t16.5 -29.5t41.5 -1.5t51.5 28.5z" />
    <glyph glyph-name="h" unicode="h" horiz-adv-x="575" 
d="M164 387q18 34 47 59.5t62 39.5t69 16.5t68 -9t58.5 -37.5t42.5 -68q12 -33 17.5 -71t7.5 -78q4 -51 1.5 -100t-9.5 -97q-4 -41 -28.5 -58.5t-50.5 -15t-44.5 23.5t-11.5 57q6 27 9.5 63t4 74t-3.5 74t-14 63t-27 33.5t-37 -2.5t-40.5 -30.5t-37.5 -50.5
q-32 -54 -46.5 -119t-10.5 -123q0 -27 -19 -46t-48 -21q-14 -1 -26 4t-21 14.5t-14.5 22t-5.5 26.5q-20 170 -25 341t13 347q2 33 23.5 49.5t46 16t45 -17t20.5 -48.5q-9 -75 -12 -152q-5 -87 -3 -180z" />
    <glyph glyph-name="i" unicode="i" horiz-adv-x="216" 
d="M53 400q4 29 28 41.5t49.5 9.5t43 -21.5t10.5 -52.5q-14 -77 -18.5 -161.5t3.5 -166.5q2 -19 -6 -33.5t-22 -22.5t-31.5 -9t-33 5.5t-27 21t-14.5 38.5q-7 84 -3 168.5t21 182.5zM133 513q-32 -1 -49 18.5t-18 43.5t15 45t50 24q36 3 52.5 -17t16 -45t-17.5 -46.5
t-49 -22.5z" />
    <glyph glyph-name="j" unicode="j" horiz-adv-x="314" 
d="M230 414q21 -104 34 -209.5t11 -215.5q-2 -55 -18.5 -108t-45.5 -96.5t-69.5 -74t-88.5 -41.5t-103 1t-114 55q-20 15 -22.5 39t7.5 44.5t30 32.5t45 3q26 -11 54 -20.5t57 -13.5q38 -6 63.5 10.5t40.5 44.5t21.5 63t6.5 68q3 182 -40 381q-4 36 13.5 57.5t41 27t46.5 -6
t30 -41.5zM110 530q-32 1 -47.5 22t-15.5 46t15.5 45.5t47.5 20.5q33 0 50 -19.5t17.5 -43.5t-16.5 -45.5t-51 -25.5z" />
    <glyph glyph-name="k" unicode="k" horiz-adv-x="502" 
d="M459 120q16 -12 20 -29t0 -34t-14.5 -31t-25.5 -21.5t-32 -5t-33 18.5q-44 31 -96.5 62.5t-100.5 54.5q3 -26 5.5 -52t4.5 -52q1 -25 -15 -41.5t-38 -21.5t-44 3.5t-32 33.5q-11 39 -16.5 92.5t-8 112.5t-2.5 120.5v115.5q0 67 1.5 133t5.5 133q2 34 24 50.5t47.5 16
t45.5 -17.5t18 -49q-5 -91 -6.5 -182t0.5 -191q44 41 84.5 84t78.5 91q23 22 49 18.5t43.5 -21t21 -43.5t-17.5 -50q-37 -46 -77.5 -88.5t-85.5 -85.5q51 -26 99.5 -54.5t96.5 -69.5z" />
    <glyph glyph-name="l" unicode="l" horiz-adv-x="210" 
d="M165 104q4 -17 14 -32.5t11 -35.5q2 -14 -4 -26t-16 -22q-8 -9 -21 -14t-26 -5q-30 0 -48 18.5t-28.5 45.5t-14 57.5t-3.5 54.5q-2 68 -1.5 134.5t4.5 134.5q6 135 21 270q0 26 19.5 45.5t47.5 21.5q26 0 46 -19t21 -48q-3 -32 -6.5 -65.5t-5.5 -66.5
q-10 -110 -14 -221.5t4 -226.5z" />
    <glyph glyph-name="exclam" unicode="!" horiz-adv-x="219" 
d="M48 687q0 33 21 49.5t46 16.5t46 -16.5t21 -49.5q-3 -107 -5.5 -217.5t-6.5 -237.5q-1 -33 -22 -49.5t-46 -16.5t-45.5 16.5t-20.5 49.5q4 112 5.5 224.5t6.5 230.5zM99 84q31 -1 47.5 -22.5t17 -46.5t-15.5 -45.5t-49 -20.5q-32 0 -48 19.5t-16 44t15.5 46t48.5 25.5z
" />
    <glyph glyph-name="quotedbl" unicode="&#x22;" horiz-adv-x="276" 
d="M37 699q-2 19 10 30t28 12.5t31 -7.5t19 -29q3 -16 1 -39t-7.5 -45.5t-12.5 -40.5t-14 -24q-8 -7 -18 -9t-18.5 1t-14.5 12t-5 24q3 29 3 57.5t-2 57.5zM151 699q-2 19 10 30t28 12.5t31 -7.5t19 -29q3 -16 1 -39t-7.5 -45.5t-12.5 -40.5t-14 -24q-8 -7 -18 -9t-18.5 1
t-14.5 12t-5 24q3 29 3 57.5t-2 57.5z" />
    <glyph glyph-name="numbersign" unicode="#" horiz-adv-x="741" 
d="M634 459q34 0 50 -21t16 -46.5t-17 -46.5t-49 -21h-74q-2 -7 -4 -14.5t-4 -15.5q13 1 25 1.5t25 0.5q31 1 47.5 -18.5t17.5 -44.5t-15 -46.5t-50 -23.5q-20 -1 -41 -1.5t-42 -1.5q-10 -44 -19.5 -86.5t-20.5 -85.5q-7 -31 -31 -41t-48 -4t-41 27.5t-9 53.5t15.5 64
t16.5 64q-29 -2 -56.5 -2.5t-56.5 -2.5q-5 -23 -9 -44t-7 -44q-4 -21 -20 -32.5t-35.5 -14t-38.5 5t-29 25.5q-5 11 -7.5 24.5t1.5 27.5q2 11 4 22.5t4 22.5h-10.5t-10.5 -1q-31 1 -47.5 21t-17.5 44t15 45t50 25q12 1 23 1.5t23 0.5q2 8 3 16t3 16q-11 -2 -20.5 -2.5
t-20.5 -1.5q-30 -2 -46.5 16.5t-18 42.5t14 46.5t50.5 28.5q16 2 32.5 3t33.5 3q7 35 13.5 72t13.5 74q5 30 29 40t48.5 4t42 -27t10.5 -53q-6 -26 -10.5 -51t-9.5 -51q32 2 64.5 3.5t64.5 2.5q11 45 22 90.5t22 91.5q7 31 30.5 41.5t48 4.5t41 -27.5t9.5 -54.5
q-8 -34 -16 -67.5t-17 -67.5q-2 -8 -2 -10h42zM294 282q29 2 59 3.5t60 2.5q2 9 4.5 17.5t4.5 16.5q-30 -1 -60.5 -2t-62.5 -3q-2 -9 -3 -17.5t-2 -17.5z" />
    <glyph glyph-name="dollar" unicode="$" horiz-adv-x="447" 
d="M203 421q39 -11 77 -25.5t68 -37t48.5 -56t18.5 -81.5q0 -29 -9 -54.5t-25 -47.5q-32 -41 -83 -63l6 -85q2 -28 -17 -43.5t-43.5 -16.5t-46.5 13.5t-26 46.5q-4 34 -6 68q-32 5 -61 19.5t-51 40.5q-23 23 -19.5 49t21 43.5t44 21t49.5 -18.5q17 -17 38.5 -21.5t40.5 0.5
q18 4 31 17t16.5 28t-4 30.5t-29.5 24.5q-25 9 -50 15.5t-48.5 15.5t-44.5 23.5t-38 38.5q-18 24 -24 50.5t-2.5 53t15.5 51.5t30 46q17 20 37.5 32.5t43.5 20.5q1 14 1.5 29t2.5 30q2 31 24 45.5t47.5 13.5t45.5 -16t18 -43q-2 -16 -3 -31.5t-2 -31.5q49 -17 89 -51
q11 -9 16 -21t4.5 -25t-6 -26t-14.5 -23q-8 -10 -21 -14.5t-26 -4.5q-26 0 -47 19q-13 9 -31.5 16t-36.5 8t-32 -8t-18.5 -21t2.5 -24.5t30 -19.5z" />
    <glyph glyph-name="percent" unicode="%" horiz-adv-x="663" 
d="M578 615q-38 -65 -81 -143t-86 -159.5t-84 -163t-75 -153.5q-9 -19 -24 -27t-32.5 -8t-33.5 7.5t-26.5 20.5t-13.5 30.5t8 37.5q33 67 73.5 147t82.5 162t84.5 161.5t80.5 147.5q13 25 38.5 32.5t49 -1t37 -32t2.5 -59.5zM565 274q31 -17 47.5 -41.5t21 -52.5t-2.5 -57
t-24 -54q-14 -20 -35.5 -36.5t-47 -25.5t-52 -8.5t-49.5 15.5q-18 12 -30.5 29t-18.5 36.5t-6 40.5t5 41q6 22 19 44t31.5 39.5t41 28.5t47.5 11q14 1 27 -2t26 -8zM469 167q-16 -26 -12.5 -46t17 -29.5t32.5 -4.5t35 31q13 22 10 43t-15 31t-30.5 6t-36.5 -31zM231 685
q31 -17 47.5 -41.5t21 -52.5t-2.5 -57t-24 -54q-14 -20 -35.5 -36.5t-47 -25.5t-52 -8.5t-49.5 15.5q-18 12 -30.5 29t-18.5 36.5t-6 40.5t5 41q6 22 19 44t31.5 39.5t41 28.5t47.5 11q14 1 27 -2t26 -8zM135 578q-16 -26 -12.5 -46t17 -29.5t32.5 -4.5t35 31q13 22 10 43
t-15 31t-30.5 6t-36.5 -31z" />
    <glyph glyph-name="ampersand" unicode="&#x26;" horiz-adv-x="626" 
d="M568 116q19 -10 26.5 -26t5.5 -33t-11 -32.5t-22.5 -25t-31 -10.5t-34.5 11q-17 11 -33 23q-17 13 -33 25.5t-33 23.5q-26 -26 -57 -46t-67 -31q-56 -17 -102 -8.5t-78.5 35.5t-50.5 67t-18.5 85t17.5 91.5t57 85.5q-22 38 -34 81.5t-11 87.5t15.5 86.5t46.5 79.5
q25 29 60.5 46.5t73.5 23.5t75.5 0t67 -26t48 -53.5t18.5 -81.5q0 -43 -17 -82t-46 -74q-25 -29 -56 -52.5t-62 -46.5q20 -21 41 -39t43 -35q8 19 14 39.5t11 41.5q8 30 32 40.5t48 4.5t40 -27t9 -54q-9 -30 -18.5 -61t-24.5 -68q23 -16 45.5 -32.5t45.5 -33.5zM302 531
q21 24 23 45t-8 34.5t-30 16.5t-42 -10q-14 -8 -25.5 -20.5t-17.5 -28.5q-11 -29 -9.5 -58t12.5 -62q24 20 50.5 38.5t46.5 44.5zM168 201q-13 -39 -1.5 -61t39.5 -23q23 0 46 9.5t40 27.5q-27 20 -52.5 42.5t-51.5 45.5q-5 -8 -10 -18.5t-10 -22.5z" />
    <glyph glyph-name="quotesingle" unicode="'" horiz-adv-x="160" 
d="M37 699q-2 19 10 30t28 12.5t31 -7.5t19 -29q3 -16 1 -39t-7.5 -45.5t-12.5 -40.5t-14 -24q-8 -7 -18 -9t-18.5 1t-14.5 12t-5 24q3 29 3 57.5t-2 57.5z" />
    <glyph glyph-name="parenleft" unicode="(" horiz-adv-x="428" 
d="M353 -11q31 -1 46.5 -22t15 -45.5t-18 -44.5t-52.5 -19q-9 0 -17.5 1.5t-17.5 3.5q-91 28 -150.5 90.5t-90 143t-32 171.5t22.5 177q21 76 63.5 149t102.5 131q20 20 42 38t46 34q24 19 48.5 10t38 -31.5t11 -50t-32.5 -44.5q-2 -1 -4 -3q-78 -58 -131 -145t-70 -189
q-8 -52 -4 -108.5t24 -106.5t59 -87.5t101 -52.5z" />
    <glyph glyph-name="parenright" unicode=")" horiz-adv-x="428" 
d="M79 681q-31 1 -46.5 22t-15 45.5t18 44.5t52.5 19q9 0 17.5 -1.5t17.5 -3.5q91 -28 150.5 -90.5t90 -143t32 -171.5t-22.5 -177q-21 -76 -63.5 -149t-102.5 -131q-20 -20 -42 -38t-46 -34q-24 -19 -48.5 -10t-38 31.5t-11 50t32.5 44.5q2 1 4 3q78 58 131 145t70 189
q8 52 4 108.5t-24.5 106.5t-59 87.5t-100.5 52.5z" />
    <glyph glyph-name="asterisk" unicode="*" horiz-adv-x="294" 
d="M238 645q-8 -4 -17.5 -7t-14.5 -11l14 -4t14 -5q15 -3 20 -14.5t2 -23.5t-13.5 -20t-26.5 -5q-22 5 -39 13v-16q1 -15 -9 -23.5t-22.5 -9t-23 7.5t-10.5 25v5.5t-1 6.5q-11 -7 -22.5 -11t-23.5 -6q-12 -3 -23.5 3t-16.5 20q-4 13 3.5 24t20.5 16q8 3 15.5 5.5t14.5 6.5
q-17 10 -33 18q-12 3 -18.5 15t-3.5 25q2 11 15.5 20t24.5 4q12 -5 22 -9.5t20 -12.5v41q-1 16 9 24t22 8t23 -8t12 -24v-38q1 0 3 2q21 15 46 22q13 5 24.5 -2.5t16.5 -20.5q3 -14 -4 -26q-3 -5 -8.5 -9t-11.5 -6z" />
    <glyph glyph-name="plus" unicode="+" horiz-adv-x="402" 
d="M327 390q18 -1 30.5 -13t13.5 -29t-13 -30.5t-31 -12.5q-20 1 -41 2t-42 1v-33.5t-1 -33.5q-1 -18 -13 -29.5t-29 -12.5t-30 12t-12 30t1 33.5v33.5q-22 -2 -44 -2.5t-44 -1.5q-18 -1 -30 12.5t-13 29.5q-1 8 3.5 16t9.5 13q6 7 13.5 9.5t16.5 4.5q22 1 43.5 1.5
t44.5 1.5q0 14 -0.5 28.5t-1.5 28.5q-1 20 12 30.5t29 11t29.5 -10t13.5 -31.5q1 -14 1.5 -28.5t0.5 -28.5q21 0 42 -0.5t41 -1.5z" />
    <glyph glyph-name="comma" unicode="," horiz-adv-x="224" 
d="M46 75q4 29 23 45.5t41.5 18.5t42.5 -12t26 -46q3 -18 1 -49.5t-11.5 -61t-28 -48.5t-48.5 -11q-17 3 -25 20q-7 13 -4 32q3 20 3.5 27t-1.5 11t-6 9t-9 22q-3 11 -4.5 21.5t0.5 21.5z" />
    <glyph glyph-name="hyphen" unicode="-" horiz-adv-x="382" 
d="M348 305q-6 -6 -13.5 -8.5t-15.5 -3.5q-65 -2 -127.5 -3t-125.5 -1q-18 1 -29.5 13t-11.5 29q-1 17 11.5 29.5t29.5 11.5q63 0 125.5 1t127.5 4q17 1 28.5 -12t12.5 -30q0 -7 -3 -15t-9 -15z" />
    <glyph glyph-name="period" unicode="." horiz-adv-x="216" 
d="M112 102q33 0 49 -21t16 -46t-16 -46t-49 -21q-31 0 -47.5 19.5t-17 43.5t15 45.5t49.5 25.5z" />
    <glyph glyph-name="slash" unicode="/" horiz-adv-x="343" 
d="M269 741q3 20 16 31.5t29.5 14.5t34.5 -1.5t31 -15.5t19 -27.5t-1 -37.5q-45 -109 -83.5 -220.5t-74.5 -235.5q-47 -149 -81 -300q-9 -29 -33 -39t-48 -4t-40 26.5t-9 52.5q11 43 22 84.5t22 83.5q20 75 42.5 149.5t47.5 146.5q24 75 50.5 147.5t55.5 144.5z" />
    <glyph glyph-name="zero" unicode="0" horiz-adv-x="459" 
d="M383 527q25 -48 37.5 -107t12 -121t-14.5 -122t-42 -109q-24 -43 -62 -72.5t-95 -31.5q-32 -1 -58.5 12t-47 35t-36 51t-26 60.5t-16 63t-7.5 58.5q-3 36 -2 76t7 79.5t18.5 78t32.5 71.5q33 51 73 76t81 22.5t78.5 -32.5t66.5 -88zM294 364q-3 23 -10 47.5t-16.5 44.5
t-20.5 33t-23 11.5t-24.5 -19.5t-23.5 -59q0 -1 0.5 -1t0.5 -1q31 -32 61 -65.5t59 -66.5q1 20 0 38t-3 38zM161 315q-4 -41 -0.5 -86.5t20.5 -86.5q9 -22 22 -34.5t26.5 -10.5t27 21.5t24.5 61.5q-32 32 -60 66t-60 69z" />
    <glyph glyph-name="one" unicode="1" horiz-adv-x="293" 
d="M156 640q11 16 29.5 24t37 6.5t34 -13t21.5 -34.5q1 -5 1.5 -9t0.5 -8q-2 -32 -5 -64.5t-5 -64.5q-3 -47 -6 -95t-5.5 -102t-4.5 -117t-4 -140q0 -32 -21 -48.5t-46.5 -16.5t-46.5 16t-21 49q2 87 5.5 173t8.5 177q-7 -7 -23 -12q-20 -6 -38.5 1.5t-31 22.5t-15 35
t9.5 40q32 45 62.5 89.5t62.5 90.5z" />
    <glyph glyph-name="two" unicode="2" horiz-adv-x="441" 
d="M348 639q35 -23 52.5 -56t20 -70.5t-9 -76.5t-34.5 -75q-22 -32 -48.5 -61l-53 -58t-52 -60.5t-44.5 -68.5q44 5 87 4t88 -8q34 -9 47 -34t8 -49.5t-25.5 -40.5t-53.5 -7q-42 11 -91.5 8.5t-98.5 -16.5q-19 -5 -37 -5t-35 11q-17 9 -26 24t-13 33t-3.5 37t4.5 36
q9 40 32 78.5t54 76.5q16 20 36 42.5t40.5 45.5t40.5 46.5t36 46.5q20 28 21.5 51.5t-10 34.5t-32 6t-44.5 -35q-14 -20 -27 -52q-8 -27 -30 -40q-15 -10 -32.5 -10t-32 8.5t-25 23t-12.5 32.5q-1 23 10.5 50t29.5 52.5t40 46t42 31.5q41 21 90 23t91 -25z" />
    <glyph glyph-name="three" unicode="3" horiz-adv-x="398" 
d="M285 384q36 -24 57.5 -63.5t29.5 -84.5t3 -91.5t-23 -83.5q-19 -38 -52.5 -65.5t-75 -41t-86 -11t-85.5 24.5q-18 9 -30 27q-12 17 -9.5 37.5t14 36.5t30.5 24t40 1q25 -10 52 -11t50 10q29 14 41 43.5t8 61.5t-22.5 59.5t-50.5 38.5l-26 8t-24.5 9.5t-20 15t-12.5 25.5
q-7 23 2 45t30 30q24 10 43 21q24 15 35.5 28.5t9.5 24t-17.5 15.5t-44.5 3q-8 -2 -16.5 -3.5t-16.5 -3.5q-31 -10 -52 5.5t-27.5 40t3.5 49.5t40 34q31 11 66 14.5t70 -2.5q60 -9 90.5 -36.5t36.5 -64.5t-10.5 -79.5t-49.5 -80.5q-5 -6 0 -10z" />
    <glyph glyph-name="four" unicode="4" horiz-adv-x="390" 
d="M238 586q1 32 20.5 48.5t43.5 17t45 -15.5t25 -50q-7 -143 -11 -287t-5 -296q0 -32 -21 -48.5t-46 -17t-46 16t-21 49.5q0 59 3 116h-88q-24 0 -45.5 6.5t-37 20t-24 33.5t-6.5 46q2 28 4.5 55t4.5 55q4 55 5.5 119.5t1.5 120.5q0 33 21 49t46 16t46 -16t21 -49
q0 -79 -2.5 -158.5t-10.5 -163.5h66q2 80 4.5 167t6.5 166z" />
    <glyph glyph-name="five" unicode="5" horiz-adv-x="419" 
d="M301 390q48 -30 71.5 -77t24.5 -98.5t-21 -101.5t-65 -87q-46 -38 -106 -54.5t-119 3.5q-19 7 -31.5 22.5t-16 33.5t3.5 36.5t28 30.5q11 7 24 8t27 -2q2 -1 5 -1q25 -2 52 5.5t48 23.5q16 12 27 32.5t12 42.5t-8.5 41t-33.5 30q-26 12 -64 7q-23 -5 -47 -6
q-20 -1 -35 6.5t-25.5 20t-16 29.5t-6.5 35q-2 45 -3.5 90.5t1.5 91.5q5 51 38.5 72t85.5 21q35 0 72 1.5t82 1.5q26 1 44 -8t28 -24t11 -33t-7.5 -33t-27.5 -25.5t-48 -10.5q-35 0 -70 -1.5t-73 -1.5h-2q0 -18 0.5 -37.5t0.5 -51.5q37 5 73 -3.5t67 -28.5z" />
    <glyph glyph-name="six" unicode="6" horiz-adv-x="490" 
d="M209 415q37 8 72 1t65 -25.5t54 -46t40 -60.5q24 -50 22 -104t-25 -100.5t-65.5 -79.5t-100.5 -40q-48 -7 -97 5t-83 48q-38 38 -54.5 91t-16 112.5t15.5 122t39.5 120t55 106t63.5 80.5q24 22 52 19.5t47.5 -19.5t23 -43.5t-20.5 -53.5q-26 -31 -46 -63t-41 -70zM244 93
q22 0 37.5 10.5t24.5 27t11 37.5t-4 41q-5 16 -18 32.5t-30 27t-35.5 11t-35.5 -14.5q-10 -9 -15 -22.5t-6.5 -28.5t-0.5 -31.5t4 -31.5q5 -24 25 -40.5t43 -17.5z" />
    <glyph glyph-name="seven" unicode="7" horiz-adv-x="406" 
d="M273 650q27 0 49.5 -6.5t37.5 -21t20 -37.5t-3 -56q-16 -54 -34.5 -106t-30.5 -114h7q20 1 34.5 -8t22.5 -23.5t9 -32t-6 -32.5t-22 -26t-38 -12h-21t-20 -1q-5 -20 -10.5 -43.5t-11.5 -48.5t-11 -49t-9 -43q-5 -32 -30 -45t-50.5 -8t-42.5 27t-7 61q3 13 7.5 31.5l9 37
t8.5 36.5t7 32h-2q-26 -5 -50.5 6t-31.5 40q-5 13 -4.5 26.5t6.5 25t17 20t27 11.5q17 2 35 4t36 5q12 54 28.5 107.5t32.5 108.5q-34 0 -68.5 1t-74.5 2q-33 3 -49.5 24t-16.5 45.5t16.5 44.5t49.5 20q46 -1 92 -1.5t92 -1.5z" />
    <glyph glyph-name="eight" unicode="8" horiz-adv-x="450" 
d="M378 330q26 -30 38 -68.5t10.5 -78.5t-15 -79t-39 -70t-61 -51.5t-79.5 -23.5q-46 -3 -82.5 11.5t-63 41t-42 62.5t-17.5 75t9 78t38 73q2 2 4.5 5t4.5 5q-29 25 -42 60t-13 72.5t12 75.5t34 70q27 38 67 57.5t83 21t84 -15t70 -52.5q24 -29 34.5 -62.5t9.5 -68.5
t-12.5 -70.5t-31.5 -67.5zM293 450q5 23 -2 39.5t-21 26t-31.5 11t-34 -5t-28 -22.5t-13.5 -41q-2 -30 14.5 -46.5t39.5 -18t45 12.5t31 44zM207 104q24 -5 42 4.5t28 26.5t12.5 38t-4 38.5t-21 28t-38.5 7.5q-31 -5 -46.5 -27t-17 -47t10 -45.5t34.5 -23.5z" />
    <glyph glyph-name="nine" unicode="9" horiz-adv-x="491" 
d="M325 266q-44 -10 -97 -9t-98 19t-74 55.5t-26 100.5q1 30 9.5 59t24 54t39.5 45t56 32q37 15 76 14t75 -17t66 -45.5t50 -72.5q16 -34 26 -81t11.5 -98.5t-6 -104t-26 -99t-48.5 -83.5t-73 -56q-9 -4 -18.5 -7.5t-20.5 -5.5q-30 -7 -65.5 -7t-68 10t-57.5 32.5t-34 60.5
q-5 20 3 38.5t22.5 30.5t34 15t39.5 -9q5 -3 9 -8l8 -10q21 -28 45 -29t46 14t38 39.5t21 46.5q5 18 7.5 37t5.5 39zM320 403q-3 20 -14.5 43t-29.5 39t-40 19t-45 -17q-14 -12 -21 -28.5t-5 -32t14 -26.5t37 -11q26 -1 53.5 4t50.5 10z" />
    <glyph glyph-name="semicolon" unicode=";" horiz-adv-x="224" 
d="M112 425q33 0 49 -21t16 -46t-16 -46t-49 -21q-31 0 -47.5 19.5t-17 43.5t15 45.5t49.5 25.5zM46 139q4 29 23 45.5t41.5 18.5t42.5 -12t26 -46q3 -18 1 -49.5t-11.5 -61t-28 -48.5t-48.5 -11q-17 3 -25 20q-7 13 -4 32q3 20 3.5 27t-1.5 11t-6 9t-9 22q-3 11 -4.5 21.5
t0.5 21.5z" />
    <glyph glyph-name="less" unicode="&#x3c;" horiz-adv-x="386" 
d="M321 255q23 -14 31 -40t-7 -51q-6 -11 -17 -19.5t-23 -11.5q-12 -4 -26 -1.5t-25 7.5q-21 12 -46 25t-50.5 27t-50 29t-43.5 32q-15 12 -20.5 27t-4 30.5t9 30.5t18.5 28q44 39 84 83t87 91q20 18 47 19.5t48 -19.5q22 -20 20 -46t-20 -49q-32 -32 -62.5 -63t-61.5 -64
q28 -14 55 -31t57 -34z" />
    <glyph glyph-name="equal" unicode="=" horiz-adv-x="419" 
d="M84 371q-18 -1 -29.5 12.5t-12.5 28.5q0 17 12 31q12 10 30 12q60 4 120 5.5t121 1.5q18 0 30 -12t12 -29q1 -18 -12 -30.5t-30 -12.5q-61 0 -121 -2t-120 -5zM343 328q18 0 29.5 -12.5t12.5 -29.5t-12 -29.5t-30 -12.5q-66 -1 -130.5 -2t-130.5 -2q-18 0 -29.5 12.5
t-12.5 29.5q-2 17 11.5 29t30.5 12q66 2 130.5 3t130.5 2z" />
    <glyph glyph-name="greater" unicode="&#x3e;" horiz-adv-x="386" 
d="M69 255q30 17 57 34t55 31q-31 33 -61.5 64t-62.5 63q-18 23 -20 49t20 46q21 21 48 19.5t47 -19.5q47 -47 87 -91t84 -83q11 -13 18 -28t8.5 -30.5t-3.5 -30.5t-20 -27q-20 -17 -44 -32t-49.5 -29t-50.5 -27t-46 -25q-11 -5 -25 -7.5t-26 1.5q-12 3 -23 11.5t-17 19.5
q-15 25 -7 51t31 40z" />
    <glyph glyph-name="cent" unicode="&#xa2;" 
d="M361 388q-24 18 -50 32.5t-51 17t-46 -12t-35 -54.5q-18 -45 -17.5 -96.5t22.5 -96.5q11 -23 29 -41t41 -16q20 2 41.5 17.5t44.5 40.5q14 17 34 20t38 -4.5t30.5 -24t12.5 -38.5q0 -26 -19 -47q-22 -26 -49 -47t-57 -34q2 -44 6 -89q2 -30 -17 -47t-43.5 -18t-46.5 14.5
t-26 50.5q-5 39 -6 78q-38 10 -67 35t-49.5 59.5t-32.5 75.5t-16 83.5t0.5 83.5t16.5 75q17 53 53.5 96t87.5 63l6 125q2 34 24 49.5t47.5 15t45.5 -17.5t18 -47q-2 -31 -4 -61.5t-3 -61.5q42 -13 78.5 -36t51.5 -50l6 -14q7 -23 -1 -42.5t-23.5 -31.5t-36 -14t-38.5 10z
" />
    <glyph glyph-name="Euro" unicode="&#x20ac;" horiz-adv-x="520" 
d="M396 302q22 0 35.5 -13t15.5 -30q1 -18 -15 -30.5t-36 -12.5q-40 -1 -79 -1.5t-79 -0.5q9 -30 23 -54q17 -30 43.5 -51.5t67.5 -23.5h16.5t48.5 1q31 0 46 -17t14.5 -38t-17 -40t-49.5 -23q-11 -2 -21 -1.5t-21 0.5q-42 0 -83 12.5t-76.5 36.5t-63.5 58.5t-45 79.5
q-12 26 -18 58h-25q-22 0 -35.5 12.5t-15.5 30.5q-2 17 14.5 29t36.5 12h14q-1 13 -0.5 25t1.5 24h-12q-22 -1 -36 13t-15 29q0 9 4 17t10 15q15 10 37 12q7 0 13.5 0.5t13.5 0.5q5 18 10 32q14 38 33.5 72t48.5 63q20 22 52.5 42.5t69.5 32.5t75 12t69 -18
q18 -10 23.5 -27.5t1 -35t-19 -30.5t-36.5 -14q-16 -2 -27 0t-22.5 2.5t-25 -3.5t-35.5 -19q-23 -15 -40.5 -36t-28.5 -44l-6 -12t-5 -12q32 1 64.5 1h64.5q22 0 36.5 -12.5t14.5 -29.5q1 -18 -15 -31t-36 -13q-38 0 -75 -0.5t-74 -1.5q-1 -13 -1.5 -25.5t0.5 -25.5l172 3v0
z" />
    <glyph glyph-name="yen" unicode="&#xa5;" horiz-adv-x="540" 
d="M99 220q-18 -1 -29.5 12.5t-12.5 28.5q0 17 12 31q12 10 30 12q19 1 42 2t49 2v16l-39 58.5t-41.5 64t-40 63t-35.5 56.5q-14 27 -3.5 49.5t31.5 34t46.5 7.5t42.5 -30q23 -38 48 -81.5t55 -78.5q12 20 30 46t37.5 53.5t38 53.5t32.5 46q14 21 39 26.5t51 -5.5
q12 -6 20 -15.5t11.5 -21t2 -23.5t-8.5 -22q-20 -28 -43.5 -62.5t-48 -71t-48.5 -73t-45 -69.5v-19q25 1 47.5 1h40.5t30 -12t12 -29q1 -18 -12 -30.5t-30 -12.5h-40t-47 -1q0 -2 0.5 -5t0.5 -5v-20.5t1 -19.5h55t48 1q18 0 29.5 -12.5t12.5 -29.5t-12 -29.5t-30 -12.5
q-21 -1 -46 -1h-53q2 -26 4 -52.5t4 -52.5q2 -23 -17 -36t-43 -14t-45.5 11t-24.5 39q-6 51 -9 103q-29 -1 -54.5 -1h-46.5q-18 0 -29.5 12.5t-12.5 29.5q-2 17 11.5 29t30.5 12q20 0 44.5 0.5t51.5 1.5q0 12 -0.5 24.5t-0.5 24.5l-93 -3v0z" />
    <glyph glyph-name="multiply" unicode="&#xd7;" horiz-adv-x="355" 
d="M37 392q-10 12 -12 29q0 19 12 30q5 6 13.5 9t16.5 3q18 0 29 -12q18 -17 36.5 -33t37.5 -33q21 22 41.5 43.5t42.5 43.5q11 13 28.5 12t30.5 -12q12 -12 11.5 -29.5t-11.5 -30.5q-11 -11 -22 -22.5t-23 -22.5q-8 -10 -16.5 -18.5l-17.5 -17.5q16 -14 31.5 -27t31.5 -26
q7 -5 10 -12.5t3 -15.5q1 -17 -13 -31q-5 -5 -13 -9t-16 -4q-9 0 -16 4t-14 9q-16 13 -31.5 26t-32.5 26q-16 -14 -31.5 -29.5t-32.5 -29.5q-12 -13 -29 -12.5t-29 12.5q-13 11 -12.5 29t12.5 29q11 12 22.5 22.5t22.5 21.5q4 3 7 7t6 6q-17 16 -35.5 32t-37.5 33z" />
    <glyph glyph-name="divide" unicode="&#xf7;" horiz-adv-x="400" 
d="M320 381q18 0 29 -12t12 -29t-12 -30t-29 -13h-253q-17 0 -28.5 13t-12.5 30t12.5 29t28.5 12h253zM196 410q-18 0 -29.5 12.5t-12.5 29.5t12 30t30 13q18 0 29 -13t12 -30q1 -16 -11.5 -29t-29.5 -13zM191 185q-18 0 -29 12.5t-13 29.5q-1 17 12 29t30 12t29 -12t13 -29
t-12 -29.5t-30 -12.5z" />
    <glyph glyph-name="A" unicode="A" horiz-adv-x="542" 
d="M507 407q3 -39 4 -78.5t3 -79.5q1 -41 2 -72t1.5 -60.5t1.5 -61t2 -72.5q2 -31 -18 -47.5t-45 -17.5t-47 15t-24 50q0 27 -0.5 45.5t-1 35.5t-1 35.5t-1.5 47.5q-79 6 -157 -3q-14 -2 -27 -4.5t-27 -5.5q-8 -37 -14.5 -73t-11.5 -73q-3 -13 -11.5 -23.5t-20 -17t-25 -8.5
t-26.5 2q-13 2 -22.5 10t-15.5 19.5t-9 25t-1 26.5q2 10 3.5 20t3.5 19q13 75 30.5 149.5t41.5 146.5q11 37 24.5 73t28.5 71q10 24 22 52.5t27 57t33.5 54.5t41.5 43q16 13 33 20.5t39 9.5q31 0 56 -17q36 -25 57 -69q19 -42 29 -83t15 -81t7 -81zM209 276q43 5 85 6.5
t85 -1.5q-2 50 -4 98.5t-9 96.5q-7 51 -15.5 71t-19.5 15.5t-24 -30t-29 -65.5q-17 -39 -32.5 -82.5t-36.5 -108.5z" />
    <glyph glyph-name="B" unicode="B" horiz-adv-x="532" 
d="M248 766q50 18 93.5 14.5t77.5 -22t55.5 -49.5t28.5 -69.5t-3.5 -82t-41.5 -86.5q-22 -30 -49 -57t-55 -50q4 -2 5 -2q42 -21 75 -56t52 -78.5t20 -91.5t-20 -94q-23 -48 -66.5 -76t-97.5 -41t-113.5 -13.5t-114.5 6.5q-20 3 -33 12t-20 21t-9.5 25.5t-1.5 26.5
q13 148 10 298.5t-19 316.5q-2 26 19 45.5t48 21.5q13 0 24 -4q28 26 63 48.5t73 36.5zM342 537q22 26 27.5 49.5t-3.5 38.5t-32 18.5t-57 -11.5q-32 -14 -60.5 -37.5t-53.5 -52.5q3 -31 5 -63t4 -67q48 24 90 52t80 73zM237 42q53 0 86.5 25t41 59t-14.5 69t-80 56
q-22 8 -45.5 11.5t-49.5 5.5v-25q-1 -51 -2.5 -100.5t-4.5 -99.5q17 -2 34.5 -2t34.5 1z" />
    <glyph glyph-name="C" unicode="C" horiz-adv-x="607" 
d="M537 220q13 -2 23 -10t16 -19t8 -24t0 -26q-4 -23 -13.5 -44t-22.5 -41q-35 -53 -79.5 -83.5t-93 -41t-97.5 -1.5t-92 35t-77.5 69t-54.5 101q-29 81 -30 172.5t27 177.5q14 42 34 81t49 72q28 34 67.5 57.5t83.5 33.5t90 4.5t86 -29.5q40 -23 66.5 -62.5t28.5 -89.5
q1 -21 -12 -37.5t-32 -24t-39.5 -4t-34.5 22.5q-7 9 -10 18l-6 18t-7.5 18t-14.5 18q-27 23 -66.5 19.5t-72.5 -28.5q-23 -17 -41 -41t-29 -49q-17 -39 -25.5 -83.5t-7.5 -90t10.5 -88.5t27.5 -79q17 -34 44 -58t69 -26q23 -1 46 6.5t42.5 22.5t34 37t22.5 50
q9 27 31.5 40.5t51.5 6.5z" />
    <glyph glyph-name="D" unicode="D" horiz-adv-x="597" 
d="M162 724q50 40 106 48.5t108 -8t95.5 -55.5t68.5 -95q24 -53 33 -115.5t7 -126.5t-14.5 -125t-31.5 -111q-48 -127 -149.5 -177.5t-265.5 -32.5q-12 -3 -23 -3q-13 -1 -26 5t-22 14q-8 9 -14 22t-5 26q1 39 2.5 78t2.5 77q1 35 1.5 71t1 78t0.5 93.5v116.5q-7 13 -10 22
q-4 12 -2 26.5t9 24.5l2 4q0 30 -0.5 59.5t-1.5 58.5q0 26 16 42.5t37 21t42.5 -4.5t32.5 -34zM438 304q8 61 5.5 127.5t-27.5 129.5q-17 36 -41.5 55t-53.5 21.5t-59.5 -11.5t-58.5 -44q-9 -10 -16.5 -20t-15.5 -21q1 -69 0.5 -137.5t-1.5 -137.5q-1 -53 -1.5 -105.5
t-2.5 -106.5h4q49 -8 86.5 -2t65.5 22.5t48 43.5t34 61q11 28 19.5 59t14.5 66z" />
    <glyph glyph-name="E" unicode="E" horiz-adv-x="500" 
d="M392 87q27 9 49 -4.5t30.5 -35.5t0.5 -46.5t-40 -38.5q-18 -8 -49 -14.5t-65.5 -11t-67.5 -6.5t-55 -1q-24 1 -47 9.5t-41 25.5q-24 25 -33.5 56.5t-15.5 63.5q-12 63 -21.5 132.5t-12 141t3.5 142.5t24 137q14 48 50 78.5t89 26.5q20 -1 37.5 -4t36.5 -8
q15 -4 35.5 -8.5t42.5 -9.5t42.5 -9.5t36.5 -8.5q30 -6 40.5 -29.5t4.5 -48t-27 -41.5t-54 -10q-21 4 -47 10.5t-53.5 13t-54 12t-48.5 8.5q-17 -49 -18.5 -105.5t-2.5 -117.5q91 -3 182 3q31 2 47.5 -18t16.5 -45t-15.5 -47t-48.5 -24q-45 -2 -88.5 -4t-88.5 0
q8 -47 13 -93.5t21 -94.5q48 0 95.5 8t95.5 16z" />
    <glyph glyph-name="F" unicode="F" horiz-adv-x="509" 
d="M429 738q33 -1 49 -22t16 -46t-16 -45.5t-49 -20.5q-61 0 -122.5 -1t-130.5 1q0 -65 -3 -129.5t-7 -131.5q48 3 93.5 5.5t92.5 4.5q31 2 48 -18t17.5 -45t-15.5 -47t-50 -24q-48 -2 -94 -4.5t-94 -6.5q-2 -107 0 -215q0 -32 -21 -48t-46 -16.5t-46 15.5t-21 49
q-2 111 0 224q2 100 5 198.5t8 198.5q2 18 6 37t12.5 35.5t23 29t36.5 17.5q14 4 29 4h30h15.5t34 0.5t71.5 0.5h128z" />
    <glyph glyph-name="G" unicode="G" horiz-adv-x="616" 
d="M457 452q26 1 45.5 -2.5t34.5 -13t25 -26.5t18 -44q12 -48 13 -96.5t-9 -96.5q-11 -48 -36 -91.5t-60 -76.5q-37 -34 -81 -51.5t-89.5 -17.5t-90 18t-81.5 54q-56 56 -83.5 133.5t-32.5 158.5q-2 33 0 69.5t8.5 73.5t19 73t30.5 68q22 39 57 72t77.5 54t90 27.5
t95.5 -7.5q52 -15 94.5 -54.5t56.5 -95.5q8 -28 -6 -55q-11 -20 -29.5 -28t-37.5 -5t-35.5 16.5t-23.5 34.5q-6 19 -18 31q-19 20 -43.5 27t-49.5 1.5t-49.5 -23.5t-43.5 -47q-24 -36 -38 -84t-17 -98.5t5.5 -99.5t29.5 -89q18 -32 42.5 -52t51.5 -26.5t54 1t50 28.5
q19 18 31.5 41.5t19 50t6.5 54t-6 53.5q-32 0 -68 -2t-89 -5q-33 1 -49.5 23t-16.5 48.5t16.5 48t49.5 21.5q40 2 80 3.5t82 3.5z" />
    <glyph glyph-name="H" unicode="H" horiz-adv-x="572" 
d="M437 707q7 28 29 39t44.5 7.5t39.5 -20.5t16 -44q-4 -38 -7 -75.5t-6 -75.5q-5 -67 -8.5 -134t-5.5 -133q-5 -134 -3 -268q0 -31 -21 -47t-46 -17t-46 15t-21 49q-2 63 -1 125t3 126q-55 0 -112 -4t-127 -10q2 -60 4.5 -117.5t4.5 -116.5q2 -31 -18 -47.5t-45 -17.5
t-47 14.5t-24 50.5q-2 36 -3.5 72t-2.5 72q-4 126 -6 254q-2 64 -2.5 127.5t0.5 128.5q0 31 21 47.5t46.5 16.5t46.5 -15.5t21 -48.5v-144q0 -35 0.5 -71t0.5 -71q11 1 21.5 1.5t20.5 2.5q52 5 103.5 7t102.5 3q2 34 4 79t4.5 89.5t7 84.5t11.5 66z" />
    <glyph glyph-name="questiondown" unicode="&#xbf;" horiz-adv-x="611" 
d="M341.017 -214.953q-50.9971 -9.99902 -105.493 -4.5q-54.4971 5.5 -99.9941 29.499q-45.4971 23.998 -74.9951 66.4951q-29.498 42.498 -31.498 105.494q-2 46.9971 16.499 92.4941t54.4961 81.4951q17.999 18.999 38.498 33.498t42.9971 28.498
q22.499 13.999 45.9971 28.498q23.499 14.499 48.4971 32.498q21.999 15.999 32.998 37.498q11 21.499 0 54.4971q-3 26.998 13.999 43.4971t39.498 20.998q22.498 4.5 44.4971 -2.99902q21.999 -7.5 28.998 -27.499q23.999 -61.9961 12.999 -105.493
q-10.999 -43.4971 -41.9971 -76.9951t-75.4951 -61.9961q-44.4971 -28.499 -89.4951 -60.4971q-42.9971 -30.998 -59.4961 -67.4951q-16.499 -36.498 -7.49902 -65.9961q8.99902 -29.498 42.9971 -44.4971q33.998 -15 91.9941 -5q55.9971 11.999 109.993 50.9971
q13 8.99902 23.999 21.498q10.999 12.5 22.998 23.499q11 9.99902 22.999 15.999q11.999 5.99902 27.998 5.99902q12.999 1 24.999 -4.49902q11.999 -5.5 21.498 -14.999q9.5 -9.5 14.999 -21.999q5.5 -12.499 5.5 -25.498q0 -17.999 -9.99902 -32.998
q-10 -14.999 -25.999 -30.998q-40.9971 -43.998 -93.9941 -74.9961t-113.993 -43.9971zM455.01 556q0 -29.998 -20.499 -45.9971q-20.498 -15.999 -44.9971 -16.999q-24.498 -1 -45.9971 14.499t-24.498 48.4971q-2 31.998 17.499 48.9971q19.498 16.999 44.4971 17.999
q24.998 1 47.4971 -15.499q22.498 -16.499 26.498 -51.4971z" />
    <glyph glyph-name="exclamdown" unicode="&#xa1;" horiz-adv-x="219" 
d="M48 -100.958q0 -32.998 21 -49.4971t46 -16.499t46 16.499t21 49.4971q-3 106.993 -5.5 217.486t-6.5 237.485q-1 32.998 -22 49.4971t-46 16.499t-45.5 -16.499t-20.5 -49.4971q4 -111.992 5.5 -224.485t6.5 -230.486zM99 502.005q31 1 47.5 22.499
q16.5 21.498 17 46.4971q0.5 24.998 -15.5 45.4971t-49 20.499q-32 0 -48 -19.499t-16 -43.9971q0 -24.499 15.5 -45.9971q15.5 -21.499 48.5 -25.499z" />
    <glyph glyph-name="acute" unicode="&#xb4;" horiz-adv-x="232" 
d="M208 754q3 -20 -8.5 -42.5t-30 -44.5t-39.5 -40.5t-36 -29.5q-16 -12 -32.5 -8.5t-26 15t-9 27.5t18.5 30q28 20 48.5 46t37.5 57q7 12 18.5 16.5t23 3t21.5 -9t14 -20.5z" />
    <glyph glyph-name="circumflex" unicode="&#x2c6;" horiz-adv-x="308" 
d="M109 611q-11 -19 -27.5 -20.5t-30 7.5t-19.5 24.5t5 30.5q21 29 41 58.5t43 60.5q20 29 48 29t48 -35q13 -25 23 -49.5t27 -47.5q1 -2 4 -5q13 -14 11.5 -30.5t-12.5 -27.5t-27.5 -13.5t-31.5 11.5q-15 19 -27.5 39.5t-20.5 43.5q-14 -20 -27 -38.5t-27 -37.5z" />
    <glyph glyph-name="ring" unicode="&#x2da;" horiz-adv-x="244" 
d="M80 608q-26 11 -37.5 36.5t-5.5 53.5q3 17 14.5 32t28 24.5t35.5 13.5t37 0q15 -2 28 -12t21 -23q11 -18 11.5 -43t-12.5 -45q-9 -14 -22.5 -24.5t-29.5 -15.5t-34 -5t-34 8zM154 707q-6 10 -17 11t-21.5 -3.5t-18.5 -14t-8 -19.5q1 -13 13 -21t34 1q17 7 20.5 21
t-2.5 25z" />
    <glyph glyph-name="dieresis" unicode="&#xa8;" horiz-adv-x="281" 
d="M71 747q18 0 29.5 -12t12.5 -30q1 -17 -12 -29t-30 -12q-18 0 -29 12t-12 29q-2 18 11 30t30 12zM205 666q-18 0 -30 12.5t-12 29.5q-1 17 12 29t30 12t29 -12t13 -29q0 -17 -12.5 -29.5t-29.5 -12.5z" />
    <glyph glyph-name="tilde" unicode="&#x2dc;" horiz-adv-x="396" 
d="M284 628q-15 -5 -32.5 -4.5t-32.5 5.5q-33 11 -50 42q-9 15 -16 19.5t-12 2t-9.5 -10l-10.5 -17.5q-5 -10 -12 -19.5t-15.5 -15.5t-19 -7t-23.5 5q-16 7 -19.5 24.5t4.5 33.5q7 15 16 29.5t19 27.5q21 26 54 37.5t66 -5.5q11 -5 19.5 -15t15.5 -21q12 -18 20.5 -25.5
t15 -5t13.5 14t17 30.5q7 19 23.5 25.5t31.5 1.5t23 -21t-2 -42q-12 -29 -32 -52t-52 -37z" />
    <glyph glyph-name="cedilla" unicode="&#xb8;" horiz-adv-x="259" 
d="M158 120q32 -14 51.5 -44.5t11.5 -65.5q-5 -24 -20 -40.5t-36 -26.5t-45 -13t-48 0q-17 3 -25 20t-3 33q3 16 17 23.5t30 5.5q27 0 36.5 5t6 12.5t-17 16t-31.5 15.5q-21 7 -30 23.5t-10.5 36t2 41t7.5 39.5q5 17 20 24.5t31 3.5q17 -4 25.5 -19t4.5 -32
q-2 -8 -3.5 -14.5t-2.5 -14.5q-2 -13 7.5 -18.5t21.5 -10.5z" />
    <glyph glyph-name="germandbls" unicode="&#xdf;" horiz-adv-x="491" 
d="M416 519q-11 -26 -25 -46t-23.5 -38.5t-10.5 -39t15 -47.5q19 -31 37.5 -60t31.5 -59t18 -64t-2 -76q-6 -28 -22 -53.5t-39 -45t-51.5 -30.5t-59.5 -9q-34 2 -50 23.5t-15.5 46t17 44t48.5 17.5q21 0 31.5 9.5t13.5 24.5t-1 34.5t-13 40.5q-17 32 -38.5 61t-40.5 63
q-14 24 -19 52.5t0 58.5q4 21 14.5 39.5t22.5 38.5q28 44 25.5 74.5t-19 41.5t-40.5 -1.5t-39 -55.5q-16 -39 -17.5 -83t1.5 -86q4 -59 7 -117t6 -117q4 -59 7.5 -117.5t7.5 -117.5q-1 -30 -21 -46t-44 -17t-45 14t-25 49q-1 9 -1.5 17t-0.5 16q-5 70 -9 137.5t-7 136.5
q-6 65 -10.5 132.5t0.5 135.5q2 42 16 85.5t39.5 79.5t63 60.5t87.5 28.5q22 3 47 -1t48.5 -14t43.5 -26.5t33 -38.5q21 -34 21.5 -76.5t-14.5 -78.5z" />
    <glyph glyph-name="section" unicode="&#xa7;" horiz-adv-x="466" 
d="M350 274q24 -24 44.5 -54t33.5 -62q18 -45 15 -86.5t-24 -75t-58 -57.5t-88 -33q-31 -4 -64.5 3t-65 22.5t-59.5 37.5t-47 47q-17 23 -9.5 48t26.5 41.5t44 20t43 -17.5q28 -29 48.5 -50.5t43.5 -23.5q20 -2 33.5 4t21 17t9 26t-1.5 31q-6 30 -23 52.5t-39.5 41t-49 34.5
t-51.5 32q-40 25 -62 59t-27 71.5t7.5 76.5t42.5 75q-26 25 -34.5 53.5t-3.5 56.5t21 53.5t40 44t53 28.5t59 8q35 -2 69.5 -14t64.5 -32q28 -17 31.5 -43.5t-9.5 -48t-37.5 -31t-51.5 7.5q-9 5 -17.5 9.5t-16.5 8.5q-18 10 -34 9t-23.5 -8t-2 -18t31.5 -23q52 -24 97 -60
t67 -80t14 -95t-61 -106zM226 470q-18 2 -32 -7.5t-17 -24.5t6.5 -32t37.5 -30q12 -5 24.5 -7.5t22 0.5t13.5 13t0 30q-5 20 -19.5 37t-35.5 21z" />
    <glyph glyph-name="thorn" unicode="&#xfe;" horiz-adv-x="489" 
d="M166 615q51 0 96 -11t81.5 -34.5t63.5 -61t42 -91.5q14 -45 15 -95.5t-15 -98.5q-15 -48 -47.5 -88.5t-79.5 -67.5q-35 -17 -70.5 -26t-77.5 -8v-44q0 -28 -21 -42.5t-46 -15t-46 13.5t-21 44v156q-2 134 -4.5 269t-5.5 280q-1 18 8 31t23.5 19.5t32 7t32.5 -5.5
t25.5 -19t11.5 -33t1 -39.5t2 -39.5zM174 153q39 -3 70 13.5t51 46t28.5 67.5t3.5 77q-10 70 -47.5 103t-111.5 35q3 -82 4 -165.5t2 -176.5z" />
    <glyph glyph-name="Thorn" unicode="&#xde;" horiz-adv-x="399" 
d="M172 572q40 -8 74 -22.5t59 -37t40.5 -54.5t18.5 -76q3 -40 -4 -79.5t-27.5 -72t-57 -56t-93.5 -30.5q1 -17 1.5 -37t1 -41t1 -41t0.5 -36q1 -19 -8.5 -32t-24 -19.5t-32.5 -7t-33.5 6t-26.5 19.5t-12 33q-7 180 -11 359t-2 365q0 19 10 32t25 19.5t33 6.5t33 -6t25 -19
t10 -33v-36v-32v-33.5v-39.5zM185 267q33 17 46 48t11 61t-18 52t-41 21z" />
    <glyph glyph-name="paragraph" unicode="&#xb6;" horiz-adv-x="684" 
d="M594 721q19 0 33.5 -9t23 -23t9.5 -31.5t-8 -35.5q2 -10 2 -17q0 -143 -1.5 -287t-3.5 -305q0 -32 -21 -48t-45.5 -16t-45.5 16t-21 48q0 143 1.5 286t3.5 291q-2 0 -4 0.5t-4 0.5q-35 1 -69 1.5t-68 2.5q0 -144 -3.5 -288t0.5 -298q0 -32 -21 -48t-46.5 -16t-46.5 16
t-21 48q-1 52 -1.5 104t1.5 106q-2 -1 -6 -1q-32 0 -61 11t-53.5 30.5t-42.5 46t-27 58.5q-19 56 -15 119.5t29.5 117.5t72.5 91t115 40q22 1 47 0q71 -2 143 -5t154 -6z" />
    <glyph glyph-name="trademark" unicode="&#x2122;" horiz-adv-x="474" 
d="M163 753q10 1 16 -5t6.5 -14.5t-5 -16t-17.5 -9.5q-6 0 -12 -0.5t-12 -0.5q-1 0 -2 -0.5t-2 -0.5q-3 -48 -0.5 -97t9.5 -106q0 -11 -6.5 -16.5t-14.5 -6t-16 4.5t-9 16q-8 48 -9.5 101t1.5 104q-9 0 -18.5 0.5t-18.5 1.5q-7 0 -11 3q-7 4 -9 11t-0.5 14t6.5 12t14 4
q26 -2 53.5 -1.5t56.5 2.5zM419 750q10 -59 15.5 -118.5t9.5 -124.5q0 -11 -6.5 -16.5t-14.5 -5.5t-15 5.5t-8 16.5q-1 10 -1.5 19.5t-1.5 20.5q-2 32 -4.5 63t-6.5 62q-2 -2 -4 -6q-14 -18 -27.5 -39t-29.5 -41q-9 -11 -24 -9.5t-22 15.5q-8 16 -15.5 31.5t-15.5 32.5
q-1 -17 -1.5 -35t-0.5 -35v-36.5t1 -37.5q0 -10 -7 -15.5t-15.5 -5.5t-15.5 5t-7 16v49q-1 40 1 79t8 79q1 5 1.5 10t1.5 10q2 7 7.5 11t12 5t12.5 -2t9 -9q13 -26 25.5 -52t26.5 -55v-1q40 54 72 114q8 14 22 14t18 -14z" />
    <glyph glyph-name="colon" unicode=":" horiz-adv-x="224" 
d="M112 425q33 0 49 -21t16 -46t-16 -46t-49 -21q-31 0 -47.5 19.5t-17 43.5t15 45.5t49.5 25.5zM112 133q33 0 49 -21t16 -46t-16 -46t-49 -21q-31 0 -47.5 19.5t-17 43.5t15 45.5t49.5 25.5z" />
    <glyph glyph-name="quotesinglbase" unicode="&#x201a;" horiz-adv-x="224" 
d="M46 75q4 29 23 45.5t41.5 18.5t42.5 -12t26 -46q3 -18 1 -49.5t-11.5 -61t-28 -48.5t-48.5 -11q-17 3 -25 20q-7 13 -4 32q3 20 3.5 27t-1.5 11t-6 9t-9 22q-3 11 -4.5 21.5t0.5 21.5z" />
    <glyph glyph-name="quotedblbase" unicode="&#x201e;" horiz-adv-x="391" 
d="M46 75q4 29 23 45.5t41.5 18.5t42.5 -12t26 -46q3 -18 1 -49.5t-11.5 -61t-28 -48.5t-48.5 -11q-17 3 -25 20q-7 13 -4 32q3 20 3.5 27t-1.5 11t-6 9t-9 22q-3 11 -4.5 21.5t0.5 21.5zM209 75q4 29 23 45.5t41.5 18.5t42.5 -12t26 -46q3 -18 1 -49.5t-11.5 -61t-28 -48.5
t-48.5 -11q-17 3 -25 20q-7 13 -4 32q3 20 3.5 27t-1.5 11t-6 9t-9 22q-3 11 -4.5 21.5t0.5 21.5z" />
    <glyph glyph-name="florin" unicode="&#x192;" horiz-adv-x="536" 
d="M265 161q4 -43 5.5 -85.5t1.5 -86.5q-2 -55 -18.5 -108t-45.5 -96.5t-69.5 -74t-88.5 -41.5t-103 1t-114 55q-20 15 -22.5 39t7.5 44.5t30 32.5t45 3q26 -11 54 -20.5t57 -13.5q38 -6 63.5 10.5t40.5 44.5t21.5 63t6.5 68q0 40 -1 79.5t-5 80.5l-36 -1q-33 0 -49.5 21
t-16.5 46.5t16.5 46.5t49.5 21h26q0 22 -0.5 49t0 55t3.5 56t10 54q13 52 43 85.5t68 49t80.5 13.5t81 -20.5t69 -54t44.5 -87.5q8 -32 -8 -53.5t-40 -28.5t-48.5 3.5t-31.5 42.5q-4 25 -17 40t-30 20.5t-35 1t-31 -17.5q-12 -13 -17 -31t-6.5 -43t-0.5 -57.5t1 -74.5
q15 1 39 2t50 2.5t50 3t39 3.5q31 1 48 -18t18 -43t-15 -46.5t-51 -28.5z" />
    <glyph glyph-name="fraction" unicode="&#x2044;" horiz-adv-x="343" 
d="M269 741q3 20 16 31.5t29.5 14.5t34.5 -1.5t31 -15.5t19 -27.5t-1 -37.5q-45 -109 -83.5 -220.5t-74.5 -235.5q-47 -149 -81 -300q-9 -29 -33 -39t-48 -4t-40 26.5t-9 52.5q11 43 22 84.5t22 83.5q20 75 42.5 149.5t47.5 146.5q24 75 50.5 147.5t55.5 144.5z" />
    <glyph glyph-name="caron" unicode="&#x2c7;" horiz-adv-x="308" 
d="M109 762q14 -19 27 -37.5t27 -38.5q8 23 20.5 43.5t27.5 39.5q15 14 31.5 11.5t27.5 -13.5t12.5 -27.5t-11.5 -30.5q-3 -3 -4 -5q-17 -23 -27 -47.5t-23 -49.5q-20 -35 -48 -35t-48 29q-23 31 -43 60.5t-41 58.5q-11 15 -5 30.5t19.5 24.5t30 7.5t27.5 -20.5z" />
    <glyph glyph-name="plusminus" unicode="&#xb1;" horiz-adv-x="402" 
d="M327 390q18 -1 30.5 -13t13.5 -29t-13 -30.5t-31 -12.5q-20 1 -41 2t-42 1v-33.5t-1 -33.5q-1 -18 -13 -29.5t-29 -12.5t-30 12t-12 30t1 33.5v33.5q-22 -2 -44 -2.5t-44 -1.5q-18 -1 -30 12.5t-13 29.5q-1 8 3.5 16t9.5 13q6 7 13.5 9.5t16.5 4.5q22 1 43.5 1.5
t44.5 1.5q0 14 -0.5 28.5t-1.5 28.5q-1 20 12 30.5t29 11t29.5 -10t13.5 -31.5q1 -14 1.5 -28.5t0.5 -28.5q21 0 42 -0.5t41 -1.5zM352 163q17 1 27 -13.5t11 -33.5q0 -8 -3 -17.5t-8 -15.5q-12 -12 -27 -12q-17 -2 -33.5 -3t-34.5 -2q-117 -3 -237 0q-15 1 -25.5 14.5
t-11.5 33.5q-1 17 11 32t26 13q17 -1 34 -1h34q60 -2 119 -0.5t118 5.5z" />
    <glyph glyph-name="perthousand" unicode="&#x2030;" horiz-adv-x="963" 
d="M578 615q-38 -65 -81 -143t-86 -159.5t-84 -163t-75 -153.5q-9 -19 -24 -27t-32.5 -8t-33.5 7.5t-26.5 20.5t-13.5 30.5t8 37.5q33 67 73.5 147t82.5 162t84.5 161.5t80.5 147.5q13 25 38.5 32.5t49 -1t37 -32t2.5 -59.5zM565 274q31 -17 47.5 -41.5t21 -52.5t-2.5 -57
t-24 -54q-14 -20 -35.5 -36.5t-47 -25.5t-52 -8.5t-49.5 15.5q-18 12 -30.5 29t-18.5 36.5t-6 40.5t5 41q6 22 19 44t31.5 39.5t41 28.5t47.5 11q14 1 27 -2t26 -8zM469 167q-16 -26 -12.5 -46t17 -29.5t32.5 -4.5t35 31q13 22 10 43t-15 31t-30.5 6t-36.5 -31zM231 685
q31 -17 47.5 -41.5t21 -52.5t-2.5 -57t-24 -54q-14 -20 -35.5 -36.5t-47 -25.5t-52 -8.5t-49.5 15.5q-18 12 -30.5 29t-18.5 36.5t-6 40.5t5 41q6 22 19 44t31.5 39.5t41 28.5t47.5 11q14 1 27 -2t26 -8zM135 578q-16 -26 -12.5 -46t17 -29.5t32.5 -4.5t35 31q13 22 10 43
t-15 31t-30.5 6t-36.5 -31zM866 274q31 -17 47.5 -41.5t21 -52.5t-2.5 -57t-24 -54q-14 -20 -35.5 -36.5t-47 -25.5t-52 -8.5t-49.5 15.5q-18 12 -30.5 29t-18.5 36.5t-6 40.5t5 41q6 22 19 44t31.5 39.5t41 28.5t47.5 11q14 1 27 -2t26 -8zM770 167q-16 -26 -12.5 -46
t17 -29.5t32.5 -4.5t35 31q13 22 10 43t-15 31t-30.5 6t-36.5 -31z" />
    <glyph glyph-name="copyright" unicode="&#xa9;" horiz-adv-x="650" 
d="M537 611q38 -39 58.5 -90.5t25.5 -108t-4 -115.5t-31 -113.5t-56 -101.5t-77 -80q-40 -29 -85.5 -43.5t-92.5 -12.5q-59 3 -104 32t-76.5 74t-49 100.5t-20.5 111.5q-7 143 66 281q36 65 89.5 107t115 53.5t124.5 -10t117 -84.5zM530 346q6 37 0.5 75.5t-23 73.5t-47 63
t-72.5 44q-36 13 -68.5 8t-60 -21.5t-50.5 -42t-40 -55.5q-20 -36 -33 -78t-17 -86t1.5 -88t22.5 -86q15 -37 37 -63t49 -39.5t56.5 -14.5t58.5 11q44 18 76 51.5t54 74.5t35.5 86.5t20.5 86.5zM420 263q13 -2 19 -13.5t4 -25.5q-2 -11 -6.5 -21.5t-11.5 -21.5
q-26 -40 -62.5 -55t-72.5 -8.5t-66.5 33t-45.5 70.5q-15 40 -15.5 86t13.5 89q8 21 18 40.5t24 35.5q14 17 33.5 29t42 17.5t45 2.5t42.5 -15t33.5 -31.5t14.5 -45.5q0 -11 -6.5 -19t-15.5 -11.5t-19.5 -1.5t-17.5 11t-8 18.5t-11 17.5q-14 11 -33.5 9.5t-36.5 -13.5
q-22 -19 -35 -45q-17 -39 -16.5 -87t19.5 -84q9 -17 22.5 -29t33.5 -13q23 -2 44 14t29 44q5 14 16 20.5t26 2.5z" />
    <glyph glyph-name="registered" unicode="&#xae;" horiz-adv-x="477" 
d="M388 677q40 -36 53 -87t3.5 -104t-40 -101t-76.5 -78q-29 -17 -61 -26.5t-66 -7.5q-42 2 -74 19.5t-54.5 44.5t-34.5 61t-14 68q-6 86 47 171q25 39 63 64.5t81.5 32.5t88.5 -6t84 -51zM396 516q4 24 0.5 48.5t-17 47t-37 40.5t-57.5 28q-28 8 -53 5t-46.5 -13
t-39.5 -26.5t-31 -35.5q-32 -48 -38.5 -106t18.5 -112q24 -48 67.5 -66t89.5 -3q34 12 58.5 34t41.5 48.5t27.5 55.5t16.5 55zM255 646q39 1 63.5 -14.5t34 -38.5t3 -50.5t-30.5 -51.5q-16 -16 -37.5 -27t-46.5 -16q17 -10 34 -17t37 -9q13 -2 17 -10t1 -17q-2 -8 -11 -12.5
t-20 -2.5q-33 5 -60.5 18.5t-53.5 31.5q1 -8 2 -17.5t3 -17.5q3 -10 -3.5 -16.5t-15.5 -9t-18 0.5t-12 13q-11 57 -11 116t10 121q4 12 18.5 14.5t25.5 -6.5q16 9 33.5 13t37.5 5zM273 510q15 9 24.5 24.5t9.5 30.5t-11 26t-38 11q-28 0 -57 -16q-8 -5 -12 -12t-6 -18
q-2 -17 -2 -33.5v-32.5q25 -5 48.5 1t43.5 19z" />
    <glyph glyph-name="endash" unicode="&#x2013;" horiz-adv-x="382" 
d="M348 305q-6 -6 -13.5 -8.5t-15.5 -3.5q-65 -2 -127.5 -3t-125.5 -1q-18 1 -29.5 13t-11.5 29q-1 17 11.5 29.5t29.5 11.5q63 0 125.5 1t127.5 4q17 1 28.5 -12t12.5 -30q0 -7 -3 -15t-9 -15z" />
    <glyph glyph-name="emdash" unicode="&#x2014;" horiz-adv-x="507" 
d="M470 305q-6 -6 -13.5 -8.5t-15.5 -3.5q-32 -1 -83 -2t-105.5 -1.5t-105 -0.5h-81.5q-18 1 -29.5 13t-11.5 29q-1 17 11.5 29.5t29.5 11.5h81.5t105 1t105.5 1.5t83 2.5q17 1 28.5 -12t12.5 -30q0 -7 -3 -15t-9 -15z" />
    <glyph glyph-name="ellipsis" unicode="&#x2026;" horiz-adv-x="648" 
d="M112 102q33 0 49 -21t16 -46t-16 -46t-49 -21q-31 0 -47.5 19.5t-17 43.5t15 45.5t49.5 25.5zM328 102q33 0 49 -21t16 -46t-16 -46t-49 -21q-31 0 -47.5 19.5t-17 43.5t15 45.5t49.5 25.5zM544 102q33 0 49 -21t16 -46t-16 -46t-49 -21q-31 0 -47.5 19.5t-17 43.5
t15 45.5t49.5 25.5z" />
    <glyph glyph-name="degree" unicode="&#xb0;" horiz-adv-x="244" 
d="M80 608q-26 11 -37.5 36.5t-5.5 53.5q3 17 14.5 32t28 24.5t35.5 13.5t37 0q15 -2 28 -12t21 -23q11 -18 11.5 -43t-12.5 -45q-9 -14 -22.5 -24.5t-29.5 -15.5t-34 -5t-34 8zM154 707q-6 10 -17 11t-21.5 -3.5t-18.5 -14t-8 -19.5q1 -13 13 -21t34 1q17 7 20.5 21
t-2.5 25z" />
    <glyph glyph-name="guilsinglleft" unicode="&#x2039;" horiz-adv-x="386" 
d="M321 255q23 -14 31 -40t-7 -51q-6 -11 -17 -19.5t-23 -11.5q-12 -4 -26 -1.5t-25 7.5q-21 12 -46 25t-50.5 27t-50 29t-43.5 32q-15 12 -20.5 27t-4 30.5t9 30.5t18.5 28q44 39 84 83t87 91q20 18 47 19.5t48 -19.5q22 -20 20 -46t-20 -49q-32 -32 -62.5 -63t-61.5 -64
q28 -14 55 -31t57 -34z" />
    <glyph glyph-name="guillemotleft" unicode="&#xab;" horiz-adv-x="692" 
d="M321 255q23 -14 31 -40t-7 -51q-6 -11 -17 -19.5t-23 -11.5q-12 -4 -26 -1.5t-25 7.5q-21 12 -46 25t-50.5 27t-50 29t-43.5 32q-15 12 -20.5 27t-4 30.5t9 30.5t18.5 28q44 39 84 83t87 91q20 18 47 19.5t48 -19.5q22 -20 20 -46t-20 -49q-32 -32 -62.5 -63t-61.5 -64
q28 -14 55 -31t57 -34zM621 255q23 -14 31 -40t-7 -51q-6 -11 -17 -19.5t-23 -11.5q-12 -4 -26 -1.5t-25 7.5q-21 12 -46 25t-50.5 27t-50 29t-43.5 32q-15 12 -20.5 27t-4 30.5t9 30.5t18.5 28q44 39 84 83t87 91q20 18 47 19.5t48 -19.5q22 -20 20 -46t-20 -49
q-32 -32 -62.5 -63t-61.5 -64q28 -14 55 -31t57 -34z" />
    <glyph glyph-name="guilsinglright" unicode="&#x203a;" horiz-adv-x="386" 
d="M69 255q30 17 57 34t55 31q-31 33 -61.5 64t-62.5 63q-18 23 -20 49t20 46q21 21 48 19.5t47 -19.5q47 -47 87 -91t84 -83q11 -13 18 -28t8.5 -30.5t-3.5 -30.5t-20 -27q-20 -17 -44 -32t-49.5 -29t-50.5 -27t-46 -25q-11 -5 -25 -7.5t-26 1.5q-12 3 -23 11.5t-17 19.5
q-15 25 -7 51t31 40z" />
    <glyph glyph-name="guillemotright" unicode="&#xbb;" horiz-adv-x="691" 
d="M374 255q30 17 57 34t55 31q-31 33 -61.5 64t-62.5 63q-18 23 -20 49t20 46q21 21 48 19.5t47 -19.5q47 -47 87 -91t84 -83q11 -13 18 -28t8.5 -30.5t-3.5 -30.5t-20 -27q-20 -17 -44 -32t-49.5 -29t-50.5 -27t-46 -25q-11 -5 -25 -7.5t-26 1.5q-12 3 -23 11.5t-17 19.5
q-15 25 -7 51t31 40zM68 255q30 17 57 34t55 31q-31 33 -61.5 64t-62.5 63q-18 23 -20 49t20 46q21 21 48 19.5t47 -19.5q47 -47 87 -91t84 -83q11 -13 18 -28t8.5 -30.5t-3.5 -30.5t-20 -27q-20 -17 -44 -32t-49.5 -29t-50.5 -27t-46 -25q-11 -5 -25 -7.5t-26 1.5
q-12 3 -23 11.5t-17 19.5q-15 25 -7 51t31 40z" />
    <glyph glyph-name="dagger" unicode="&#x2020;" horiz-adv-x="386" 
d="M348 305q-6 -6 -13.5 -8.5t-15.5 -3.5q-19 -1 -37 -1.5t-36 -0.5q1 -66 4.5 -137t9.5 -156q2 -30 -17 -47t-43.5 -18t-46.5 14.5t-26 50.5q-4 43 -6.5 79.5t-4 70.5t-2 68t-0.5 73h-48q-18 1 -29.5 13t-11.5 29q-1 17 11.5 29.5t29.5 11.5h48v15q1 75 3.5 150.5
t6.5 151.5q2 34 24 49.5t47.5 15t45.5 -17.5t18 -47q-6 -88 -9.5 -163.5t-4.5 -151.5q19 0 37 1t37 2q17 1 28.5 -12t12.5 -30q0 -7 -3 -15t-9 -15z" />
    <glyph glyph-name="daggerdbl" unicode="&#x2021;" horiz-adv-x="408" 
d="M76 371q-18 -1 -29.5 12.5t-12.5 28.5q0 17 12 31q12 10 30 12l51 3q2 57 4 115t5 116q2 34 24 49.5t47.5 15t45.5 -17.5t18 -47q-5 -64 -8 -119t-5 -108h59q18 0 30 -12t12 -29q1 -18 -12 -30.5t-30 -12.5h-31t-30 -1v-50h39.5t39.5 1q18 0 29.5 -12.5t12.5 -29.5
t-12 -29.5t-30 -12.5q-20 -1 -39 -1h-39q2 -50 4.5 -104.5t7.5 -118.5q2 -30 -17 -47t-43.5 -18t-46.5 14.5t-26 50.5q-3 36 -5.5 65t-3.5 54.5t-1.5 50t-0.5 50.5h-51q-18 0 -29.5 12.5t-12.5 29.5q-2 17 11.5 29t30.5 12q13 0 25.5 0.5t26.5 0.5v49q-13 0 -25.5 -0.5
t-24.5 -1.5z" />
    <glyph glyph-name="minus" unicode="&#x2212;" horiz-adv-x="382" 
d="M348 305q-6 -6 -13.5 -8.5t-15.5 -3.5q-65 -2 -127.5 -3t-125.5 -1q-18 1 -29.5 13t-11.5 29q-1 17 11.5 29.5t29.5 11.5q63 0 125.5 1t127.5 4q17 1 28.5 -12t12.5 -30q0 -7 -3 -15t-9 -15z" />
    <glyph glyph-name="logicalnot" unicode="&#xac;" horiz-adv-x="382" 
d="M288 376q18 0 31.5 -1t22.5 -7t13.5 -18.5t4.5 -35.5q1 -27 1 -54v-53q-1 -18 -13 -29.5t-29 -11.5q-17 -1 -29.5 11.5t-11.5 29.5v84q-54 -2 -106.5 -2h-105.5q-18 1 -29.5 13t-11.5 29q-1 17 11.5 29.5t29.5 11.5q56 0 110.5 1t111.5 3z" />
    <glyph glyph-name="brokenbar" unicode="&#xa6;" horiz-adv-x="245" 
d="M45 302q4 29 28 41.5t49.5 9.5t43 -21.5t10.5 -52.5q-3 -33 -4 -60.5t-1 -57t-0.5 -64.5t-1.5 -83q2 -19 -6 -33.5t-22 -22.5t-31.5 -9t-33 5.5t-27 21t-14.5 38.5q1 43 1 76t1 64.5t2.5 66t5.5 81.5zM68 743q4 29 28 41.5t49.5 9.5t43 -21.5t10.5 -52.5q-3 -33 -4 -60.5
t-1 -57t-0.5 -64.5t-1.5 -83q2 -19 -6 -33.5t-22 -22.5t-31.5 -9t-33 5.5t-27 21t-14.5 38.5q1 43 1 76t1 64.5t2.5 66t5.5 81.5z" />
    <glyph glyph-name="ordfeminine" unicode="&#xaa;" horiz-adv-x="298" 
d="M208 761q9 14 22 16.5t24 -2t17.5 -15.5t1.5 -24q-3 -16 -4.5 -31.5t-3.5 -32.5q-6 -71 2 -147q1 -16 -9.5 -24.5t-24 -9t-24.5 8t-11 25.5q-1 6 -1.5 12t-0.5 12q-7 -5 -13 -9.5t-14 -8.5q-25 -13 -55.5 -14.5t-55.5 17.5q-26 19 -36 52.5t-2 67.5q6 27 21 51t37 41.5
t49 25t56 0.5q14 -3 25 -11zM124 585q15 5 26 16t18.5 24.5t12.5 29t9 29.5q-22 25 -44.5 20t-41.5 -30q-7 -9 -12 -26.5t-4.5 -33.5t8.5 -25.5t28 -3.5z" />
    <glyph glyph-name="ordmasculine" unicode="&#xba;" horiz-adv-x="274" 
d="M225 739q17 -21 23 -50t1.5 -59t-17.5 -57t-34 -45q-17 -14 -37 -20t-39.5 -4.5t-38 11.5t-31.5 28q-17 21 -23 47.5t-2.5 54t15.5 53t31 45.5q34 37 77 37.5t75 -41.5zM113 576q12 -10 27 -4t24 18q14 20 18.5 47.5t-4.5 50.5q-8 20 -22.5 21.5t-28.5 -8.5
q-20 -14 -28 -42t-3 -53q3 -20 17 -30z" />
    <glyph glyph-name="onequarter" unicode="&#xbc;" horiz-adv-x="606" 
d="M488 615q-38 -65 -81 -143t-86 -159.5t-84 -163t-75 -153.5q-9 -19 -24 -27t-32.5 -8t-33.5 7.5t-26.5 20.5t-13.5 30.5t8 37.5q33 67 73.5 147t82.5 162t84.5 161.5t80.5 147.5q13 25 38.5 32.5t49 -1t37 -32t2.5 -59.5zM93 710q6 9 16 13t20 3.5t19 -7t12 -19.5
q0 -2 0.5 -4.5t0.5 -4.5q-2 -18 -3 -36t-2 -35q-4 -51 -7 -108t-4 -141q0 -18 -11.5 -27t-26 -9t-26 9t-11.5 27q2 48 3.5 95t4.5 97q-3 -3 -13 -7q-11 -3 -21 1t-17 12.5t-8.5 19.5t5.5 22q34 48 69 99zM504 361q1 18 12 27.5t24 9.5t25 -9t14 -28q-8 -158 -9 -324
q0 -18 -11.5 -27.5t-25.5 -9.5t-25.5 9t-11.5 28v64h-48q-27 0 -46 15t-17 45q2 15 3 30t2 31q2 31 2.5 66.5t0.5 67.5q0 18 11.5 27.5t26 9.5t26 -9.5t11.5 -27.5q0 -44 -1 -88.5t-6 -90.5h37q1 45 2.5 92.5t3.5 91.5z" />
    <glyph glyph-name="onesuperior" unicode="&#xb9;" horiz-adv-x="206" 
d="M105 734q6 9 16 13t20 3.5t19 -7t12 -19.5q0 -2 0.5 -4.5t0.5 -4.5q-2 -18 -3 -36t-2 -35q-4 -51 -7 -108t-4 -141q0 -18 -11.5 -27t-26 -9t-26 9t-11.5 27q2 48 3.5 95t4.5 97q-3 -3 -13 -7q-11 -3 -21 1t-17 12.5t-8.5 19.5t5.5 22q34 48 69 99z" />
    <glyph glyph-name="onehalf" unicode="&#xbd;" horiz-adv-x="614" 
d="M488 615q-38 -65 -81 -143t-86 -159.5t-84 -163t-75 -153.5q-9 -19 -24 -27t-32.5 -8t-33.5 7.5t-26.5 20.5t-13.5 30.5t8 37.5q33 67 73.5 147t82.5 162t84.5 161.5t80.5 147.5q13 25 38.5 32.5t49 -1t37 -32t2.5 -59.5zM93 710q6 9 16 13t20 3.5t19 -7t12 -19.5
q0 -2 0.5 -4.5t0.5 -4.5q-2 -18 -3 -36t-2 -35q-4 -51 -7 -108t-4 -141q0 -18 -11.5 -27t-26 -9t-26 9t-11.5 27q2 48 3.5 95t4.5 97q-3 -3 -13 -7q-11 -3 -21 1t-17 12.5t-8.5 19.5t5.5 22q34 48 69 99zM543 387q21 -14 31.5 -33t12 -41.5t-5.5 -46t-20 -44.5
q-14 -19 -29.5 -36.5t-31.5 -34.5t-31 -36t-27 -41q26 4 52 3t53 -5q20 -5 27.5 -20t4.5 -30t-15.5 -24.5t-31.5 -3.5q-25 7 -54.5 5t-58.5 -10q-11 -3 -22 -3t-21 7q-20 11 -23.5 34t1.5 43q5 23 18.5 46t32.5 46t45 52.5t46 55.5q12 16 12.5 30t-6 21t-19 4t-26.5 -21
q-5 -7 -8.5 -14t-7.5 -17q-5 -15 -18 -24q-9 -6 -19 -5.5t-19 5t-15 13.5t-7 20q-1 14 6 30t17.5 31t23.5 27t25 18q24 13 54 14.5t54 -15.5z" />
    <glyph glyph-name="threequarters" unicode="&#xbe;" horiz-adv-x="661" 
d="M543 615q-38 -65 -81 -143t-86 -159.5t-84 -163t-75 -153.5q-9 -19 -24 -27t-32.5 -8t-33.5 7.5t-26.5 20.5t-13.5 30.5t8 37.5q33 67 73.5 147t82.5 162t84.5 161.5t80.5 147.5q13 25 38.5 32.5t49 -1t37 -32t2.5 -59.5zM559 361q1 18 12 27.5t24 9.5t25 -9t14 -28
q-8 -158 -9 -324q0 -18 -11.5 -27.5t-25.5 -9.5t-25.5 9t-11.5 28v64h-48q-27 0 -46 15t-17 45q2 15 3 30t2 31q2 31 2.5 66.5t0.5 67.5q0 18 11.5 27.5t26 9.5t26 -9.5t11.5 -27.5q0 -44 -1 -88.5t-6 -90.5h37q1 45 2.5 92.5t3.5 91.5zM173 566q20 -14 32 -36t16.5 -47
t2 -51t-12.5 -47q-11 -21 -29.5 -36.5t-42 -23t-48.5 -6t-48 13.5q-11 5 -17 15q-7 10 -5.5 21t8 20t17 13.5t22.5 0.5q14 -5 29 -6t28 6q16 8 23 24.5t5 34.5t-12.5 33.5t-28.5 21.5l-28.5 9.5t-18.5 22.5q-4 13 1 25.5t17 17.5q8 3 13.5 5.5t10.5 5.5q28 17 26 30t-35 10
q-5 -1 -9.5 -1.5t-9.5 -2.5q-17 -5 -29 3.5t-15.5 22.5t2 28t22.5 19q17 6 37 8t39 -1q34 -5 51.5 -20.5t20.5 -36.5t-6 -45t-28 -45q-3 -3 0 -6z" />
    <glyph glyph-name="threesuperior" unicode="&#xb3;" horiz-adv-x="249" 
d="M170 602q20 -14 32 -36t16.5 -47t2 -51t-12.5 -47q-11 -21 -29.5 -36.5t-42 -23t-48.5 -6t-48 13.5q-11 5 -17 15q-7 10 -5.5 21t8 20t17 13.5t22.5 0.5q14 -5 29 -6t28 6q16 8 23 24.5t5 34.5t-12.5 33.5t-28.5 21.5l-28.5 9.5t-18.5 22.5q-4 13 1 25.5t17 17.5
q8 3 13.5 5.5t10.5 5.5q28 17 26 30t-35 10q-5 -1 -9.5 -1.5t-9.5 -2.5q-17 -5 -29 3.5t-15.5 22.5t2 28t22.5 19q17 6 37 8t39 -1q34 -5 51.5 -20.5t20.5 -36.5t-6 -45t-28 -45q-3 -3 0 -6z" />
    <glyph glyph-name="periodcentered" unicode="&#xb7;" horiz-adv-x="216" 
d="M112 407q33 0 49 -21t16 -46t-16 -46t-49 -21q-31 0 -47.5 19.5t-17 43.5t15 45.5t49.5 25.5z" />
    <glyph glyph-name="bullet" unicode="&#x2022;" horiz-adv-x="299" 
d="M149 454q37 0 61.5 -17t37 -42t12.5 -55t-12.5 -55t-37 -42t-61.5 -17q-35 0 -59 15.5t-36.5 39.5t-13.5 52.5t10.5 54t36 44t62.5 22.5z" />
    <glyph glyph-name="twosuperior" unicode="&#xb2;" horiz-adv-x="300" 
d="M218 742q21 -14 31.5 -33t12 -41.5t-5.5 -46t-20 -44.5q-14 -19 -29.5 -36.5t-31.5 -34.5t-31 -36t-27 -41q26 4 52 3t53 -5q20 -5 27.5 -20t4.5 -30t-15.5 -24.5t-31.5 -3.5q-25 7 -54.5 5t-58.5 -10q-11 -3 -22 -3t-21 7q-20 11 -23.5 34t1.5 43q5 23 18.5 46t32.5 46
t45 52.5t46 55.5q12 16 12.5 30t-6 21t-19 4t-26.5 -21q-5 -7 -8.5 -14t-7.5 -17q-5 -15 -18 -24q-9 -6 -19 -5.5t-19 5t-15 13.5t-7 20q-1 14 6 30t17.5 31t23.5 27t25 18q24 13 54 14.5t54 -15.5z" />
    <glyph glyph-name="mu" unicode="&#xb5;" horiz-adv-x="604" 
d="M51 613q1 30 26.5 44.5t55.5 13.5t53.5 -15.5t21.5 -42.5q-7 -64 -12 -128q-4 -96 15.5 -154t50.5 -68.5t65.5 31.5t60.5 145q10 39 16.5 77.5t11.5 73.5q4 25 24.5 41t44.5 18.5t44.5 -11t25.5 -46.5q6 -91 15 -189.5t25 -190.5q5 -30 -12 -50.5t-41 -27.5t-47.5 2.5
t-30.5 38.5q-4 19 -6.5 37t-5.5 36q-14 -27 -36.5 -52.5t-51 -45t-61 -31t-66.5 -11.5q-23 -2 -41 3q2 -32 4 -61.5t5 -55.5q1 -12 -5.5 -23.5t-17.5 -19.5t-25.5 -13t-30.5 -5q-31 -2 -54 16t-25 45q-7 63 -9 127q-8 122 -4.5 244t17.5 248z" />
    <glyph glyph-name="dotlessi" unicode="&#x131;" horiz-adv-x="216" 
d="M52 452q4 29 28 41.5t49.5 9.5t43 -21.5t10.5 -52.5q-7 -38 -11.5 -87t-6 -100.5t-1 -101.5t4.5 -91q2 -19 -6 -33.5t-22 -22.5t-31.5 -9t-33 5.5t-27 21t-14.5 38.5q-3 42 -4 91.5t0.5 102.5t6.5 106.5t14 102.5z" />
    <glyph glyph-name="Lslash" unicode="&#x141;" horiz-adv-x="457" 
d="M352 508q11 13 25 10.5t23.5 -12.5t11 -24.5t-12.5 -24.5q-46 -33 -90.5 -68t-90.5 -74q1 -62 2.5 -123.5t3.5 -124.5h8l138 10q31 2 47.5 -18t17.5 -45t-15 -47t-50 -24q-38 -2 -77 -5.5t-81 -5.5q-18 -1 -36.5 3t-34 13t-27.5 24t-17 37q-3 13 -4 26t-2 27
q-2 33 -4 66.5t-3 67.5l-6 -6q-12 -11 -25.5 -8.5t-22.5 12t-10.5 23t10.5 25.5l52 48q-1 103 3.5 207t12.5 215q1 34 23 49.5t47 15t45.5 -17t18.5 -47.5q-4 -38 -6 -75t-4 -75q-2 -39 -3.5 -78t-1.5 -78q4 2 6 4q31 26 63.5 50.5t65.5 47.5z" />
    <glyph glyph-name="lslash" unicode="&#x142;" horiz-adv-x="372" 
d="M297 497q13 10 26.5 5.5t21 -16.5t6.5 -26t-17 -22q-33 -16 -57.5 -28t-44.5 -23q-3 -70 -3 -140.5t5 -142.5q4 -17 14 -32.5t11 -35.5q2 -14 -4 -26t-16 -22q-8 -9 -21 -14t-26 -5q-30 0 -48 18.5t-28.5 45.5t-14 57.5t-3.5 54.5q-1 39 -1.5 77.5t0.5 77.5l-29 -19
q-14 -8 -27 -3.5t-20 15.5t-6 24.5t15 23.5q18 11 35 21.5t34 21.5l2 30q6 135 21 270q0 26 19.5 45.5t47.5 21.5q26 0 46 -19t21 -48q-3 -32 -6.5 -65.5t-5.5 -66.5q-2 -21 -3.5 -42t-3.5 -42l26 13t34 16z" />
    <glyph glyph-name="Zcaron" unicode="&#x17d;" horiz-adv-x="556" 
d="M500 575q-30 -62 -64 -127t-71 -130t-77 -128t-82 -121q63 5 125.5 9.5t125.5 10.5q13 1 25.5 -6t23.5 -15q8 -9 12.5 -21.5t6.5 -25.5q1 -13 -5 -26t-14 -21q-11 -11 -23.5 -14.5t-25.5 -4.5q-7 -1 -14.5 -1.5t-15.5 -0.5q-57 -5 -114 -9.5t-116 -9.5l-57 -3
q-23 -2 -42.5 3.5t-36.5 21.5q-8 8 -12.5 16t-8.5 18q-1 2 -1 3t-1 3q-4 8 -4 21q2 26 12.5 48.5t29.5 51.5q42 60 78.5 119.5t71 120.5t68.5 123t70 128q-69 -12 -138 -16.5t-136 -0.5q-34 1 -50 23t-16 48t17 46.5t49 18.5q73 -5 148.5 -0.5t147.5 24.5q24 5 49 5.5
t46 -7.5t35 -26t16 -49q0 -20 -9 -46t-23 -53zM229 962q14 -19 27 -37.5t27 -38.5q8 23 20.5 43.5t27.5 39.5q15 14 31.5 11.5t27.5 -13.5t12.5 -27.5t-11.5 -30.5q-3 -3 -4 -5q-17 -23 -27 -47.5t-23 -49.5q-20 -35 -48 -35t-48 29q-23 31 -43 60.5t-41 58.5
q-11 15 -5 30.5t19.5 24.5t30 7.5t27.5 -20.5z" />
    <glyph glyph-name="zcaron" unicode="&#x17e;" horiz-adv-x="528" 
d="M434 126q36 -7 52.5 -30t14 -47.5t-23 -42t-58.5 -13.5q-66 8 -134.5 8.5t-134.5 -13.5q-22 -3 -48.5 -2.5t-48.5 22.5q-14 13 -18 27.5t-2 29.5t9.5 30t15.5 30q60 96 122.5 188t128.5 184q-15 2 -37.5 1.5t-48.5 -3t-53 -7.5t-51 -11q-27 -5 -46 1.5t-29 19.5t-12 30.5
t3 33.5t17.5 28.5t31.5 15.5q67 14 136.5 21.5t143.5 4.5q15 0 34 -2.5t36.5 -10t30.5 -20t17 -33.5q5 -21 0 -41.5t-17 -37.5q-60 -89 -122.5 -175t-121.5 -181q52 5 104.5 3t108.5 -8zM231 863q14 -19 27 -37.5t27 -38.5q8 23 20.5 43.5t27.5 39.5q15 14 31.5 11.5
t27.5 -13.5t12.5 -27.5t-11.5 -30.5q-3 -3 -4 -5q-17 -23 -27 -47.5t-23 -49.5q-20 -35 -48 -35t-48 29q-23 31 -43 60.5t-41 58.5q-11 15 -5 30.5t19.5 24.5t30 7.5t27.5 -20.5z" />
    <glyph glyph-name="quotedblright" unicode="&#x201d;" horiz-adv-x="276" 
d="M37 699q-2 19 10 30t28 12.5t31 -7.5t19 -29q3 -16 1 -39t-7.5 -45.5t-12.5 -40.5t-14 -24q-8 -7 -18 -9t-18.5 1t-14.5 12t-5 24q3 29 3 57.5t-2 57.5zM151 699q-2 19 10 30t28 12.5t31 -7.5t19 -29q3 -16 1 -39t-7.5 -45.5t-12.5 -40.5t-14 -24q-8 -7 -18 -9t-18.5 1
t-14.5 12t-5 24q3 29 3 57.5t-2 57.5z" />
    <glyph glyph-name="quotedblleft" unicode="&#x201c;" horiz-adv-x="276" 
d="M242 598q2 -19 -10 -30t-28 -12.5t-31 7.5t-19 29q-3 16 -1 39t7.5 45.5t12.5 40.5t14 24q8 7 18 9t18.5 -1t14.5 -12t5 -24q-3 -29 -3 -57.5t2 -57.5zM128 598q2 -19 -10 -30t-28 -12.5t-31 7.5t-19 29q-3 16 -1 39t7.5 45.5t12.5 40.5t14 24q8 7 18 9t18.5 -1t14.5 -12
t5 -24q-3 -29 -3 -57.5t2 -57.5z" />
    <glyph glyph-name="quoteright" unicode="&#x2019;" horiz-adv-x="160" 
d="M37 699q-2 19 10 30t28 12.5t31 -7.5t19 -29q3 -16 1 -39t-7.5 -45.5t-12.5 -40.5t-14 -24q-8 -7 -18 -9t-18.5 1t-14.5 12t-5 24q3 29 3 57.5t-2 57.5z" />
    <glyph glyph-name="quoteleft" unicode="&#x2018;" horiz-adv-x="160" 
d="M128 598q2 -19 -10 -30t-28 -12.5t-31 7.5t-19 29q-3 16 -1 39t7.5 45.5t12.5 40.5t14 24q8 7 18 9t18.5 -1t14.5 -12t5 -24q-3 -29 -3 -57.5t2 -57.5z" />
    <glyph glyph-name="Scaron" unicode="&#x160;" horiz-adv-x="536" 
d="M173 721q41 25 88.5 29.5t93 -8.5t84 -42.5t61.5 -74.5q12 -23 13 -44q1 -15 -4.5 -29.5t-15.5 -25.5t-24.5 -16t-32.5 -2q-14 3 -25.5 11t-19.5 22q-14 25 -34.5 47.5t-55.5 26.5q-30 4 -54 -11t-36 -38.5t-7.5 -51.5t33.5 -49q18 -14 38.5 -25.5t40.5 -22.5
q36 -23 71.5 -51.5t63.5 -63.5t42.5 -78.5t12 -87.5t-22.5 -84t-62 -69q-38 -26 -86 -37.5t-99 -4.5q-36 5 -70.5 20.5t-63.5 40t-50 57t-30 71.5q-5 21 2.5 39.5t22 30.5t34 15t39.5 -8q18 -10 23.5 -24.5t13.5 -34.5q29 -57 96 -70q21 -4 43 -1t40 13t28.5 27t7.5 43
q-2 20 -11.5 38t-23.5 33.5t-31 28t-33 23.5q-25 16 -51 30.5t-50 32t-45 38.5t-36 50q-18 36 -22 77t6.5 80t35 73t62.5 57zM243 980q14 -19 27 -37.5t27 -38.5q8 23 20.5 43.5t27.5 39.5q15 14 31.5 11.5t27.5 -13.5t12.5 -27.5t-11.5 -30.5q-3 -3 -4 -5
q-17 -23 -27 -47.5t-23 -49.5q-20 -35 -48 -35t-48 29q-23 31 -43 60.5t-41 58.5q-11 15 -5 30.5t19.5 24.5t30 7.5t27.5 -20.5z" />
    <glyph glyph-name="scaron" unicode="&#x161;" horiz-adv-x="469" 
d="M234 472q-22 0 -32.5 -8.5t-11 -21t8.5 -25.5t27 -22q26 -14 52.5 -26.5t51.5 -29.5q30 -18 53.5 -45t38 -59.5t17 -68.5t-10.5 -72q-11 -32 -32 -58.5t-49 -44.5t-61.5 -27.5t-69.5 -7.5q-45 2 -88.5 18t-82.5 54q-23 23 -19.5 50.5t21 46t43.5 22t49 -22.5
q10 -16 28 -26.5t38.5 -13.5t40.5 2.5t34 20.5q11 12 17 27t5 30.5t-10 30.5t-27 27q-26 18 -55 31.5t-58 30.5q-51 24 -75.5 67t-19.5 94q6 63 45 104t96 53q30 6 62 3t62.5 -14.5t57.5 -30.5t48 -44q17 -21 19.5 -47t-19.5 -49q-8 -9 -22 -14.5t-26 -5.5q-11 0 -25 5.5
t-22 14.5q-19 20 -44 35t-55 17zM211 830q14 -19 27 -37.5t27 -38.5q8 23 20.5 43.5t27.5 39.5q15 14 31.5 11.5t27.5 -13.5t12.5 -27.5t-11.5 -30.5q-3 -3 -4 -5q-17 -23 -27 -47.5t-23 -49.5q-20 -35 -48 -35t-48 29q-23 31 -43 60.5t-41 58.5q-11 15 -5 30.5t19.5 24.5
t30 7.5t27.5 -20.5z" />
    <glyph glyph-name="Ydieresis" unicode="&#x178;" horiz-adv-x="625" 
d="M556 698q16 -118 25 -237t5 -246q-1 -45 -10 -96.5t-31 -96.5t-58.5 -78t-91.5 -42q-27 -4 -60 -3.5t-65 8t-60 23t-45 41.5q-11 21 -6 43.5t19.5 38.5t35.5 20.5t44 -10.5q33 -27 65 -31t58 10.5t43.5 44t23.5 70.5q6 51 5 103t-3 109q-20 -39 -46.5 -74.5t-58.5 -66.5
q-38 -36 -82.5 -55t-87 -16t-78 30t-55.5 84q-14 38 -16 79t-3 81q0 69 5.5 140.5t19.5 134.5q10 31 34 42t47.5 5t40 -27.5t10.5 -55.5q-12 -55 -16 -112.5t-6 -120.5q0 -64 11 -93.5t29 -34.5t40 10.5t45 43t43.5 63t34.5 69.5q20 47 35.5 96t30.5 99q7 25 25 38.5t39 15
t39.5 -10t25.5 -35.5zM249 859q18 0 29.5 -12t12.5 -30q1 -17 -12 -29t-30 -12q-18 0 -29 12t-12 29q-2 18 11 30t30 12zM383 778q-18 0 -30 12.5t-12 29.5q-1 17 12 29t30 12t29 -12t13 -29q0 -17 -12.5 -29.5t-29.5 -12.5z" />
    <glyph glyph-name="OE" unicode="&#x152;" horiz-adv-x="979" 
d="M871 87q27 9 49 -4.5t30.5 -35.5t0.5 -46.5t-40 -38.5q-18 -8 -49 -14.5t-65.5 -11t-67.5 -6.5t-55 -1q-24 1 -47 9.5t-41 25.5q-24 25 -33.5 56.5t-15.5 63.5l-1 1q-17 -24 -36.5 -45t-42.5 -38q-40 -29 -85.5 -43.5t-92.5 -12.5q-59 3 -104 32t-76.5 74t-49 100.5
t-20.5 111.5q-7 143 66 281q34 63 86 104.5t111.5 54.5t120.5 -5t115 -74l3 12q14 48 50 78.5t89 26.5q20 -1 37.5 -4t36.5 -8q15 -4 35.5 -8.5t42.5 -9.5t42.5 -9.5t36.5 -8.5q30 -6 40.5 -29.5t4.5 -48t-27 -41.5t-54 -10q-21 4 -47 10.5t-53.5 13t-54 12t-48.5 8.5
q-17 -49 -18.5 -105.5t-2.5 -117.5q91 -3 182 3q31 2 47.5 -18t16.5 -45t-15.5 -47t-48.5 -24q-45 -2 -88.5 -4t-88.5 0q8 -47 13 -93.5t21 -94.5q48 0 95.5 8t95.5 16zM491 343q4 33 0 67.5t-17.5 65.5t-37.5 56t-58 39q-29 11 -54.5 7t-47 -18.5t-40 -37.5t-31.5 -49
q-32 -66 -39.5 -146.5t18.5 -154.5q24 -66 68 -91t91 -4q35 16 60.5 46t43 67t28 77t16.5 76z" />
    <glyph glyph-name="AE" unicode="&#xc6;" horiz-adv-x="854" 
d="M746 87q27 9 49 -4.5t30.5 -35.5t0.5 -46.5t-40 -38.5q-18 -8 -49 -14.5t-65.5 -11t-67.5 -6.5t-55 -1q-24 1 -47 9.5t-41 25.5q-24 25 -33.5 56.5t-15.5 63.5q-3 16 -6.5 32t-5.5 33h-45.5t-48 -0.5t-45 -2t-36.5 -2.5q-14 -2 -27 -4.5t-27 -5.5q-8 -37 -14.5 -73
t-11.5 -73q-3 -13 -11.5 -23.5t-20 -17t-25 -8.5t-26.5 2q-13 2 -22.5 10t-15.5 19.5t-9 25t-1 26.5l7 39q13 75 30.5 149.5t41.5 146.5q11 37 24.5 73t28.5 71q10 24 22 52.5t27 57t33.5 54.5t41.5 43q16 13 33 20.5t39 9.5q31 0 56 -17q19 -13 34 -31q19 26 47.5 40
t65.5 12q20 -1 37.5 -4t36.5 -8q15 -4 35.5 -8.5t42.5 -9.5t42.5 -9.5t36.5 -8.5q30 -6 40.5 -29.5t4.5 -48t-27 -41.5t-54 -10q-21 4 -47 10.5t-53.5 13t-54 12t-48.5 8.5q-17 -49 -18.5 -105.5t-2.5 -117.5q91 -3 182 3q31 2 47.5 -18t16.5 -45t-15.5 -47t-48.5 -24
q-45 -2 -88.5 -4t-88.5 0q8 -47 13 -93.5t21 -94.5q48 0 95.5 8t95.5 16zM208 276q43 5 85 6.5t85 -1.5q-2 50 -4 98.5t-9 96.5q-7 51 -15.5 71t-19.5 15.5t-24 -30t-29 -65.5q-17 -39 -32.5 -82.5t-36.5 -108.5z" />
    <glyph glyph-name="Ccedilla" unicode="&#xc7;" horiz-adv-x="607" 
d="M316 -92q20 -8 31.5 -26.5t6.5 -39.5q-7 -29 -34 -40t-56 -8q-11 2 -15.5 12t-1.5 20q2 10 10.5 14.5t18.5 2.5q16 0 21.5 3t3.5 7.5t-10 10t-19 9.5q-20 8 -23 26t0 38q-64 19 -116.5 69.5t-78.5 128.5q-29 81 -30 172.5t27 177.5q14 42 34 81t49 72q28 34 67.5 57.5
t83.5 33.5t90 4.5t86 -29.5q40 -23 66.5 -62.5t28.5 -89.5q1 -21 -12 -37.5t-32 -24t-39.5 -4t-34.5 22.5q-7 9 -10 18l-6 18t-7.5 18t-14.5 18q-27 23 -66.5 19.5t-72.5 -28.5q-23 -17 -41 -41t-29 -49q-17 -39 -25.5 -83.5t-7.5 -90t10.5 -88.5t27.5 -79q17 -34 44 -58
t69 -26q23 -1 46 6.5t42.5 22.5t34 37t22.5 50q9 27 31.5 40.5t51.5 6.5q13 -2 23 -10t16 -19t8 -24t0 -26q-4 -23 -13.5 -44t-22.5 -41q-49 -74 -115.5 -105t-134.5 -24v-1q-1 -8 4.5 -11.5t13.5 -6.5z" />
    <glyph glyph-name="ae" unicode="&#xe6;" horiz-adv-x="872" 
d="M395 492q10 16 23.5 24t28 9.5t28.5 -3t25 -13.5q24 13 50.5 20.5t55.5 7.5q35 0 65.5 -12.5t54 -35t38.5 -53.5t19 -67q4 -52 -22.5 -88t-68.5 -55.5t-91.5 -23t-91.5 10.5q7 -36 25.5 -58.5t44 -33t56.5 -9t63 13.5q11 5 21 13t20 15t21.5 12.5t25.5 6.5q22 1 37.5 -11
t22.5 -30t4.5 -38.5t-17.5 -35.5q-25 -28 -61 -46.5t-76 -27.5t-81 -7.5t-77 14.5q-43 14 -76.5 44t-55.5 71q-12 -9 -25.5 -19t-25.5 -18.5t-22 -15t-15 -8.5q-24 -12 -51.5 -19.5t-55.5 -8t-55.5 7t-51.5 25.5q-26 18 -43.5 45t-27.5 58t-11 64.5t7 66.5q12 52 41.5 99.5
t72 80.5t94.5 47.5t109 0.5q27 -6 49 -20zM232 150q29 10 49.5 30.5t35.5 47.5t25 56.5t18 57.5q-43 48 -87 38t-80 -58q-14 -18 -23.5 -51.5t-8.5 -64.5t17 -49.5t54 -6.5zM607 336q24 2 32.5 13t5.5 23.5t-16 22t-31 8.5q-21 -2 -39.5 -17.5t-34.5 -36.5q21 -7 41.5 -11.5
t41.5 -1.5z" />
    <glyph glyph-name="oe" unicode="&#x153;" horiz-adv-x="843" 
d="M424 475q30 29 69 45.5t84 16.5q35 0 65.5 -12.5t54 -35t38.5 -53.5t19 -67q4 -52 -22.5 -88t-68.5 -55.5t-91.5 -23t-91.5 10.5q7 -36 25.5 -58.5t44 -33t56.5 -9t63 13.5q11 5 21 13t20 15t21.5 12.5t25.5 6.5q22 1 37.5 -11t22.5 -30t4.5 -38.5t-17.5 -35.5
q-25 -28 -61 -46.5t-76 -27.5t-81 -7.5t-77 14.5q-38 13 -68.5 38t-52.5 58l-24 -23q-33 -27 -72 -39.5t-78 -9t-74.5 22.5t-62.5 55q-33 41 -44.5 93.5t-4.5 107t30.5 106t61.5 89.5q33 36 72 54t79 17.5t78.5 -20t70.5 -59.5zM198 159q12 -9 26 -10t27.5 3.5t25.5 14
t20 21.5q13 19 22.5 43t14 49.5t3 51t-10.5 48.5q-17 39 -46 42.5t-54 -15.5q-19 -15 -33 -37t-22 -47.5t-10 -53t3 -51.5q3 -17 11 -32.5t23 -26.5zM578 336q24 2 32.5 13t5.5 23.5t-16 22t-31 8.5q-21 -2 -39.5 -17.5t-34.5 -36.5q21 -7 41.5 -11.5t41.5 -1.5z" />
    <glyph glyph-name="ccedilla" unicode="&#xe7;" 
d="M251 -33q20 -8 31.5 -26.5t6.5 -39.5q-7 -29 -34 -40t-56 -8q-11 2 -15.5 12t-1.5 20q2 10 10.5 14.5t18.5 2.5q16 0 21.5 3t3.5 7.5t-10 10t-19 9.5q-20 8 -23 26.5t0 38.5q-53 19 -87.5 66t-51 106.5t-15.5 122.5t19 113q13 40 37.5 75t58 59t75.5 33.5t89 -2.5
q46 -11 87 -36t58 -54l6 -14q7 -23 -1 -42.5t-23.5 -31.5t-36 -14t-38.5 10q-24 18 -50 32.5t-51 17t-46 -12t-35 -54.5q-18 -45 -17.5 -96.5t22.5 -96.5q11 -23 29 -41t41 -16q20 2 41.5 17.5t44.5 40.5q14 17 34 20t38 -4.5t30.5 -24t12.5 -38.5q0 -26 -19 -47
q-38 -46 -91 -74t-110 -24h-2v-2q-1 -8 4.5 -11.5t13.5 -6.5z" />
    <glyph glyph-name="Eth" unicode="&#xd0;" horiz-adv-x="628" 
d="M193 724q50 40 106 48.5t108 -8t95.5 -55.5t68.5 -95q24 -53 33 -115.5t7 -126.5t-14.5 -125t-31.5 -111q-48 -127 -149.5 -177.5t-265.5 -32.5q-12 -3 -23 -3q-13 -1 -26 5t-22 14q-8 9 -14 22t-5 26q1 39 2.5 78t2.5 77q1 42 1.5 86.5t0.5 100.5h-2q-18 1 -29.5 13
t-11.5 29q-1 17 11.5 29.5t29.5 11.5h3v89q-7 13 -10 22q-4 12 -2 26.5t9 24.5l2 4q0 30 -0.5 59.5t-1.5 58.5q0 26 16 42.5t37 21t42.5 -4.5t32.5 -34zM347 348q-6 -6 -13.5 -8.5t-15.5 -3.5q-59 -3 -116 -3q0 -17 -0.5 -33.5t-0.5 -33.5q-1 -53 -1.5 -105.5t-2.5 -106.5h4
q49 -8 86.5 -2t65.5 22.5t48 43.5t34 61q11 28 19.5 59t14.5 66q8 61 5.5 127.5t-27.5 129.5q-17 36 -41.5 55t-53.5 21.5t-59.5 -11.5t-58.5 -44q-9 -10 -16.5 -20t-15.5 -21v-125q29 1 58 1.5t58 2.5q17 1 28.5 -12t12.5 -30q0 -7 -3 -15t-9 -15z" />
    <glyph glyph-name="eth" unicode="&#xf0;" horiz-adv-x="558" 
d="M590 609q-6 -6 -13.5 -8.5t-15.5 -3.5l-45 -2q-18 -269 18 -555q0 -25 -16.5 -41.5t-38.5 -22t-43 3.5t-31 35l-3 8q-36 -18 -82 -28.5t-92.5 -8t-89 20.5t-70.5 58q-24 33 -34 73t-8 82t15 84t36 78q47 72 125.5 108t175.5 21q0 40 3 82h-73q-18 1 -29.5 13t-11.5 29
q-1 17 11.5 29.5t29.5 11.5q20 0 40 -0.5t40 0.5q2 23 5 45t6 45q1 23 12 37.5t26.5 21t33 6t32 -8.5t23.5 -22t7 -34q-3 -22 -5.5 -43.5t-4.5 -43.5l38 2q17 1 28.5 -12t12.5 -30q0 -7 -3 -15t-9 -15zM371 161q10 10 11 16.5t1 22.5q-3 43 -4.5 84t-3.5 85q-17 10 -37 12.5
t-41 0.5q-54 -8 -87 -47t-46 -94q-5 -28 -1 -53t19 -42t41.5 -23.5t65.5 1.5q41 11 82 37z" />
    <glyph glyph-name="Oslash" unicode="&#xd8;" horiz-adv-x="650" 
d="M375 726q3 20 16 31.5t29.5 14.5t34.5 -1.5t31 -15.5t19 -27.5t-1 -37.5l-14 -34q26 -21 47 -45q38 -39 58.5 -90.5t25.5 -108t-4 -115.5t-31 -113.5t-56 -101.5t-77 -80q-40 -29 -85.5 -43.5t-92.5 -12.5q-2 0 -4 0.5t-4 0.5l-2 -13q-9 -29 -33 -39t-48 -4t-40 26.5
t-9 52.5q2 8 3.5 15t3.5 14q-27 23 -48 53.5t-35.5 65t-23 72t-10.5 74.5q-7 143 66 281q23 42 54 74.5t67 53.5t75.5 30.5t79.5 4.5zM487 343q6 47 -5 95.5t-42 85.5q-26 -70 -48.5 -141.5t-45.5 -148.5q-14 -42 -25.5 -83.5t-22.5 -83.5q18 0 41 10q35 16 60.5 46t43 67
t28 77t16.5 76zM201 473q-32 -66 -39.5 -146.5t18.5 -154.5q1 -5 5 -13q19 70 40 139t44 136q11 36 23.5 72t25.5 72q-38 -6 -67.5 -36t-49.5 -69z" />
    <glyph glyph-name="oslash" unicode="&#xf8;" 
d="M288 577q4 22 22 29t36.5 2t30.5 -20t5 -38l-13 -29q11 -8 21 -18t20 -22q33 -41 44 -98t2.5 -116.5t-35 -113.5t-67.5 -89q-32 -26 -69.5 -38.5t-75.5 -10.5q0 -2 -0.5 -4t-0.5 -4q-6 -21 -24 -28t-35.5 -3t-29 19t-6.5 38l3 13q-28 19 -49 47q-33 41 -44.5 93.5
t-4.5 107t30.5 106t61.5 89.5q37 40 81 58t89 12zM287 188q13 19 22.5 42.5t14 49t3 51t-10.5 48.5q-13 -38 -25.5 -76.5t-24.5 -79.5l-21 -69q27 11 42 34zM154 218q1 -5 1.5 -9t2.5 -8q12 42 25 83.5t27 81.5q4 12 7.5 23.5t8.5 23.5l-10 -6q-19 -15 -33 -37t-22 -47.5
t-10 -53t3 -51.5z" />
    <glyph glyph-name="Agrave" unicode="&#xc0;" horiz-adv-x="542" 
d="M507 407q3 -39 4 -78.5t3 -79.5q1 -41 2 -72t1.5 -60.5t1.5 -61t2 -72.5q2 -31 -18 -47.5t-45 -17.5t-47 15t-24 50q0 27 -0.5 45.5t-1 35.5t-1 35.5t-1.5 47.5q-79 6 -157 -3q-14 -2 -27 -4.5t-27 -5.5q-8 -37 -14.5 -73t-11.5 -73q-3 -13 -11.5 -23.5t-20 -17t-25 -8.5
t-26.5 2q-13 2 -22.5 10t-15.5 19.5t-9 25t-1 26.5q2 10 3.5 20t3.5 19q13 75 30.5 149.5t41.5 146.5q11 37 24.5 73t28.5 71q10 24 22 52.5t27 57t33.5 54.5t41.5 43q16 13 33 20.5t39 9.5q31 0 56 -17q36 -25 57 -69q19 -42 29 -83t15 -81t7 -81zM209 276q43 5 85 6.5
t85 -1.5q-2 50 -4 98.5t-9 96.5q-7 51 -15.5 71t-19.5 15.5t-24 -30t-29 -65.5q-17 -39 -32.5 -82.5t-36.5 -108.5zM328 956q23 -26 48.5 -50.5t49.5 -47.5q18 -18 17 -34.5t-12 -26.5t-27 -11t-29 12q-29 23 -56 47.5t-50 51.5q-13 13 -13 29t13 30q11 11 29.5 11t29.5 -11
z" />
    <glyph glyph-name="Aacute" unicode="&#xc1;" horiz-adv-x="542" 
d="M507 407q3 -39 4 -78.5t3 -79.5q1 -41 2 -72t1.5 -60.5t1.5 -61t2 -72.5q2 -31 -18 -47.5t-45 -17.5t-47 15t-24 50q0 27 -0.5 45.5t-1 35.5t-1 35.5t-1.5 47.5q-79 6 -157 -3q-14 -2 -27 -4.5t-27 -5.5q-8 -37 -14.5 -73t-11.5 -73q-3 -13 -11.5 -23.5t-20 -17t-25 -8.5
t-26.5 2q-13 2 -22.5 10t-15.5 19.5t-9 25t-1 26.5q2 10 3.5 20t3.5 19q13 75 30.5 149.5t41.5 146.5q11 37 24.5 73t28.5 71q10 24 22 52.5t27 57t33.5 54.5t41.5 43q16 13 33 20.5t39 9.5q31 0 56 -17q36 -25 57 -69q19 -42 29 -83t15 -81t7 -81zM209 276q43 5 85 6.5
t85 -1.5q-2 50 -4 98.5t-9 96.5q-7 51 -15.5 71t-19.5 15.5t-24 -30t-29 -65.5q-17 -39 -32.5 -82.5t-36.5 -108.5zM451 954q3 -20 -8.5 -42.5t-30 -44.5t-39.5 -40.5t-36 -29.5q-16 -12 -32.5 -8.5t-26 15t-9 27.5t18.5 30q28 20 48.5 46t37.5 57q7 12 18.5 16.5t23 3
t21.5 -9t14 -20.5z" />
    <glyph glyph-name="Acircumflex" unicode="&#xc2;" horiz-adv-x="542" 
d="M507 407q3 -39 4 -78.5t3 -79.5q1 -41 2 -72t1.5 -60.5t1.5 -61t2 -72.5q2 -31 -18 -47.5t-45 -17.5t-47 15t-24 50q0 27 -0.5 45.5t-1 35.5t-1 35.5t-1.5 47.5q-79 6 -157 -3q-14 -2 -27 -4.5t-27 -5.5q-8 -37 -14.5 -73t-11.5 -73q-3 -13 -11.5 -23.5t-20 -17t-25 -8.5
t-26.5 2q-13 2 -22.5 10t-15.5 19.5t-9 25t-1 26.5q2 10 3.5 20t3.5 19q13 75 30.5 149.5t41.5 146.5q11 37 24.5 73t28.5 71q10 24 22 52.5t27 57t33.5 54.5t41.5 43q16 13 33 20.5t39 9.5q31 0 56 -17q36 -25 57 -69q19 -42 29 -83t15 -81t7 -81zM209 276q43 5 85 6.5
t85 -1.5q-2 50 -4 98.5t-9 96.5q-7 51 -15.5 71t-19.5 15.5t-24 -30t-29 -65.5q-17 -39 -32.5 -82.5t-36.5 -108.5zM299 811q-11 -19 -27.5 -20.5t-30 7.5t-19.5 24.5t5 30.5q21 29 41 58.5t43 60.5q20 29 48 29t48 -35q13 -25 23 -49.5t27 -47.5q1 -2 4 -5
q13 -14 11.5 -30.5t-12.5 -27.5t-27.5 -13.5t-31.5 11.5q-15 19 -27.5 39.5t-20.5 43.5q-14 -20 -27 -38.5t-27 -37.5z" />
    <glyph glyph-name="Atilde" unicode="&#xc3;" horiz-adv-x="542" 
d="M507 407q3 -39 4 -78.5t3 -79.5q1 -41 2 -72t1.5 -60.5t1.5 -61t2 -72.5q2 -31 -18 -47.5t-45 -17.5t-47 15t-24 50q0 27 -0.5 45.5t-1 35.5t-1 35.5t-1.5 47.5q-79 6 -157 -3q-14 -2 -27 -4.5t-27 -5.5q-8 -37 -14.5 -73t-11.5 -73q-3 -13 -11.5 -23.5t-20 -17t-25 -8.5
t-26.5 2q-13 2 -22.5 10t-15.5 19.5t-9 25t-1 26.5q2 10 3.5 20t3.5 19q13 75 30.5 149.5t41.5 146.5q11 37 24.5 73t28.5 71q10 24 22 52.5t27 57t33.5 54.5t41.5 43q16 13 33 20.5t39 9.5q31 0 56 -17q36 -25 57 -69q19 -42 29 -83t15 -81t7 -81zM209 276q43 5 85 6.5
t85 -1.5q-2 50 -4 98.5t-9 96.5q-7 51 -15.5 71t-19.5 15.5t-24 -30t-29 -65.5q-17 -39 -32.5 -82.5t-36.5 -108.5zM433 798q-15 -5 -32.5 -4.5t-32.5 5.5q-33 11 -50 42q-9 15 -16 19.5t-12 2t-9.5 -10l-10.5 -17.5q-5 -10 -12 -19.5t-15.5 -15.5t-19 -7t-23.5 5
q-16 7 -19.5 24.5t4.5 33.5q7 15 16 29.5t19 27.5q21 26 54 37.5t66 -5.5q11 -5 19.5 -15t15.5 -21q12 -18 20.5 -25.5t15 -5t13.5 14t17 30.5q7 19 23.5 25.5t31.5 1.5t23 -21t-2 -42q-12 -29 -32 -52t-52 -37z" />
    <glyph glyph-name="Adieresis" unicode="&#xc4;" horiz-adv-x="542" 
d="M507 407q3 -39 4 -78.5t3 -79.5q1 -41 2 -72t1.5 -60.5t1.5 -61t2 -72.5q2 -31 -18 -47.5t-45 -17.5t-47 15t-24 50q0 27 -0.5 45.5t-1 35.5t-1 35.5t-1.5 47.5q-79 6 -157 -3q-14 -2 -27 -4.5t-27 -5.5q-8 -37 -14.5 -73t-11.5 -73q-3 -13 -11.5 -23.5t-20 -17t-25 -8.5
t-26.5 2q-13 2 -22.5 10t-15.5 19.5t-9 25t-1 26.5q2 10 3.5 20t3.5 19q13 75 30.5 149.5t41.5 146.5q11 37 24.5 73t28.5 71q10 24 22 52.5t27 57t33.5 54.5t41.5 43q16 13 33 20.5t39 9.5q31 0 56 -17q36 -25 57 -69q19 -42 29 -83t15 -81t7 -81zM209 276q43 5 85 6.5
t85 -1.5q-2 50 -4 98.5t-9 96.5q-7 51 -15.5 71t-19.5 15.5t-24 -30t-29 -65.5q-17 -39 -32.5 -82.5t-36.5 -108.5zM279 868q18 0 29.5 -12t12.5 -30q1 -17 -12 -29t-30 -12q-18 0 -29 12t-12 29q-2 18 11 30t30 12zM413 787q-18 0 -30 12.5t-12 29.5q-1 17 12 29t30 12
t29 -12t13 -29q0 -17 -12.5 -29.5t-29.5 -12.5z" />
    <glyph glyph-name="Aring" unicode="&#xc5;" horiz-adv-x="542" 
d="M507 407q3 -39 4 -78.5t3 -79.5q1 -41 2 -72t1.5 -60.5t1.5 -61t2 -72.5q2 -31 -18 -47.5t-45 -17.5t-47 15t-24 50q0 27 -0.5 45.5t-1 35.5t-1 35.5t-1.5 47.5q-79 6 -157 -3q-14 -2 -27 -4.5t-27 -5.5q-8 -37 -14.5 -73t-11.5 -73q-3 -13 -11.5 -23.5t-20 -17t-25 -8.5
t-26.5 2q-13 2 -22.5 10t-15.5 19.5t-9 25t-1 26.5q2 10 3.5 20t3.5 19q13 75 30.5 149.5t41.5 146.5q11 37 24.5 73t28.5 71q10 24 22 52.5t27 57t33.5 54.5t41.5 43q16 13 33 20.5t39 9.5q31 0 56 -17q36 -25 57 -69q19 -42 29 -83t15 -81t7 -81zM209 276q43 5 85 6.5
t85 -1.5q-2 50 -4 98.5t-9 96.5q-7 51 -15.5 71t-19.5 15.5t-24 -30t-29 -65.5q-17 -39 -32.5 -82.5t-36.5 -108.5zM324 797q-26 11 -37.5 36.5t-5.5 53.5q3 17 14.5 32t28 24.5t35.5 13.5t37 0q15 -2 28 -12t21 -23q11 -18 11.5 -43t-12.5 -45q-9 -14 -22.5 -24.5
t-29.5 -15.5t-34 -5t-34 8zM398 896q-6 10 -17 11t-21.5 -3.5t-18.5 -14t-8 -19.5q1 -13 13 -21t34 1q17 7 20.5 21t-2.5 25z" />
    <glyph glyph-name="Egrave" unicode="&#xc8;" horiz-adv-x="500" 
d="M392 87q27 9 49 -4.5t30.5 -35.5t0.5 -46.5t-40 -38.5q-18 -8 -49 -14.5t-65.5 -11t-67.5 -6.5t-55 -1q-24 1 -47 9.5t-41 25.5q-24 25 -33.5 56.5t-15.5 63.5q-12 63 -21.5 132.5t-12 141t3.5 142.5t24 137q14 48 50 78.5t89 26.5q20 -1 37.5 -4t36.5 -8
q15 -4 35.5 -8.5t42.5 -9.5t42.5 -9.5t36.5 -8.5q30 -6 40.5 -29.5t4.5 -48t-27 -41.5t-54 -10q-21 4 -47 10.5t-53.5 13t-54 12t-48.5 8.5q-17 -49 -18.5 -105.5t-2.5 -117.5q91 -3 182 3q31 2 47.5 -18t16.5 -45t-15.5 -47t-48.5 -24q-45 -2 -88.5 -4t-88.5 0
q8 -47 13 -93.5t21 -94.5q48 0 95.5 8t95.5 16zM215 960q23 -26 48.5 -50.5t49.5 -47.5q18 -18 17 -34.5t-12 -26.5t-27 -11t-29 12q-29 23 -56 47.5t-50 51.5q-13 13 -13 29t13 30q11 11 29.5 11t29.5 -11z" />
    <glyph glyph-name="Eacute" unicode="&#xc9;" horiz-adv-x="500" 
d="M392 87q27 9 49 -4.5t30.5 -35.5t0.5 -46.5t-40 -38.5q-18 -8 -49 -14.5t-65.5 -11t-67.5 -6.5t-55 -1q-24 1 -47 9.5t-41 25.5q-24 25 -33.5 56.5t-15.5 63.5q-12 63 -21.5 132.5t-12 141t3.5 142.5t24 137q14 48 50 78.5t89 26.5q20 -1 37.5 -4t36.5 -8
q15 -4 35.5 -8.5t42.5 -9.5t42.5 -9.5t36.5 -8.5q30 -6 40.5 -29.5t4.5 -48t-27 -41.5t-54 -10q-21 4 -47 10.5t-53.5 13t-54 12t-48.5 8.5q-17 -49 -18.5 -105.5t-2.5 -117.5q91 -3 182 3q31 2 47.5 -18t16.5 -45t-15.5 -47t-48.5 -24q-45 -2 -88.5 -4t-88.5 0
q8 -47 13 -93.5t21 -94.5q48 0 95.5 8t95.5 16zM350 954q3 -20 -8.5 -42.5t-30 -44.5t-39.5 -40.5t-36 -29.5q-16 -12 -32.5 -8.5t-26 15t-9 27.5t18.5 30q28 20 48.5 46t37.5 57q7 12 18.5 16.5t23 3t21.5 -9t14 -20.5z" />
    <glyph glyph-name="Ecircumflex" unicode="&#xca;" horiz-adv-x="500" 
d="M392 87q27 9 49 -4.5t30.5 -35.5t0.5 -46.5t-40 -38.5q-18 -8 -49 -14.5t-65.5 -11t-67.5 -6.5t-55 -1q-24 1 -47 9.5t-41 25.5q-24 25 -33.5 56.5t-15.5 63.5q-12 63 -21.5 132.5t-12 141t3.5 142.5t24 137q14 48 50 78.5t89 26.5q20 -1 37.5 -4t36.5 -8
q15 -4 35.5 -8.5t42.5 -9.5t42.5 -9.5t36.5 -8.5q30 -6 40.5 -29.5t4.5 -48t-27 -41.5t-54 -10q-21 4 -47 10.5t-53.5 13t-54 12t-48.5 8.5q-17 -49 -18.5 -105.5t-2.5 -117.5q91 -3 182 3q31 2 47.5 -18t16.5 -45t-15.5 -47t-48.5 -24q-45 -2 -88.5 -4t-88.5 0
q8 -47 13 -93.5t21 -94.5q48 0 95.5 8t95.5 16zM201 811q-11 -19 -27.5 -20.5t-30 7.5t-19.5 24.5t5 30.5q21 29 41 58.5t43 60.5q20 29 48 29t48 -35q13 -25 23 -49.5t27 -47.5q1 -2 4 -5q13 -14 11.5 -30.5t-12.5 -27.5t-27.5 -13.5t-31.5 11.5q-15 19 -27.5 39.5
t-20.5 43.5q-14 -20 -27 -38.5t-27 -37.5z" />
    <glyph glyph-name="Edieresis" unicode="&#xcb;" horiz-adv-x="500" 
d="M392 87q27 9 49 -4.5t30.5 -35.5t0.5 -46.5t-40 -38.5q-18 -8 -49 -14.5t-65.5 -11t-67.5 -6.5t-55 -1q-24 1 -47 9.5t-41 25.5q-24 25 -33.5 56.5t-15.5 63.5q-12 63 -21.5 132.5t-12 141t3.5 142.5t24 137q14 48 50 78.5t89 26.5q20 -1 37.5 -4t36.5 -8
q15 -4 35.5 -8.5t42.5 -9.5t42.5 -9.5t36.5 -8.5q30 -6 40.5 -29.5t4.5 -48t-27 -41.5t-54 -10q-21 4 -47 10.5t-53.5 13t-54 12t-48.5 8.5q-17 -49 -18.5 -105.5t-2.5 -117.5q91 -3 182 3q31 2 47.5 -18t16.5 -45t-15.5 -47t-48.5 -24q-45 -2 -88.5 -4t-88.5 0
q8 -47 13 -93.5t21 -94.5q48 0 95.5 8t95.5 16zM187 881q18 0 29.5 -12t12.5 -30q1 -17 -12 -29t-30 -12q-18 0 -29 12t-12 29q-2 18 11 30t30 12zM321 800q-18 0 -30 12.5t-12 29.5q-1 17 12 29t30 12t29 -12t13 -29q0 -17 -12.5 -29.5t-29.5 -12.5z" />
    <glyph glyph-name="Igrave" unicode="&#xcc;" horiz-adv-x="204" 
d="M46 686q1 34 23 49.5t47 15t45.5 -17t18.5 -47.5q-3 -36 -5.5 -71.5t-4.5 -70.5q-2 -63 -4 -126.5t-1 -126.5q1 -32 2 -69.5t2.5 -76.5t3 -76.5t4.5 -68.5q1 -26 -19 -46.5t-48 -20.5q-26 -2 -46 18t-21 49q-3 35 -5 70.5t-3 70.5q-2 32 -2.5 69.5t-1 76.5t-0.5 76.5
t1 69.5q2 63 5.5 126.5t8.5 126.5zM93 960q23 -26 48.5 -50.5t49.5 -47.5q18 -18 17 -34.5t-12 -26.5t-27 -11t-29 12q-29 23 -56 47.5t-50 51.5q-13 13 -13 29t13 30q11 11 29.5 11t29.5 -11z" />
    <glyph glyph-name="Iacute" unicode="&#xcd;" horiz-adv-x="204" 
d="M46 686q1 34 23 49.5t47 15t45.5 -17t18.5 -47.5q-3 -36 -5.5 -71.5t-4.5 -70.5q-2 -63 -4 -126.5t-1 -126.5q1 -32 2 -69.5t2.5 -76.5t3 -76.5t4.5 -68.5q1 -26 -19 -46.5t-48 -20.5q-26 -2 -46 18t-21 49q-3 35 -5 70.5t-3 70.5q-2 32 -2.5 69.5t-1 76.5t-0.5 76.5
t1 69.5q2 63 5.5 126.5t8.5 126.5zM203 954q3 -20 -8.5 -42.5t-30 -44.5t-39.5 -40.5t-36 -29.5q-16 -12 -32.5 -8.5t-26 15t-9 27.5t18.5 30q28 20 48.5 46t37.5 57q7 12 18.5 16.5t23 3t21.5 -9t14 -20.5z" />
    <glyph glyph-name="Icircumflex" unicode="&#xce;" horiz-adv-x="204" 
d="M46 686q1 34 23 49.5t47 15t45.5 -17t18.5 -47.5q-3 -36 -5.5 -71.5t-4.5 -70.5q-2 -63 -4 -126.5t-1 -126.5q1 -32 2 -69.5t2.5 -76.5t3 -76.5t4.5 -68.5q1 -26 -19 -46.5t-48 -20.5q-26 -2 -46 18t-21 49q-3 35 -5 70.5t-3 70.5q-2 32 -2.5 69.5t-1 76.5t-0.5 76.5
t1 69.5q2 63 5.5 126.5t8.5 126.5zM85 811q-11 -19 -27.5 -20.5t-30 7.5t-19.5 24.5t5 30.5q21 29 41 58.5t43 60.5q20 29 48 29t48 -35q13 -25 23 -49.5t27 -47.5q1 -2 4 -5q13 -14 11.5 -30.5t-12.5 -27.5t-27.5 -13.5t-31.5 11.5q-15 19 -27.5 39.5t-20.5 43.5
q-14 -20 -27 -38.5t-27 -37.5z" />
    <glyph glyph-name="Idieresis" unicode="&#xcf;" horiz-adv-x="204" 
d="M46 686q1 34 23 49.5t47 15t45.5 -17t18.5 -47.5q-3 -36 -5.5 -71.5t-4.5 -70.5q-2 -63 -4 -126.5t-1 -126.5q1 -32 2 -69.5t2.5 -76.5t3 -76.5t4.5 -68.5q1 -26 -19 -46.5t-48 -20.5q-26 -2 -46 18t-21 49q-3 35 -5 70.5t-3 70.5q-2 32 -2.5 69.5t-1 76.5t-0.5 76.5
t1 69.5q2 63 5.5 126.5t8.5 126.5zM59 881q18 0 29.5 -12t12.5 -30q1 -17 -12 -29t-30 -12q-18 0 -29 12t-12 29q-2 18 11 30t30 12zM193 800q-18 0 -30 12.5t-12 29.5q-1 17 12 29t30 12t29 -12t13 -29q0 -17 -12.5 -29.5t-29.5 -12.5z" />
    <glyph glyph-name="Yacute" unicode="&#xdd;" horiz-adv-x="625" 
d="M556 698q16 -118 25 -237t5 -246q-1 -45 -10 -96.5t-31 -96.5t-58.5 -78t-91.5 -42q-27 -4 -60 -3.5t-65 8t-60 23t-45 41.5q-11 21 -6 43.5t19.5 38.5t35.5 20.5t44 -10.5q33 -27 65 -31t58 10.5t43.5 44t23.5 70.5q6 51 5 103t-3 109q-20 -39 -46.5 -74.5t-58.5 -66.5
q-38 -36 -82.5 -55t-87 -16t-78 30t-55.5 84q-14 38 -16 79t-3 81q0 69 5.5 140.5t19.5 134.5q10 31 34 42t47.5 5t40 -27.5t10.5 -55.5q-12 -55 -16 -112.5t-6 -120.5q0 -64 11 -93.5t29 -34.5t40 10.5t45 43t43.5 63t34.5 69.5q20 47 35.5 96t30.5 99q7 25 25 38.5t39 15
t39.5 -10t25.5 -35.5zM413 954q3 -20 -8.5 -42.5t-30 -44.5t-39.5 -40.5t-36 -29.5q-16 -12 -32.5 -8.5t-26 15t-9 27.5t18.5 30q28 20 48.5 46t37.5 57q7 12 18.5 16.5t23 3t21.5 -9t14 -20.5z" />
    <glyph glyph-name="Udieresis" unicode="&#xdc;" horiz-adv-x="599" 
d="M451 740q11 21 33.5 27.5t44 1.5t36.5 -21.5t12 -41.5q-10 -180 -14 -364.5t2 -386.5q0 -33 -21 -48.5t-46.5 -15.5t-46.5 16t-21 48q-1 29 -1.5 57.5t-0.5 56.5q-24 -43 -57.5 -72.5t-70.5 -43.5t-75 -12.5t-72 18.5t-61 51t-42 85q-11 37 -15 76t-6 76q-3 68 -0.5 136
t6.5 138l9 174q3 23 14 38t26.5 22t32.5 6.5t31 -8t23 -22.5t8 -36q-2 -29 -3 -58t-3 -58q-5 -79 -10.5 -158t-0.5 -163q3 -73 16.5 -115t33 -58t43.5 -8.5t46.5 32t42 64t31.5 88.5q10 45 17.5 99t14 111t13.5 113.5t17 106.5q2 13 4.5 25.5t9.5 23.5zM235 902
q18 0 29.5 -12t12.5 -30q1 -17 -12 -29t-30 -12q-18 0 -29 12t-12 29q-2 18 11 30t30 12zM369 821q-18 0 -30 12.5t-12 29.5q-1 17 12 29t30 12t29 -12t13 -29q0 -17 -12.5 -29.5t-29.5 -12.5z" />
    <glyph glyph-name="Ucircumflex" unicode="&#xdb;" horiz-adv-x="599" 
d="M451 740q11 21 33.5 27.5t44 1.5t36.5 -21.5t12 -41.5q-10 -180 -14 -364.5t2 -386.5q0 -33 -21 -48.5t-46.5 -15.5t-46.5 16t-21 48q-1 29 -1.5 57.5t-0.5 56.5q-24 -43 -57.5 -72.5t-70.5 -43.5t-75 -12.5t-72 18.5t-61 51t-42 85q-11 37 -15 76t-6 76q-3 68 -0.5 136
t6.5 138l9 174q3 23 14 38t26.5 22t32.5 6.5t31 -8t23 -22.5t8 -36q-2 -29 -3 -58t-3 -58q-5 -79 -10.5 -158t-0.5 -163q3 -73 16.5 -115t33 -58t43.5 -8.5t46.5 32t42 64t31.5 88.5q10 45 17.5 99t14 111t13.5 113.5t17 106.5q2 13 4.5 25.5t9.5 23.5zM272 811
q-11 -19 -27.5 -20.5t-30 7.5t-19.5 24.5t5 30.5q21 29 41 58.5t43 60.5q20 29 48 29t48 -35q13 -25 23 -49.5t27 -47.5q1 -2 4 -5q13 -14 11.5 -30.5t-12.5 -27.5t-27.5 -13.5t-31.5 11.5q-15 19 -27.5 39.5t-20.5 43.5q-14 -20 -27 -38.5t-27 -37.5z" />
    <glyph glyph-name="Uacute" unicode="&#xda;" horiz-adv-x="599" 
d="M451 740q11 21 33.5 27.5t44 1.5t36.5 -21.5t12 -41.5q-10 -180 -14 -364.5t2 -386.5q0 -33 -21 -48.5t-46.5 -15.5t-46.5 16t-21 48q-1 29 -1.5 57.5t-0.5 56.5q-24 -43 -57.5 -72.5t-70.5 -43.5t-75 -12.5t-72 18.5t-61 51t-42 85q-11 37 -15 76t-6 76q-3 68 -0.5 136
t6.5 138l9 174q3 23 14 38t26.5 22t32.5 6.5t31 -8t23 -22.5t8 -36q-2 -29 -3 -58t-3 -58q-5 -79 -10.5 -158t-0.5 -163q3 -73 16.5 -115t33 -58t43.5 -8.5t46.5 32t42 64t31.5 88.5q10 45 17.5 99t14 111t13.5 113.5t17 106.5q2 13 4.5 25.5t9.5 23.5zM400 954
q3 -20 -8.5 -42.5t-30 -44.5t-39.5 -40.5t-36 -29.5q-16 -12 -32.5 -8.5t-26 15t-9 27.5t18.5 30q28 20 48.5 46t37.5 57q7 12 18.5 16.5t23 3t21.5 -9t14 -20.5z" />
    <glyph glyph-name="Ugrave" unicode="&#xd9;" horiz-adv-x="599" 
d="M451 740q11 21 33.5 27.5t44 1.5t36.5 -21.5t12 -41.5q-10 -180 -14 -364.5t2 -386.5q0 -33 -21 -48.5t-46.5 -15.5t-46.5 16t-21 48q-1 29 -1.5 57.5t-0.5 56.5q-24 -43 -57.5 -72.5t-70.5 -43.5t-75 -12.5t-72 18.5t-61 51t-42 85q-11 37 -15 76t-6 76q-3 68 -0.5 136
t6.5 138l9 174q3 23 14 38t26.5 22t32.5 6.5t31 -8t23 -22.5t8 -36q-2 -29 -3 -58t-3 -58q-5 -79 -10.5 -158t-0.5 -163q3 -73 16.5 -115t33 -58t43.5 -8.5t46.5 32t42 64t31.5 88.5q10 45 17.5 99t14 111t13.5 113.5t17 106.5q2 13 4.5 25.5t9.5 23.5zM264 960
q23 -26 48.5 -50.5t49.5 -47.5q18 -18 17 -34.5t-12 -26.5t-27 -11t-29 12q-29 23 -56 47.5t-50 51.5q-13 13 -13 29t13 30q11 11 29.5 11t29.5 -11z" />
    <glyph glyph-name="Odieresis" unicode="&#xd6;" horiz-adv-x="650" 
d="M537 611q38 -39 58.5 -90.5t25.5 -108t-4 -115.5t-31 -113.5t-56 -101.5t-77 -80q-40 -29 -85.5 -43.5t-92.5 -12.5q-59 3 -104 32t-76.5 74t-49 100.5t-20.5 111.5q-7 143 66 281q36 65 89.5 107t115 53.5t124.5 -10t117 -84.5zM487 343q4 33 0 67.5t-17.5 65.5
t-37.5 56t-58 39q-29 11 -54.5 7t-47 -18.5t-40 -37.5t-31.5 -49q-32 -66 -39.5 -146.5t18.5 -154.5q24 -66 68 -91t91 -4q35 16 60.5 46t43 67t28 77t16.5 76zM294 866q18 0 29.5 -12t12.5 -30q1 -17 -12 -29t-30 -12q-18 0 -29 12t-12 29q-2 18 11 30t30 12zM428 785
q-18 0 -30 12.5t-12 29.5q-1 17 12 29t30 12t29 -12t13 -29q0 -17 -12.5 -29.5t-29.5 -12.5z" />
    <glyph glyph-name="Otilde" unicode="&#xd5;" horiz-adv-x="650" 
d="M537 611q38 -39 58.5 -90.5t25.5 -108t-4 -115.5t-31 -113.5t-56 -101.5t-77 -80q-40 -29 -85.5 -43.5t-92.5 -12.5q-59 3 -104 32t-76.5 74t-49 100.5t-20.5 111.5q-7 143 66 281q36 65 89.5 107t115 53.5t124.5 -10t117 -84.5zM487 343q4 33 0 67.5t-17.5 65.5
t-37.5 56t-58 39q-29 11 -54.5 7t-47 -18.5t-40 -37.5t-31.5 -49q-32 -66 -39.5 -146.5t18.5 -154.5q24 -66 68 -91t91 -4q35 16 60.5 46t43 67t28 77t16.5 76zM431 785q-15 -5 -32.5 -4.5t-32.5 5.5q-33 11 -50 42q-9 15 -16 19.5t-12 2t-9.5 -10l-10.5 -17.5
q-5 -10 -12 -19.5t-15.5 -15.5t-19 -7t-23.5 5q-16 7 -19.5 24.5t4.5 33.5q7 15 16 29.5t19 27.5q21 26 54 37.5t66 -5.5q11 -5 19.5 -15t15.5 -21q12 -18 20.5 -25.5t15 -5t13.5 14t17 30.5q7 19 23.5 25.5t31.5 1.5t23 -21t-2 -42q-12 -29 -32 -52t-52 -37z" />
    <glyph glyph-name="Ocircumflex" unicode="&#xd4;" horiz-adv-x="650" 
d="M537 611q38 -39 58.5 -90.5t25.5 -108t-4 -115.5t-31 -113.5t-56 -101.5t-77 -80q-40 -29 -85.5 -43.5t-92.5 -12.5q-59 3 -104 32t-76.5 74t-49 100.5t-20.5 111.5q-7 143 66 281q36 65 89.5 107t115 53.5t124.5 -10t117 -84.5zM487 343q4 33 0 67.5t-17.5 65.5
t-37.5 56t-58 39q-29 11 -54.5 7t-47 -18.5t-40 -37.5t-31.5 -49q-32 -66 -39.5 -146.5t18.5 -154.5q24 -66 68 -91t91 -4q35 16 60.5 46t43 67t28 77t16.5 76zM302 790q-11 -19 -27.5 -20.5t-30 7.5t-19.5 24.5t5 30.5q21 29 41 58.5t43 60.5q20 29 48 29t48 -35
q13 -25 23 -49.5t27 -47.5q1 -2 4 -5q13 -14 11.5 -30.5t-12.5 -27.5t-27.5 -13.5t-31.5 11.5q-15 19 -27.5 39.5t-20.5 43.5q-14 -20 -27 -38.5t-27 -37.5z" />
    <glyph glyph-name="Oacute" unicode="&#xd3;" horiz-adv-x="650" 
d="M537 611q38 -39 58.5 -90.5t25.5 -108t-4 -115.5t-31 -113.5t-56 -101.5t-77 -80q-40 -29 -85.5 -43.5t-92.5 -12.5q-59 3 -104 32t-76.5 74t-49 100.5t-20.5 111.5q-7 143 66 281q36 65 89.5 107t115 53.5t124.5 -10t117 -84.5zM487 343q4 33 0 67.5t-17.5 65.5
t-37.5 56t-58 39q-29 11 -54.5 7t-47 -18.5t-40 -37.5t-31.5 -49q-32 -66 -39.5 -146.5t18.5 -154.5q24 -66 68 -91t91 -4q35 16 60.5 46t43 67t28 77t16.5 76zM442 941q3 -20 -8.5 -42.5t-30 -44.5t-39.5 -40.5t-36 -29.5q-16 -12 -32.5 -8.5t-26 15t-9 27.5t18.5 30
q28 20 48.5 46t37.5 57q7 12 18.5 16.5t23 3t21.5 -9t14 -20.5z" />
    <glyph glyph-name="Ograve" unicode="&#xd2;" horiz-adv-x="650" 
d="M537 611q38 -39 58.5 -90.5t25.5 -108t-4 -115.5t-31 -113.5t-56 -101.5t-77 -80q-40 -29 -85.5 -43.5t-92.5 -12.5q-59 3 -104 32t-76.5 74t-49 100.5t-20.5 111.5q-7 143 66 281q36 65 89.5 107t115 53.5t124.5 -10t117 -84.5zM487 343q4 33 0 67.5t-17.5 65.5
t-37.5 56t-58 39q-29 11 -54.5 7t-47 -18.5t-40 -37.5t-31.5 -49q-32 -66 -39.5 -146.5t18.5 -154.5q24 -66 68 -91t91 -4q35 16 60.5 46t43 67t28 77t16.5 76zM312 939q23 -26 48.5 -50.5t49.5 -47.5q18 -18 17 -34.5t-12 -26.5t-27 -11t-29 12q-29 23 -56 47.5t-50 51.5
q-13 13 -13 29t13 30q11 11 29.5 11t29.5 -11z" />
    <glyph glyph-name="Ntilde" unicode="&#xd1;" horiz-adv-x="643" 
d="M581 729q9 -41 16 -82.5t12 -83.5q14 -132 5.5 -270.5t-49.5 -281.5q-10 -37 -47 -47q-17 -5 -34.5 0t-30.5 18q-30 30 -51 66.5t-39 75.5q-45 93 -93 182.5t-104 180.5v-232q1 -59 1.5 -117t2.5 -116q0 -31 -21 -47.5t-46.5 -17t-46.5 15t-21 49.5q-1 37 -1 74.5
t-1 75.5q-1 66 -1 132.5v133.5q0 32 -0.5 64t0.5 64q2 33 7 69.5t24 72.5q9 16 24.5 24.5t33 8.5t33.5 -8.5t26 -24.5q62 -89 119 -181.5t112 -198.5q16 -29 30.5 -58.5t28.5 -59.5q1 3 1 6.5t1 5.5q14 87 12.5 177t-12.5 182q-7 55 -21 113q-8 33 9 54t42 26.5t49 -5
t30 -40.5zM397 800q-15 -5 -32.5 -4.5t-32.5 5.5q-33 11 -50 42q-9 15 -16 19.5t-12 2t-9.5 -10l-10.5 -17.5q-5 -10 -12 -19.5t-15.5 -15.5t-19 -7t-23.5 5q-16 7 -19.5 24.5t4.5 33.5q7 15 16 29.5t19 27.5q21 26 54 37.5t66 -5.5q11 -5 19.5 -15t15.5 -21
q12 -18 20.5 -25.5t15 -5t13.5 14t17 30.5q7 19 23.5 25.5t31.5 1.5t23 -21t-2 -42q-12 -29 -32 -52t-52 -37z" />
    <glyph glyph-name="agrave" unicode="&#xe0;" horiz-adv-x="534" 
d="M396 492q16 27 41.5 32t47 -4.5t34 -30.5t2.5 -46q-5 -31 -8.5 -62t-6.5 -63q-12 -143 3 -285q1 -21 -8 -35t-24 -21.5t-33 -8t-33 6.5t-25.5 21.5t-10.5 36.5q-2 11 -2.5 23t-1.5 24q-12 -11 -25 -19.5t-27 -15.5q-24 -12 -51.5 -19.5t-55.5 -8t-55.5 7t-51.5 25.5
q-26 18 -43.5 45t-27.5 58t-11 64.5t7 66.5q12 52 41.5 99.5t72 80.5t94.5 47.5t109 0.5q27 -6 49 -20zM233 150q29 10 49.5 30.5t35.5 47.5t25 56.5t18 57.5q-43 48 -87 38t-80 -58q-14 -18 -23.5 -51.5t-8.5 -64.5t17 -49.5t54 -6.5zM309 760q23 -26 48.5 -50.5
t49.5 -47.5q18 -18 17 -34.5t-12 -26.5t-27 -11t-29 12q-29 23 -56 47.5t-50 51.5q-13 13 -13 29t13 30q11 11 29.5 11t29.5 -11z" />
    <glyph glyph-name="aacute" unicode="&#xe1;" horiz-adv-x="534" 
d="M396 492q16 27 41.5 32t47 -4.5t34 -30.5t2.5 -46q-5 -31 -8.5 -62t-6.5 -63q-12 -143 3 -285q1 -21 -8 -35t-24 -21.5t-33 -8t-33 6.5t-25.5 21.5t-10.5 36.5q-2 11 -2.5 23t-1.5 24q-12 -11 -25 -19.5t-27 -15.5q-24 -12 -51.5 -19.5t-55.5 -8t-55.5 7t-51.5 25.5
q-26 18 -43.5 45t-27.5 58t-11 64.5t7 66.5q12 52 41.5 99.5t72 80.5t94.5 47.5t109 0.5q27 -6 49 -20zM233 150q29 10 49.5 30.5t35.5 47.5t25 56.5t18 57.5q-43 48 -87 38t-80 -58q-14 -18 -23.5 -51.5t-8.5 -64.5t17 -49.5t54 -6.5zM451 754q3 -20 -8.5 -42.5t-30 -44.5
t-39.5 -40.5t-36 -29.5q-16 -12 -32.5 -8.5t-26 15t-9 27.5t18.5 30q28 20 48.5 46t37.5 57q7 12 18.5 16.5t23 3t21.5 -9t14 -20.5z" />
    <glyph glyph-name="acircumflex" unicode="&#xe2;" horiz-adv-x="534" 
d="M396 492q16 27 41.5 32t47 -4.5t34 -30.5t2.5 -46q-5 -31 -8.5 -62t-6.5 -63q-12 -143 3 -285q1 -21 -8 -35t-24 -21.5t-33 -8t-33 6.5t-25.5 21.5t-10.5 36.5q-2 11 -2.5 23t-1.5 24q-12 -11 -25 -19.5t-27 -15.5q-24 -12 -51.5 -19.5t-55.5 -8t-55.5 7t-51.5 25.5
q-26 18 -43.5 45t-27.5 58t-11 64.5t7 66.5q12 52 41.5 99.5t72 80.5t94.5 47.5t109 0.5q27 -6 49 -20zM233 150q29 10 49.5 30.5t35.5 47.5t25 56.5t18 57.5q-43 48 -87 38t-80 -58q-14 -18 -23.5 -51.5t-8.5 -64.5t17 -49.5t54 -6.5zM292 611q-11 -19 -27.5 -20.5t-30 7.5
t-19.5 24.5t5 30.5q21 29 41 58.5t43 60.5q20 29 48 29t48 -35q13 -25 23 -49.5t27 -47.5q1 -2 4 -5q13 -14 11.5 -30.5t-12.5 -27.5t-27.5 -13.5t-31.5 11.5q-15 19 -27.5 39.5t-20.5 43.5q-14 -20 -27 -38.5t-27 -37.5z" />
    <glyph glyph-name="atilde" unicode="&#xe3;" horiz-adv-x="534" 
d="M396 492q16 27 41.5 32t47 -4.5t34 -30.5t2.5 -46q-5 -31 -8.5 -62t-6.5 -63q-12 -143 3 -285q1 -21 -8 -35t-24 -21.5t-33 -8t-33 6.5t-25.5 21.5t-10.5 36.5q-2 11 -2.5 23t-1.5 24q-12 -11 -25 -19.5t-27 -15.5q-24 -12 -51.5 -19.5t-55.5 -8t-55.5 7t-51.5 25.5
q-26 18 -43.5 45t-27.5 58t-11 64.5t7 66.5q12 52 41.5 99.5t72 80.5t94.5 47.5t109 0.5q27 -6 49 -20zM233 150q29 10 49.5 30.5t35.5 47.5t25 56.5t18 57.5q-43 48 -87 38t-80 -58q-14 -18 -23.5 -51.5t-8.5 -64.5t17 -49.5t54 -6.5zM407 596q-15 -5 -32.5 -4.5t-32.5 5.5
q-33 11 -50 42q-9 15 -16 19.5t-12 2t-9.5 -10l-10.5 -17.5q-5 -10 -12 -19.5t-15.5 -15.5t-19 -7t-23.5 5q-16 7 -19.5 24.5t4.5 33.5q7 15 16 29.5t19 27.5q21 26 54 37.5t66 -5.5q11 -5 19.5 -15t15.5 -21q12 -18 20.5 -25.5t15 -5t13.5 14t17 30.5q7 19 23.5 25.5
t31.5 1.5t23 -21t-2 -42q-12 -29 -32 -52t-52 -37z" />
    <glyph glyph-name="adieresis" unicode="&#xe4;" horiz-adv-x="534" 
d="M396 492q16 27 41.5 32t47 -4.5t34 -30.5t2.5 -46q-5 -31 -8.5 -62t-6.5 -63q-12 -143 3 -285q1 -21 -8 -35t-24 -21.5t-33 -8t-33 6.5t-25.5 21.5t-10.5 36.5q-2 11 -2.5 23t-1.5 24q-12 -11 -25 -19.5t-27 -15.5q-24 -12 -51.5 -19.5t-55.5 -8t-55.5 7t-51.5 25.5
q-26 18 -43.5 45t-27.5 58t-11 64.5t7 66.5q12 52 41.5 99.5t72 80.5t94.5 47.5t109 0.5q27 -6 49 -20zM233 150q29 10 49.5 30.5t35.5 47.5t25 56.5t18 57.5q-43 48 -87 38t-80 -58q-14 -18 -23.5 -51.5t-8.5 -64.5t17 -49.5t54 -6.5zM279 683q18 0 29.5 -12t12.5 -30
q1 -17 -12 -29t-30 -12q-18 0 -29 12t-12 29q-2 18 11 30t30 12zM413 602q-18 0 -30 12.5t-12 29.5q-1 17 12 29t30 12t29 -12t13 -29q0 -17 -12.5 -29.5t-29.5 -12.5z" />
    <glyph glyph-name="aring" unicode="&#xe5;" horiz-adv-x="534" 
d="M396 492q16 27 41.5 32t47 -4.5t34 -30.5t2.5 -46q-5 -31 -8.5 -62t-6.5 -63q-12 -143 3 -285q1 -21 -8 -35t-24 -21.5t-33 -8t-33 6.5t-25.5 21.5t-10.5 36.5q-2 11 -2.5 23t-1.5 24q-12 -11 -25 -19.5t-27 -15.5q-24 -12 -51.5 -19.5t-55.5 -8t-55.5 7t-51.5 25.5
q-26 18 -43.5 45t-27.5 58t-11 64.5t7 66.5q12 52 41.5 99.5t72 80.5t94.5 47.5t109 0.5q27 -6 49 -20zM233 150q29 10 49.5 30.5t35.5 47.5t25 56.5t18 57.5q-43 48 -87 38t-80 -58q-14 -18 -23.5 -51.5t-8.5 -64.5t17 -49.5t54 -6.5zM224 608q-26 11 -37.5 36.5t-5.5 53.5
q3 17 14.5 32t28 24.5t35.5 13.5t37 0q15 -2 28 -12t21 -23q11 -18 11.5 -43t-12.5 -45q-9 -14 -22.5 -24.5t-29.5 -15.5t-34 -5t-34 8zM298 707q-6 10 -17 11t-21.5 -3.5t-18.5 -14t-8 -19.5q1 -13 13 -21t34 1q17 7 20.5 21t-2.5 25z" />
    <glyph glyph-name="egrave" unicode="&#xe8;" horiz-adv-x="526" 
d="M440 173q22 1 37.5 -11t22.5 -30t4.5 -38.5t-17.5 -35.5q-25 -28 -61 -46.5t-76 -27.5t-81 -7.5t-77 14.5q-57 20 -97.5 65.5t-57.5 106.5q-17 64 -10 134.5t46 136.5q31 45 79 74t108 29q35 0 65.5 -12.5t54 -35t38.5 -53.5t19 -67q4 -52 -22.5 -88t-68.5 -55.5
t-91.5 -23t-91.5 10.5q7 -36 25.5 -58.5t44 -33t56.5 -9t63 13.5q11 5 21 13t20 15t21.5 12.5t25.5 6.5zM261 336q24 2 32.5 13t5.5 23.5t-16 22t-31 8.5q-21 -2 -39.5 -17.5t-34.5 -36.5q21 -7 41.5 -11.5t41.5 -1.5zM228 760q23 -26 48.5 -50.5t49.5 -47.5
q18 -18 17 -34.5t-12 -26.5t-27 -11t-29 12q-29 23 -56 47.5t-50 51.5q-13 13 -13 29t13 30q11 11 29.5 11t29.5 -11z" />
    <glyph glyph-name="eacute" unicode="&#xe9;" horiz-adv-x="526" 
d="M440 173q22 1 37.5 -11t22.5 -30t4.5 -38.5t-17.5 -35.5q-25 -28 -61 -46.5t-76 -27.5t-81 -7.5t-77 14.5q-57 20 -97.5 65.5t-57.5 106.5q-17 64 -10 134.5t46 136.5q31 45 79 74t108 29q35 0 65.5 -12.5t54 -35t38.5 -53.5t19 -67q4 -52 -22.5 -88t-68.5 -55.5
t-91.5 -23t-91.5 10.5q7 -36 25.5 -58.5t44 -33t56.5 -9t63 13.5q11 5 21 13t20 15t21.5 12.5t25.5 6.5zM261 336q24 2 32.5 13t5.5 23.5t-16 22t-31 8.5q-21 -2 -39.5 -17.5t-34.5 -36.5q21 -7 41.5 -11.5t41.5 -1.5zM363 754q3 -20 -8.5 -42.5t-30 -44.5t-39.5 -40.5
t-36 -29.5q-16 -12 -32.5 -8.5t-26 15t-9 27.5t18.5 30q28 20 48.5 46t37.5 57q7 12 18.5 16.5t23 3t21.5 -9t14 -20.5z" />
    <glyph glyph-name="ecircumflex" unicode="&#xea;" horiz-adv-x="526" 
d="M440 173q22 1 37.5 -11t22.5 -30t4.5 -38.5t-17.5 -35.5q-25 -28 -61 -46.5t-76 -27.5t-81 -7.5t-77 14.5q-57 20 -97.5 65.5t-57.5 106.5q-17 64 -10 134.5t46 136.5q31 45 79 74t108 29q35 0 65.5 -12.5t54 -35t38.5 -53.5t19 -67q4 -52 -22.5 -88t-68.5 -55.5
t-91.5 -23t-91.5 10.5q7 -36 25.5 -58.5t44 -33t56.5 -9t63 13.5q11 5 21 13t20 15t21.5 12.5t25.5 6.5zM261 336q24 2 32.5 13t5.5 23.5t-16 22t-31 8.5q-21 -2 -39.5 -17.5t-34.5 -36.5q21 -7 41.5 -11.5t41.5 -1.5zM214 611q-11 -19 -27.5 -20.5t-30 7.5t-19.5 24.5
t5 30.5q21 29 41 58.5t43 60.5q20 29 48 29t48 -35q13 -25 23 -49.5t27 -47.5q1 -2 4 -5q13 -14 11.5 -30.5t-12.5 -27.5t-27.5 -13.5t-31.5 11.5q-15 19 -27.5 39.5t-20.5 43.5q-14 -20 -27 -38.5t-27 -37.5z" />
    <glyph glyph-name="edieresis" unicode="&#xeb;" horiz-adv-x="526" 
d="M440 173q22 1 37.5 -11t22.5 -30t4.5 -38.5t-17.5 -35.5q-25 -28 -61 -46.5t-76 -27.5t-81 -7.5t-77 14.5q-57 20 -97.5 65.5t-57.5 106.5q-17 64 -10 134.5t46 136.5q31 45 79 74t108 29q35 0 65.5 -12.5t54 -35t38.5 -53.5t19 -67q4 -52 -22.5 -88t-68.5 -55.5
t-91.5 -23t-91.5 10.5q7 -36 25.5 -58.5t44 -33t56.5 -9t63 13.5q11 5 21 13t20 15t21.5 12.5t25.5 6.5zM261 336q24 2 32.5 13t5.5 23.5t-16 22t-31 8.5q-21 -2 -39.5 -17.5t-34.5 -36.5q21 -7 41.5 -11.5t41.5 -1.5zM205 669q18 0 29.5 -12t12.5 -30q1 -17 -12 -29
t-30 -12q-18 0 -29 12t-12 29q-2 18 11 30t30 12zM339 588q-18 0 -30 12.5t-12 29.5q-1 17 12 29t30 12t29 -12t13 -29q0 -17 -12.5 -29.5t-29.5 -12.5z" />
    <glyph glyph-name="igrave" unicode="&#xec;" horiz-adv-x="216" 
d="M52 452q4 29 28 41.5t49.5 9.5t43 -21.5t10.5 -52.5q-7 -38 -11.5 -87t-6 -100.5t-1 -101.5t4.5 -91q2 -19 -6 -33.5t-22 -22.5t-31.5 -9t-33 5.5t-27 21t-14.5 38.5q-3 42 -4 91.5t0.5 102.5t6.5 106.5t14 102.5zM115 737q23 -26 48.5 -50.5t49.5 -47.5q18 -18 17 -34.5
t-12 -26.5t-27 -11t-29 12q-29 23 -56 47.5t-50 51.5q-13 13 -13 29t13 30q11 11 29.5 11t29.5 -11z" />
    <glyph glyph-name="iacute" unicode="&#xed;" horiz-adv-x="216" 
d="M52 452q4 29 28 41.5t49.5 9.5t43 -21.5t10.5 -52.5q-7 -38 -11.5 -87t-6 -100.5t-1 -101.5t4.5 -91q2 -19 -6 -33.5t-22 -22.5t-31.5 -9t-33 5.5t-27 21t-14.5 38.5q-3 42 -4 91.5t0.5 102.5t6.5 106.5t14 102.5zM222 728q3 -20 -8.5 -42.5t-30 -44.5t-39.5 -40.5
t-36 -29.5q-16 -12 -32.5 -8.5t-26 15t-9 27.5t18.5 30q28 20 48.5 46t37.5 57q7 12 18.5 16.5t23 3t21.5 -9t14 -20.5z" />
    <glyph glyph-name="icircumflex" unicode="&#xee;" horiz-adv-x="216" 
d="M52 452q4 29 28 41.5t49.5 9.5t43 -21.5t10.5 -52.5q-7 -38 -11.5 -87t-6 -100.5t-1 -101.5t4.5 -91q2 -19 -6 -33.5t-22 -22.5t-31.5 -9t-33 5.5t-27 21t-14.5 38.5q-3 42 -4 91.5t0.5 102.5t6.5 106.5t14 102.5zM81 586q-11 -19 -27.5 -20.5t-30 7.5t-19.5 24.5t5 30.5
q21 29 41 58.5t43 60.5q20 29 48 29t48 -35q13 -25 23 -49.5t27 -47.5q1 -2 4 -5q13 -14 11.5 -30.5t-12.5 -27.5t-27.5 -13.5t-31.5 11.5q-15 19 -27.5 39.5t-20.5 43.5q-14 -20 -27 -38.5t-27 -37.5z" />
    <glyph glyph-name="idieresis" unicode="&#xef;" horiz-adv-x="216" 
d="M52 452q4 29 28 41.5t49.5 9.5t43 -21.5t10.5 -52.5q-7 -38 -11.5 -87t-6 -100.5t-1 -101.5t4.5 -91q2 -19 -6 -33.5t-22 -22.5t-31.5 -9t-33 5.5t-27 21t-14.5 38.5q-3 42 -4 91.5t0.5 102.5t6.5 106.5t14 102.5zM62 661q18 0 29.5 -12t12.5 -30q1 -17 -12 -29t-30 -12
q-18 0 -29 12t-12 29q-2 18 11 30t30 12zM196 580q-18 0 -30 12.5t-12 29.5q-1 17 12 29t30 12t29 -12t13 -29q0 -17 -12.5 -29.5t-29.5 -12.5z" />
    <glyph glyph-name="ntilde" unicode="&#xf1;" horiz-adv-x="593" 
d="M176 376q37 47 82.5 80t91.5 39t88 -20t72 -97q15 -36 26 -79t18.5 -86t12 -82.5t7.5 -69.5q2 -21 -7.5 -35t-24.5 -21.5t-33 -8t-33 6.5t-25.5 21.5t-10.5 36.5q-2 43 -9.5 86t-18.5 87q-18 75 -41 99.5t-55 -1.5q-19 -15 -34.5 -36t-29 -44t-25 -48.5t-23.5 -49.5
q-11 -24 -24 -47.5t-22 -48.5q-10 -28 -32 -42.5t-45 -13.5t-41 17.5t-18 51.5q1 23 1.5 46t2.5 46q5 82 11.5 163t16.5 162q4 35 26.5 50.5t48 14t44.5 -18.5t16 -46q-3 -24 -5.5 -47t-5.5 -46q-1 -5 -1 -9.5t-1 -9.5zM419 570q-15 -5 -32.5 -4.5t-32.5 5.5q-33 11 -50 42
q-9 15 -16 19.5t-12 2t-9.5 -10l-10.5 -17.5q-5 -10 -12 -19.5t-15.5 -15.5t-19 -7t-23.5 5q-16 7 -19.5 24.5t4.5 33.5q7 15 16 29.5t19 27.5q21 26 54 37.5t66 -5.5q11 -5 19.5 -15t15.5 -21q12 -18 20.5 -25.5t15 -5t13.5 14t17 30.5q7 19 23.5 25.5t31.5 1.5t23 -21
t-2 -42q-12 -29 -32 -52t-52 -37z" />
    <glyph glyph-name="ograve" unicode="&#xf2;" 
d="M410 481q33 -41 44 -98t2.5 -116.5t-35 -113.5t-67.5 -89q-33 -27 -72 -39.5t-78 -9t-74.5 22.5t-62.5 55q-33 41 -44.5 93.5t-4.5 107t30.5 106t61.5 89.5q33 36 72 54t79 17.5t78.5 -20t70.5 -59.5zM188 159q12 -9 26 -10t27.5 3.5t25.5 14t20 21.5q13 19 22.5 43
t14 49.5t3 51t-10.5 48.5q-17 39 -46 42.5t-54 -15.5q-19 -15 -33 -37t-22 -47.5t-10 -53t3 -51.5q3 -17 11 -32.5t23 -26.5zM223 791q23 -26 48.5 -50.5t49.5 -47.5q18 -18 17 -34.5t-12 -26.5t-27 -11t-29 12q-29 23 -56 47.5t-50 51.5q-13 13 -13 29t13 30q11 11 29.5 11
t29.5 -11z" />
    <glyph glyph-name="oacute" unicode="&#xf3;" 
d="M410 481q33 -41 44 -98t2.5 -116.5t-35 -113.5t-67.5 -89q-33 -27 -72 -39.5t-78 -9t-74.5 22.5t-62.5 55q-33 41 -44.5 93.5t-4.5 107t30.5 106t61.5 89.5q33 36 72 54t79 17.5t78.5 -20t70.5 -59.5zM188 159q12 -9 26 -10t27.5 3.5t25.5 14t20 21.5q13 19 22.5 43
t14 49.5t3 51t-10.5 48.5q-17 39 -46 42.5t-54 -15.5q-19 -15 -33 -37t-22 -47.5t-10 -53t3 -51.5q3 -17 11 -32.5t23 -26.5zM363 783q3 -20 -8.5 -42.5t-30 -44.5t-39.5 -40.5t-36 -29.5q-16 -12 -32.5 -8.5t-26 15t-9 27.5t18.5 30q28 20 48.5 46t37.5 57q7 12 18.5 16.5
t23 3t21.5 -9t14 -20.5z" />
    <glyph glyph-name="ocircumflex" unicode="&#xf4;" 
d="M410 481q33 -41 44 -98t2.5 -116.5t-35 -113.5t-67.5 -89q-33 -27 -72 -39.5t-78 -9t-74.5 22.5t-62.5 55q-33 41 -44.5 93.5t-4.5 107t30.5 106t61.5 89.5q33 36 72 54t79 17.5t78.5 -20t70.5 -59.5zM188 159q12 -9 26 -10t27.5 3.5t25.5 14t20 21.5q13 19 22.5 43
t14 49.5t3 51t-10.5 48.5q-17 39 -46 42.5t-54 -15.5q-19 -15 -33 -37t-22 -47.5t-10 -53t3 -51.5q3 -17 11 -32.5t23 -26.5zM215 653q-11 -19 -27.5 -20.5t-30 7.5t-19.5 24.5t5 30.5q21 29 41 58.5t43 60.5q20 29 48 29t48 -35q13 -25 23 -49.5t27 -47.5q1 -2 4 -5
q13 -14 11.5 -30.5t-12.5 -27.5t-27.5 -13.5t-31.5 11.5q-15 19 -27.5 39.5t-20.5 43.5q-14 -20 -27 -38.5t-27 -37.5z" />
    <glyph glyph-name="otilde" unicode="&#xf5;" 
d="M410 481q33 -41 44 -98t2.5 -116.5t-35 -113.5t-67.5 -89q-33 -27 -72 -39.5t-78 -9t-74.5 22.5t-62.5 55q-33 41 -44.5 93.5t-4.5 107t30.5 106t61.5 89.5q33 36 72 54t79 17.5t78.5 -20t70.5 -59.5zM188 159q12 -9 26 -10t27.5 3.5t25.5 14t20 21.5q13 19 22.5 43
t14 49.5t3 51t-10.5 48.5q-17 39 -46 42.5t-54 -15.5q-19 -15 -33 -37t-22 -47.5t-10 -53t3 -51.5q3 -17 11 -32.5t23 -26.5zM348 625q-15 -5 -32.5 -4.5t-32.5 5.5q-33 11 -50 42q-9 15 -16 19.5t-12 2t-9.5 -10l-10.5 -17.5q-5 -10 -12 -19.5t-15.5 -15.5t-19 -7t-23.5 5
q-16 7 -19.5 24.5t4.5 33.5q7 15 16 29.5t19 27.5q21 26 54 37.5t66 -5.5q11 -5 19.5 -15t15.5 -21q12 -18 20.5 -25.5t15 -5t13.5 14t17 30.5q7 19 23.5 25.5t31.5 1.5t23 -21t-2 -42q-12 -29 -32 -52t-52 -37z" />
    <glyph glyph-name="odieresis" unicode="&#xf6;" 
d="M410 481q33 -41 44 -98t2.5 -116.5t-35 -113.5t-67.5 -89q-33 -27 -72 -39.5t-78 -9t-74.5 22.5t-62.5 55q-33 41 -44.5 93.5t-4.5 107t30.5 106t61.5 89.5q33 36 72 54t79 17.5t78.5 -20t70.5 -59.5zM188 159q12 -9 26 -10t27.5 3.5t25.5 14t20 21.5q13 19 22.5 43
t14 49.5t3 51t-10.5 48.5q-17 39 -46 42.5t-54 -15.5q-19 -15 -33 -37t-22 -47.5t-10 -53t3 -51.5q3 -17 11 -32.5t23 -26.5zM205 716q18 0 29.5 -12t12.5 -30q1 -17 -12 -29t-30 -12q-18 0 -29 12t-12 29q-2 18 11 30t30 12zM339 635q-18 0 -30 12.5t-12 29.5q-1 17 12 29
t30 12t29 -12t13 -29q0 -17 -12.5 -29.5t-29.5 -12.5z" />
    <glyph glyph-name="ydieresis" unicode="&#xff;" horiz-adv-x="530" 
d="M367 510q7 26 28 37.5t43.5 8.5t40 -19t19.5 -45q2 -55 3 -108.5t1 -108.5q-1 -33 -0.5 -67t-0.5 -69t-5 -69.5t-13 -68.5q-5 -21 -13 -42t-20 -38q-17 -27 -41 -47.5t-52.5 -34t-60.5 -19t-65 -0.5q-75 7 -146 53q-23 15 -30 40q-5 14 -2.5 27t8.5 24t17.5 19.5
t23.5 12.5q11 3 25.5 1.5t25.5 -8.5q19 -12 40.5 -22.5t45.5 -13.5q46 -4 71.5 18t37 53t13.5 63.5t3 50.5q1 23 2 46.5t1 47.5q-39 -50 -79.5 -75.5t-79 -29.5t-72.5 12t-58.5 48t-38 79.5t-10.5 107.5q2 51 11 102t26 99q4 21 17.5 32t30 14t34 -2t30.5 -15.5t18 -27
t-2 -36.5q-15 -46 -24 -94.5t-7 -99.5q0 -78 32 -81t78 62q23 32 42 68t35 74l17 41v0zM225 740q18 0 29.5 -12t12.5 -30q1 -17 -12 -29t-30 -12q-18 0 -29 12t-12 29q-2 18 11 30t30 12zM359 659q-18 0 -30 12.5t-12 29.5q-1 17 12 29t30 12t29 -12t13 -29
q0 -17 -12.5 -29.5t-29.5 -12.5z" />
    <glyph glyph-name="yacute" unicode="&#xfd;" horiz-adv-x="530" 
d="M367 510q7 26 28 37.5t43.5 8.5t40 -19t19.5 -45q2 -55 3 -108.5t1 -108.5q-1 -33 -0.5 -67t-0.5 -69t-5 -69.5t-13 -68.5q-5 -21 -13 -42t-20 -38q-17 -27 -41 -47.5t-52.5 -34t-60.5 -19t-65 -0.5q-75 7 -146 53q-23 15 -30 40q-5 14 -2.5 27t8.5 24t17.5 19.5
t23.5 12.5q11 3 25.5 1.5t25.5 -8.5q19 -12 40.5 -22.5t45.5 -13.5q46 -4 71.5 18t37 53t13.5 63.5t3 50.5q1 23 2 46.5t1 47.5q-39 -50 -79.5 -75.5t-79 -29.5t-72.5 12t-58.5 48t-38 79.5t-10.5 107.5q2 51 11 102t26 99q4 21 17.5 32t30 14t34 -2t30.5 -15.5t18 -27
t-2 -36.5q-15 -46 -24 -94.5t-7 -99.5q0 -78 32 -81t78 62q23 32 42 68t35 74l17 41v0zM414 789q3 -20 -8.5 -42.5t-30 -44.5t-39.5 -40.5t-36 -29.5q-16 -12 -32.5 -8.5t-26 15t-9 27.5t18.5 30q28 20 48.5 46t37.5 57q7 12 18.5 16.5t23 3t21.5 -9t14 -20.5z" />
    <glyph glyph-name="udieresis" unicode="&#xfc;" horiz-adv-x="575" 
d="M526 457q6 -91 15 -189.5t25 -190.5q5 -30 -12 -50.5t-41 -27.5t-47.5 2.5t-30.5 38.5q-4 19 -6.5 37t-5.5 36q-14 -27 -36.5 -52.5t-51 -45t-61 -31t-66.5 -11.5q-60 -2 -97 25.5t-56.5 73t-24.5 103.5t-1.5 116t13.5 110.5t20 87.5q10 30 34.5 40.5t48.5 4t39.5 -28
t6.5 -53.5q-17 -65 -26.5 -135t0.5 -140q5 -34 17 -50.5t27.5 -19.5t33 5.5t34.5 25.5q28 28 46.5 66.5t30.5 81t19.5 86.5t13.5 83q4 25 24.5 41t44.5 18.5t44.5 -11t25.5 -46.5zM232 694q18 0 29.5 -12t12.5 -30q1 -17 -12 -29t-30 -12q-18 0 -29 12t-12 29q-2 18 11 30
t30 12zM366 613q-18 0 -30 12.5t-12 29.5q-1 17 12 29t30 12t29 -12t13 -29q0 -17 -12.5 -29.5t-29.5 -12.5z" />
    <glyph glyph-name="ucircumflex" unicode="&#xfb;" horiz-adv-x="575" 
d="M526 457q6 -91 15 -189.5t25 -190.5q5 -30 -12 -50.5t-41 -27.5t-47.5 2.5t-30.5 38.5q-4 19 -6.5 37t-5.5 36q-14 -27 -36.5 -52.5t-51 -45t-61 -31t-66.5 -11.5q-60 -2 -97 25.5t-56.5 73t-24.5 103.5t-1.5 116t13.5 110.5t20 87.5q10 30 34.5 40.5t48.5 4t39.5 -28
t6.5 -53.5q-17 -65 -26.5 -135t0.5 -140q5 -34 17 -50.5t27.5 -19.5t33 5.5t34.5 25.5q28 28 46.5 66.5t30.5 81t19.5 86.5t13.5 83q4 25 24.5 41t44.5 18.5t44.5 -11t25.5 -46.5zM254 602q-11 -19 -27.5 -20.5t-30 7.5t-19.5 24.5t5 30.5q21 29 41 58.5t43 60.5
q20 29 48 29t48 -35q13 -25 23 -49.5t27 -47.5q1 -2 4 -5q13 -14 11.5 -30.5t-12.5 -27.5t-27.5 -13.5t-31.5 11.5q-15 19 -27.5 39.5t-20.5 43.5q-14 -20 -27 -38.5t-27 -37.5z" />
    <glyph glyph-name="uacute" unicode="&#xfa;" horiz-adv-x="575" 
d="M526 457q6 -91 15 -189.5t25 -190.5q5 -30 -12 -50.5t-41 -27.5t-47.5 2.5t-30.5 38.5q-4 19 -6.5 37t-5.5 36q-14 -27 -36.5 -52.5t-51 -45t-61 -31t-66.5 -11.5q-60 -2 -97 25.5t-56.5 73t-24.5 103.5t-1.5 116t13.5 110.5t20 87.5q10 30 34.5 40.5t48.5 4t39.5 -28
t6.5 -53.5q-17 -65 -26.5 -135t0.5 -140q5 -34 17 -50.5t27.5 -19.5t33 5.5t34.5 25.5q28 28 46.5 66.5t30.5 81t19.5 86.5t13.5 83q4 25 24.5 41t44.5 18.5t44.5 -11t25.5 -46.5zM411 738q3 -20 -8.5 -42.5t-30 -44.5t-39.5 -40.5t-36 -29.5q-16 -12 -32.5 -8.5t-26 15
t-9 27.5t18.5 30q28 20 48.5 46t37.5 57q7 12 18.5 16.5t23 3t21.5 -9t14 -20.5z" />
    <glyph glyph-name="ugrave" unicode="&#xf9;" horiz-adv-x="575" 
d="M526 457q6 -91 15 -189.5t25 -190.5q5 -30 -12 -50.5t-41 -27.5t-47.5 2.5t-30.5 38.5q-4 19 -6.5 37t-5.5 36q-14 -27 -36.5 -52.5t-51 -45t-61 -31t-66.5 -11.5q-60 -2 -97 25.5t-56.5 73t-24.5 103.5t-1.5 116t13.5 110.5t20 87.5q10 30 34.5 40.5t48.5 4t39.5 -28
t6.5 -53.5q-17 -65 -26.5 -135t0.5 -140q5 -34 17 -50.5t27.5 -19.5t33 5.5t34.5 25.5q28 28 46.5 66.5t30.5 81t19.5 86.5t13.5 83q4 25 24.5 41t44.5 18.5t44.5 -11t25.5 -46.5zM252 760q23 -26 48.5 -50.5t49.5 -47.5q18 -18 17 -34.5t-12 -26.5t-27 -11t-29 12
q-29 23 -56 47.5t-50 51.5q-13 13 -13 29t13 30q11 11 29.5 11t29.5 -11z" />
    <glyph glyph-name="sterling" unicode="&#xa3;" horiz-adv-x="630" 
d="M386 275q-6 -6 -13.5 -8.5t-15.5 -3.5q-54 -3 -108 -3q-5 -81 -3 -164h6q28 3 67 6.5t80.5 6.5t79.5 5t64 2q20 -1 32.5 -11t18 -24.5t4.5 -30.5t-9 -29.5t-22 -21.5t-35 -6q-34 -1 -55.5 -2t-38 -3t-31.5 -3.5t-34.5 -3.5t-48.5 -3.5t-73 -2.5l-45 -6q-21 -2 -35 4h-98
q-21 1 -34.5 18t-13.5 43q-1 26 13.5 44t34.5 16h49q-2 42 -1.5 82.5t2.5 82.5h-19q-18 1 -29.5 13t-11.5 29q-1 17 11.5 29.5t29.5 11.5h25q3 34 8.5 73.5t15.5 79.5t25.5 76.5t40.5 65.5t59.5 47t81.5 20q53 3 102.5 -20t83.5 -68q24 -33 34.5 -70t11.5 -76t-5 -79
t-15 -80q-4 -28 -26.5 -40t-46 -9.5t-40.5 18t-11 43.5q5 23 12.5 64t5.5 83t-20 67.5t-43 34.5t-52 2t-48 -29q-14 -15 -21.5 -34.5t-12 -40.5t-6.5 -43t-4 -42q-2 -11 -2.5 -21t-1.5 -21q25 1 50.5 1.5t51.5 2.5q17 1 28.5 -12t12.5 -30q0 -7 -3 -15t-9 -15z" />
    <glyph glyph-name="at" unicode="@" horiz-adv-x="788" 
d="M511 469q12 -11 18 -35t12 -49q7 -30 19 -42t24.5 -11t24 13.5t17.5 31.5q9 32 0 70.5t-32 68.5q-31 38 -79.5 56t-99.5 13q-75 -9 -135.5 -53t-91.5 -116q-31 -77 -22 -170q9 -81 60 -138t139 -71q57 -10 118.5 0.5t108.5 45.5q17 14 33.5 24.5t34.5 12.5q28 2 47.5 -17
t19.5 -48q0 -19 -9.5 -34t-23.5 -28q-32 -29 -71.5 -49t-83.5 -30.5t-90.5 -12.5t-91.5 5q-94 13 -164 64.5t-111 125.5t-49.5 163t20.5 178q17 57 50.5 103.5t78.5 83.5q42 34 91.5 57t102 32.5t105.5 4.5t102 -28q44 -21 79 -53t57.5 -72t31.5 -86.5t0 -95.5
q-9 -39 -31 -77t-53.5 -65t-71.5 -39t-86 0l-2 1q-23 -32 -53.5 -50.5t-65.5 -23.5q-49 -6 -86 8t-61.5 41t-35 64t-5 76.5t26.5 78t61 69.5q23 15 48 22t52 9q8 1 17 0.5t17 -1.5q11 -2 21.5 -3t19.5 -5h1q13 2 26 -4.5t21 -14.5zM339 327q-14 -32 -4.5 -47.5t27 -15
t33 15.5t13.5 45q-2 16 -11.5 27t-29.5 4q-19 -9 -28 -29z" />
    <glyph glyph-name="asciicircum" unicode="^" horiz-adv-x="304" 
d="M199 728q17 -40 35.5 -82t40.5 -94q9 -19 2 -34.5t-21.5 -22.5t-30.5 -4.5t-23 19.5q-11 26 -22.5 53t-22.5 54q-14 -24 -25.5 -52.5t-23.5 -57.5q-10 -17 -26.5 -21.5t-30 1.5t-20.5 21t1 36q18 41 37 81t38 82l4 10t5 10q6 11 17 18t25 7q13 0 24 -6.5t17 -17.5z" />
    </font>
</defs>
</svg>
